<svg version="1.1" xmlns="http://www.w3.org/2000/svg" viewBox="0 0 989.1364494051372 558.0470051323889" width="1978.2728988102745" height="1116.0940102647778">
  <!-- svg-source:excalidraw -->
  
  <defs>
    <style>
      @font-face {
        font-family: "Virgil";
        src: url("/fonts/Virgil.woff2");
      }
      @font-face {
        font-family: "Cascadia";
        src: url("/fonts/Cascadia.woff2");
      }
    </style>
  </defs>
  <g transform="translate(767.7624386545108 101.9477968754575) rotate(0 100 21.5)"><text x="0" y="30" font-family="Virgil, Segoe UI Emoji" font-size="33.6432301410842px" fill="#000000" text-anchor="start" style="white-space: pre;" direction="ltr">Partner Org</text></g><g stroke-linecap="round" transform="translate(685.815706942919 88.11732144134493) rotate(0 33.327271133048384 35.76585194766169)"><path d="M0 0 C0 0, 0 0, 0 0 M0 0 C0 0, 0 0, 0 0 M0.13 12.04 C3.2 8.51, 6.27 4.98, 10.63 -0.03 M0.13 12.04 C2.4 9.43, 4.67 6.82, 10.63 -0.03 M0.27 24.08 C5.09 18.53, 9.92 12.98, 21.26 -0.07 M0.27 24.08 C5.86 17.64, 11.46 11.2, 21.26 -0.07 M-0.26 36.88 C7.95 27.44, 16.15 18.01, 31.89 -0.1 M-0.26 36.88 C7.77 27.65, 15.79 18.42, 31.89 -0.1 M-0.12 48.92 C9.28 38.1, 18.68 27.28, 42.52 -0.14 M-0.12 48.92 C11.39 35.68, 22.9 22.44, 42.52 -0.14 M0.01 60.96 C12.78 46.27, 25.55 31.58, 53.15 -0.17 M0.01 60.96 C15.56 43.07, 31.11 25.18, 53.15 -0.17 M0.8 72.25 C19.5 50.73, 38.2 29.22, 63.78 -0.21 M0.8 72.25 C15.68 55.13, 30.56 38.01, 63.78 -0.21 M11.43 72.21 C26.19 55.23, 40.96 38.24, 71.13 3.53 M11.43 72.21 C27.37 53.88, 43.3 35.54, 71.13 3.53 M22.06 72.18 C33.33 59.21, 44.59 46.25, 71.26 15.57 M22.06 72.18 C36.42 55.65, 50.78 39.13, 71.26 15.57 M32.69 72.14 C42.83 60.48, 52.97 48.81, 70.74 28.37 M32.69 72.14 C42.33 61.05, 51.97 49.97, 70.74 28.37 M43.32 72.11 C50.96 63.32, 58.6 54.52, 70.87 40.41 M43.32 72.11 C49.44 65.06, 55.56 58.02, 70.87 40.41 M53.95 72.07 C58.7 66.6, 63.46 61.13, 71.01 52.45 M53.95 72.07 C58.93 66.34, 63.91 60.62, 71.01 52.45 M64.58 72.04 C67.16 69.07, 69.74 66.1, 71.14 64.49 M64.58 72.04 C66.36 69.98, 68.15 67.93, 71.14 64.49 M0.05 71.58 C0.05 71.58, 0.05 71.58, 0.05 71.58 M0.05 71.58 C0.05 71.58, 0.05 71.58, 0.05 71.58 M12.09 71.45 C9.46 69.15, 6.82 66.86, 0.02 60.95 M12.09 71.45 C7.92 67.82, 3.74 64.19, 0.02 60.95 M24.14 71.31 C15.46 63.77, 6.79 56.23, -0.02 50.32 M24.14 71.31 C17.29 65.36, 10.45 59.41, -0.02 50.32 M36.93 71.83 C26.37 62.66, 15.81 53.48, -0.05 39.69 M36.93 71.83 C29.28 65.18, 21.62 58.53, -0.05 39.69 M48.97 71.7 C32.18 57.1, 15.39 42.51, -0.08 29.06 M48.97 71.7 C33.59 58.33, 18.21 44.96, -0.08 29.06 M61.01 71.57 C47.72 60.01, 34.42 48.45, -0.12 18.43 M61.01 71.57 C43.98 56.76, 26.94 41.95, -0.12 18.43 M69.28 68.16 C45.09 47.13, 20.9 26.1, -0.15 7.8 M69.28 68.16 C44.95 47.01, 20.62 25.86, -0.15 7.8 M69.25 57.53 C46.96 38.15, 24.67 18.78, 1.32 -1.52 M69.25 57.53 C52.73 43.17, 36.22 28.81, 1.32 -1.52 M69.21 46.89 C51.81 31.77, 34.42 16.65, 13.36 -1.65 M69.21 46.89 C56.31 35.68, 43.4 24.46, 13.36 -1.65 M69.18 36.26 C59.47 27.83, 49.77 19.39, 25.4 -1.79 M69.18 36.26 C58.58 27.05, 47.97 17.83, 25.4 -1.79 M69.14 25.63 C58.12 16.05, 47.1 6.47, 38.2 -1.26 M69.14 25.63 C58.25 16.17, 47.36 6.7, 38.2 -1.26 M69.11 15 C61.69 8.55, 54.27 2.1, 50.24 -1.4 M69.11 15 C63.88 10.46, 58.66 5.92, 50.24 -1.4 M69.83 5.03 C66.82 2.42, 63.82 -0.19, 62.28 -1.53 M69.83 5.03 C67.8 3.27, 65.77 1.5, 62.28 -1.53" stroke="#15aabf88" stroke-width="1" fill="none"></path><path d="M0 0 C15.45 0, 30.91 0, 66.65 0 M0 0 C17.65 0, 35.3 0, 66.65 0 M66.65 0 C66.65 27.72, 66.65 55.45, 66.65 71.53 M66.65 0 C66.65 20.76, 66.65 41.52, 66.65 71.53 M66.65 71.53 C48.06 71.53, 29.47 71.53, 0 71.53 M66.65 71.53 C43.88 71.53, 21.1 71.53, 0 71.53 M0 71.53 C0 47.03, 0 22.53, 0 0 M0 71.53 C0 55.03, 0 38.52, 0 0" stroke="#0b7285" stroke-width="2" fill="none"></path></g><g stroke-linecap="round"><g transform="translate(741.1716974488227 138.00852925974934) rotate(0 -21.205463095097116 -14.727863125857809)"><path d="M0 0 C1 -1.09, 5.31 -4.17, 5.97 -6.55 C6.63 -8.93, 5.74 -12.55, 3.98 -14.29 C2.22 -16.03, -3.08 -16.42, -4.59 -17.01 C-6.1 -17.6, -4.86 -17.1, -5.09 -17.85 C-5.33 -18.6, -5.15 -20.62, -6 -21.51 C-6.85 -22.41, -8.85 -23.35, -10.19 -23.23 C-11.52 -23.12, -13.3 -21.15, -14.01 -20.82 C-14.72 -20.48, -13.38 -20.1, -14.43 -21.2 C-15.47 -22.3, -17.88 -25.93, -20.3 -27.43 C-22.71 -28.93, -26.12 -30.31, -28.9 -30.19 C-31.69 -30.07, -35.02 -28.73, -37.01 -26.69 C-39 -24.64, -40.11 -19.63, -40.85 -17.92 C-41.59 -16.22, -40.38 -17.33, -41.46 -16.47 C-42.53 -15.61, -46.17 -14.64, -47.31 -12.75 C-48.46 -10.86, -48.96 -7.28, -48.32 -5.13 C-47.68 -2.98, -45.28 -0.8, -43.48 0.15 C-41.69 1.11, -39.69 0.53, -37.56 0.62 C-35.43 0.71, -36.94 0.8, -30.68 0.7 C-24.42 0.59, -5.11 0.12, 0 0 M0 0 C1 -1.09, 5.31 -4.17, 5.97 -6.55 C6.63 -8.93, 5.74 -12.55, 3.98 -14.29 C2.22 -16.03, -3.08 -16.42, -4.59 -17.01 C-6.1 -17.6, -4.86 -17.1, -5.09 -17.85 C-5.33 -18.6, -5.15 -20.62, -6 -21.51 C-6.85 -22.41, -8.85 -23.35, -10.19 -23.23 C-11.52 -23.12, -13.3 -21.15, -14.01 -20.82 C-14.72 -20.48, -13.38 -20.1, -14.43 -21.2 C-15.47 -22.3, -17.88 -25.93, -20.3 -27.43 C-22.71 -28.93, -26.12 -30.31, -28.9 -30.19 C-31.69 -30.07, -35.02 -28.73, -37.01 -26.69 C-39 -24.64, -40.11 -19.63, -40.85 -17.92 C-41.59 -16.22, -40.38 -17.33, -41.46 -16.47 C-42.53 -15.61, -46.17 -14.64, -47.31 -12.75 C-48.46 -10.86, -48.96 -7.28, -48.32 -5.13 C-47.68 -2.98, -45.28 -0.8, -43.48 0.15 C-41.69 1.11, -39.69 0.53, -37.56 0.62 C-35.43 0.71, -36.94 0.8, -30.68 0.7 C-24.42 0.59, -5.11 0.12, 0 0" stroke="#000000" stroke-width="2" fill="none"></path></g></g><g stroke-linecap="round" transform="translate(711.763462812942 123.3095211291307) rotate(0 5.654597939536188 5.183381444574884)"><path d="M0 0 C4.5 0, 8.99 0, 11.31 0 M0 0 C4.51 0, 9.02 0, 11.31 0 M11.31 0 C11.31 2.46, 11.31 4.92, 11.31 10.37 M11.31 0 C11.31 4.14, 11.31 8.28, 11.31 10.37 M11.31 10.37 C8.84 10.37, 6.37 10.37, 0 10.37 M11.31 10.37 C7.05 10.37, 2.79 10.37, 0 10.37 M0 10.37 C0 7.83, 0 5.3, 0 0 M0 10.37 C0 6.84, 0 3.31, 0 0" stroke="#000000" stroke-width="2" fill="none"></path></g><g stroke-linecap="round"><g transform="translate(712.0957731360618 123.16990142690491) rotate(0 3.1414432997423773 -3.142055231866358)"><path d="M0 0 C0.05 -0.23, 0.12 -0.81, 0.28 -1.4 C0.44 -1.98, 0.61 -2.89, 0.98 -3.49 C1.35 -4.1, 2 -4.58, 2.51 -5.03 C3.03 -5.47, 3.42 -5.93, 4.05 -6.14 C4.68 -6.35, 5.91 -6.26, 6.28 -6.28 M0 0 C0.05 -0.23, 0.12 -0.81, 0.28 -1.4 C0.44 -1.98, 0.61 -2.89, 0.98 -3.49 C1.35 -4.1, 2 -4.58, 2.51 -5.03 C3.03 -5.47, 3.42 -5.93, 4.05 -6.14 C4.68 -6.35, 5.91 -6.26, 6.28 -6.28" stroke="#000000" stroke-width="2" fill="none"></path></g></g><g stroke-linecap="round"><g transform="translate(722.7236094364869 123.2131758186577) rotate(0 -3.1414432997423773 -3.1420552318663653)"><path d="M0 0 C-0.05 -0.23, -0.12 -0.81, -0.28 -1.4 C-0.44 -1.98, -0.61 -2.89, -0.98 -3.49 C-1.35 -4.1, -2 -4.58, -2.51 -5.03 C-3.03 -5.47, -3.42 -5.93, -4.05 -6.14 C-4.68 -6.35, -5.91 -6.26, -6.28 -6.28 M0 0 C-0.05 -0.23, -0.12 -0.81, -0.28 -1.4 C-0.44 -1.98, -0.61 -2.89, -0.98 -3.49 C-1.35 -4.1, -2 -4.58, -2.51 -5.03 C-3.03 -5.47, -3.42 -5.93, -4.05 -6.14 C-4.68 -6.35, -5.91 -6.26, -6.28 -6.28" stroke="#000000" stroke-width="2" fill="none"></path></g></g><g transform="translate(126.5338509354226 106.71706959852679) rotate(0 71.5 21.5)"><text x="0" y="30" font-family="Virgil, Segoe UI Emoji" font-size="33.6432301410842px" fill="#000000" text-anchor="start" style="white-space: pre;" direction="ltr">Your Org</text></g><g stroke-linecap="round" transform="translate(287.38354654000113 91.83737540092801) rotate(0 33.32727113304833 35.76585194766169)"><path d="M0 0 C0 0, 0 0, 0 0 M0 0 C0 0, 0 0, 0 0 M0.13 12.04 C2.97 8.78, 5.8 5.52, 10.63 -0.03 M0.13 12.04 C2.41 9.42, 4.69 6.8, 10.63 -0.03 M0.27 24.08 C6.77 16.6, 13.28 9.11, 21.26 -0.07 M0.27 24.08 C4.87 18.79, 9.46 13.5, 21.26 -0.07 M-0.26 36.88 C6.59 29, 13.44 21.12, 31.89 -0.1 M-0.26 36.88 C6.9 28.65, 14.05 20.42, 31.89 -0.1 M-0.12 48.92 C11.92 35.07, 23.96 21.21, 42.52 -0.14 M-0.12 48.92 C11.74 35.27, 23.6 21.63, 42.52 -0.14 M0.01 60.96 C18.06 40.2, 36.11 19.43, 53.15 -0.17 M0.01 60.96 C18.1 40.15, 36.19 19.34, 53.15 -0.17 M0.8 72.25 C21.63 48.28, 42.46 24.32, 63.78 -0.21 M0.8 72.25 C23.55 46.07, 46.31 19.9, 63.78 -0.21 M11.43 72.21 C31.27 49.39, 51.11 26.56, 71.13 3.53 M11.43 72.21 C34.35 45.84, 57.28 19.47, 71.13 3.53 M22.06 72.18 C39.67 51.92, 57.28 31.66, 71.26 15.57 M22.06 72.18 C33.71 58.78, 45.35 45.38, 71.26 15.57 M32.69 72.14 C46.55 56.2, 60.4 40.26, 70.74 28.37 M32.69 72.14 C41.3 62.24, 49.91 52.33, 70.74 28.37 M43.32 72.11 C50.41 63.95, 57.49 55.8, 70.87 40.41 M43.32 72.11 C49.72 64.75, 56.11 57.39, 70.87 40.41 M53.95 72.07 C59.05 66.21, 64.14 60.35, 71.01 52.45 M53.95 72.07 C60.77 64.23, 67.59 56.39, 71.01 52.45 M64.58 72.04 C66.63 69.68, 68.68 67.32, 71.14 64.49 M64.58 72.04 C66.12 70.27, 67.66 68.5, 71.14 64.49 M0.05 71.58 C0.05 71.58, 0.05 71.58, 0.05 71.58 M0.05 71.58 C0.05 71.58, 0.05 71.58, 0.05 71.58 M12.09 71.45 C7.28 67.26, 2.46 63.07, 0.02 60.95 M12.09 71.45 C8.59 68.39, 5.08 65.34, 0.02 60.95 M24.14 71.31 C14.84 63.23, 5.55 55.16, -0.02 50.32 M24.14 71.31 C15.29 63.62, 6.44 55.93, -0.02 50.32 M36.93 71.83 C22.82 59.57, 8.71 47.3, -0.05 39.69 M36.93 71.83 C29.32 65.22, 21.7 58.6, -0.05 39.69 M48.97 71.7 C33.44 58.2, 17.91 44.7, -0.08 29.06 M48.97 71.7 C33.22 58.01, 17.48 44.32, -0.08 29.06 M61.01 71.57 C41.68 54.77, 22.36 37.96, -0.12 18.43 M61.01 71.57 C39.88 53.2, 18.75 34.83, -0.12 18.43 M69.28 68.16 C47.59 49.3, 25.89 30.44, -0.15 7.8 M69.28 68.16 C46.36 48.23, 23.44 28.3, -0.15 7.8 M69.25 57.53 C52.31 42.8, 35.37 28.08, 1.32 -1.52 M69.25 57.53 C53.32 43.68, 37.38 29.83, 1.32 -1.52 M69.21 46.89 C53.07 32.86, 36.92 18.82, 13.36 -1.65 M69.21 46.89 C56.77 36.08, 44.32 25.26, 13.36 -1.65 M69.18 36.26 C59.62 27.96, 50.07 19.66, 25.4 -1.79 M69.18 36.26 C53.58 22.7, 37.98 9.14, 25.4 -1.79 M69.14 25.63 C61.28 18.8, 53.42 11.97, 38.2 -1.26 M69.14 25.63 C60.24 17.89, 51.33 10.15, 38.2 -1.26 M69.11 15 C64.38 10.89, 59.65 6.78, 50.24 -1.4 M69.11 15 C62.42 9.19, 55.73 3.38, 50.24 -1.4 M69.83 5.03 C67.52 3.03, 65.22 1.02, 62.28 -1.53 M69.83 5.03 C67.77 3.24, 65.71 1.45, 62.28 -1.53" stroke="#4c6ef588" stroke-width="1" fill="none"></path><path d="M0 0 C18.68 0, 37.36 0, 66.65 0 M0 0 C19.55 0, 39.11 0, 66.65 0 M66.65 0 C66.65 18.44, 66.65 36.88, 66.65 71.53 M66.65 0 C66.65 27.48, 66.65 54.96, 66.65 71.53 M66.65 71.53 C44.32 71.53, 21.98 71.53, 0 71.53 M66.65 71.53 C46.89 71.53, 27.12 71.53, 0 71.53 M0 71.53 C0 48.74, 0 25.95, 0 0 M0 71.53 C0 45.14, 0 18.74, 0 0" stroke="#0091e2" stroke-width="2" fill="none"></path></g><g stroke-linecap="round" transform="translate(303.6479458236929 123.1626383738402) rotate(0 17.06287184935644 13.834760958937764)"><path d="M0 0 C11.12 0, 22.23 0, 34.13 0 M0 0 C12.7 0, 25.39 0, 34.13 0 M34.13 0 C34.13 8.89, 34.13 17.78, 34.13 27.67 M34.13 0 C34.13 8.96, 34.13 17.92, 34.13 27.67 M34.13 27.67 C22.88 27.67, 11.64 27.67, 0 27.67 M34.13 27.67 C21.37 27.67, 8.61 27.67, 0 27.67 M0 27.67 C0 19.48, 0 11.3, 0 0 M0 27.67 C0 16.97, 0 6.28, 0 0" stroke="#000000" stroke-width="2" fill="none"></path></g><g stroke-linecap="round"><g transform="translate(310.92215077099286 122.65799072408942) rotate(2.134459448127705 10.213183463203677 -9.151054409648303)"><path d="M0 0 C-0.09 -1.11, -0.92 -4.16, -0.55 -6.66 C-0.18 -9.15, 0.37 -13.03, 2.22 -14.97 C4.07 -16.92, 7.95 -18.3, 10.54 -18.3 C13.13 -18.3, 16.08 -16.64, 17.75 -14.97 C19.41 -13.31, 19.97 -10.72, 20.52 -8.32 C21.08 -5.92, 20.98 -1.85, 21.08 -0.55 M0 0 C-0.09 -1.11, -0.92 -4.16, -0.55 -6.66 C-0.18 -9.15, 0.37 -13.03, 2.22 -14.97 C4.07 -16.92, 7.95 -18.3, 10.54 -18.3 C13.13 -18.3, 16.08 -16.64, 17.75 -14.97 C19.41 -13.31, 19.97 -10.72, 20.52 -8.32 C21.08 -5.92, 20.98 -1.85, 21.08 -0.55" stroke="#000000" stroke-width="2" fill="none"></path></g></g><g stroke-linecap="round" transform="translate(316.18818195166455 130.14245933738596) rotate(0 4.436874865283983 4.436874865283997)"><path d="M8.87 4.44 C8.87 4.69, 8.85 4.95, 8.81 5.21 C8.76 5.46, 8.69 5.71, 8.61 5.95 C8.52 6.2, 8.41 6.43, 8.28 6.66 C8.15 6.88, 8 7.09, 7.84 7.29 C7.67 7.49, 7.49 7.67, 7.29 7.84 C7.09 8, 6.88 8.15, 6.66 8.28 C6.43 8.41, 6.2 8.52, 5.95 8.61 C5.71 8.69, 5.46 8.76, 5.21 8.81 C4.95 8.85, 4.69 8.87, 4.44 8.87 C4.18 8.87, 3.92 8.85, 3.67 8.81 C3.41 8.76, 3.16 8.69, 2.92 8.61 C2.68 8.52, 2.44 8.41, 2.22 8.28 C2 8.15, 1.78 8, 1.58 7.84 C1.39 7.67, 1.2 7.49, 1.04 7.29 C0.87 7.09, 0.72 6.88, 0.59 6.66 C0.47 6.43, 0.36 6.2, 0.27 5.95 C0.18 5.71, 0.11 5.46, 0.07 5.21 C0.02 4.95, 0 4.69, 0 4.44 C0 4.18, 0.02 3.92, 0.07 3.67 C0.11 3.41, 0.18 3.16, 0.27 2.92 C0.36 2.68, 0.47 2.44, 0.59 2.22 C0.72 2, 0.87 1.78, 1.04 1.58 C1.2 1.39, 1.39 1.2, 1.58 1.04 C1.78 0.87, 2 0.72, 2.22 0.59 C2.44 0.47, 2.68 0.36, 2.92 0.27 C3.16 0.18, 3.41 0.11, 3.67 0.07 C3.92 0.02, 4.18 0, 4.44 0 C4.69 0, 4.95 0.02, 5.21 0.07 C5.46 0.11, 5.71 0.18, 5.95 0.27 C6.2 0.36, 6.43 0.47, 6.66 0.59 C6.88 0.72, 7.09 0.87, 7.29 1.04 C7.49 1.2, 7.67 1.39, 7.84 1.58 C8 1.78, 8.15 2, 8.28 2.22 C8.41 2.44, 8.52 2.68, 8.61 2.92 C8.69 3.16, 8.76 3.41, 8.81 3.67 C8.85 3.92, 8.86 4.31, 8.87 4.44 C8.88 4.57, 8.88 4.31, 8.87 4.44" stroke="#000000" stroke-width="2" fill="none"></path></g><g stroke-linecap="round"><g transform="translate(320.63057226065234 139.29627146890704) rotate(0 0 4.159570186203794)"><path d="M0 0 C0 1.39, 0 6.93, 0 8.32 M0 0 C0 1.39, 0 6.93, 0 8.32" stroke="#000000" stroke-width="2" fill="none"></path></g></g><g stroke-opacity="0.8" fill-opacity="0.8" stroke-linecap="round" transform="translate(397.3374950404748 10) rotate(0 6.852283752850724 266.0559075811321)"><path d="M0 0 C0 0, 0 0, 0 0 M0 0 C0 0, 0 0, 0 0 M-0.26 6.4 C0.95 5, 2.16 3.61, 4.99 0.36 M-0.26 6.4 C1.03 4.92, 2.32 3.43, 4.99 0.36 M0.13 12.04 C3.91 7.7, 7.68 3.35, 10.63 -0.03 M0.13 12.04 C3.2 8.51, 6.27 4.98, 10.63 -0.03 M-0.13 18.44 C3.14 14.68, 6.4 10.93, 14.96 1.08 M-0.13 18.44 C3.34 14.45, 6.81 10.46, 14.96 1.08 M0.27 24.08 C4.11 19.65, 7.96 15.23, 14.7 7.48 M0.27 24.08 C3.95 19.85, 7.63 15.61, 14.7 7.48 M0 30.48 C3.77 26.15, 7.54 21.82, 15.09 13.12 M0 30.48 C3.33 26.65, 6.66 22.82, 15.09 13.12 M-0.26 36.88 C3.82 32.19, 7.89 27.51, 14.83 19.52 M-0.26 36.88 C3.37 32.71, 6.99 28.54, 14.83 19.52 M0.14 42.52 C4.55 37.44, 8.97 32.36, 15.23 25.16 M0.14 42.52 C4.62 37.37, 9.1 32.21, 15.23 25.16 M-0.12 48.92 C3.44 44.82, 7.01 40.71, 14.97 31.56 M-0.12 48.92 C3.61 44.63, 7.34 40.33, 14.97 31.56 M0.27 54.56 C4.12 50.13, 7.98 45.7, 14.7 37.96 M0.27 54.56 C3.58 50.76, 6.88 46.96, 14.7 37.96 M0.01 60.96 C4.41 55.89, 8.82 50.83, 15.1 43.6 M0.01 60.96 C4.03 56.33, 8.05 51.71, 15.1 43.6 M-0.25 67.36 C3.57 62.96, 7.39 58.56, 14.84 50 M-0.25 67.36 C3.93 62.54, 8.12 57.73, 14.84 50 M0.14 73 C3.5 69.14, 6.85 65.29, 15.23 55.64 M0.14 73 C4.35 68.16, 8.55 63.32, 15.23 55.64 M-0.12 79.4 C4.29 74.33, 8.69 69.26, 14.97 62.04 M-0.12 79.4 C5.81 72.57, 11.75 65.75, 14.97 62.04 M0.28 85.04 C4.2 80.52, 8.13 76.01, 14.71 68.44 M0.28 85.04 C3.96 80.8, 7.65 76.55, 14.71 68.44 M0.01 91.44 C5.78 84.8, 11.55 78.17, 15.1 74.08 M0.01 91.44 C3.31 87.65, 6.61 83.85, 15.1 74.08 M-0.25 97.84 C4.97 91.83, 10.19 85.83, 14.84 80.48 M-0.25 97.84 C5.17 91.6, 10.59 85.37, 14.84 80.48 M0.15 103.48 C4.42 98.56, 8.7 93.64, 15.24 86.12 M0.15 103.48 C4.46 98.52, 8.76 93.57, 15.24 86.12 M-0.11 109.88 C3.01 106.28, 6.13 102.69, 14.98 92.52 M-0.11 109.88 C5.05 103.94, 10.22 97.99, 14.98 92.52 M0.28 115.52 C4.81 110.31, 9.33 105.11, 14.71 98.92 M0.28 115.52 C3.42 111.91, 6.56 108.3, 14.71 98.92 M0.02 121.92 C4.22 117.08, 8.43 112.24, 15.11 104.56 M0.02 121.92 C5.28 115.87, 10.53 109.82, 15.11 104.56 M-0.24 128.32 C5.05 122.23, 10.33 116.15, 14.85 110.96 M-0.24 128.32 C4.71 122.62, 9.66 116.92, 14.85 110.96 M0.15 133.96 C3.82 129.74, 7.49 125.52, 15.24 116.6 M0.15 133.96 C4.85 128.55, 9.55 123.14, 15.24 116.6 M-0.11 140.36 C3.38 136.35, 6.86 132.34, 14.98 123 M-0.11 140.36 C3.24 136.51, 6.58 132.66, 14.98 123 M0.29 146 C3.78 141.98, 7.28 137.96, 14.72 129.4 M0.29 146 C5.43 140.08, 10.57 134.17, 14.72 129.4 M0.02 152.4 C5.33 146.29, 10.64 140.18, 15.11 135.04 M0.02 152.4 C5.96 145.57, 11.89 138.74, 15.11 135.04 M-0.24 158.8 C3.94 153.99, 8.12 149.18, 14.85 141.44 M-0.24 158.8 C5.77 151.89, 11.77 144.98, 14.85 141.44 M0.16 164.44 C4.21 159.77, 8.27 155.11, 15.25 147.08 M0.16 164.44 C3.6 160.47, 7.05 156.51, 15.25 147.08 M-0.1 170.84 C3.03 167.23, 6.17 163.62, 14.99 153.48 M-0.1 170.84 C5.06 164.89, 10.23 158.95, 14.99 153.48 M0.29 176.48 C4.58 171.55, 8.86 166.62, 14.72 159.88 M0.29 176.48 C3.22 173.1, 6.16 169.73, 14.72 159.88 M0.03 182.88 C5.38 176.72, 10.74 170.56, 15.12 165.52 M0.03 182.88 C4.35 177.91, 8.67 172.94, 15.12 165.52 M-0.23 189.27 C4.46 183.88, 9.15 178.48, 14.86 171.92 M-0.23 189.27 C4.06 184.33, 8.36 179.39, 14.86 171.92 M0.16 194.92 C4.65 189.76, 9.13 184.6, 15.25 177.56 M0.16 194.92 C4.94 189.42, 9.72 183.92, 15.25 177.56 M-0.1 201.32 C5.1 195.34, 10.29 189.36, 14.99 183.96 M-0.1 201.32 C4.89 195.58, 9.87 189.85, 14.99 183.96 M0.3 206.96 C4.24 202.42, 8.19 197.87, 14.73 190.36 M0.3 206.96 C4.79 201.79, 9.28 196.62, 14.73 190.36 M0.03 213.36 C5.93 206.57, 11.83 199.78, 15.12 196 M0.03 213.36 C4.38 208.35, 8.73 203.35, 15.12 196 M-0.23 219.75 C5.53 213.13, 11.29 206.5, 14.86 202.4 M-0.23 219.75 C4.88 213.87, 10 207.99, 14.86 202.4 M0.17 225.4 C3.24 221.87, 6.3 218.34, 15.26 208.04 M0.17 225.4 C6.16 218.51, 12.14 211.62, 15.26 208.04 M-0.09 231.8 C5.63 225.21, 11.35 218.63, 14.99 214.44 M-0.09 231.8 C3.8 227.32, 7.69 222.84, 14.99 214.44 M0.3 237.44 C4.54 232.57, 8.77 227.69, 14.73 220.83 M0.3 237.44 C5.87 231.03, 11.44 224.63, 14.73 220.83 M0.04 243.84 C4.31 238.92, 8.58 234.01, 15.13 226.48 M0.04 243.84 C4.85 238.31, 9.65 232.78, 15.13 226.48 M-0.22 250.23 C4.8 244.46, 9.82 238.68, 14.87 232.88 M-0.22 250.23 C3.93 245.46, 8.08 240.69, 14.87 232.88 M0.17 255.88 C5.74 249.48, 11.3 243.07, 15.26 238.52 M0.17 255.88 C5.62 249.61, 11.06 243.35, 15.26 238.52 M-0.09 262.27 C5.22 256.16, 10.53 250.05, 15 244.92 M-0.09 262.27 C5.57 255.77, 11.23 249.26, 15 244.92 M0.3 267.92 C5.68 261.74, 11.05 255.56, 14.74 251.31 M0.3 267.92 C3.42 264.34, 6.53 260.75, 14.74 251.31 M0.04 274.32 C5.2 268.39, 10.35 262.46, 15.13 256.96 M0.04 274.32 C4.37 269.33, 8.71 264.35, 15.13 256.96 M-0.22 280.71 C4.13 275.71, 8.48 270.7, 14.87 263.35 M-0.22 280.71 C4.38 275.42, 8.98 270.13, 14.87 263.35 M0.18 286.36 C3.96 282, 7.75 277.65, 15.27 269 M0.18 286.36 C4.75 281.1, 9.32 275.84, 15.27 269 M-0.08 292.75 C5.52 286.31, 11.12 279.87, 15 275.4 M-0.08 292.75 C3.54 288.59, 7.16 284.42, 15 275.4 M0.31 298.4 C5.92 291.94, 11.53 285.49, 14.74 281.79 M0.31 298.4 C3.27 294.99, 6.23 291.58, 14.74 281.79 M0.05 304.8 C5.09 298.99, 10.14 293.18, 15.14 287.44 M0.05 304.8 C3.44 300.9, 6.82 297, 15.14 287.44 M-0.21 311.19 C3.16 307.31, 6.54 303.42, 14.88 293.83 M-0.21 311.19 C3.81 306.56, 7.84 301.93, 14.88 293.83 M0.18 316.84 C5.48 310.74, 10.78 304.65, 15.27 299.48 M0.18 316.84 C3.97 312.47, 7.77 308.11, 15.27 299.48 M-0.08 323.23 C5.71 316.58, 11.49 309.92, 15.01 305.88 M-0.08 323.23 C3.72 318.86, 7.52 314.49, 15.01 305.88 M0.31 328.88 C3.98 324.67, 7.64 320.45, 14.75 312.27 M0.31 328.88 C4.71 323.82, 9.11 318.76, 14.75 312.27 M0.05 335.27 C3.9 330.85, 7.74 326.43, 15.14 317.92 M0.05 335.27 C3.29 331.56, 6.52 327.84, 15.14 317.92 M-0.21 341.67 C4.83 335.88, 9.86 330.09, 14.88 324.31 M-0.21 341.67 C5.21 335.44, 10.63 329.2, 14.88 324.31 M0.19 347.32 C5.99 340.64, 11.79 333.97, 15.28 329.96 M0.19 347.32 C4.7 342.12, 9.21 336.93, 15.28 329.96 M-0.08 353.71 C5.09 347.77, 10.26 341.83, 15.01 336.35 M-0.08 353.71 C5.66 347.11, 11.4 340.51, 15.01 336.35 M0.32 359.36 C4.33 354.74, 8.34 350.12, 14.75 342.75 M0.32 359.36 C5.26 353.68, 10.2 347.99, 14.75 342.75 M0.06 365.75 C4.44 360.72, 8.82 355.68, 15.15 348.4 M0.06 365.75 C4.94 360.14, 9.83 354.52, 15.15 348.4 M-0.2 372.15 C2.83 368.67, 5.86 365.18, 14.89 354.79 M-0.2 372.15 C3.86 367.47, 7.93 362.8, 14.89 354.79 M0.19 377.79 C3.92 373.5, 7.65 369.21, 15.28 360.44 M0.19 377.79 C5.26 371.96, 10.33 366.13, 15.28 360.44 M-0.07 384.19 C5.62 377.64, 11.32 371.09, 15.02 366.83 M-0.07 384.19 C4.42 379.02, 8.92 373.85, 15.02 366.83 M0.32 389.84 C5.27 384.15, 10.21 378.46, 14.76 373.23 M0.32 389.84 C5.44 383.95, 10.55 378.07, 14.76 373.23 M0.06 396.23 C5.97 389.44, 11.88 382.64, 15.15 378.88 M0.06 396.23 C5.12 390.42, 10.17 384.6, 15.15 378.88 M-0.2 402.63 C5.3 396.3, 10.8 389.97, 14.89 385.27 M-0.2 402.63 C4.43 397.31, 9.05 391.99, 14.89 385.27 M0.2 408.27 C5.78 401.85, 11.36 395.43, 14.63 391.67 M0.2 408.27 C5.66 401.99, 11.13 395.7, 14.63 391.67 M-0.07 414.67 C5.39 408.4, 10.85 402.12, 15.02 397.31 M-0.07 414.67 C4.63 409.27, 9.32 403.88, 15.02 397.31 M-0.33 421.07 C3.68 416.46, 7.69 411.85, 14.76 403.71 M-0.33 421.07 C4.47 415.55, 9.27 410.03, 14.76 403.71 M0.07 426.71 C3.7 422.53, 7.34 418.35, 15.16 409.35 M0.07 426.71 C4.24 421.91, 8.42 417.11, 15.16 409.35 M-0.19 433.11 C4.18 428.07, 8.56 423.04, 14.9 415.75 M-0.19 433.11 C4.82 427.35, 9.82 421.59, 14.9 415.75 M0.2 438.75 C5.53 432.62, 10.86 426.49, 14.63 422.15 M0.2 438.75 C4.58 433.72, 8.96 428.68, 14.63 422.15 M-0.06 445.15 C4.19 440.26, 8.45 435.36, 15.03 427.79 M-0.06 445.15 C4.33 440.1, 8.71 435.06, 15.03 427.79 M-0.32 451.55 C5.3 445.08, 10.93 438.61, 14.77 434.19 M-0.32 451.55 C3.92 446.67, 8.16 441.79, 14.77 434.19 M0.07 457.19 C3.42 453.34, 6.76 449.5, 15.16 439.83 M0.07 457.19 C5.43 451.03, 10.78 444.87, 15.16 439.83 M-0.19 463.59 C4.9 457.74, 9.98 451.89, 14.9 446.23 M-0.19 463.59 C4.21 458.53, 8.6 453.48, 14.9 446.23 M0.21 469.23 C3.81 465.09, 7.41 460.94, 14.64 452.63 M0.21 469.23 C5.63 463, 11.05 456.76, 14.64 452.63 M-0.06 475.63 C3.06 472.04, 6.18 468.46, 15.03 458.27 M-0.06 475.63 C3.04 472.07, 6.13 468.52, 15.03 458.27 M-0.32 482.03 C3.69 477.42, 7.69 472.82, 14.77 464.67 M-0.32 482.03 C4.13 476.91, 8.57 471.8, 14.77 464.67 M0.08 487.67 C5.9 480.97, 11.73 474.27, 15.17 470.31 M0.08 487.67 C4.37 482.73, 8.66 477.8, 15.17 470.31 M-0.18 494.07 C4.76 488.38, 9.7 482.7, 14.91 476.71 M-0.18 494.07 C5.02 488.09, 10.22 482.11, 14.91 476.71 M0.21 499.71 C5.1 494.08, 10 488.46, 14.64 483.11 M0.21 499.71 C5.73 493.36, 11.25 487.01, 14.64 483.11 M-0.05 506.11 C3.79 501.69, 7.64 497.26, 15.04 488.75 M-0.05 506.11 C3.7 501.8, 7.45 497.48, 15.04 488.75 M-0.31 512.51 C5.55 505.77, 11.4 499.03, 14.78 495.15 M-0.31 512.51 C4.86 506.56, 10.03 500.61, 14.78 495.15 M0.08 518.15 C3.47 514.25, 6.87 510.35, 15.17 500.79 M0.08 518.15 C3.41 514.33, 6.73 510.5, 15.17 500.79 M-0.18 524.55 C4.59 519.06, 9.37 513.57, 14.91 507.19 M-0.18 524.55 C5.84 517.63, 11.86 510.7, 14.91 507.19 M0.22 530.19 C5.62 523.97, 11.03 517.76, 14.65 513.59 M0.22 530.19 C5.47 524.15, 10.72 518.1, 14.65 513.59 M1.92 534.33 C6.71 528.82, 11.5 523.31, 15.04 519.23 M1.92 534.33 C6.85 528.65, 11.78 522.98, 15.04 519.23 M7.57 533.93 C9.01 532.27, 10.46 530.61, 14.78 525.63 M7.57 533.93 C9.55 531.65, 11.53 529.37, 14.78 525.63 M-0.07 532.05 C-0.07 532.05, -0.07 532.05, -0.07 532.05 M-0.07 532.05 C-0.07 532.05, -0.07 532.05, -0.07 532.05 M6.32 532.31 C4.16 530.43, 2 528.55, 0.29 527.06 M6.32 532.31 C4.89 531.06, 3.45 529.81, 0.29 527.06 M11.97 531.92 C8.5 528.9, 5.03 525.88, -0.11 521.42 M11.97 531.92 C7.82 528.31, 3.67 524.71, -0.11 521.42 M15.35 529.55 C11.38 526.1, 7.41 522.65, 0.25 516.43 M15.35 529.55 C11.87 526.53, 8.39 523.51, 0.25 516.43 M15.71 524.57 C10.29 519.86, 4.88 515.15, -0.14 510.79 M15.71 524.57 C10.37 519.93, 5.04 515.29, -0.14 510.79 M15.31 518.92 C10.94 515.12, 6.57 511.32, 0.22 505.8 M15.31 518.92 C10.51 514.75, 5.71 510.57, 0.22 505.8 M15.67 513.94 C11.28 510.12, 6.88 506.3, -0.18 500.16 M15.67 513.94 C11.62 510.42, 7.58 506.9, -0.18 500.16 M16.03 508.95 C10.14 503.82, 4.24 498.7, 0.18 495.17 M16.03 508.95 C11.92 505.38, 7.81 501.8, 0.18 495.17 M15.64 503.31 C11.95 500.1, 8.26 496.89, -0.21 489.53 M15.64 503.31 C11.24 499.48, 6.84 495.66, -0.21 489.53 M16 498.32 C12.78 495.52, 9.56 492.72, 0.15 484.54 M16 498.32 C11.22 494.16, 6.44 490.01, 0.15 484.54 M15.6 492.68 C12.34 489.84, 9.07 487, -0.25 478.9 M15.6 492.68 C9.71 487.56, 3.83 482.44, -0.25 478.9 M15.96 487.69 C12.22 484.43, 8.48 481.18, 0.11 473.91 M15.96 487.69 C9.88 482.4, 3.8 477.11, 0.11 473.91 M15.57 482.05 C11.53 478.54, 7.5 475.03, -0.28 468.27 M15.57 482.05 C10.87 477.96, 6.18 473.88, -0.28 468.27 M15.93 477.06 C11.45 473.16, 6.97 469.27, 0.08 463.28 M15.93 477.06 C10.61 472.44, 5.3 467.82, 0.08 463.28 M15.53 471.41 C10.85 467.35, 6.17 463.28, -0.31 457.64 M15.53 471.41 C12.34 468.64, 9.15 465.86, -0.31 457.64 M15.89 466.43 C10.91 462.09, 5.92 457.76, 0.05 452.65 M15.89 466.43 C11.52 462.62, 7.14 458.82, 0.05 452.65 M15.5 460.78 C10.68 456.6, 5.86 452.41, -0.35 447.01 M15.5 460.78 C11.89 457.65, 8.29 454.51, -0.35 447.01 M15.86 455.8 C11.7 452.19, 7.55 448.57, 0.01 442.02 M15.86 455.8 C12.42 452.81, 8.98 449.82, 0.01 442.02 M15.47 450.15 C10.69 446, 5.92 441.85, 0.37 437.03 M15.47 450.15 C10.86 446.15, 6.25 442.15, 0.37 437.03 M15.83 445.17 C12.4 442.19, 8.98 439.21, -0.02 431.39 M15.83 445.17 C11.72 441.6, 7.62 438.04, -0.02 431.39 M15.43 439.52 C12 436.54, 8.57 433.56, 0.34 426.4 M15.43 439.52 C10.06 434.85, 4.68 430.18, 0.34 426.4 M15.79 434.54 C12.22 431.43, 8.64 428.32, -0.06 420.76 M15.79 434.54 C9.55 429.12, 3.32 423.69, -0.06 420.76 M15.4 428.89 C9.5 423.77, 3.6 418.64, 0.3 415.77 M15.4 428.89 C10.98 425.06, 6.57 421.22, 0.3 415.77 M15.76 423.91 C11.01 419.78, 6.25 415.65, -0.09 410.13 M15.76 423.91 C10.94 419.72, 6.13 415.54, -0.09 410.13 M15.36 418.26 C12.03 415.37, 8.7 412.47, 0.27 405.14 M15.36 418.26 C12.09 415.42, 8.82 412.58, 0.27 405.14 M15.72 413.28 C12.44 410.43, 9.16 407.58, -0.13 399.5 M15.72 413.28 C9.98 408.28, 4.23 403.29, -0.13 399.5 M15.33 407.63 C9.44 402.52, 3.55 397.4, 0.23 394.51 M15.33 407.63 C11.97 404.71, 8.61 401.79, 0.23 394.51 M15.69 402.65 C11.34 398.86, 6.98 395.08, -0.16 388.87 M15.69 402.65 C11.99 399.43, 8.29 396.21, -0.16 388.87 M16.05 397.66 C12.38 394.48, 8.72 391.29, 0.2 383.88 M16.05 397.66 C9.8 392.23, 3.56 386.8, 0.2 383.88 M15.65 392.02 C9.47 386.64, 3.29 381.27, -0.2 378.24 M15.65 392.02 C11.36 388.28, 7.06 384.55, -0.2 378.24 M16.01 387.03 C10.69 382.41, 5.37 377.78, 0.16 373.25 M16.01 387.03 C12.75 384.2, 9.49 381.36, 0.16 373.25 M15.62 381.39 C9.29 375.88, 2.95 370.38, -0.23 367.61 M15.62 381.39 C10.55 376.98, 5.47 372.57, -0.23 367.61 M15.98 376.4 C10.36 371.51, 4.73 366.62, 0.13 362.62 M15.98 376.4 C10.86 371.95, 5.74 367.5, 0.13 362.62 M15.58 370.76 C10.69 366.5, 5.79 362.24, -0.26 356.98 M15.58 370.76 C10.57 366.4, 5.56 362.04, -0.26 356.98 M15.94 365.77 C9.62 360.27, 3.3 354.77, 0.1 351.99 M15.94 365.77 C12.75 362.99, 9.55 360.21, 0.1 351.99 M15.55 360.13 C11.05 356.22, 6.56 352.31, -0.3 346.35 M15.55 360.13 C11.02 356.19, 6.49 352.25, -0.3 346.35 M15.91 355.14 C12.13 351.86, 8.36 348.57, 0.06 341.36 M15.91 355.14 C11.34 351.17, 6.77 347.2, 0.06 341.36 M15.52 349.5 C11.58 346.08, 7.65 342.66, -0.33 335.72 M15.52 349.5 C10.04 344.73, 4.56 339.97, -0.33 335.72 M15.88 344.51 C11.09 340.35, 6.31 336.2, 0.03 330.73 M15.88 344.51 C12.39 341.48, 8.9 338.45, 0.03 330.73 M15.48 338.87 C10.95 334.93, 6.42 330.99, -0.37 325.09 M15.48 338.87 C10.67 334.69, 5.87 330.51, -0.37 325.09 M15.84 333.88 C11.43 330.05, 7.03 326.22, -0.01 320.1 M15.84 333.88 C12.28 330.78, 8.72 327.69, -0.01 320.1 M15.45 328.24 C11.81 325.08, 8.18 321.92, 0.35 315.12 M15.45 328.24 C11.57 324.87, 7.7 321.5, 0.35 315.12 M15.81 323.25 C10.81 318.91, 5.82 314.56, -0.04 309.47 M15.81 323.25 C10.72 318.83, 5.64 314.41, -0.04 309.47 M15.41 317.61 C10.65 313.47, 5.9 309.34, 0.32 304.49 M15.41 317.61 C9.46 312.43, 3.51 307.26, 0.32 304.49 M15.77 312.62 C12.28 309.58, 8.78 306.54, -0.08 298.84 M15.77 312.62 C10.75 308.25, 5.73 303.89, -0.08 298.84 M15.38 306.98 C11.28 303.42, 7.19 299.86, 0.28 293.86 M15.38 306.98 C9.4 301.78, 3.42 296.59, 0.28 293.86 M15.74 301.99 C11.6 298.39, 7.47 294.8, -0.11 288.21 M15.74 301.99 C12.36 299.05, 8.98 296.11, -0.11 288.21 M15.34 296.35 C11.86 293.32, 8.38 290.3, 0.25 283.23 M15.34 296.35 C11.85 293.31, 8.36 290.27, 0.25 283.23 M15.7 291.36 C9.96 286.37, 4.22 281.38, -0.15 277.58 M15.7 291.36 C9.37 285.85, 3.03 280.34, -0.15 277.58 M15.31 285.72 C11.18 282.13, 7.05 278.53, 0.21 272.6 M15.31 285.72 C9.86 280.98, 4.4 276.24, 0.21 272.6 M15.67 280.73 C10.75 276.45, 5.83 272.18, -0.18 266.95 M15.67 280.73 C11.58 277.18, 7.5 273.63, -0.18 266.95 M16.03 275.74 C12.21 272.42, 8.39 269.1, 0.18 261.97 M16.03 275.74 C10.69 271.1, 5.35 266.46, 0.18 261.97 M15.63 270.1 C10.09 265.28, 4.54 260.46, -0.22 256.32 M15.63 270.1 C9.96 265.16, 4.28 260.23, -0.22 256.32 M15.99 265.11 C10.73 260.54, 5.48 255.97, 0.14 251.34 M15.99 265.11 C9.66 259.6, 3.32 254.1, 0.14 251.34 M15.6 259.47 C9.5 254.16, 3.39 248.86, -0.25 245.69 M15.6 259.47 C11.42 255.84, 7.24 252.21, -0.25 245.69 M15.96 254.48 C11.12 250.28, 6.28 246.07, 0.11 240.7 M15.96 254.48 C11.48 250.59, 7 246.69, 0.11 240.7 M15.56 248.84 C9.55 243.61, 3.53 238.38, -0.28 235.06 M15.56 248.84 C10.39 244.34, 5.21 239.84, -0.28 235.06 M15.92 243.85 C11.49 240, 7.06 236.14, 0.08 230.07 M15.92 243.85 C12.62 240.98, 9.31 238.1, 0.08 230.07 M15.53 238.21 C9.88 233.3, 4.23 228.39, -0.32 224.43 M15.53 238.21 C10.92 234.2, 6.31 230.19, -0.32 224.43 M15.89 233.22 C10.62 228.64, 5.34 224.05, 0.04 219.44 M15.89 233.22 C11.27 229.21, 6.65 225.19, 0.04 219.44 M15.5 227.58 C9.19 222.09, 2.88 216.61, -0.35 213.8 M15.5 227.58 C10.9 223.58, 6.3 219.58, -0.35 213.8 M15.86 222.59 C11.08 218.44, 6.3 214.28, 0.01 208.81 M15.86 222.59 C10.54 217.97, 5.23 213.36, 0.01 208.81 M15.46 216.95 C11.75 213.72, 8.03 210.49, 0.37 203.83 M15.46 216.95 C11.7 213.68, 7.94 210.41, 0.37 203.83 M15.82 211.96 C9.76 206.7, 3.7 201.43, -0.03 198.18 M15.82 211.96 C12.09 208.72, 8.37 205.48, -0.03 198.18 M15.43 206.32 C10.87 202.36, 6.32 198.4, 0.33 193.2 M15.43 206.32 C11.15 202.6, 6.88 198.89, 0.33 193.2 M15.79 201.33 C10.54 196.77, 5.3 192.21, -0.06 187.55 M15.79 201.33 C9.82 196.14, 3.84 190.95, -0.06 187.55 M15.39 195.69 C11.99 192.73, 8.59 189.77, 0.3 182.57 M15.39 195.69 C10.89 191.77, 6.39 187.86, 0.3 182.57 M15.75 190.7 C11.59 187.08, 7.42 183.46, -0.1 176.92 M15.75 190.7 C12.01 187.45, 8.26 184.19, -0.1 176.92 M15.36 185.06 C10.27 180.64, 5.18 176.21, 0.26 171.94 M15.36 185.06 C9.46 179.93, 3.56 174.8, 0.26 171.94 M15.72 180.07 C11.72 176.6, 7.72 173.12, -0.13 166.29 M15.72 180.07 C9.69 174.83, 3.66 169.59, -0.13 166.29 M15.32 174.43 C12.07 171.6, 8.81 168.76, 0.23 161.31 M15.32 174.43 C11.58 171.17, 7.83 167.92, 0.23 161.31 M15.68 169.44 C10.4 164.85, 5.12 160.26, -0.17 155.66 M15.68 169.44 C11.45 165.76, 7.22 162.08, -0.17 155.66 M16.04 164.45 C11.28 160.31, 6.52 156.17, 0.19 150.68 M16.04 164.45 C10.53 159.66, 5.02 154.87, 0.19 150.68 M15.65 158.81 C10.91 154.69, 6.17 150.57, -0.2 145.03 M15.65 158.81 C11.79 155.45, 7.92 152.09, -0.2 145.03 M16.01 153.82 C11.43 149.84, 6.85 145.86, 0.16 140.05 M16.01 153.82 C10.33 148.89, 4.66 143.95, 0.16 140.05 M15.61 148.18 C10.82 144.01, 6.02 139.84, -0.23 134.4 M15.61 148.18 C10.07 143.36, 4.53 138.55, -0.23 134.4 M15.97 143.19 C10.61 138.53, 5.24 133.86, 0.13 129.42 M15.97 143.19 C10.61 138.53, 5.24 133.87, 0.13 129.42 M15.58 137.55 C11.53 134.03, 7.48 130.51, -0.27 123.77 M15.58 137.55 C10.61 133.23, 5.63 128.9, -0.27 123.77 M15.94 132.56 C11.72 128.9, 7.5 125.23, 0.09 118.79 M15.94 132.56 C10.58 127.9, 5.21 123.24, 0.09 118.79 M15.55 126.92 C11.9 123.75, 8.26 120.59, -0.3 113.14 M15.55 126.92 C9.9 122.01, 4.25 117.1, -0.3 113.14 M15.91 121.93 C10.39 117.14, 4.88 112.35, 0.06 108.16 M15.91 121.93 C9.6 116.45, 3.28 110.96, 0.06 108.16 M15.51 116.29 C11.45 112.76, 7.4 109.24, -0.34 102.51 M15.51 116.29 C9.36 110.95, 3.22 105.61, -0.34 102.51 M15.87 111.3 C10.81 106.91, 5.76 102.51, 0.02 97.53 M15.87 111.3 C10.35 106.5, 4.82 101.7, 0.02 97.53 M15.48 105.66 C10.34 101.19, 5.2 96.73, -0.37 91.88 M15.48 105.66 C12.16 102.78, 8.84 99.89, -0.37 91.88 M15.84 100.67 C9.9 95.51, 3.96 90.35, -0.01 86.9 M15.84 100.67 C12.49 97.76, 9.14 94.85, -0.01 86.9 M15.44 95.03 C9.65 89.99, 3.85 84.95, 0.35 81.91 M15.44 95.03 C10.72 90.92, 5.99 86.81, 0.35 81.91 M15.8 90.04 C9.95 84.96, 4.11 79.88, -0.05 76.27 M15.8 90.04 C9.49 84.55, 3.17 79.07, -0.05 76.27 M15.41 84.4 C10.21 79.88, 5.01 75.36, 0.31 71.28 M15.41 84.4 C11.16 80.71, 6.92 77.02, 0.31 71.28 M15.77 79.41 C12.35 76.44, 8.93 73.47, -0.08 65.64 M15.77 79.41 C10.81 75.11, 5.85 70.8, -0.08 65.64 M15.37 73.77 C11.24 70.18, 7.11 66.59, 0.28 60.65 M15.37 73.77 C9.53 68.69, 3.69 63.62, 0.28 60.65 M15.73 68.78 C11.18 64.82, 6.62 60.86, -0.12 55.01 M15.73 68.78 C10.22 63.99, 4.71 59.2, -0.12 55.01 M15.34 63.14 C9.31 57.9, 3.28 52.66, 0.24 50.02 M15.34 63.14 C9.39 57.97, 3.44 52.8, 0.24 50.02 M15.7 58.15 C12.26 55.16, 8.81 52.17, -0.15 44.38 M15.7 58.15 C11.15 54.2, 6.59 50.24, -0.15 44.38 M15.3 52.51 C10.64 48.46, 5.98 44.41, 0.21 39.39 M15.3 52.51 C9.92 47.83, 4.54 43.15, 0.21 39.39 M15.66 47.52 C10.97 43.44, 6.28 39.36, -0.18 33.75 M15.66 47.52 C10.81 43.31, 5.96 39.09, -0.18 33.75 M16.02 42.54 C10.5 37.74, 4.98 32.94, 0.18 28.76 M16.02 42.54 C12.54 39.51, 9.05 36.48, 0.18 28.76 M15.63 36.89 C11.26 33.09, 6.89 29.29, -0.22 23.12 M15.63 36.89 C9.77 31.8, 3.92 26.71, -0.22 23.12 M15.99 31.91 C12.44 28.82, 8.9 25.74, 0.14 18.13 M15.99 31.91 C12.51 28.88, 9.03 25.86, 0.14 18.13 M15.6 26.26 C9.79 21.22, 3.98 16.17, -0.25 12.49 M15.6 26.26 C11.89 23.05, 8.19 19.83, -0.25 12.49 M15.96 21.28 C12.78 18.52, 9.61 15.76, 0.11 7.5 M15.96 21.28 C11.5 17.4, 7.04 13.52, 0.11 7.5 M15.56 15.63 C11.79 12.36, 8.02 9.08, -0.29 1.86 M15.56 15.63 C11.69 12.27, 7.81 8.9, -0.29 1.86 M15.92 10.65 C11.59 6.88, 7.25 3.11, 1.58 -1.82 M15.92 10.65 C12.73 7.87, 9.54 5.1, 1.58 -1.82 M15.53 5 C13.87 3.56, 12.21 2.12, 7.98 -1.56 M15.53 5 C12.96 2.78, 10.4 0.55, 7.98 -1.56" stroke="#4c6ef588" stroke-width="0.5" fill="none"></path><path d="M0 0 C3.63 0, 7.26 0, 13.7 0 M13.7 0 C13.7 206.23, 13.7 412.46, 13.7 532.11 M13.7 532.11 C9.73 532.11, 5.75 532.11, 0 532.11 M0 532.11 C0 383.69, 0 235.26, 0 0" stroke="#364fc788" stroke-width="1.5" fill="none" stroke-dasharray="1.5 7"></path></g><g stroke-opacity="0.8" fill-opacity="0.8" stroke-linecap="round" transform="translate(638.2503660449293 11.405295078980885) rotate(0 6.927550180639287 266.4614943711797)"><path d="M0 0 C0 0, 0 0, 0 0 M0 0 C0 0, 0 0, 0 0 M-0.26 6.4 C1.13 4.8, 2.52 3.2, 4.99 0.36 M-0.26 6.4 C0.87 5.1, 2 3.8, 4.99 0.36 M0.13 12.04 C3.9 7.71, 7.66 3.38, 10.63 -0.03 M0.13 12.04 C4.05 7.54, 7.96 3.03, 10.63 -0.03 M-0.13 18.44 C5.46 12.01, 11.04 5.59, 14.96 1.08 M-0.13 18.44 C3.74 13.98, 7.62 9.53, 14.96 1.08 M0.27 24.08 C3.58 20.26, 6.9 16.45, 14.7 7.48 M0.27 24.08 C3.77 20.05, 7.28 16.02, 14.7 7.48 M0 30.48 C3.48 26.48, 6.96 22.48, 15.09 13.12 M0 30.48 C4.06 25.82, 8.11 21.16, 15.09 13.12 M-0.26 36.88 C3.25 32.84, 6.76 28.8, 14.83 19.52 M-0.26 36.88 C4.63 31.26, 9.52 25.63, 14.83 19.52 M0.14 42.52 C4.23 37.82, 8.32 33.11, 15.23 25.16 M0.14 42.52 C5.37 36.5, 10.61 30.47, 15.23 25.16 M-0.12 48.92 C5.33 42.64, 10.79 36.36, 14.97 31.56 M-0.12 48.92 C4.66 43.41, 9.45 37.91, 14.97 31.56 M0.27 54.56 C4.7 49.47, 9.13 44.37, 14.7 37.96 M0.27 54.56 C5.3 48.78, 10.32 43, 14.7 37.96 M0.01 60.96 C4.58 55.71, 9.14 50.45, 15.1 43.6 M0.01 60.96 C5.79 54.31, 11.57 47.66, 15.1 43.6 M-0.25 67.36 C4.94 61.38, 10.13 55.41, 14.84 50 M-0.25 67.36 C4.08 62.37, 8.42 57.39, 14.84 50 M0.14 73 C3.64 68.97, 7.14 64.95, 15.23 55.64 M0.14 73 C5.3 67.07, 10.46 61.13, 15.23 55.64 M-0.12 79.4 C5.6 72.82, 11.32 66.24, 14.97 62.04 M-0.12 79.4 C4.99 73.52, 10.1 67.65, 14.97 62.04 M0.28 85.04 C3.4 81.45, 6.52 77.86, 14.71 68.44 M0.28 85.04 C4.21 80.52, 8.14 75.99, 14.71 68.44 M0.01 91.44 C6.03 84.51, 12.05 77.59, 15.1 74.08 M0.01 91.44 C3.58 87.34, 7.14 83.24, 15.1 74.08 M-0.25 97.84 C2.97 94.14, 6.18 90.44, 14.84 80.48 M-0.25 97.84 C4.48 92.39, 9.21 86.95, 14.84 80.48 M0.15 103.48 C5.91 96.86, 11.66 90.23, 15.24 86.12 M0.15 103.48 C4.27 98.74, 8.39 93.99, 15.24 86.12 M-0.11 109.88 C3.97 105.18, 8.05 100.48, 14.98 92.52 M-0.11 109.88 C3.86 105.31, 7.82 100.75, 14.98 92.52 M0.28 115.52 C4.54 110.61, 8.81 105.71, 14.71 98.92 M0.28 115.52 C4.65 110.49, 9.02 105.47, 14.71 98.92 M0.02 121.92 C4.96 116.24, 9.9 110.55, 15.11 104.56 M0.02 121.92 C5.73 115.35, 11.44 108.78, 15.11 104.56 M-0.24 128.32 C4.28 123.12, 8.79 117.92, 14.85 110.96 M-0.24 128.32 C4.84 122.47, 9.91 116.63, 14.85 110.96 M0.15 133.96 C3.36 130.26, 6.58 126.57, 15.24 116.6 M0.15 133.96 C5.83 127.42, 11.52 120.89, 15.24 116.6 M-0.11 140.36 C5.07 134.4, 10.25 128.44, 14.98 123 M-0.11 140.36 C5.11 134.35, 10.33 128.34, 14.98 123 M0.29 146 C3.85 141.9, 7.42 137.8, 14.72 129.4 M0.29 146 C3.65 142.12, 7.02 138.25, 14.72 129.4 M0.02 152.4 C5.57 146.02, 11.11 139.65, 15.11 135.04 M0.02 152.4 C3.98 147.85, 7.93 143.3, 15.11 135.04 M-0.24 158.8 C3.39 154.62, 7.02 150.45, 14.85 141.44 M-0.24 158.8 C5.56 152.12, 11.36 145.45, 14.85 141.44 M0.16 164.44 C4.72 159.19, 9.28 153.94, 15.25 147.08 M0.16 164.44 C5.82 157.93, 11.47 151.42, 15.25 147.08 M-0.1 170.84 C4.34 165.73, 8.78 160.62, 14.99 153.48 M-0.1 170.84 C4.79 165.2, 9.69 159.57, 14.99 153.48 M0.29 176.48 C4.19 172, 8.08 167.52, 14.72 159.88 M0.29 176.48 C5.11 170.93, 9.94 165.38, 14.72 159.88 M0.03 182.88 C3.06 179.4, 6.08 175.91, 15.12 165.52 M0.03 182.88 C3.17 179.26, 6.31 175.65, 15.12 165.52 M-0.23 189.27 C5.54 182.64, 11.3 176, 14.86 171.92 M-0.23 189.27 C5.03 183.22, 10.29 177.17, 14.86 171.92 M0.16 194.92 C3.81 190.72, 7.45 186.53, 15.25 177.56 M0.16 194.92 C3.92 190.6, 7.67 186.28, 15.25 177.56 M-0.1 201.32 C5.06 195.38, 10.23 189.44, 14.99 183.96 M-0.1 201.32 C5.74 194.6, 11.57 187.89, 14.99 183.96 M0.3 206.96 C5.93 200.47, 11.57 193.99, 14.73 190.36 M0.3 206.96 C4.9 201.66, 9.51 196.36, 14.73 190.36 M0.03 213.36 C3.7 209.14, 7.36 204.92, 15.12 196 M0.03 213.36 C5.71 206.83, 11.38 200.31, 15.12 196 M-0.23 219.75 C4.47 214.36, 9.16 208.96, 14.86 202.4 M-0.23 219.75 C5.09 213.64, 10.4 207.53, 14.86 202.4 M0.17 225.4 C5.73 219, 11.29 212.6, 15.26 208.04 M0.17 225.4 C3.24 221.86, 6.31 218.33, 15.26 208.04 M-0.09 231.8 C5.3 225.59, 10.69 219.38, 14.99 214.44 M-0.09 231.8 C5.02 225.91, 10.14 220.02, 14.99 214.44 M0.3 237.44 C5.99 230.9, 11.67 224.36, 14.73 220.83 M0.3 237.44 C4.86 232.19, 9.42 226.95, 14.73 220.83 M0.04 243.84 C5.7 237.33, 11.35 230.82, 15.13 226.48 M0.04 243.84 C5.04 238.08, 10.04 232.33, 15.13 226.48 M-0.22 250.23 C5.57 243.56, 11.37 236.9, 14.87 232.88 M-0.22 250.23 C4.59 244.7, 9.4 239.17, 14.87 232.88 M0.17 255.88 C4.68 250.69, 9.19 245.5, 15.26 238.52 M0.17 255.88 C3.78 251.72, 7.4 247.57, 15.26 238.52 M-0.09 262.27 C5.87 255.41, 11.84 248.55, 15 244.92 M-0.09 262.27 C5.6 255.72, 11.3 249.17, 15 244.92 M0.3 267.92 C5.44 262.02, 10.57 256.11, 14.74 251.31 M0.3 267.92 C3.67 264.05, 7.03 260.18, 14.74 251.31 M0.04 274.32 C4.17 269.57, 8.3 264.82, 15.13 256.96 M0.04 274.32 C3.31 270.56, 6.57 266.8, 15.13 256.96 M-0.22 280.71 C3.73 276.17, 7.68 271.63, 14.87 263.35 M-0.22 280.71 C4.93 274.79, 10.09 268.86, 14.87 263.35 M0.18 286.36 C4.05 281.9, 7.92 277.45, 15.27 269 M0.18 286.36 C5 280.81, 9.82 275.26, 15.27 269 M-0.08 292.75 C3.31 288.85, 6.71 284.94, 15 275.4 M-0.08 292.75 C3.74 288.36, 7.56 283.96, 15 275.4 M0.31 298.4 C5.67 292.23, 11.04 286.06, 14.74 281.79 M0.31 298.4 C5.08 292.91, 9.84 287.43, 14.74 281.79 M0.05 304.8 C5.23 298.83, 10.42 292.87, 15.14 287.44 M0.05 304.8 C4.83 299.3, 9.61 293.8, 15.14 287.44 M-0.21 311.19 C3.37 307.07, 6.95 302.95, 14.88 293.83 M-0.21 311.19 C3.58 306.83, 7.37 302.47, 14.88 293.83 M0.18 316.84 C3.29 313.26, 6.39 309.69, 15.27 299.48 M0.18 316.84 C5.3 310.95, 10.41 305.07, 15.27 299.48 M-0.08 323.23 C3.89 318.67, 7.86 314.1, 15.01 305.88 M-0.08 323.23 C3.61 318.99, 7.3 314.74, 15.01 305.88 M0.31 328.88 C4.52 324.04, 8.73 319.2, 14.75 312.27 M0.31 328.88 C5.9 322.46, 11.48 316.03, 14.75 312.27 M0.05 335.27 C3.8 330.97, 7.54 326.67, 15.14 317.92 M0.05 335.27 C3.55 331.26, 7.04 327.24, 15.14 317.92 M-0.21 341.67 C5.38 335.25, 10.96 328.82, 14.88 324.31 M-0.21 341.67 C5.62 334.97, 11.45 328.26, 14.88 324.31 M0.19 347.32 C5.96 340.67, 11.73 334.03, 15.28 329.96 M0.19 347.32 C4.61 342.23, 9.03 337.14, 15.28 329.96 M-0.08 353.71 C4.49 348.46, 9.06 343.2, 15.01 336.35 M-0.08 353.71 C4.8 348.11, 9.67 342.5, 15.01 336.35 M0.32 359.36 C3.9 355.24, 7.47 351.13, 14.75 342.75 M0.32 359.36 C4.21 354.88, 8.1 350.41, 14.75 342.75 M0.06 365.75 C3.68 361.58, 7.31 357.41, 15.15 348.4 M0.06 365.75 C3.71 361.56, 7.36 357.36, 15.15 348.4 M-0.2 372.15 C3.04 368.42, 6.29 364.69, 14.89 354.79 M-0.2 372.15 C5.23 365.9, 10.66 359.66, 14.89 354.79 M0.19 377.79 C3.58 373.89, 6.97 369.99, 15.28 360.44 M0.19 377.79 C3.92 373.51, 7.65 369.22, 15.28 360.44 M-0.07 384.19 C3.65 379.91, 7.37 375.63, 15.02 366.83 M-0.07 384.19 C4.82 378.57, 9.7 372.95, 15.02 366.83 M0.32 389.84 C5.93 383.39, 11.54 376.94, 14.76 373.23 M0.32 389.84 C4.69 384.82, 9.05 379.8, 14.76 373.23 M0.06 396.23 C4.52 391.11, 8.97 385.99, 15.15 378.88 M0.06 396.23 C4.27 391.39, 8.49 386.54, 15.15 378.88 M-0.2 402.63 C5.15 396.48, 10.5 390.32, 14.89 385.27 M-0.2 402.63 C3.28 398.63, 6.75 394.64, 14.89 385.27 M0.2 408.27 C4.79 402.99, 9.38 397.71, 15.29 390.92 M0.2 408.27 C4.78 403, 9.36 397.73, 15.29 390.92 M-0.07 414.67 C3.51 410.56, 7.08 406.45, 15.02 397.31 M-0.07 414.67 C4.67 409.23, 9.4 403.78, 15.02 397.31 M-0.33 421.07 C2.81 417.46, 5.94 413.86, 14.76 403.71 M-0.33 421.07 C3.21 417, 6.75 412.93, 14.76 403.71 M0.07 426.71 C3.68 422.55, 7.3 418.39, 15.16 409.35 M0.07 426.71 C4.51 421.61, 8.95 416.5, 15.16 409.35 M-0.19 433.11 C4.79 427.38, 9.78 421.64, 14.9 415.75 M-0.19 433.11 C3.85 428.46, 7.9 423.8, 14.9 415.75 M0.2 438.75 C4.09 434.28, 7.99 429.8, 15.29 421.4 M0.2 438.75 C5.83 432.28, 11.45 425.81, 15.29 421.4 M-0.06 445.15 C5.79 438.43, 11.63 431.7, 15.03 427.79 M-0.06 445.15 C5.37 438.9, 10.81 432.65, 15.03 427.79 M-0.32 451.55 C3.86 446.74, 8.04 441.92, 14.77 434.19 M-0.32 451.55 C2.85 447.9, 6.02 444.25, 14.77 434.19 M0.07 457.19 C4.37 452.25, 8.67 447.3, 15.16 439.83 M0.07 457.19 C3.48 453.27, 6.89 449.35, 15.16 439.83 M-0.19 463.59 C5.45 457.1, 11.09 450.61, 14.9 446.23 M-0.19 463.59 C4.73 457.93, 9.66 452.26, 14.9 446.23 M0.21 469.23 C5.02 463.69, 9.84 458.15, 15.3 451.88 M0.21 469.23 C5.34 463.33, 10.47 457.43, 15.3 451.88 M-0.06 475.63 C4.69 470.17, 9.44 464.71, 15.03 458.27 M-0.06 475.63 C4.47 470.42, 9 465.21, 15.03 458.27 M-0.32 482.03 C5.38 475.48, 11.08 468.92, 14.77 464.67 M-0.32 482.03 C4.76 476.19, 9.83 470.35, 14.77 464.67 M0.08 487.67 C5.46 481.48, 10.84 475.29, 15.17 470.31 M0.08 487.67 C5.66 481.24, 11.25 474.82, 15.17 470.31 M-0.18 494.07 C4.91 488.21, 10.01 482.35, 14.91 476.71 M-0.18 494.07 C2.96 490.46, 6.1 486.84, 14.91 476.71 M0.21 499.71 C3.96 495.4, 7.72 491.08, 15.3 482.35 M0.21 499.71 C3.76 495.63, 7.3 491.56, 15.3 482.35 M-0.05 506.11 C3.99 501.46, 8.04 496.81, 15.04 488.75 M-0.05 506.11 C4.6 500.76, 9.25 495.41, 15.04 488.75 M-0.31 512.51 C3.14 508.53, 6.6 504.55, 14.78 495.15 M-0.31 512.51 C3.48 508.14, 7.28 503.78, 14.78 495.15 M0.08 518.15 C3.52 514.2, 6.95 510.25, 15.17 500.79 M0.08 518.15 C5.34 512.1, 10.6 506.05, 15.17 500.79 M-0.18 524.55 C3.25 520.6, 6.68 516.66, 14.91 507.19 M-0.18 524.55 C3.39 520.44, 6.96 516.34, 14.91 507.19 M0.22 530.19 C4.23 525.57, 8.25 520.95, 15.3 512.83 M0.22 530.19 C3.24 526.71, 6.26 523.23, 15.3 512.83 M1.92 534.33 C5.37 530.35, 8.83 526.38, 15.04 519.23 M1.92 534.33 C5.42 530.31, 8.91 526.29, 15.04 519.23 M6.91 534.69 C8.67 532.66, 10.43 530.63, 14.78 525.63 M6.91 534.69 C9.23 532.01, 11.55 529.34, 14.78 525.63 M12.55 534.29 C13.2 533.55, 13.85 532.8, 15.18 531.27 M12.55 534.29 C13.28 533.46, 14 532.62, 15.18 531.27 M0.28 533.17 C0.28 533.17, 0.28 533.17, 0.28 533.17 M0.28 533.17 C0.28 533.17, 0.28 533.17, 0.28 533.17 M5.92 532.77 C3.62 530.77, 1.32 528.77, -0.11 527.52 M5.92 532.77 C4.35 531.4, 2.77 530.03, -0.11 527.52 M12.32 533.03 C9.77 530.82, 7.22 528.6, 0.25 522.54 M12.32 533.03 C8.32 529.55, 4.31 526.07, 0.25 522.54 M15.7 530.67 C10.06 525.76, 4.41 520.86, -0.15 516.89 M15.7 530.67 C11.33 526.88, 6.97 523.08, -0.15 516.89 M16.06 525.68 C11.71 521.9, 7.36 518.12, 0.21 511.91 M16.06 525.68 C10.79 521.11, 5.53 516.53, 0.21 511.91 M15.67 520.04 C10.04 515.15, 4.41 510.26, -0.18 506.26 M15.67 520.04 C11.98 516.83, 8.29 513.63, -0.18 506.26 M16.03 515.05 C10.89 510.59, 5.75 506.12, 0.18 501.28 M16.03 515.05 C11.39 511.02, 6.76 507, 0.18 501.28 M15.63 509.41 C11.65 505.95, 7.68 502.5, -0.22 495.63 M15.63 509.41 C10.78 505.2, 5.94 500.98, -0.22 495.63 M15.99 504.42 C10.38 499.55, 4.77 494.67, 0.14 490.65 M15.99 504.42 C12.19 501.12, 8.39 497.82, 0.14 490.65 M15.6 498.78 C12.31 495.92, 9.02 493.06, -0.25 485 M15.6 498.78 C10.41 494.27, 5.22 489.76, -0.25 485 M15.96 493.79 C10.44 489, 4.93 484.21, 0.11 480.02 M15.96 493.79 C10.23 488.81, 4.5 483.84, 0.11 480.02 M15.56 488.15 C11.14 484.3, 6.71 480.46, -0.29 474.37 M15.56 488.15 C9.4 482.79, 3.24 477.44, -0.29 474.37 M15.92 483.16 C11.48 479.3, 7.04 475.44, 0.07 469.39 M15.92 483.16 C12.69 480.36, 9.47 477.55, 0.07 469.39 M15.53 477.52 C12.19 474.62, 8.85 471.71, -0.32 463.74 M15.53 477.52 C11.7 474.19, 7.87 470.87, -0.32 463.74 M15.89 472.53 C10.87 468.17, 5.85 463.81, 0.04 458.76 M15.89 472.53 C11.57 468.78, 7.25 465.03, 0.04 458.76 M15.49 466.89 C11.72 463.61, 7.95 460.34, -0.36 453.11 M15.49 466.89 C10.8 462.81, 6.12 458.74, -0.36 453.11 M15.85 461.9 C12.48 458.97, 9.1 456.03, 0 448.13 M15.85 461.9 C12.16 458.69, 8.47 455.48, 0 448.13 M15.46 456.26 C11.13 452.5, 6.8 448.73, 0.36 443.14 M15.46 456.26 C12.11 453.35, 8.77 450.44, 0.36 443.14 M15.82 451.27 C10.81 446.92, 5.81 442.57, -0.03 437.5 M15.82 451.27 C10.91 447.01, 6 442.74, -0.03 437.5 M15.42 445.63 C9.77 440.72, 4.12 435.8, 0.33 432.51 M15.42 445.63 C10.17 441.06, 4.91 436.49, 0.33 432.51 M15.78 440.64 C10.05 435.65, 4.31 430.67, -0.06 426.87 M15.78 440.64 C11.24 436.69, 6.7 432.75, -0.06 426.87 M15.39 435 C12.25 432.27, 9.1 429.54, 0.3 421.88 M15.39 435 C11.4 431.53, 7.41 428.06, 0.3 421.88 M15.75 430.01 C11.32 426.16, 6.89 422.31, -0.1 416.24 M15.75 430.01 C10.88 425.78, 6.02 421.55, -0.1 416.24 M16.11 425.03 C9.99 419.71, 3.87 414.38, 0.26 411.25 M16.11 425.03 C12.66 422.02, 9.2 419.02, 0.26 411.25 M15.72 419.38 C9.58 414.05, 3.45 408.72, -0.13 405.61 M15.72 419.38 C11.38 415.61, 7.05 411.85, -0.13 405.61 M16.08 414.4 C9.78 408.92, 3.49 403.45, 0.23 400.62 M16.08 414.4 C11.06 410.04, 6.05 405.68, 0.23 400.62 M15.68 408.75 C9.45 403.34, 3.22 397.92, -0.17 394.98 M15.68 408.75 C11.75 405.33, 7.81 401.91, -0.17 394.98 M16.04 403.77 C12.55 400.73, 9.06 397.7, 0.19 389.99 M16.04 403.77 C10.87 399.27, 5.71 394.78, 0.19 389.99 M15.65 398.12 C9.34 392.64, 3.04 387.16, -0.2 384.35 M15.65 398.12 C11.64 394.64, 7.63 391.16, -0.2 384.35 M16.01 393.14 C10.84 388.65, 5.68 384.16, 0.16 379.36 M16.01 393.14 C11.67 389.37, 7.34 385.6, 0.16 379.36 M15.61 387.49 C11 383.48, 6.38 379.47, -0.24 373.72 M15.61 387.49 C11.37 383.8, 7.13 380.12, -0.24 373.72 M15.97 382.51 C11.63 378.73, 7.29 374.96, 0.12 368.73 M15.97 382.51 C12.1 379.14, 8.24 375.78, 0.12 368.73 M15.58 376.86 C9.97 371.98, 4.35 367.11, -0.27 363.08 M15.58 376.86 C11.88 373.65, 8.18 370.43, -0.27 363.08 M15.94 371.88 C10.92 367.52, 5.91 363.16, 0.09 358.1 M15.94 371.88 C9.87 366.6, 3.81 361.33, 0.09 358.1 M15.54 366.23 C11.45 362.68, 7.36 359.12, -0.31 352.45 M15.54 366.23 C11.59 362.8, 7.64 359.37, -0.31 352.45 M15.9 361.25 C9.65 355.81, 3.39 350.37, 0.05 347.47 M15.9 361.25 C11.25 357.2, 6.6 353.15, 0.05 347.47 M15.51 355.6 C11.3 351.94, 7.09 348.28, -0.34 341.82 M15.51 355.6 C9.58 350.45, 3.65 345.29, -0.34 341.82 M15.87 350.62 C10.46 345.91, 5.05 341.21, 0.02 336.84 M15.87 350.62 C12.06 347.3, 8.25 343.99, 0.02 336.84 M15.47 344.97 C11.84 341.82, 8.21 338.66, -0.38 331.19 M15.47 344.97 C11.88 341.85, 8.29 338.73, -0.38 331.19 M15.83 339.98 C11.4 336.13, 6.97 332.28, -0.02 326.21 M15.83 339.98 C10.35 335.22, 4.86 330.45, -0.02 326.21 M15.44 334.34 C9.52 329.2, 3.6 324.05, 0.34 321.22 M15.44 334.34 C9.64 329.3, 3.84 324.26, 0.34 321.22 M15.8 329.35 C12.27 326.28, 8.74 323.21, -0.05 315.58 M15.8 329.35 C9.57 323.94, 3.34 318.52, -0.05 315.58 M15.4 323.71 C9.54 318.61, 3.67 313.51, 0.31 310.59 M15.4 323.71 C9.61 318.67, 3.81 313.63, 0.31 310.59 M15.76 318.72 C11.39 314.93, 7.02 311.13, -0.08 304.95 M15.76 318.72 C12.23 315.65, 8.69 312.58, -0.08 304.95 M16.12 313.74 C12.26 310.38, 8.4 307.02, 0.28 299.96 M16.12 313.74 C11.01 309.29, 5.9 304.85, 0.28 299.96 M15.73 308.09 C12.03 304.88, 8.34 301.67, -0.12 294.32 M15.73 308.09 C10.39 303.45, 5.04 298.8, -0.12 294.32 M16.09 303.11 C10.2 297.98, 4.3 292.86, 0.24 289.33 M16.09 303.11 C12.04 299.58, 7.99 296.06, 0.24 289.33 M15.7 297.46 C9.66 292.22, 3.63 286.97, -0.15 283.69 M15.7 297.46 C11 293.39, 6.31 289.31, -0.15 283.69 M16.06 292.48 C10.04 287.25, 4.02 282.02, 0.21 278.7 M16.06 292.48 C9.74 286.99, 3.43 281.5, 0.21 278.7 M15.66 286.83 C10.99 282.78, 6.32 278.72, -0.19 273.06 M15.66 286.83 C10.6 282.44, 5.54 278.04, -0.19 273.06 M16.02 281.85 C11.85 278.22, 7.68 274.59, 0.17 268.07 M16.02 281.85 C10.87 277.37, 5.71 272.89, 0.17 268.07 M15.63 276.2 C11.8 272.88, 7.97 269.55, -0.22 262.43 M15.63 276.2 C11.09 272.26, 6.55 268.32, -0.22 262.43 M15.99 271.22 C12.66 268.32, 9.33 265.43, 0.14 257.44 M15.99 271.22 C10.12 266.12, 4.25 261.02, 0.14 257.44 M15.59 265.57 C9.58 260.35, 3.57 255.12, -0.26 251.8 M15.59 265.57 C10.27 260.95, 4.95 256.32, -0.26 251.8 M15.95 260.59 C9.65 255.11, 3.35 249.63, 0.1 246.81 M15.95 260.59 C12.36 257.46, 8.77 254.34, 0.1 246.81 M15.56 254.94 C9.92 250.04, 4.28 245.14, -0.29 241.17 M15.56 254.94 C11.35 251.29, 7.14 247.63, -0.29 241.17 M15.92 249.96 C9.67 244.52, 3.41 239.09, 0.07 236.18 M15.92 249.96 C10.41 245.17, 4.91 240.39, 0.07 236.18 M15.52 244.31 C10.61 240.05, 5.7 235.78, -0.33 230.54 M15.52 244.31 C10.24 239.73, 4.97 235.14, -0.33 230.54 M15.88 239.33 C10.18 234.37, 4.48 229.42, 0.03 225.55 M15.88 239.33 C10.43 234.59, 4.98 229.85, 0.03 225.55 M15.49 233.68 C11.2 229.96, 6.91 226.23, -0.36 219.91 M15.49 233.68 C11.45 230.17, 7.4 226.66, -0.36 219.91 M15.85 228.7 C12 225.35, 8.15 222, 0 214.92 M15.85 228.7 C9.69 223.34, 3.53 217.99, 0 214.92 M15.45 223.05 C10.05 218.36, 4.65 213.66, 0.36 209.93 M15.45 223.05 C12.32 220.33, 9.18 217.6, 0.36 209.93 M15.81 218.07 C9.72 212.77, 3.63 207.48, -0.03 204.29 M15.81 218.07 C12.46 215.15, 9.11 212.24, -0.03 204.29 M15.42 212.42 C9.64 207.4, 3.86 202.37, 0.33 199.3 M15.42 212.42 C12 209.45, 8.58 206.48, 0.33 199.3 M15.78 207.44 C10.79 203.1, 5.8 198.76, -0.07 193.66 M15.78 207.44 C10.98 203.26, 6.18 199.09, -0.07 193.66 M16.14 202.45 C12.23 199.05, 8.33 195.66, 0.29 188.67 M16.14 202.45 C12.87 199.61, 9.6 196.76, 0.29 188.67 M15.75 196.81 C10.1 191.9, 4.46 186.99, -0.1 183.03 M15.75 196.81 C10.79 192.5, 5.84 188.19, -0.1 183.03 M16.11 191.82 C10.71 187.13, 5.31 182.44, 0.26 178.04 M16.11 191.82 C11.33 187.67, 6.55 183.52, 0.26 178.04 M15.71 186.18 C12.22 183.14, 8.73 180.11, -0.14 172.4 M15.71 186.18 C11.76 182.74, 7.8 179.3, -0.14 172.4 M16.07 181.19 C10.57 176.4, 5.06 171.62, 0.22 167.41 M16.07 181.19 C10.92 176.71, 5.76 172.23, 0.22 167.41 M15.68 175.55 C12.35 172.65, 9.02 169.76, -0.17 161.77 M15.68 175.55 C11.21 171.66, 6.74 167.78, -0.17 161.77 M16.04 170.56 C12.23 167.25, 8.42 163.94, 0.19 156.78 M16.04 170.56 C10.47 165.72, 4.91 160.89, 0.19 156.78 M15.64 164.92 C12.17 161.9, 8.7 158.88, -0.21 151.14 M15.64 164.92 C10.3 160.27, 4.95 155.62, -0.21 151.14 M16 159.93 C11.52 156.03, 7.03 152.13, 0.15 146.15 M16 159.93 C11.07 155.64, 6.14 151.36, 0.15 146.15 M15.61 154.29 C10.36 149.73, 5.12 145.17, -0.24 140.51 M15.61 154.29 C10.81 150.11, 6.01 145.94, -0.24 140.51 M15.97 149.3 C12.33 146.14, 8.69 142.97, 0.12 135.52 M15.97 149.3 C9.68 143.83, 3.38 138.36, 0.12 135.52 M15.57 143.66 C12.08 140.62, 8.58 137.58, -0.28 129.88 M15.57 143.66 C12 140.55, 8.44 137.45, -0.28 129.88 M15.93 138.67 C10.78 134.19, 5.62 129.7, 0.08 124.89 M15.93 138.67 C11.81 135.09, 7.69 131.5, 0.08 124.89 M15.54 133.03 C9.94 128.16, 4.34 123.3, -0.31 119.25 M15.54 133.03 C10.63 128.76, 5.72 124.49, -0.31 119.25 M15.9 128.04 C11.05 123.83, 6.21 119.61, 0.05 114.26 M15.9 128.04 C12.56 125.14, 9.22 122.23, 0.05 114.26 M15.5 122.4 C9.41 117.1, 3.31 111.79, -0.35 108.62 M15.5 122.4 C10.4 117.96, 5.29 113.52, -0.35 108.62 M15.86 117.41 C9.57 111.94, 3.28 106.47, 0.02 103.63 M15.86 117.41 C12.39 114.39, 8.92 111.38, 0.02 103.63 M15.47 111.77 C10.01 107.02, 4.55 102.27, 0.38 98.64 M15.47 111.77 C9.63 106.69, 3.8 101.62, 0.38 98.64 M15.83 106.78 C10.82 102.42, 5.81 98.07, -0.02 93 M15.83 106.78 C10.85 102.45, 5.88 98.13, -0.02 93 M15.43 101.14 C10.58 96.92, 5.73 92.7, 0.34 88.01 M15.43 101.14 C9.59 96.06, 3.75 90.98, 0.34 88.01 M15.79 96.15 C11.51 92.43, 7.23 88.7, -0.05 82.37 M15.79 96.15 C9.71 90.86, 3.62 85.56, -0.05 82.37 M15.4 90.51 C11 86.68, 6.6 82.85, 0.31 77.38 M15.4 90.51 C9.86 85.69, 4.31 80.87, 0.31 77.38 M15.76 85.52 C10.09 80.59, 4.42 75.66, -0.09 71.74 M15.76 85.52 C9.77 80.31, 3.79 75.11, -0.09 71.74 M16.12 80.53 C11.52 76.53, 6.91 72.53, 0.27 66.75 M16.12 80.53 C10.9 75.99, 5.68 71.46, 0.27 66.75 M15.73 74.89 C9.91 69.83, 4.09 64.77, -0.12 61.11 M15.73 74.89 C10.94 70.73, 6.15 66.57, -0.12 61.11 M16.09 69.9 C10.9 65.39, 5.71 60.89, 0.24 56.12 M16.09 69.9 C12.35 66.65, 8.62 63.41, 0.24 56.12 M15.69 64.26 C9.7 59.05, 3.71 53.84, -0.16 50.48 M15.69 64.26 C12.14 61.17, 8.6 58.09, -0.16 50.48 M16.05 59.27 C12.86 56.5, 9.67 53.72, 0.2 45.49 M16.05 59.27 C12.76 56.41, 9.47 53.55, 0.2 45.49 M15.66 53.63 C9.95 48.67, 4.24 43.71, -0.19 39.85 M15.66 53.63 C11.39 49.92, 7.12 46.21, -0.19 39.85 M16.02 48.64 C11.21 44.46, 6.4 40.28, 0.17 34.86 M16.02 48.64 C10.85 44.15, 5.69 39.66, 0.17 34.86 M15.62 43 C9.69 37.84, 3.76 32.69, -0.23 29.22 M15.62 43 C12.08 39.92, 8.53 36.83, -0.23 29.22 M15.98 38.01 C12.59 35.06, 9.19 32.11, 0.13 24.23 M15.98 38.01 C12.32 34.83, 8.66 31.65, 0.13 24.23 M15.59 32.37 C9.7 27.25, 3.82 22.14, -0.26 18.59 M15.59 32.37 C10.32 27.79, 5.06 23.22, -0.26 18.59 M15.95 27.38 C11.11 23.18, 6.27 18.97, 0.1 13.6 M15.95 27.38 C10.84 22.95, 5.74 18.51, 0.1 13.6 M15.55 21.74 C9.32 16.32, 3.08 10.9, -0.3 7.96 M15.55 21.74 C10.82 17.62, 6.08 13.51, -0.3 7.96 M15.91 16.75 C10.55 12.09, 5.18 7.42, 0.06 2.97 M15.91 16.75 C10.24 11.82, 4.56 6.88, 0.06 2.97 M15.52 11.11 C10.17 6.46, 4.82 1.81, 1.18 -1.36 M15.52 11.11 C11.4 7.53, 7.28 3.95, 1.18 -1.36 M15.88 6.12 C13.66 4.19, 11.45 2.27, 7.58 -1.1 M15.88 6.12 C13.74 4.26, 11.6 2.4, 7.58 -1.1" stroke="#15aabf88" stroke-width="0.5" fill="none"></path><path d="M0 0 C3.93 0, 7.86 0, 13.86 0 M13.86 0 C13.86 191.33, 13.86 382.66, 13.86 532.92 M13.86 532.92 C9.96 532.92, 6.06 532.92, 0 532.92 M0 532.92 C0 422.65, 0 312.37, 0 0" stroke="#0b728588" stroke-width="1.5" fill="none" stroke-dasharray="1.5 7"></path></g><g stroke-opacity="0.8" fill-opacity="0.8" stroke-linecap="round" transform="translate(279.00984028721814 332.51671432507896) rotate(0 44.53472731383499 43.56988557960386)"><path d="M13.07 11.36 C13.07 11.36, 13.07 11.36, 13.07 11.36 M13.07 11.36 C13.07 11.36, 13.07 11.36, 13.07 11.36 M2.95 28.37 C12.11 21.99, 17.43 12.07, 20.34 7.38 M3.21 29.26 C9.03 21.73, 13.94 16.2, 21.61 7.16 M1.51 33.49 C13.37 24.19, 25.07 12.17, 31.29 1.54 M3.37 33.85 C13.83 23.52, 23.31 10.91, 31.36 3.72 M4.38 42.21 C13.84 28.08, 22.6 15.53, 37.99 1.41 M4.42 40.87 C14.43 26.93, 25.46 14.63, 36.68 2.75 M3.19 45.72 C17.16 33.24, 30.31 14.96, 42.43 0.37 M2.8 46.68 C18.64 29.89, 34.27 11.11, 42.77 2.67 M5.1 51.68 C14.5 39.02, 28.97 26.38, 45.3 3.34 M4.33 53.27 C19.47 35.43, 34.31 17.12, 46.65 2.35 M4.43 59.32 C19.33 41.2, 36.3 22.74, 52.87 2.24 M4.56 59.68 C18.35 40.24, 34.86 23.74, 52.82 2.78 M5.94 61.06 C20.24 45.81, 37.08 28.38, 57.73 5.03 M6.92 61.7 C27.07 38.24, 47.38 16.56, 56.86 4.27 M6.46 64.42 C22.2 51.43, 34.24 38.41, 61.55 2.64 M9.15 66.05 C22.79 48.54, 38.41 30.61, 60.99 3.58 M11.58 68.1 C26.72 50.38, 46.53 27.34, 65.95 4.82 M10.79 68.58 C24.34 53.24, 36.15 38.76, 65.71 5.99 M13.77 70.12 C36.66 45.77, 55.86 23.51, 66.57 7.26 M14.12 70.67 C29.91 54.05, 45.55 34.57, 68.72 8.55 M17.89 76.72 C27.73 60.14, 41.95 44.17, 70.49 12.48 M16.51 74.24 C32.27 54.9, 49.82 36.78, 71.17 11.19 M17.28 79.71 C29.53 63.01, 44.6 48.32, 76.46 11.7 M19.26 77.34 C35.01 59.59, 50.07 42.38, 74.65 12.77 M20.53 79.81 C39.93 59.9, 57.77 39.06, 76.94 16.96 M21.23 79.67 C39.12 59.43, 55.26 40.5, 78.1 15.4 M24.99 79.61 C39.81 66.15, 53.22 53.91, 82.28 18.52 M27.17 81.71 C38.23 68.96, 48.54 56.28, 80.73 18 M30.25 83.9 C49.93 59.61, 74.48 33.13, 82.76 20.92 M29.98 83.24 C45.43 65.62, 60.46 49.44, 84.98 20.6 M32.84 86.51 C47.06 67.2, 65.24 52.3, 84.89 25.46 M34.21 84.4 C54.51 60.8, 74.54 37.68, 85.5 24.92 M35.73 87.25 C49.39 74.49, 62.16 60.45, 85.95 27.95 M38.46 86.76 C52.94 68.79, 68.71 50.82, 86.62 30.42 M41.15 88.98 C50.88 75.84, 62.23 64.39, 86.98 33.45 M40.9 88.65 C59.02 67.65, 77.96 46.52, 88.1 35.11 M49.97 87.76 C56.49 75.8, 66.03 65.9, 87.52 38.57 M47.53 87.42 C56.96 75.38, 66.48 65.68, 88.65 40.13 M55.98 86.01 C65.03 75.4, 72.37 64.91, 91.67 43.61 M55.26 84.82 C66.15 73.31, 75.22 61.87, 90.89 44.04 M63.87 83.06 C65.87 75.45, 73.22 69.31, 87.72 51.74 M62.7 83.8 C70.62 73.75, 77.4 64.27, 89.69 52.17 M67.45 83.86 C72.23 77.8, 78.17 70.31, 87.35 62.03 M67.17 83.29 C71.48 79.43, 75.89 74.53, 88.28 59.89" stroke="#15aabf" stroke-width="0.5" fill="none"></path><path d="M60.58 3.3 C68.02 5.42, 77.01 12.09, 81.65 18.43 C86.29 24.76, 88.23 33.34, 88.45 41.31 C88.66 49.29, 87.01 59.56, 82.96 66.28 C78.91 72.99, 71.22 78.02, 64.14 81.61 C57.05 85.19, 48.26 88.55, 40.46 87.79 C32.66 87.03, 23.77 82.08, 17.31 77.04 C10.85 72, 4.4 64.99, 1.69 57.55 C-1.03 50.12, -0.85 40.12, 1.02 32.45 C2.9 24.78, 7.06 16.83, 12.92 11.53 C18.78 6.24, 27.65 1.81, 36.2 0.66 C44.75 -0.5, 59.34 3.73, 64.2 4.61 C69.07 5.48, 65.86 5.23, 65.39 5.91 M47.9 -0.54 C55.35 -0.36, 64.89 5.13, 71.21 9.83 C77.53 14.53, 82.98 20.38, 85.83 27.66 C88.69 34.95, 90.05 45.86, 88.34 53.51 C86.63 61.17, 81.37 68.34, 75.58 73.58 C69.78 78.82, 61.16 83.12, 53.57 84.96 C45.97 86.81, 37.48 87.24, 30.01 84.66 C22.55 82.07, 13.93 75.8, 8.79 69.46 C3.65 63.13, -0.12 54.52, -0.84 46.63 C-1.57 38.74, 0.32 28.88, 4.43 22.12 C8.54 15.37, 16.78 9.75, 23.84 6.11 C30.9 2.48, 42.62 0.95, 46.77 0.31 C50.92 -0.33, 48.44 1.76, 48.73 2.28" stroke="#000000" stroke-width="1" fill="none"></path></g><g stroke-opacity="0.8" fill-opacity="0.8" transform="translate(285.15619303244193 360.7207180416235) rotate(0 38.10738702038776 15.36588186305957)"><text x="38.10738702038775" y="21.73176372611915" font-family="Virgil, Segoe UI Emoji" font-size="24.58541098089532px" fill="#000000" text-anchor="middle" style="white-space: pre;" direction="ltr">Ansilo</text></g><g stroke-linecap="round"><g stroke-opacity="0.8" fill-opacity="0.8" transform="translate(273.4131880998133 360.28989076879543) rotate(0 -78.42206316314815 -25.727784208997207)"><path d="M-0.93 -0.69 C-15.3 -1.98, -59.82 1.05, -85.82 -7.36 C-111.83 -15.77, -145.02 -43.72, -156.95 -51.16 M0.78 1.56 C-13.23 -0.12, -57.04 -0.12, -83.44 -9.22 C-109.84 -18.32, -145.31 -46.09, -157.63 -53.02" stroke="#495057" stroke-width="1" fill="none"></path></g><g stroke-opacity="0.8" fill-opacity="0.8" transform="translate(273.4131880998133 360.28989076879543) rotate(0 -78.42206316314815 -25.727784208997207)"><path d="M-0.73 1.11 L-14.34 3.74 L-12.83 -8.11 L-2.33 -0.68" stroke="none" stroke-width="0" fill="#495057" fill-rule="evenodd"></path><path d="M-1.79 -1.46 C-4.9 1.4, -9 2.8, -14.57 4.58 M-1.29 -0.54 C-4.65 0.82, -9.48 2.59, -15.31 5.77 M-15.52 5.23 C-15.46 0.75, -13.95 -2.16, -15.16 -7.28 M-15.13 4.7 C-15.02 0.01, -14.74 -3.57, -14.21 -7.76 M-14.79 -8.1 C-9.33 -4.57, -5.09 -3.48, -2.2 -2.12 M-14.91 -6.73 C-9.41 -4.37, -4.33 -2.65, -0.33 -0.05 M-0.93 -0.69 C-0.93 -0.69, -0.93 -0.69, -0.93 -0.69 M-0.93 -0.69 C-0.93 -0.69, -0.93 -0.69, -0.93 -0.69" stroke="#495057" stroke-width="1" fill="none"></path></g></g><g stroke-linecap="round" transform="translate(164.69637005277127 400.3764451333632) rotate(0 44.62044925735438 14.566232617495245)"><path d="M46.79 -1.53 L89.43 16.51 L46.5 29.18 L1.29 13.35" stroke="none" stroke-width="0" fill="#fd8888" fill-rule="evenodd"></path><path d="M45.56 1.71 C57.26 6.06, 72.62 8.18, 88.24 15.47 M44.7 -0.73 C56.7 2.99, 68.57 7.58, 89.59 15.19 M88.96 14.77 C73.5 20.38, 56.89 23.5, 44.37 29.42 M89.83 14.83 C73.24 20.46, 59.21 25.3, 44 29.75 M45.56 30.82 C37.17 25.53, 25.31 24.35, 1.21 15.47 M44.68 29.78 C27.33 23.51, 10.93 19.27, -0.55 14.91 M1.87 15.66 C8.49 11.92, 21.1 8.21, 44.11 0.6 M-0.94 15.85 C13.57 9.84, 28.77 5.04, 44.4 0.95" stroke="#c92a2a" stroke-width="1" fill="none"></path></g><g stroke-linecap="round" transform="translate(164.69637005277127 393.34809067124036) rotate(0 44.62044925735438 14.566232617495245)"><path d="M43.47 0.19 L90.75 16.5 L45.05 30.42 L-1.65 16.53" stroke="none" stroke-width="0" fill="#fd8888" fill-rule="evenodd"></path><path d="M46.71 -1.43 C60.5 4.78, 71.7 8.18, 89.71 14.22 M44.27 0.26 C54.09 4.1, 64.78 7.28, 89.43 15.58 M89.01 15.16 C77.24 18.21, 63.21 22.04, 45.29 29.98 M89.07 14.02 C72.55 20.97, 55.1 25.41, 45.62 28.15 M46.69 30.27 C34.16 24.26, 25.2 23.8, 0.47 16.54 M45.64 28.55 C26.69 23.45, 10.22 17.41, -0.09 14.32 M0.66 13.03 C13.63 10.32, 26.73 4.8, 45.6 0.23 M0.85 14.52 C12 11.92, 24.48 6.42, 45.95 0.9" stroke="#c92a2a" stroke-width="1" fill="none"></path></g><g stroke-linecap="round" transform="translate(164.69637005277127 383.34197570846425) rotate(0 44.62044925735438 14.566232617495245)"><path d="M45.19 1.51 L90.75 15.05 L46.29 27.49 L1.53 14.59" stroke="none" stroke-width="0" fill="#fd8888" fill-rule="evenodd"></path><path d="M43.57 1.7 C61.29 4.23, 76.04 10.94, 88.46 13.53 M45.26 -0.93 C58.72 4.53, 71.7 9.46, 89.83 14.73 M89.4 14.99 C72.13 18.26, 55.6 25.78, 45.85 31.02 M88.26 15.81 C78.11 19.36, 65.63 22.79, 44.01 28.49 M46.14 28.79 C33.93 27.89, 27.43 24.09, 1.54 16.81 M44.42 28.5 C28.15 24.58, 10.75 18.73, -0.68 14.96 M-1.97 15.25 C12.04 10.88, 22.97 7.45, 45.23 -0.4 M-0.48 14.34 C12.62 9.9, 23.11 7.71, 45.9 -0.77" stroke="#c92a2a" stroke-width="1" fill="none"></path></g><g stroke-linecap="round" transform="translate(164.69637005277127 373.41420071620746) rotate(0 44.62044925735438 14.566232617495245)"><path d="M46.51 1.5 L89.29 16.29 L43.35 30.67 L-0.41 16.01" stroke="none" stroke-width="0" fill="#fd8888" fill-rule="evenodd"></path><path d="M46.7 0.25 C58.81 4.23, 74.61 9.38, 87.77 14.97 M44.07 0.57 C56.56 4.28, 68.95 8.57, 88.97 15.73 M89.23 14.41 C74.61 18.45, 64.19 23.97, 46.89 28.26 M90.05 15.14 C74.16 18.64, 58.1 23.71, 44.36 28.21 M44.66 27.47 C31.44 25.97, 15.83 21.66, 1.81 16.5 M44.36 29.11 C33.29 24.53, 20.67 20.61, -0.04 14.67 M0.25 15.18 C17.68 8.65, 35.94 3.88, 44.6 -0.76 M-0.66 15.7 C8.36 11.53, 19.38 9.93, 44.23 0.1" stroke="#c92a2a" stroke-width="1" fill="none"></path></g><g transform="translate(150.98367858553752 443.2334129353318) rotate(0 55.45502890367277 7.922146986238971)"><text x="55.45502890367277" y="10.844293972477935" font-family="Virgil, Segoe UI Emoji" font-size="12.675435177982347px" fill="#000000" text-anchor="middle" style="white-space: pre;" direction="ltr">Shared Datasets</text></g><g stroke-linecap="round"><g transform="translate(13.744198568158254 224.13835962585188) rotate(0 44.99553983000595 42.55662302401798)" fill-rule="evenodd"><path d="M0.34 -1.71 L-1 82.77 L1.24 83.94 L4.46 90.17 L28.15 93.19 L45.46 96.8 L73.59 92.23 L90.26 85.65 L88.91 81.99 L91.37 -0.49 L88.74 -1.83 L79.31 -4.05 L67.58 -9.25 L43.5 -9.73 L15.33 -9.44 L-0.54 -1.97" stroke="none" stroke-width="0" fill="#228be6" fill-rule="evenodd"></path><path d="M0.93 0.54 C0.99 12.54, -0.54 57.38, -0.4 71.53 C-0.25 85.69, -0.45 82.22, 1.8 85.49 C4.04 88.76, 8.42 89.64, 13.05 91.14 C17.68 92.65, 23.96 93.86, 29.58 94.52 C35.19 95.18, 41.66 95.14, 46.73 95.1 C51.8 95.05, 55.44 94.89, 60.01 94.25 C64.58 93.61, 69.19 92.95, 74.14 91.24 C79.08 89.54, 87.08 87.08, 89.66 84.01 C92.25 80.95, 89.44 85.07, 89.66 72.86 C89.88 60.64, 91.01 23.05, 90.98 10.74 C90.96 -1.58, 91.77 1.78, 89.52 -1.02 C87.26 -3.83, 81.28 -4.93, 77.47 -6.11 C73.66 -7.28, 71.54 -7.48, 66.66 -8.06 C61.77 -8.65, 52.69 -9.34, 48.14 -9.62 C43.59 -9.9, 44.83 -9.94, 39.38 -9.75 C33.92 -9.56, 21.92 -10.09, 15.4 -8.49 C8.88 -6.89, 2.69 -1.68, 0.26 -0.17 M-0.05 -0.22 C-0.11 11.93, -1.75 58.03, -1.55 72.51 C-1.36 86.99, -1.39 83.95, 1.14 86.68 C3.66 89.41, 9.04 87.51, 13.6 88.9 C18.16 90.28, 23.31 94.15, 28.5 94.99 C33.7 95.83, 39.48 94.28, 44.75 93.92 C50.01 93.57, 54.82 93.41, 60.08 92.84 C65.34 92.28, 71.59 91.73, 76.3 90.54 C81.02 89.34, 86.04 88.66, 88.37 85.66 C90.71 82.66, 89.79 85.4, 90.31 72.54 C90.83 59.68, 91.85 20.9, 91.48 8.51 C91.12 -3.89, 90.48 0.78, 88.11 -1.82 C85.75 -4.42, 80.9 -6.11, 77.3 -7.11 C73.7 -8.12, 71.41 -7.35, 66.51 -7.85 C61.62 -8.35, 52.84 -10.01, 47.94 -10.12 C43.04 -10.22, 42.22 -8.84, 37.1 -8.51 C31.98 -8.17, 23.56 -9.56, 17.23 -8.12 C10.9 -6.69, 2.01 -1.43, -0.9 0.11" stroke="#364fc7" stroke-width="1" fill="none"></path></g></g><g stroke-linecap="round" transform="translate(13.410472991511597 213.12488044001117) rotate(0 45.239782957970306 12.30046531106774)"><path d="M40.08 -0.78 C48.42 -1.35, 59.98 -0.57, 67.73 0.69 C75.48 1.94, 83.07 4.54, 86.57 6.78 C90.07 9.01, 90.48 11.78, 88.73 14.09 C86.98 16.4, 82.47 18.96, 76.09 20.63 C69.72 22.3, 59.25 23.87, 50.48 24.13 C41.7 24.38, 31.13 23.22, 23.43 22.17 C15.74 21.12, 8.2 20.09, 4.3 17.85 C0.41 15.6, -1.63 11.16, 0.05 8.7 C1.72 6.24, 5.28 4.47, 14.36 3.09 C23.44 1.71, 45.87 0.51, 54.53 0.44 C63.18 0.36, 66.58 2.29, 66.28 2.62 M65.96 0.77 C73.52 1.83, 80.8 5.19, 84.72 7.62 C88.64 10.06, 90.76 13.38, 89.49 15.38 C88.22 17.37, 83.34 18.25, 77.1 19.61 C70.85 20.97, 60.99 22.85, 52.03 23.52 C43.07 24.19, 31.05 24.39, 23.34 23.64 C15.63 22.89, 9.74 21.16, 5.77 19.02 C1.79 16.88, -1.72 13.28, -0.5 10.79 C0.71 8.3, 6.72 5.77, 13.08 4.07 C19.44 2.37, 28.9 1.2, 37.64 0.6 C46.38 -0.01, 60.67 0.2, 65.53 0.45 C70.4 0.7, 67.21 1.92, 66.82 2.08" stroke="none" stroke-width="0" fill="#ffffff"></path><path d="M26.26 1.69 C33.68 0.61, 45.44 0.01, 54.14 0.33 C62.85 0.66, 72.65 1.91, 78.49 3.63 C84.34 5.34, 88.24 8.27, 89.2 10.6 C90.15 12.93, 88.22 15.63, 84.24 17.59 C80.26 19.56, 73.21 21.24, 65.3 22.41 C57.39 23.57, 45.55 24.76, 36.78 24.61 C28.01 24.45, 18.76 23.35, 12.69 21.47 C6.63 19.59, 1.71 15.86, 0.4 13.31 C-0.91 10.75, -0.28 8.13, 4.86 6.14 C10 4.14, 26.3 2.25, 31.22 1.34 C36.15 0.42, 34.22 0.58, 34.42 0.66 M25.06 2.23 C32.62 1.06, 45.12 0.33, 53.67 0.44 C62.23 0.55, 70.42 1.25, 76.4 2.89 C82.37 4.54, 88.3 7.97, 89.55 10.29 C90.8 12.6, 87.78 14.71, 83.91 16.8 C80.03 18.89, 74.17 21.66, 66.29 22.84 C58.42 24.01, 45.38 24.35, 36.65 23.85 C27.91 23.34, 19.88 21.26, 13.89 19.79 C7.9 18.32, 2.07 17.41, 0.68 15.04 C-0.71 12.67, 1.51 7.8, 5.56 5.57 C9.6 3.35, 21.82 2.45, 24.96 1.68 C28.1 0.9, 24.2 0.67, 24.4 0.92" stroke="#364fc7" stroke-width="1" fill="none"></path></g><g transform="translate(10 330.12574639784077) rotate(0 49 8.5)"><text x="49" y="12" font-family="Virgil, Segoe UI Emoji" font-size="13.672080156128944px" fill="#000000" text-anchor="middle" style="white-space: pre;" direction="ltr">Source System</text></g><g transform="translate(756.9137821437464 523.0470051323889) rotate(0 59 12.5)"><text x="0" y="18" font-family="Virgil, Segoe UI Emoji" font-size="20px" fill="#000000" text-anchor="start" style="white-space: pre;" direction="ltr">Data Team</text></g><g stroke-linecap="round" transform="translate(825.5159050078908 459.42059249953866) rotate(0 9.87517181638475 8.640775339336727)"><path d="M2.19 3.23 C2.19 3.23, 2.19 3.23, 2.19 3.23 M2.19 3.23 C2.19 3.23, 2.19 3.23, 2.19 3.23 M2.98 14.51 C5.99 11.05, 9 7.58, 14.13 1.68 M2.98 14.51 C7.42 9.4, 11.86 4.29, 14.13 1.68 M10.33 18.25 C12.85 15.35, 15.38 12.44, 19.51 7.69 M10.33 18.25 C13.49 14.61, 16.66 10.97, 19.51 7.69 M3.77 15.47 C3.77 15.47, 3.77 15.47, 3.77 15.47 M3.77 15.47 C3.77 15.47, 3.77 15.47, 3.77 15.47 M15.81 15.34 C12.75 12.67, 9.68 10.01, 2.23 3.53 M15.81 15.34 C11.1 11.25, 6.39 7.15, 2.23 3.53 M20.31 8.65 C16.65 5.46, 12.98 2.28, 9.74 -0.54 M20.31 8.65 C16.74 5.55, 13.17 2.45, 9.74 -0.54" stroke="#ced4da" stroke-width="1" fill="none"></path><path d="M19.75 8.64 C19.75 9.14, 19.7 9.65, 19.6 10.14 C19.5 10.63, 19.35 11.13, 19.15 11.6 C18.96 12.07, 18.71 12.53, 18.43 12.96 C18.14 13.39, 17.81 13.81, 17.44 14.19 C17.07 14.58, 16.66 14.94, 16.22 15.26 C15.78 15.58, 15.31 15.87, 14.81 16.12 C14.32 16.37, 13.79 16.59, 13.25 16.76 C12.72 16.93, 12.15 17.06, 11.59 17.15 C11.03 17.24, 10.45 17.28, 9.88 17.28 C9.3 17.28, 8.72 17.24, 8.16 17.15 C7.6 17.06, 7.03 16.93, 6.5 16.76 C5.96 16.59, 5.43 16.37, 4.94 16.12 C4.44 15.87, 3.97 15.58, 3.53 15.26 C3.09 14.94, 2.68 14.58, 2.31 14.19 C1.94 13.81, 1.61 13.39, 1.32 12.96 C1.04 12.53, 0.79 12.07, 0.6 11.6 C0.4 11.13, 0.25 10.63, 0.15 10.14 C0.05 9.65, 0 9.14, 0 8.64 C0 8.14, 0.05 7.63, 0.15 7.14 C0.25 6.65, 0.4 6.16, 0.6 5.69 C0.79 5.22, 1.04 4.75, 1.32 4.32 C1.61 3.89, 1.94 3.47, 2.31 3.09 C2.68 2.7, 3.09 2.34, 3.53 2.02 C3.97 1.7, 4.44 1.41, 4.94 1.16 C5.43 0.91, 5.96 0.69, 6.5 0.52 C7.03 0.35, 7.6 0.22, 8.16 0.13 C8.72 0.04, 9.3 0, 9.88 0 C10.45 0, 11.03 0.04, 11.59 0.13 C12.15 0.22, 12.72 0.35, 13.25 0.52 C13.79 0.69, 14.32 0.91, 14.81 1.16 C15.31 1.41, 15.78 1.7, 16.22 2.02 C16.66 2.34, 17.07 2.7, 17.44 3.09 C17.81 3.47, 18.14 3.89, 18.43 4.32 C18.71 4.75, 18.96 5.22, 19.15 5.69 C19.35 6.16, 19.5 6.65, 19.6 7.14 C19.7 7.63, 19.73 8.39, 19.75 8.64 C19.78 8.89, 19.78 8.39, 19.75 8.64" stroke="#000000" stroke-width="2" fill="none"></path></g><g stroke-linecap="round" transform="translate(782.3322308835689 460.00366028317274) rotate(0 9.87517181638475 8.640775339336727)"><path d="M2.19 3.23 C2.19 3.23, 2.19 3.23, 2.19 3.23 M2.19 3.23 C2.19 3.23, 2.19 3.23, 2.19 3.23 M2.98 14.51 C6.05 10.98, 9.12 7.44, 14.13 1.68 M2.98 14.51 C5.59 11.51, 8.19 8.51, 14.13 1.68 M10.33 18.25 C12.43 15.84, 14.53 13.42, 19.51 7.69 M10.33 18.25 C13.36 14.76, 16.39 11.27, 19.51 7.69 M3.77 15.47 C3.77 15.47, 3.77 15.47, 3.77 15.47 M3.77 15.47 C3.77 15.47, 3.77 15.47, 3.77 15.47 M15.81 15.34 C12.84 12.76, 9.87 10.17, 2.23 3.53 M15.81 15.34 C11.31 11.42, 6.8 7.5, 2.23 3.53 M20.31 8.65 C16.32 5.18, 12.33 1.71, 9.74 -0.54 M20.31 8.65 C17.18 5.93, 14.06 3.22, 9.74 -0.54" stroke="#ced4da" stroke-width="1" fill="none"></path><path d="M19.75 8.64 C19.75 9.14, 19.7 9.65, 19.6 10.14 C19.5 10.63, 19.35 11.13, 19.15 11.6 C18.96 12.07, 18.71 12.53, 18.43 12.96 C18.14 13.39, 17.81 13.81, 17.44 14.19 C17.07 14.58, 16.66 14.94, 16.22 15.26 C15.78 15.58, 15.31 15.87, 14.81 16.12 C14.32 16.37, 13.79 16.59, 13.25 16.76 C12.72 16.93, 12.15 17.06, 11.59 17.15 C11.03 17.24, 10.45 17.28, 9.88 17.28 C9.3 17.28, 8.72 17.24, 8.16 17.15 C7.6 17.06, 7.03 16.93, 6.5 16.76 C5.96 16.59, 5.43 16.37, 4.94 16.12 C4.44 15.87, 3.97 15.58, 3.53 15.26 C3.09 14.94, 2.68 14.58, 2.31 14.19 C1.94 13.81, 1.61 13.39, 1.32 12.96 C1.04 12.53, 0.79 12.07, 0.6 11.6 C0.4 11.13, 0.25 10.63, 0.15 10.14 C0.05 9.65, 0 9.14, 0 8.64 C0 8.14, 0.05 7.63, 0.15 7.14 C0.25 6.65, 0.4 6.16, 0.6 5.69 C0.79 5.22, 1.04 4.75, 1.32 4.32 C1.61 3.89, 1.94 3.47, 2.31 3.09 C2.68 2.7, 3.09 2.34, 3.53 2.02 C3.97 1.7, 4.44 1.41, 4.94 1.16 C5.43 0.91, 5.96 0.69, 6.5 0.52 C7.03 0.35, 7.6 0.22, 8.16 0.13 C8.72 0.04, 9.3 0, 9.88 0 C10.45 0, 11.03 0.04, 11.59 0.13 C12.15 0.22, 12.72 0.35, 13.25 0.52 C13.79 0.69, 14.32 0.91, 14.81 1.16 C15.31 1.41, 15.78 1.7, 16.22 2.02 C16.66 2.34, 17.07 2.7, 17.44 3.09 C17.81 3.47, 18.14 3.89, 18.43 4.32 C18.71 4.75, 18.96 5.22, 19.15 5.69 C19.35 6.16, 19.5 6.65, 19.6 7.14 C19.7 7.63, 19.73 8.39, 19.75 8.64 C19.78 8.89, 19.78 8.39, 19.75 8.64" stroke="#000000" stroke-width="2" fill="none"></path></g><g stroke-linecap="round"><g transform="translate(792.7840508908332 518.9346960208223) rotate(0 21.90843989373377 -18.494048425191153)" fill-rule="evenodd"><path d="M11.93 -33.36 C11.93 -33.36, 11.93 -33.36, 11.93 -33.36 M11.93 -33.36 C11.93 -33.36, 11.93 -33.36, 11.93 -33.36 M6.81 -15.28 C11.93 -21.17, 17.05 -27.05, 25.18 -36.41 M6.81 -15.28 C11.03 -20.14, 15.25 -24.99, 25.18 -36.41 M2.35 2.04 C12.74 -9.91, 23.12 -21.85, 31.87 -31.92 M2.35 2.04 C13.6 -10.89, 24.84 -23.83, 31.87 -31.92 M12.98 2.01 C18.66 -4.53, 24.35 -11.07, 37.25 -25.92 M12.98 2.01 C19.07 -4.99, 25.16 -12, 37.25 -25.92 M23.61 1.97 C28.29 -3.41, 32.96 -8.79, 41.32 -18.4 M23.61 1.97 C29.5 -4.8, 35.39 -11.57, 41.32 -18.4 M34.9 1.19 C37.29 -1.57, 39.69 -4.33, 46.05 -11.64 M34.9 1.19 C37.26 -1.54, 39.63 -4.26, 46.05 -11.64 M0 0 C0 0, 0 0, 0 0 M0 0 C0 0, 0 0, 0 0 M12.04 -0.13 C8.75 -2.99, 5.46 -5.85, 1.47 -9.32 M12.04 -0.13 C9.76 -2.11, 7.49 -4.09, 1.47 -9.32 M24.08 -0.27 C19.38 -4.35, 14.69 -8.43, 2.95 -18.64 M24.08 -0.27 C19.14 -4.56, 14.21 -8.85, 2.95 -18.64 M34.61 -1.71 C23.92 -11.01, 13.23 -20.3, 5.93 -26.64 M34.61 -1.71 C27.38 -8, 20.14 -14.29, 5.93 -26.64 M43.64 -4.47 C33.33 -13.42, 23.03 -22.38, 11.18 -32.68 M43.64 -4.47 C36.59 -10.6, 29.54 -16.72, 11.18 -32.68 M42.85 -15.76 C37.5 -20.4, 32.16 -25.04, 17.19 -38.06 M42.85 -15.76 C37.58 -20.33, 32.32 -24.9, 17.19 -38.06" stroke="#ced4da" stroke-width="1" fill="none"></path><path d="M0 0 C0.78 -4.11, 1.34 -18.46, 4.68 -24.67 C8.03 -30.87, 14.94 -36.78, 20.07 -37.23 C25.2 -37.68, 31.83 -33.14, 35.45 -27.36 C39.07 -21.58, 47.71 -7.12, 41.81 -2.56 C35.9 2, 6.97 -0.43, 0 0 M0 0 C0.78 -4.11, 1.34 -18.46, 4.68 -24.67 C8.03 -30.87, 14.94 -36.78, 20.07 -37.23 C25.2 -37.68, 31.83 -33.14, 35.45 -27.36 C39.07 -21.58, 47.71 -7.12, 41.81 -2.56 C35.9 2, 6.97 -0.43, 0 0" stroke="#000000" stroke-width="2" fill="none"></path></g></g><g stroke-linecap="round" transform="translate(803.2701730416431 462.3601847009853) rotate(0 10.702336545928915 9.364544477687815)"><path d="M2.43 3.43 C2.43 3.43, 2.43 3.43, 2.43 3.43 M2.43 3.43 C2.43 3.43, 2.43 3.43, 2.43 3.43 M2.56 15.48 C7.43 9.87, 12.31 4.26, 15.02 1.14 M2.56 15.48 C6.03 11.48, 9.5 7.49, 15.02 1.14 M9.91 19.21 C12.47 16.27, 15.03 13.32, 21.06 6.38 M9.91 19.21 C13.83 14.7, 17.76 10.19, 21.06 6.38 M4.02 16.71 C4.02 16.71, 4.02 16.71, 4.02 16.71 M4.02 16.71 C4.02 16.71, 4.02 16.71, 4.02 16.71 M16.82 17.23 C13.03 13.94, 9.25 10.65, 1.72 4.11 M16.82 17.23 C12.83 13.77, 8.85 10.31, 1.72 4.11 M21.31 10.54 C17.3 7.05, 13.28 3.56, 9.24 0.04 M21.31 10.54 C18.72 8.28, 16.12 6.03, 9.24 0.04" stroke="#ced4da" stroke-width="1" fill="none"></path><path d="M21.4 9.36 C21.4 9.91, 21.35 10.46, 21.24 10.99 C21.13 11.52, 20.97 12.06, 20.76 12.57 C20.55 13.08, 20.28 13.58, 19.97 14.05 C19.66 14.52, 19.3 14.97, 18.9 15.38 C18.5 15.8, 18.06 16.19, 17.58 16.54 C17.11 16.89, 16.59 17.2, 16.05 17.47 C15.52 17.75, 14.94 17.98, 14.36 18.16 C13.78 18.35, 13.17 18.49, 12.56 18.59 C11.95 18.68, 11.32 18.73, 10.7 18.73 C10.08 18.73, 9.45 18.68, 8.84 18.59 C8.23 18.49, 7.62 18.35, 7.04 18.16 C6.46 17.98, 5.89 17.75, 5.35 17.47 C4.81 17.2, 4.3 16.89, 3.82 16.54 C3.35 16.19, 2.9 15.8, 2.5 15.38 C2.11 14.97, 1.74 14.52, 1.43 14.05 C1.12 13.58, 0.86 13.08, 0.65 12.57 C0.43 12.06, 0.27 11.52, 0.16 10.99 C0.06 10.46, 0 9.91, 0 9.36 C0 8.82, 0.06 8.27, 0.16 7.74 C0.27 7.2, 0.43 6.67, 0.65 6.16 C0.86 5.65, 1.12 5.15, 1.43 4.68 C1.74 4.21, 2.11 3.76, 2.5 3.35 C2.9 2.93, 3.35 2.54, 3.82 2.19 C4.3 1.84, 4.81 1.53, 5.35 1.25 C5.89 0.98, 6.46 0.75, 7.04 0.56 C7.62 0.38, 8.23 0.24, 8.84 0.14 C9.45 0.05, 10.08 0, 10.7 0 C11.32 0, 11.95 0.05, 12.56 0.14 C13.17 0.24, 13.78 0.38, 14.36 0.56 C14.94 0.75, 15.52 0.98, 16.05 1.25 C16.59 1.53, 17.11 1.84, 17.58 2.19 C18.06 2.54, 18.5 2.93, 18.9 3.35 C19.3 3.76, 19.66 4.21, 19.97 4.68 C20.28 5.15, 20.55 5.65, 20.76 6.16 C20.97 6.67, 21.13 7.2, 21.24 7.74 C21.35 8.27, 21.38 9.09, 21.4 9.36 C21.43 9.64, 21.43 9.09, 21.4 9.36" stroke="#000000" stroke-width="2" fill="none"></path></g><g stroke-linecap="round"><g transform="translate(821.9353863452841 485.2656313357694) rotate(0 16.71865860152218 9.92115400104015)" fill-rule="evenodd"><path d="M0 0 C0 0, 0 0, 0 0 M0 0 C0 0, 0 0, 0 0 M6.04 5.25 C10.47 0.15, 14.91 -4.96, 17.85 -8.34 M6.04 5.25 C8.78 2.1, 11.52 -1.06, 17.85 -8.34 M12.08 10.5 C15.04 7.09, 18 3.68, 25.2 -4.6 M12.08 10.5 C16.62 5.26, 21.17 0.03, 25.2 -4.6 M15.49 18.76 C20.95 12.49, 26.4 6.21, 31.23 0.65 M15.49 18.76 C20.8 12.65, 26.12 6.53, 31.23 0.65 M16.93 29.3 C20.51 25.18, 24.09 21.06, 33.34 10.43 M16.93 29.3 C20.57 25.12, 24.2 20.94, 33.34 10.43 M29.53 27 C31.5 24.73, 33.47 22.47, 34.78 20.96 M29.53 27 C31.58 24.64, 33.62 22.29, 34.78 20.96 M14.43 27.6 C14.43 27.6, 14.43 27.6, 14.43 27.6 M14.43 27.6 C14.43 27.6, 14.43 27.6, 14.43 27.6 M25.72 26.82 C22.89 24.36, 20.07 21.91, 16.66 18.94 M25.72 26.82 C23.42 24.82, 21.12 22.82, 16.66 18.94 M33.98 23.4 C25.56 16.08, 17.14 8.76, 3.04 -3.5 M33.98 23.4 C25.94 16.41, 17.89 9.42, 3.04 -3.5 M36.97 15.4 C29.71 9.09, 22.46 2.78, 9.8 -8.22 M36.97 15.4 C26.51 6.3, 16.05 -2.79, 9.8 -8.22" stroke="#ced4da" stroke-width="1" fill="none"></path><path d="M0 0 C0.86 -0.93, 3.58 -4.18, 5.17 -5.57 C6.77 -6.97, 7.56 -7.83, 9.55 -8.36 C11.54 -8.89, 14.99 -8.89, 17.12 -8.76 C19.24 -8.62, 20.83 -8.43, 22.29 -7.56 C23.75 -6.7, 24.88 -5.11, 25.87 -3.58 C26.87 -2.06, 27.47 -0.33, 28.26 1.59 C29.06 3.52, 29.92 5.84, 30.65 7.96 C31.38 10.08, 32.18 12.41, 32.64 14.33 C33.11 16.25, 33.44 17.78, 33.44 19.51 C33.44 21.23, 33.3 23.42, 32.64 24.68 C31.98 25.94, 30.72 26.47, 29.46 27.07 C28.2 27.67, 26.87 28, 25.08 28.26 C23.29 28.53, 20.43 28.73, 18.71 28.66 C16.98 28.59, 15.46 28.93, 14.73 27.86 C14 26.8, 14.66 23.82, 14.33 22.29 C14 20.77, 13.47 20.23, 12.74 18.71 C12.01 17.18, 11.08 15.33, 9.95 13.14 C8.82 10.95, 7.63 7.76, 5.97 5.57 C4.31 3.38, 1 0.93, 0 0 M0 0 C0.86 -0.93, 3.58 -4.18, 5.17 -5.57 C6.77 -6.97, 7.56 -7.83, 9.55 -8.36 C11.54 -8.89, 14.99 -8.89, 17.12 -8.76 C19.24 -8.62, 20.83 -8.43, 22.29 -7.56 C23.75 -6.7, 24.88 -5.11, 25.87 -3.58 C26.87 -2.06, 27.47 -0.33, 28.26 1.59 C29.06 3.52, 29.92 5.84, 30.65 7.96 C31.38 10.08, 32.18 12.41, 32.64 14.33 C33.11 16.25, 33.44 17.78, 33.44 19.51 C33.44 21.23, 33.3 23.42, 32.64 24.68 C31.98 25.94, 30.72 26.47, 29.46 27.07 C28.2 27.67, 26.87 28, 25.08 28.26 C23.29 28.53, 20.43 28.73, 18.71 28.66 C16.98 28.59, 15.46 28.93, 14.73 27.86 C14 26.8, 14.66 23.82, 14.33 22.29 C14 20.77, 13.47 20.23, 12.74 18.71 C12.01 17.18, 11.08 15.33, 9.95 13.14 C8.82 10.95, 7.63 7.76, 5.97 5.57 C4.31 3.38, 1 0.93, 0 0" stroke="#000000" stroke-width="2" fill="none"></path></g></g><g stroke-linecap="round"><g transform="translate(804.0165998919501 485.253755432365) rotate(0 -16.121563651467795 12.19394740044197)" fill-rule="evenodd"><path d="M-24.42 -2.68 C-24.42 -2.68, -24.42 -2.68, -24.42 -2.68 M-24.42 -2.68 C-24.42 -2.68, -24.42 -2.68, -24.42 -2.68 M-26.26 11.62 C-22.58 7.39, -18.89 3.15, -12.48 -4.23 M-26.26 11.62 C-23.34 8.26, -20.41 4.9, -12.48 -4.23 M-29.41 27.44 C-23.52 20.67, -17.64 13.9, -2.51 -3.51 M-29.41 27.44 C-20.48 17.17, -11.55 6.9, -2.51 -3.51 M-22.71 31.93 C-17.26 25.66, -11.81 19.39, -8.28 15.33 M-22.71 31.93 C-18.45 27.02, -14.18 22.11, -8.28 15.33 M-12.74 32.65 C-12.12 31.94, -11.5 31.23, -10.77 30.39 M-12.74 32.65 C-12.04 31.84, -11.33 31.03, -10.77 30.39 M-31.63 25.72 C-31.63 25.72, -31.63 25.72, -31.63 25.72 M-31.63 25.72 C-31.63 25.72, -31.63 25.72, -31.63 25.72 M-13.55 30.83 C-16.78 28.03, -20.01 25.22, -29.4 17.05 M-13.55 30.83 C-19.67 25.51, -25.8 20.19, -29.4 17.05 M-6.79 26.11 C-13.65 20.14, -20.52 14.18, -27.92 7.74 M-6.79 26.11 C-14.03 19.81, -21.27 13.52, -27.92 7.74 M-8.34 14.16 C-14.47 8.83, -20.6 3.5, -24.94 -0.27 M-8.34 14.16 C-14.31 8.97, -20.29 3.77, -24.94 -0.27 M-4.6 6.81 C-10.51 1.67, -16.42 -3.46, -20.45 -6.96 M-4.6 6.81 C-9.92 2.18, -15.25 -2.45, -20.45 -6.96 M-0.1 0.12 C-3.73 -3.03, -7.36 -6.18, -12.93 -11.03 M-0.1 0.12 C-4.95 -4.09, -9.8 -8.31, -12.93 -11.03" stroke="#ced4da" stroke-width="1" fill="none"></path><path d="M0 0 C-0.66 -0.73, -2.59 -3.18, -3.98 -4.38 C-5.37 -5.57, -6.37 -6.63, -8.36 -7.17 C-10.35 -7.7, -13.8 -7.7, -15.92 -7.56 C-18.05 -7.43, -19.64 -7.23, -21.1 -6.37 C-22.56 -5.51, -23.68 -3.91, -24.68 -2.39 C-25.68 -0.86, -26.27 0.86, -27.07 2.79 C-27.86 4.71, -28.73 7.03, -29.46 9.16 C-30.19 11.28, -30.98 13.6, -31.45 15.52 C-31.91 17.45, -32.24 18.97, -32.24 20.7 C-32.24 22.42, -32.11 24.61, -31.45 25.87 C-30.78 27.13, -29.46 27.53, -28.26 28.26 C-27.07 28.99, -26.01 29.72, -24.28 30.25 C-22.56 30.78, -20.1 31.25, -17.91 31.45 C-15.72 31.65, -12.41 32.64, -11.15 31.45 C-9.89 30.25, -10.62 26.07, -10.35 24.28 C-10.08 22.49, -9.89 22.29, -9.55 20.7 C-9.22 19.11, -9.16 17.05, -8.36 14.73 C-7.56 12.41, -6.17 9.22, -4.78 6.77 C-3.38 4.31, -0.8 1.13, 0 0 M0 0 C-0.66 -0.73, -2.59 -3.18, -3.98 -4.38 C-5.37 -5.57, -6.37 -6.63, -8.36 -7.17 C-10.35 -7.7, -13.8 -7.7, -15.92 -7.56 C-18.05 -7.43, -19.64 -7.23, -21.1 -6.37 C-22.56 -5.51, -23.68 -3.91, -24.68 -2.39 C-25.68 -0.86, -26.27 0.86, -27.07 2.79 C-27.86 4.71, -28.73 7.03, -29.46 9.16 C-30.19 11.28, -30.98 13.6, -31.45 15.52 C-31.91 17.45, -32.24 18.97, -32.24 20.7 C-32.24 22.42, -32.11 24.61, -31.45 25.87 C-30.78 27.13, -29.46 27.53, -28.26 28.26 C-27.07 28.99, -26.01 29.72, -24.28 30.25 C-22.56 30.78, -20.1 31.25, -17.91 31.45 C-15.72 31.65, -12.41 32.64, -11.15 31.45 C-9.89 30.25, -10.62 26.07, -10.35 24.28 C-10.08 22.49, -9.89 22.29, -9.55 20.7 C-9.22 19.11, -9.16 17.05, -8.36 14.73 C-7.56 12.41, -6.17 9.22, -4.78 6.77 C-3.38 4.31, -0.8 1.13, 0 0" stroke="#000000" stroke-width="2" fill="none"></path></g></g><g stroke-linecap="round"><g transform="translate(769.6153080887416 459.47028007588756) rotate(0 -195.77277762131814 -42.97192926251532)"><path d="M0 0 C-34.66 -13.2, -142.7 -65.57, -207.95 -79.22 C-273.21 -92.86, -360.95 -81.45, -391.55 -81.9 M0 0 C-34.66 -13.2, -142.7 -65.57, -207.95 -79.22 C-273.21 -92.86, -360.95 -81.45, -391.55 -81.9" stroke="#000000" stroke-width="2" fill="none"></path></g><g transform="translate(769.6153080887416 459.47028007588756) rotate(0 -195.77277762131814 -42.97192926251532)"><path d="M-391.55 -81.9 L-378.24 -88.83 L-377.68 -76.16 L-391.55 -81.9" stroke="none" stroke-width="0" fill="#000000" fill-rule="evenodd"></path><path d="M-391.55 -81.9 C-387.17 -84.17, -382.8 -86.45, -378.24 -88.83 M-391.55 -81.9 C-386.67 -84.44, -381.79 -86.98, -378.24 -88.83 M-378.24 -88.83 C-378.04 -84.3, -377.84 -79.77, -377.68 -76.16 M-378.24 -88.83 C-378.03 -83.87, -377.81 -78.92, -377.68 -76.16 M-377.68 -76.16 C-383.22 -78.45, -388.76 -80.74, -391.55 -81.9 M-377.68 -76.16 C-382.77 -78.27, -387.86 -80.37, -391.55 -81.9 M-391.55 -81.9 C-391.55 -81.9, -391.55 -81.9, -391.55 -81.9 M-391.55 -81.9 C-391.55 -81.9, -391.55 -81.9, -391.55 -81.9" stroke="#000000" stroke-width="2" fill="none"></path></g></g><g stroke-linecap="round"><g transform="translate(868.2183718327954 306.41717402512376) rotate(0 45.397304836078206 43.19078906170216)" fill-rule="evenodd"><path d="M1.94 1.72 L-0.36 83.32 L1.25 86.91 L6.85 88.32 L29.91 94.33 L47.09 97.45 L76.16 92.62 L90.42 85.98 L89.3 83.92 L93.65 -0.01 L89.13 -0.19 L78.92 -6.19 L65.76 -8.32 L45.59 -11.42 L15.4 -7.01 L1.9 1.97" stroke="none" stroke-width="0" fill="#15aabf" fill-rule="evenodd"></path><path d="M-0.03 0.92 C-0.04 13.1, 0.71 57.88, 0.96 72.23 C1.22 86.59, -0.45 83.79, 1.48 87.06 C3.42 90.33, 8.16 90.51, 12.58 91.85 C17 93.2, 22.35 94.58, 27.99 95.13 C33.63 95.69, 40.73 94.95, 46.42 95.18 C52.11 95.4, 57.25 97, 62.15 96.49 C67.05 95.99, 71.21 93.75, 75.84 92.16 C80.46 90.56, 87.22 90.14, 89.92 86.92 C92.61 83.71, 91.75 85.88, 92 72.87 C92.24 59.86, 91.79 21.06, 91.39 8.86 C90.98 -3.34, 91.46 2.28, 89.57 -0.33 C87.67 -2.95, 83.91 -5.59, 80.03 -6.83 C76.14 -8.08, 71.4 -7.13, 66.24 -7.8 C61.08 -8.46, 53.47 -10.67, 49.05 -10.81 C44.64 -10.95, 45.18 -9.22, 39.74 -8.62 C34.29 -8.03, 22.86 -8.83, 16.39 -7.24 C9.92 -5.66, 3.45 -0.21, 0.91 0.89 M-1.51 0.35 C-1.68 12.71, 0.16 59.09, 0.52 73.19 C0.88 87.29, -1.39 81.63, 0.65 84.96 C2.7 88.28, 7.99 91.41, 12.81 93.15 C17.63 94.9, 23.78 94.75, 29.6 95.42 C35.41 96.09, 42.12 97.14, 47.69 97.19 C53.26 97.25, 58.5 96.72, 63.02 95.76 C67.54 94.8, 70.62 93.07, 74.83 91.44 C79.04 89.81, 85.8 89.19, 88.28 85.98 C90.77 82.77, 89.18 84.96, 89.73 72.17 C90.29 59.38, 91.34 21.41, 91.62 9.25 C91.89 -2.9, 93.18 1.53, 91.37 -0.77 C89.57 -3.06, 85.09 -3.43, 80.78 -4.53 C76.48 -5.63, 70.81 -6.78, 65.53 -7.39 C60.24 -8, 53.75 -7.71, 49.07 -8.21 C44.39 -8.71, 43.12 -10.74, 37.44 -10.4 C31.76 -10.06, 21.22 -8.2, 15 -6.18 C8.77 -4.16, 2.55 0.82, 0.11 1.72" stroke="#364fc7" stroke-width="1" fill="none"></path></g></g><g stroke-linecap="round" transform="translate(867.8812526239178 295.2916995336961) rotate(0 45.69982317156462 12.425547889254943)"><path d="M52.1 0.56 C60.68 1.03, 72.48 2.98, 78.88 4.6 C85.29 6.22, 89.34 8.19, 90.53 10.28 C91.71 12.37, 89.85 14.93, 85.97 17.15 C82.09 19.36, 75.24 22.48, 67.26 23.58 C59.28 24.67, 46.96 23.96, 38.11 23.71 C29.26 23.46, 20.49 23.77, 14.16 22.07 C7.83 20.37, 1.61 16.09, 0.14 13.51 C-1.34 10.94, 1.2 8.46, 5.32 6.59 C9.45 4.72, 16.11 3.22, 24.89 2.31 C33.66 1.4, 51.91 1.5, 58 1.13 C64.08 0.76, 61.76 0.07, 61.4 0.09 M44.05 1.03 C52.78 0.76, 64 -0.26, 71.23 1.06 C78.45 2.38, 84.25 6.28, 87.41 8.94 C90.57 11.61, 92.24 15.11, 90.2 17.05 C88.15 19, 82.23 19.52, 75.16 20.61 C68.09 21.7, 56.82 23.12, 47.78 23.6 C38.75 24.07, 28.62 24.68, 20.96 23.47 C13.3 22.27, 4.9 18.52, 1.83 16.36 C-1.24 14.21, 0.12 12.71, 2.54 10.54 C4.96 8.36, 9.42 5.12, 16.36 3.33 C23.3 1.54, 39.87 0.39, 44.19 -0.19 C48.51 -0.77, 42.29 -0.44, 42.29 -0.15" stroke="none" stroke-width="0" fill="#ffffff"></path><path d="M25.35 1.61 C32.56 0.34, 43.6 -0.18, 52.39 0.01 C61.19 0.21, 71.64 0.85, 78.12 2.78 C84.6 4.7, 89.92 9.11, 91.27 11.58 C92.63 14.05, 90.43 15.47, 86.24 17.58 C82.04 19.7, 73.94 23.14, 66.08 24.26 C58.22 25.37, 47.94 24.97, 39.08 24.29 C30.21 23.61, 19.45 21.85, 12.9 20.18 C6.36 18.5, 0.93 16.62, -0.21 14.23 C-1.35 11.84, -0.14 8, 6.04 5.82 C12.21 3.65, 29.79 2.24, 36.85 1.18 C43.92 0.13, 48.18 -0.73, 48.41 -0.52 M41.65 1.51 C49.76 1.13, 59.56 2.16, 67.38 3.07 C75.21 3.97, 84.85 4.99, 88.58 6.92 C92.31 8.85, 91.75 12.11, 89.78 14.64 C87.82 17.17, 83.45 20.3, 76.8 22.09 C70.15 23.88, 58.94 25.13, 49.88 25.37 C40.82 25.61, 29.92 24.79, 22.44 23.53 C14.95 22.28, 8.57 20.05, 4.95 17.85 C1.34 15.66, -0.91 13.04, 0.73 10.38 C2.36 7.71, 8.04 3.35, 14.76 1.87 C21.48 0.4, 36.89 1.93, 41.05 1.51 C45.21 1.09, 39.7 -0.58, 39.72 -0.63" stroke="#364fc7" stroke-width="1" fill="none"></path></g><g transform="translate(847.8144884261728 413.4823391784588) rotate(0 65.6609804894822 8.586435910163061)"><text x="65.66098048948218" y="12.172871820326108" font-family="Virgil, Segoe UI Emoji" font-size="13.811110590495678px" fill="#000000" text-anchor="middle" style="white-space: pre;" direction="ltr">Destination System</text></g><g stroke-linecap="round"><g transform="translate(709.5760527109526 431.3807229995972) rotate(0 71.02454549417962 -37.76327549374378)"><path d="M0 0 C9.52 -8.98, 33.46 -41.31, 57.13 -53.9 C80.81 -66.49, 127.9 -71.92, 142.05 -75.53 M0 0 C9.52 -8.98, 33.46 -41.31, 57.13 -53.9 C80.81 -66.49, 127.9 -71.92, 142.05 -75.53" stroke="#000000" stroke-width="2" fill="none"></path></g><g transform="translate(709.5760527109526 431.3807229995972) rotate(0 71.02454549417962 -37.76327549374378)"><path d="M142.05 -75.53 L129.9 -66.73 L127.5 -79.17 L142.05 -75.53" stroke="none" stroke-width="0" fill="#000000" fill-rule="evenodd"></path><path d="M142.05 -75.53 C138.02 -72.61, 134 -69.69, 129.9 -66.73 M142.05 -75.53 C139.19 -73.45, 136.33 -71.38, 129.9 -66.73 M129.9 -66.73 C129.25 -70.09, 128.6 -73.46, 127.5 -79.17 M129.9 -66.73 C129.35 -69.6, 128.79 -72.48, 127.5 -79.17 M127.5 -79.17 C133.18 -77.75, 138.86 -76.33, 142.05 -75.53 M127.5 -79.17 C131.2 -78.25, 134.91 -77.32, 142.05 -75.53 M142.05 -75.53 C142.05 -75.53, 142.05 -75.53, 142.05 -75.53 M142.05 -75.53 C142.05 -75.53, 142.05 -75.53, 142.05 -75.53" stroke="#000000" stroke-width="2" fill="none"></path></g></g><g stroke-linecap="round" transform="translate(428.0307621960768 395.1536522764219) rotate(0 20.19564101335385 20.19564101335385)"><path d="M4.67 6.82 C7.47 3.95, 15.55 0.32, 19.93 -0.29 C24.32 -0.89, 27.69 0.52, 30.99 3.18 C34.28 5.84, 38.36 11.75, 39.71 15.69 C41.05 19.64, 40.81 22.89, 39.06 26.87 C37.32 30.85, 33.12 37.29, 29.22 39.57 C25.32 41.85, 19.63 42.11, 15.65 40.56 C11.67 39, 8.26 33.9, 5.36 30.22 C2.46 26.55, -2.33 22.69, -1.74 18.5 C-1.14 14.32, 6.88 7.61, 8.91 5.12 C10.93 2.63, 10.56 3.72, 10.41 3.57 M14.55 1.58 C18.64 1.21, 23.23 2.47, 27.74 4.72 C32.25 6.97, 39.9 11.23, 41.6 15.08 C43.3 18.93, 39.96 23.82, 37.96 27.82 C35.96 31.83, 32.96 36.96, 29.59 39.11 C26.22 41.26, 21.38 41.91, 17.74 40.72 C14.09 39.53, 10.77 34.76, 7.72 31.96 C4.66 29.16, 0.37 28.31, -0.57 23.92 C-1.51 19.54, -0.43 9.82, 2.08 5.64 C4.59 1.46, 11.86 -0.75, 14.48 -1.15 C17.1 -1.55, 17.38 2.82, 17.79 3.27" stroke="none" stroke-width="0" fill="#4c6ef5"></path><path d="M30.51 4.01 C33.88 6.05, 36.77 8.71, 37.84 12.83 C38.91 16.95, 38.37 24.23, 36.93 28.73 C35.5 33.24, 33.01 37.74, 29.23 39.85 C25.45 41.96, 18.82 42.46, 14.26 41.41 C9.7 40.35, 4.32 37.57, 1.88 33.51 C-0.56 29.45, -0.83 21.37, -0.36 17.06 C0.1 12.75, 1.73 10.45, 4.65 7.66 C7.58 4.87, 11.81 0.46, 17.2 0.32 C22.59 0.18, 33.15 4.42, 36.99 6.82 C40.82 9.22, 40.5 14.23, 40.21 14.74 M15.3 -0.61 C19.35 -1.62, 23.35 0.16, 26.93 1.68 C30.52 3.2, 34.18 4.76, 36.81 8.51 C39.45 12.27, 43.04 19.29, 42.76 24.2 C42.47 29.1, 38.8 34.91, 35.08 37.94 C31.36 40.98, 25.01 43.1, 20.44 42.43 C15.86 41.76, 11.34 37.2, 7.64 33.91 C3.93 30.61, -0.7 26.41, -1.8 22.68 C-2.91 18.95, -1.36 14.88, 0.98 11.53 C3.33 8.18, 10.08 3.88, 12.26 2.58 C14.43 1.29, 13.59 3.28, 14.05 3.75" stroke="#000000" stroke-width="1" fill="none"></path></g><g stroke-linecap="round" transform="translate(440.2037199488344 410.7420154296161) rotate(0 8.07825640534162 8.078256405341676)"><path d="M4.04 0 L12.12 0 L15.15 1.01 L16.16 4.04 L16.16 12.12 L15.15 15.15 L12.12 16.16 L4.04 16.16 L1.01 15.15 L0 12.12 L0.25 2.27 L2.27 0.25 L4.04 0" stroke="none" stroke-width="0" fill="#ffffff"></path><path d="M4.04 0 M4.04 0 C6.97 0, 9.91 0, 12.12 0 M4.04 0 C6.79 0, 9.55 0, 12.12 0 M12.12 0 C14.81 0, 16.16 1.35, 16.16 4.04 M12.12 0 C14.81 0, 16.16 1.35, 16.16 4.04 M16.16 4.04 C16.16 6.41, 16.16 8.78, 16.16 12.12 M16.16 4.04 C16.16 6.56, 16.16 9.08, 16.16 12.12 M16.16 12.12 C16.16 14.81, 14.81 16.16, 12.12 16.16 M16.16 12.12 C16.16 14.81, 14.81 16.16, 12.12 16.16 M12.12 16.16 C9.46 16.16, 6.8 16.16, 4.04 16.16 M12.12 16.16 C10.31 16.16, 8.5 16.16, 4.04 16.16 M4.04 16.16 C1.35 16.16, 0 14.81, 0 12.12 M4.04 16.16 C1.35 16.16, 0 14.81, 0 12.12 M0 12.12 C0 9.04, 0 5.96, 0 4.04 M0 12.12 C0 9.65, 0 7.18, 0 4.04 M0 4.04 C0 1.35, 1.35 0, 4.04 0 M0 4.04 C0 1.35, 1.35 0, 4.04 0" stroke="#ffffff" stroke-width="1" fill="none"></path></g><g stroke-linecap="round"><g transform="translate(443.54221333475414 410.5289435358651) rotate(0 4.874003236974602 -3.1200681840329594)" fill-rule="evenodd"><path d="M0.28 -3.73 C0.28 -3.73, 0.28 -3.73, 0.28 -3.73 M0.28 -3.73 C0.28 -3.73, 0.28 -3.73, 0.28 -3.73" stroke="#228be6" stroke-width="2" fill="none"></path><path d="M0 0 C0.01 -0.58, -0.23 -2.58, 0.06 -3.47 C0.34 -4.36, 1.16 -4.85, 1.69 -5.34 C2.22 -5.84, 2.44 -6.28, 3.23 -6.46 C4.03 -6.65, 5.64 -6.69, 6.46 -6.46 C7.29 -6.24, 7.7 -6.2, 8.18 -5.12 C8.67 -4.04, 10.74 -0.86, 9.37 0 C8.01 0.85, 1.56 0, 0 0 M0 0 C0.01 -0.58, -0.23 -2.58, 0.06 -3.47 C0.34 -4.36, 1.16 -4.85, 1.69 -5.34 C2.22 -5.84, 2.44 -6.28, 3.23 -6.46 C4.03 -6.65, 5.64 -6.69, 6.46 -6.46 C7.29 -6.24, 7.7 -6.2, 8.18 -5.12 C8.67 -4.04, 10.74 -0.86, 9.37 0 C8.01 0.85, 1.56 0, 0 0" stroke="#fff" stroke-width="4" fill="none"></path></g></g><g stroke-linecap="round" transform="translate(446.80431866155084 414.9529929913989) rotate(0 1.4209117345044433 1.4209117345044433)"><path d="M2.84 1.42 C2.84 1.5, 2.83 1.59, 2.82 1.67 C2.81 1.75, 2.78 1.83, 2.76 1.91 C2.73 1.98, 2.69 2.06, 2.65 2.13 C2.61 2.2, 2.56 2.27, 2.51 2.33 C2.46 2.4, 2.4 2.46, 2.33 2.51 C2.27 2.56, 2.2 2.61, 2.13 2.65 C2.06 2.69, 1.98 2.73, 1.91 2.76 C1.83 2.78, 1.75 2.81, 1.67 2.82 C1.59 2.83, 1.5 2.84, 1.42 2.84 C1.34 2.84, 1.26 2.83, 1.17 2.82 C1.09 2.81, 1.01 2.78, 0.93 2.76 C0.86 2.73, 0.78 2.69, 0.71 2.65 C0.64 2.61, 0.57 2.56, 0.51 2.51 C0.44 2.46, 0.39 2.4, 0.33 2.33 C0.28 2.27, 0.23 2.2, 0.19 2.13 C0.15 2.06, 0.11 1.98, 0.09 1.91 C0.06 1.83, 0.04 1.75, 0.02 1.67 C0.01 1.59, 0 1.5, 0 1.42 C0 1.34, 0.01 1.26, 0.02 1.17 C0.04 1.09, 0.06 1.01, 0.09 0.93 C0.11 0.86, 0.15 0.78, 0.19 0.71 C0.23 0.64, 0.28 0.57, 0.33 0.51 C0.39 0.44, 0.44 0.39, 0.51 0.33 C0.57 0.28, 0.64 0.23, 0.71 0.19 C0.78 0.15, 0.86 0.11, 0.93 0.09 C1.01 0.06, 1.09 0.04, 1.17 0.02 C1.26 0.01, 1.34 0, 1.42 0 C1.5 0, 1.59 0.01, 1.67 0.02 C1.75 0.04, 1.83 0.06, 1.91 0.09 C1.98 0.11, 2.06 0.15, 2.13 0.19 C2.2 0.23, 2.27 0.28, 2.33 0.33 C2.4 0.39, 2.46 0.44, 2.51 0.51 C2.56 0.57, 2.61 0.64, 2.65 0.71 C2.69 0.78, 2.73 0.86, 2.76 0.93 C2.78 1.01, 2.81 1.09, 2.82 1.17 C2.83 1.26, 2.84 1.38, 2.84 1.42 C2.85 1.46, 2.85 1.38, 2.84 1.42" stroke="none" stroke-width="0" fill="#7950f2"></path><path d="M2.84 1.42 C2.84 1.5, 2.83 1.59, 2.82 1.67 C2.81 1.75, 2.78 1.83, 2.76 1.91 C2.73 1.98, 2.69 2.06, 2.65 2.13 C2.61 2.2, 2.56 2.27, 2.51 2.33 C2.46 2.4, 2.4 2.46, 2.33 2.51 C2.27 2.56, 2.2 2.61, 2.13 2.65 C2.06 2.69, 1.98 2.73, 1.91 2.76 C1.83 2.78, 1.75 2.81, 1.67 2.82 C1.59 2.83, 1.5 2.84, 1.42 2.84 C1.34 2.84, 1.26 2.83, 1.17 2.82 C1.09 2.81, 1.01 2.78, 0.93 2.76 C0.86 2.73, 0.78 2.69, 0.71 2.65 C0.64 2.61, 0.57 2.56, 0.51 2.51 C0.44 2.46, 0.39 2.4, 0.33 2.33 C0.28 2.27, 0.23 2.2, 0.19 2.13 C0.15 2.06, 0.11 1.98, 0.09 1.91 C0.06 1.83, 0.04 1.75, 0.02 1.67 C0.01 1.59, 0 1.5, 0 1.42 C0 1.34, 0.01 1.26, 0.02 1.17 C0.04 1.09, 0.06 1.01, 0.09 0.93 C0.11 0.86, 0.15 0.78, 0.19 0.71 C0.23 0.64, 0.28 0.57, 0.33 0.51 C0.39 0.44, 0.44 0.39, 0.51 0.33 C0.57 0.28, 0.64 0.23, 0.71 0.19 C0.78 0.15, 0.86 0.11, 0.93 0.09 C1.01 0.06, 1.09 0.04, 1.17 0.02 C1.26 0.01, 1.34 0, 1.42 0 C1.5 0, 1.59 0.01, 1.67 0.02 C1.75 0.04, 1.83 0.06, 1.91 0.09 C1.98 0.11, 2.06 0.15, 2.13 0.19 C2.2 0.23, 2.27 0.28, 2.33 0.33 C2.4 0.39, 2.46 0.44, 2.51 0.51 C2.56 0.57, 2.61 0.64, 2.65 0.71 C2.69 0.78, 2.73 0.86, 2.76 0.93 C2.78 1.01, 2.81 1.09, 2.82 1.17 C2.83 1.26, 2.84 1.38, 2.84 1.42 C2.85 1.46, 2.85 1.38, 2.84 1.42" stroke="#5f3dc4" stroke-width="1" fill="none"></path></g><g stroke-linecap="round"><g transform="translate(447.7728239344475 418.0031943651421) rotate(0 0.692290967971644 2.0344869579298575)" fill-rule="evenodd"><path d="M0 0 L-0.68 3.87 L2.05 3.87 L1.37 0 L0 0" stroke="none" stroke-width="0" fill="#7950f2" fill-rule="evenodd"></path><path d="M0 0 C-0.11 0.65, -1.03 3.23, -0.68 3.87 C-0.34 4.52, 1.71 4.52, 2.05 3.87 C2.39 3.23, 1.71 0.65, 1.37 0 C1.03 -0.65, 0.23 0, 0 0 M0 0 C-0.11 0.65, -1.03 3.23, -0.68 3.87 C-0.34 4.52, 1.71 4.52, 2.05 3.87 C2.39 3.23, 1.71 0.65, 1.37 0 C1.03 -0.65, 0.23 0, 0 0" stroke="#364fc7" stroke-width="1" fill="none"></path></g></g><g transform="translate(436.7862661123987 438.56435746947284) rotate(0 12.999999999999943 8)"><text x="0" y="11" font-family="Virgil, Segoe UI Emoji" font-size="12.593487378170952px" fill="#343a40" text-anchor="start" style="white-space: pre;" direction="ltr">TLS</text></g></svg>