<svg version="1.1" xmlns="http://www.w3.org/2000/svg" viewBox="0 0 1097.7745834948541 745.6044344503391" width="2195.5491669897083" height="1491.2088689006782">
  <!-- svg-source:excalidraw -->
  
  <defs>
    <style>
      @font-face {
        font-family: "Virgil";
        src: url("/fonts/Virgil.woff2");
      }
      @font-face {
        font-family: "Cascadia";
        src: url("/fonts/Cascadia.woff2");
      }
    </style>
  </defs>
  <g stroke-linecap="round"><g transform="translate(863.5105246316364 289.1590714836665) rotate(0 106.2800799736026 115.96723993995386)" fill-rule="evenodd"><path d="M-1.45 -1.09 L2.04 207.67 L0.14 231.4 L0.59 232.39 L2.44 239.1 L19.19 243.75 L48.7 249.12 L111.65 251.73 L174.41 250.41 L195.76 242.29 L210 234.39 L210.54 230.65 L213.66 231.55 L210.7 -4.98 L212.3 -0.92 L207.7 -6.1 L197.37 -10.39 L179.89 -14.55 L102.35 -20.93 L76.06 -22.78 L50.83 -17.72 L28.2 -15.11 L3.25 -6.92 L-1.69 -0.03" stroke="none" stroke-width="0" fill="#228be6" fill-rule="evenodd"></path><path d="M-0.64 -0.2 C-0.75 34.32, -0.29 168.01, -0.17 206.57 C-0.04 245.13, -1.72 225.25, 0.13 231.17 C1.98 237.09, 2.98 238.94, 10.93 242.1 C18.88 245.27, 30.92 248.51, 47.84 250.14 C64.75 251.76, 91.12 252.21, 112.43 251.86 C133.74 251.5, 159.9 250.23, 175.69 247.99 C191.48 245.76, 200.97 241.38, 207.17 238.43 C213.37 235.48, 211.93 234.95, 212.9 230.28 C213.86 225.62, 213.22 246, 212.96 210.45 C212.7 174.91, 211.8 52.11, 211.33 17.02 C210.86 -18.08, 212.48 4.58, 210.13 -0.13 C207.77 -4.84, 204.24 -8.39, 197.2 -11.26 C190.16 -14.13, 183.44 -15.69, 167.9 -17.33 C152.35 -18.98, 123.63 -20.92, 103.92 -21.12 C84.21 -21.32, 65.59 -20.64, 49.64 -18.54 C33.69 -16.43, 16.62 -11.41, 8.23 -8.49 C-0.16 -5.58, 0.71 -2.37, -0.72 -1.04 C-2.15 0.28, -0.57 -0.85, -0.36 -0.56 M1.23 -1.35 C1.45 33.33, 2.39 168.6, 2.09 207.57 C1.79 246.54, -2.1 227.07, -0.59 232.46 C0.92 237.85, 2.83 236.88, 11.17 239.9 C19.5 242.92, 32.37 248.21, 49.41 250.56 C66.44 252.91, 92.74 254.08, 113.36 254 C133.99 253.92, 157.71 252.69, 173.15 250.06 C188.59 247.43, 199.58 241.68, 206 238.22 C212.42 234.76, 210.36 234, 211.67 229.29 C212.98 224.59, 213.95 245.22, 213.87 209.97 C213.79 174.72, 211.53 52.82, 211.2 17.79 C210.87 -17.24, 214.2 4.81, 211.89 -0.19 C209.58 -5.19, 204.85 -9.28, 197.34 -12.21 C189.83 -15.13, 182.26 -16.23, 166.82 -17.74 C151.38 -19.25, 124.15 -20.77, 104.72 -21.27 C85.29 -21.77, 66 -23.03, 50.24 -20.74 C34.48 -18.45, 18.33 -10.8, 10.18 -7.53 C2.03 -4.27, 2.74 -2.31, 1.33 -1.16 C-0.07 0, 1.72 -0.67, 1.72 -0.6" stroke="#0a11d3" stroke-width="1" fill="none"></path></g></g><g stroke-linecap="round"><g transform="translate(865.1686797849079 446.6615620303915) rotate(0 105.75029942127225 10.483492492338002)"><path d="M-0.2 -0.87 C0.66 0.82, -0.4 6.49, 4.59 9.51 C9.59 12.54, 20.08 15.4, 29.76 17.3 C39.45 19.2, 48.9 20.21, 62.69 20.94 C76.49 21.66, 94.58 21.73, 112.54 21.64 C130.5 21.55, 155 22.65, 170.45 20.4 C185.91 18.15, 198.14 11.58, 205.27 8.14 C212.41 4.7, 211.85 1.26, 213.27 -0.24 M-1.77 1.29 C-0.5 3.25, 1.64 8.22, 6.77 11.1 C11.89 13.99, 19.55 16.88, 28.97 18.6 C38.39 20.32, 49.6 20.93, 63.29 21.42 C76.98 21.91, 93.09 21.82, 111.1 21.56 C129.12 21.29, 155.63 22.32, 171.39 19.84 C187.15 17.35, 198.83 9.98, 205.66 6.65 C212.49 3.32, 211.23 1.32, 212.37 -0.13" stroke="#0a11d3" stroke-width="1" fill="none"></path></g></g><g stroke-linecap="round"><g transform="translate(862.5301949578786 366.87520116129946) rotate(0 106.50610153741025 11.27487046194679)"><path d="M-0.87 -1.02 C0.19 0.57, 0.6 6.2, 5.71 9.37 C10.82 12.54, 20.6 15.86, 29.79 18 C38.98 20.13, 47.22 21.57, 60.85 22.17 C74.48 22.78, 93 22.16, 111.57 21.64 C130.14 21.11, 156.61 21.19, 172.26 19.02 C187.91 16.86, 198.54 11.88, 205.47 8.65 C212.41 5.42, 212.58 1.3, 213.88 -0.34 M0.88 1.06 C1.84 2.87, 0.12 8.39, 4.81 10.88 C9.5 13.37, 19.73 13.93, 29.01 16.01 C38.29 18.08, 46.43 22.39, 60.47 23.31 C74.52 24.23, 94.95 22.48, 113.28 21.55 C131.62 20.62, 155.04 20.09, 170.49 17.73 C185.94 15.38, 198.84 10.43, 205.97 7.43 C213.11 4.43, 212.33 1.38, 213.3 -0.28" stroke="#0a11d3" stroke-width="1" fill="none"></path></g></g><g stroke-linecap="round" transform="translate(859.8263809226465 269.8007139529133) rotate(0 105.72203813005359 21.381486832252165)"><path d="M136.83 0.73 C150.93 1.37, 165.85 3.69, 177.16 5.76 C188.47 7.83, 198.97 10.15, 204.68 13.14 C210.39 16.12, 212.56 20.52, 211.4 23.67 C210.24 26.82, 205.49 29.64, 197.74 32.05 C189.99 34.46, 177.8 36.44, 164.9 38.12 C151.99 39.81, 135.38 41.51, 120.32 42.19 C105.25 42.87, 89 43.09, 74.52 42.21 C60.04 41.33, 44.75 39.17, 33.44 36.9 C22.12 34.63, 12.25 31.41, 6.64 28.61 C1.02 25.8, -1.4 23, -0.23 20.08 C0.94 17.15, 5.94 13.93, 13.64 11.08 C21.33 8.23, 33.23 4.94, 45.95 2.97 C58.68 1.01, 73.44 -0.36, 89.98 -0.7 C106.52 -1.04, 134.97 0.32, 145.18 0.95 C155.38 1.59, 151.88 2.68, 151.22 3.12 M77.16 2.06 C90.63 1.09, 108.9 0.14, 124.34 0.59 C139.77 1.04, 157.17 2.91, 169.77 4.75 C182.37 6.58, 193.01 9.03, 199.93 11.59 C206.86 14.16, 211.14 17.28, 211.33 20.14 C211.53 23, 207.17 25.68, 201.09 28.74 C195.01 31.8, 186.23 36.33, 174.84 38.51 C163.46 40.69, 147.76 40.96, 132.79 41.81 C117.81 42.67, 100.09 44.3, 84.99 43.65 C69.89 43, 54.3 39.94, 42.18 37.91 C30.06 35.89, 19.28 33.95, 12.27 31.51 C5.26 29.08, 0.88 26.41, 0.11 23.31 C-0.65 20.21, 1.37 15.73, 7.69 12.92 C14.01 10.12, 26.15 8.41, 38.04 6.47 C49.93 4.53, 71.97 2.12, 79.02 1.29 C86.06 0.46, 80.07 1.09, 80.32 1.49" stroke="none" stroke-width="0" fill="#fff"></path><path d="M102.37 0.06 C116.73 -0.55, 134.48 -0.05, 148.69 1.16 C162.9 2.36, 177.74 4.75, 187.63 7.28 C197.52 9.81, 204.28 13.19, 208.01 16.35 C211.74 19.52, 213 23.31, 210 26.3 C207.01 29.29, 199.56 31.99, 190.06 34.29 C180.56 36.59, 166.79 38.59, 153 40.1 C139.22 41.61, 122.52 43.25, 107.33 43.34 C92.14 43.43, 75.74 42.08, 61.85 40.65 C47.96 39.22, 33.63 36.98, 23.98 34.75 C14.32 32.51, 7.7 30.14, 3.95 27.25 C0.2 24.36, -1.36 20.5, 1.47 17.42 C4.29 14.34, 11.58 11.4, 20.88 8.76 C30.17 6.12, 42.4 3.1, 57.22 1.56 C72.04 0.03, 99.84 -0.37, 109.82 -0.45 C119.81 -0.52, 117.26 0.77, 117.12 1.11 M140.1 2.06 C154.56 2.59, 170.52 3.55, 181.63 5.74 C192.75 7.93, 201.94 12.24, 206.79 15.19 C211.64 18.15, 212.76 20.77, 210.74 23.48 C208.72 26.19, 202.89 28.83, 194.68 31.44 C186.46 34.06, 174 37.17, 161.44 39.17 C148.88 41.17, 134.53 43.12, 119.3 43.44 C104.08 43.76, 85 42.46, 70.09 41.09 C55.18 39.71, 40.3 37.18, 29.85 35.2 C19.4 33.23, 12.17 32.12, 7.39 29.21 C2.61 26.3, -0.05 20.88, 1.16 17.75 C2.38 14.62, 6.75 12.62, 14.67 10.44 C22.58 8.25, 35.4 6.35, 48.63 4.63 C61.86 2.91, 78.67 0.56, 94.04 0.13 C109.41 -0.3, 133.1 1.89, 140.84 2.04 C148.58 2.2, 141.01 0.78, 140.47 1.08" stroke="#0a11d3" stroke-width="1" fill="none"></path></g><g stroke-linecap="round" transform="translate(1032.3327195587108 329.08609563433146) rotate(0 15.494578120987512 16.816360499471784)"><path d="M9.17 0.78 C11.62 -0.93, 15.35 -0.4, 18.44 0.79 C21.53 1.98, 25.57 5.03, 27.7 7.92 C29.84 10.81, 31.38 14.57, 31.24 18.12 C31.1 21.66, 29.16 26.65, 26.87 29.17 C24.59 31.69, 20.8 32.89, 17.53 33.22 C14.25 33.54, 10.16 33.05, 7.21 31.1 C4.26 29.15, 0.72 24.96, -0.15 21.51 C-1.02 18.06, 0.47 13.87, 2 10.42 C3.53 6.97, 7.7 2.44, 9.03 0.79 C10.35 -0.85, 9.78 0.12, 9.95 0.52 M12.51 0.42 C15.44 -1.07, 19.39 -1.37, 22.06 0.08 C24.73 1.53, 27.01 5.52, 28.52 9.14 C30.04 12.75, 31.82 18.21, 31.14 21.76 C30.46 25.31, 27.36 28.59, 24.42 30.43 C21.47 32.28, 16.91 33.02, 13.46 32.84 C10.01 32.65, 6.16 31.63, 3.73 29.34 C1.3 27.04, -0.79 22.91, -1.11 19.05 C-1.43 15.19, -0.15 9.5, 1.82 6.19 C3.79 2.88, 8.97 0.22, 10.7 -0.8 C12.44 -1.82, 11.95 -0.57, 12.22 0.08" stroke="none" stroke-width="0" fill="#fff"></path><path d="M15.37 -0.76 C18.3 -0.72, 22.07 2.19, 24.56 4.56 C27.05 6.94, 29.55 9.94, 30.32 13.48 C31.1 17.01, 30.65 22.55, 29.2 25.77 C27.74 28.98, 24.73 31.74, 21.58 32.78 C18.44 33.81, 13.61 33.33, 10.32 31.97 C7.02 30.61, 3.42 27.63, 1.83 24.63 C0.24 21.62, 0.22 17.46, 0.79 13.94 C1.35 10.41, 2.48 5.64, 5.2 3.47 C7.93 1.29, 14.64 1.42, 17.13 0.88 C19.62 0.34, 20.06 0.2, 20.14 0.23 M17.59 -0.47 C20.98 0.21, 25.9 4.02, 27.95 6.74 C30 9.46, 29.81 12.37, 29.9 15.84 C29.98 19.32, 30.33 24.69, 28.46 27.57 C26.58 30.44, 21.92 32.21, 18.63 33.09 C15.35 33.96, 11.77 34.32, 8.75 32.82 C5.73 31.32, 1.66 27.7, 0.5 24.09 C-0.65 20.47, 0.67 14.88, 1.82 11.14 C2.97 7.39, 4.9 3.56, 7.39 1.61 C9.88 -0.33, 15.06 -0.61, 16.78 -0.55 C18.5 -0.48, 17.41 1.77, 17.71 2.01" stroke="#0a11d3" stroke-width="1" fill="none"></path></g><g stroke-linecap="round" transform="translate(1032.3327195587108 402.9098549838369) rotate(0 15.494578120987512 16.816360499471813)"><path d="M21.4 0.77 C24.29 1.95, 28.25 6.06, 29.89 9.56 C31.54 13.05, 32.23 18.14, 31.28 21.73 C30.32 25.31, 26.97 29, 24.17 31.06 C21.37 33.12, 17.83 34.42, 14.47 34.08 C11.12 33.73, 6.36 31.79, 4.03 29 C1.69 26.2, 0.6 20.87, 0.46 17.3 C0.31 13.73, 1.16 10.43, 3.13 7.56 C5.1 4.69, 9.09 1.05, 12.29 0.09 C15.48 -0.88, 20.61 1.33, 22.3 1.75 C23.98 2.17, 22.36 2.42, 22.39 2.62 M17.57 0.24 C20.33 0.17, 23.45 1.85, 25.59 4.64 C27.74 7.43, 30.01 13.22, 30.46 16.98 C30.91 20.75, 30.29 24.64, 28.3 27.24 C26.31 29.83, 21.99 31.96, 18.51 32.55 C15.03 33.14, 10.22 32.56, 7.41 30.78 C4.61 28.99, 2.67 25.23, 1.69 21.86 C0.7 18.5, 0.72 13.93, 1.5 10.58 C2.27 7.24, 3.85 3.39, 6.33 1.78 C8.8 0.16, 14.59 1.01, 16.35 0.88 C18.1 0.74, 16.52 0.71, 16.86 0.97" stroke="none" stroke-width="0" fill="#fff"></path><path d="M19.01 -0.11 C22.39 0.56, 27.15 3.87, 29.09 7.02 C31.04 10.16, 31.03 15.02, 30.67 18.77 C30.32 22.53, 29.28 27.08, 26.96 29.54 C24.65 32, 20.35 33.46, 16.8 33.55 C13.25 33.64, 8.52 32.1, 5.67 30.09 C2.82 28.07, 0.4 24.94, -0.3 21.46 C-1.01 17.99, -0.06 12.64, 1.42 9.25 C2.91 5.86, 5.1 2.31, 8.6 1.12 C12.11 -0.08, 20.12 1.74, 22.48 2.07 C24.83 2.4, 23.09 2.89, 22.74 3.09 M10.92 1.21 C14.26 0.04, 20.04 -1.06, 23.02 0.55 C25.99 2.16, 27.53 7.34, 28.78 10.85 C30.02 14.36, 31.28 18.18, 30.48 21.63 C29.69 25.08, 26.53 29.65, 24.01 31.56 C21.49 33.47, 18.4 33.41, 15.37 33.08 C12.33 32.74, 8.38 32.06, 5.81 29.53 C3.25 27, 0.58 21.85, -0.02 17.89 C-0.63 13.93, 0.36 8.72, 2.17 5.78 C3.98 2.84, 9.01 0.93, 10.84 0.25 C12.67 -0.44, 13.12 1.44, 13.15 1.68" stroke="#0a11d3" stroke-width="1" fill="none"></path></g><g stroke-linecap="round" transform="translate(1032.3327195587108 483.1464723801503) rotate(0 15.494578120987512 16.816360499471784)"><path d="M18.22 0.73 C21.21 1.62, 25.4 4.87, 27.57 7.73 C29.75 10.58, 31.35 14.33, 31.26 17.88 C31.17 21.42, 29.28 26.44, 27.03 29 C24.78 31.55, 21.02 32.82, 17.75 33.19 C14.48 33.56, 10.37 33.14, 7.39 31.23 C4.42 29.33, 0.83 25.17, -0.09 21.74 C-1 18.31, 0.53 14.06, 1.91 10.64 C3.29 7.22, 5.01 2.92, 8.19 1.21 C11.38 -0.5, 18.54 0.09, 21.03 0.38 C23.53 0.66, 23.28 2.5, 23.14 2.95 M20.06 -0.75 C22.79 -0.02, 25.57 3.73, 27.48 7.1 C29.4 10.48, 31.78 15.83, 31.54 19.48 C31.31 23.12, 28.74 26.74, 26.08 28.97 C23.42 31.2, 19.06 32.56, 15.6 32.87 C12.15 33.19, 8.08 32.78, 5.35 30.86 C2.62 28.94, 0 25.12, -0.77 21.34 C-1.54 17.56, -0.85 11.75, 0.72 8.18 C2.3 4.62, 5.35 1.34, 8.68 -0.04 C12.01 -1.42, 18.75 -0.43, 20.7 -0.1 C22.65 0.23, 20.46 1.51, 20.36 1.94" stroke="none" stroke-width="0" fill="#fff"></path><path d="M7.44 2.74 C10.05 1.02, 14.88 -0.6, 18.29 0.13 C21.7 0.87, 25.66 4.24, 27.88 7.15 C30.1 10.06, 31.76 14.23, 31.61 17.59 C31.46 20.96, 29.36 24.81, 26.99 27.33 C24.61 29.85, 20.53 32.1, 17.35 32.7 C14.17 33.3, 10.69 32.82, 7.89 30.95 C5.09 29.07, 1.76 24.73, 0.57 21.45 C-0.61 18.18, -1.07 14.86, 0.78 11.29 C2.63 7.72, 9.38 1.97, 11.64 0.04 C13.9 -1.89, 14.31 -0.61, 14.34 -0.32 M10.39 2.07 C13.13 0.57, 16 -0.98, 19.21 0.01 C22.42 1, 27.66 4.83, 29.65 7.98 C31.64 11.13, 31.63 15.13, 31.15 18.92 C30.66 22.7, 29.33 28.01, 26.73 30.69 C24.13 33.37, 18.85 35.12, 15.54 35 C12.23 34.88, 9.45 32.55, 6.87 29.98 C4.3 27.41, 1.15 23.22, 0.1 19.58 C-0.95 15.93, -1 10.94, 0.56 8.13 C2.11 5.31, 7.74 3.93, 9.42 2.67 C11.1 1.41, 10.58 0.74, 10.64 0.54" stroke="#0a11d3" stroke-width="1" fill="none"></path></g><g stroke-opacity="0.8" fill-opacity="0.8" transform="translate(842.6326229050613 561.9629551666483) rotate(0 122.5709802948964 18.348949145942584)"><text x="0" y="25.697898291885153" font-family="Virgil, Segoe UI Emoji" font-size="29.35831863350812px" fill="#000000" text-anchor="start" style="white-space: pre;" direction="ltr">Data Warehouse</text></g><g stroke-linecap="round"><g transform="translate(72.20606217150757 405.1383463037066) rotate(0 -4.86740778565251 65.23335254135665)" fill-rule="evenodd"><path d="M-60.66 24.12 C-60.66 24.12, -60.66 24.12, -60.66 24.12 M-60.66 24.12 C-60.66 24.12, -60.66 24.12, -60.66 24.12 M-61.72 29.97 C-57.73 26.77, -56.01 23.77, -52.24 21.5 M-61.4 29.94 C-58.64 27.65, -55.66 24.76, -51.94 21.3 M-62.28 35.17 C-56.33 31.29, -54.17 29.76, -43.82 18.85 M-60.16 36.97 C-55.05 28.6, -49.04 22.92, -45.76 17.55 M-62.47 40.66 C-53.66 34.31, -46.4 27.78, -37.71 14.48 M-60.66 41.94 C-54.24 34.98, -47.46 26.6, -37.05 14.18 M-60.59 47.91 C-52.91 39.44, -47.44 30.76, -26.72 9.77 M-61.45 49.51 C-48.2 33.32, -34.88 20.2, -29.18 10.49 M-60.32 54.99 C-46.77 36.66, -32.67 21.54, -18.54 8.81 M-60.99 54.08 C-50.34 44.09, -40.93 32.43, -19.43 7.35 M-61.77 61.08 C-52.09 49.35, -41.82 37.88, -13.59 6.93 M-60.62 61.48 C-47.94 48, -35.92 33.57, -12.84 4.72 M-62.12 68.6 C-40.23 42.57, -20.59 18.92, -3 2.36 M-61.24 68.14 C-42.13 43.85, -22.19 21.62, -4.19 2.34 M-62.91 72.87 C-42.29 48.1, -20.61 25.92, 0.19 2.33 M-60.67 73.73 C-43.81 53.36, -26.38 33.25, 0.67 0.93 M-61.35 79.2 C-49.44 63.07, -32.47 46.4, 4.92 3.95 M-61 79.42 C-35.72 49.64, -10.57 21.56, 4.75 4.11 M-61.54 84.55 C-37.51 60.04, -10.24 28.62, 6.91 3.8 M-61.91 86.54 C-34.21 53.45, -5.09 20.51, 8.52 5.06 M-63.2 91.61 C-37.08 63.13, -10.59 34.36, 12.67 8.36 M-61.43 91.73 C-44.63 74.6, -29.88 55.86, 12.01 6.02 M-60.22 97.69 C-39.76 71.6, -17.27 47.21, 16.94 10.38 M-60.6 96.93 C-46.21 80.95, -30.44 62.34, 16.05 9.68 M-61.32 101.39 C-29.45 66.99, 3.64 27.93, 17.99 11.48 M-60.11 101.03 C-39.33 76.99, -17.69 54.04, 19.6 10.91 M-54.67 105.15 C-32.87 76.19, -13.37 52.21, 25.04 12.76 M-55.06 103.59 C-31.38 74.59, -5.16 44.63, 23.08 12.4 M-51.1 104.96 C-31.49 83.3, -11.34 60.9, 25.61 13.49 M-52.21 105.53 C-26.29 75.84, -0.75 46.48, 27.62 14.38 M-48.19 107.65 C-20.61 75.18, 8.14 44.36, 32.9 17.66 M-48.12 107.52 C-29.63 85.32, -11.21 64.91, 30.46 16.28 M-44.83 107.82 C-14.78 74.98, 14.46 39.33, 33.18 16.66 M-45.76 109.96 C-18.06 79.13, 8.06 46.95, 34.18 18.46 M-42.51 111.21 C-20.95 88.45, 1.4 60.88, 37.15 19.88 M-41.9 111.4 C-20.85 87.03, -0.17 63.56, 38.08 19.85 M-39.3 114.28 C-17.06 91.36, 2.12 70.58, 43.3 21.33 M-37.15 113.22 C-8.18 82.42, 18.72 49.31, 41.43 21.67 M-34.46 115.41 C-13.72 89.85, 7.54 66.34, 45.34 22.27 M-34.58 115.86 C-18.3 97.39, -2.85 79.33, 44.84 23.1 M-30.38 118.45 C-7.89 91.24, 18.09 62.32, 47.51 25.86 M-29.8 117.44 C-12.77 96.35, 4.72 77.57, 49.54 25 M-25.91 120.14 C-4.54 94.01, 20.85 66.52, 51.99 27.75 M-26.26 120.26 C-6.58 97.42, 13.72 73.72, 52.69 27.53 M-25.62 121.48 C-8.77 102.89, 11.19 83.02, 54.34 35.25 M-24.68 121.22 C-1.26 97.05, 20.69 70.16, 52.78 34.43 M-21.8 123.34 C7.97 91.99, 37.9 59.62, 50.67 40.37 M-21.01 124.46 C-0.8 100.28, 20.59 76.37, 52.74 41.11 M-15.03 125.61 C2.91 102.2, 23.88 76.06, 53.2 48.01 M-17.14 125.61 C3.76 103.58, 21.36 83.08, 51.41 45.89 M-12.16 126.79 C9.73 102.01, 28.63 80.73, 54.27 53.35 M-12.9 128.47 C0.27 111.58, 14.97 96.28, 53.51 52.44 M-7.63 131.39 C5.69 115.27, 17.97 98.02, 51.03 59.43 M-9.45 129.4 C5.8 112.2, 22.34 94.18, 52.27 58.48 M-4.05 132.55 C12.15 108.91, 32.8 86.06, 52.8 63.3 M-5.94 131.07 C17.75 105.91, 39.79 79.46, 52.73 64.91 M5.05 127.87 C17.73 110.67, 27.68 97.35, 53.8 69.65 M3.71 127.31 C14.52 114.97, 24.81 102.92, 52.37 70.57 M13.54 121.67 C27.69 105.17, 42.33 88.4, 53.83 75.9 M15.02 120.42 C23.35 110.14, 34.13 97.98, 51.79 76.36 M25.17 114.23 C34.01 105.88, 40.41 94.86, 51.04 81.87 M23.42 115.54 C34.53 103.78, 44.01 94.44, 51.35 83.99 M34.95 110.7 C38.64 103.39, 47.81 94.77, 53.23 91.87 M33.56 110.56 C37.38 105.74, 41.58 102.17, 52.47 89.11 M42.98 105.77 C46.68 103.09, 47.8 100.54, 50.94 96.36 M43 105.83 C45.67 102.11, 49.24 99.93, 51.93 96.18" stroke="#be4bdb" stroke-width="0.5" fill="none"></path><path d="M-1.06 -0.34 C-23.98 7.03, -45 17.65, -60.72 25.27 M-0.76 0.75 C-12.63 4.19, -24.29 10, -60.05 24.38 M-62.21 25.31 C-61.73 46.16, -62.82 68.28, -59.9 101.22 M-60.35 23.65 C-61.36 41.4, -61.23 59.71, -60.83 99.2 M-60.98 99.58 C-46.77 109.2, -35.34 116.69, -6.16 130.29 M-61.91 99.74 C-45.22 109.59, -31.5 117.37, -8.29 129.49 M-9.14 128.54 C15.56 117.36, 39.43 106.72, 50.49 100.21 M-6.92 130.8 C12.42 119.75, 34.45 109.11, 50.08 99.04 M51.22 98.52 C52.03 80.77, 53.23 59.39, 51.82 24.81 M50.93 99.57 C50.96 82.06, 50.84 64.96, 52.13 25.99 M50.76 24.93 C34.87 16.01, 16.56 9, 0.78 0.17 M50.8 27.67 C38.11 20.15, 26.84 13.73, 0.42 0.11 M0 0 C0 0, 0 0, 0 0 M0 0 C0 0, 0 0, 0 0" stroke="#881fa3" stroke-width="1" fill="none"></path></g></g><g stroke-opacity="0.8" fill-opacity="0.8" stroke-linecap="round" transform="translate(113.90760135283821 435.20462669726254) rotate(0 32.5 32.5)"><path d="M4.44 15.78 C4.44 15.78, 4.44 15.78, 4.44 15.78 M4.44 15.78 C4.44 15.78, 4.44 15.78, 4.44 15.78 M3.79 25.95 C5.11 19.74, 12.18 14.95, 21.14 1.37 M1.66 24.27 C6.03 19.8, 11.28 14.91, 20.7 3.5 M2.22 34.22 C8.42 21.35, 14.65 14.71, 28.08 1.24 M0.25 31.46 C9.89 21.42, 19.94 8.67, 27.1 2.69 M2.11 38.86 C11.76 27.16, 17.9 16.06, 32.6 1.35 M1.2 39.03 C7.15 29.75, 15.01 21.74, 30.87 3.42 M3.75 43.95 C10.58 31.66, 18.95 23.49, 35.6 3.36 M3.72 41.54 C15.92 26.75, 29.54 12.32, 37.11 2.1 M4.31 45.75 C15.88 31.64, 28.86 22.07, 43.81 1.66 M4.57 44.88 C19.31 30.83, 32.84 13.68, 40.94 2.6 M7.75 47.75 C21.49 34.48, 33.92 18.48, 43.87 7.03 M7.98 48.37 C21.67 34.17, 34.73 17.68, 45.38 4.95 M8.96 51.07 C16.52 42.27, 24.46 32.17, 50.31 8.47 M9.61 52.25 C20.18 41.85, 30.17 28.66, 49.38 8.27 M12.35 57.31 C28.33 37.79, 44.1 17.87, 52.32 9.16 M11.22 55.56 C22.04 45.39, 30.96 32.78, 52.54 9.69 M13.4 57.99 C31.5 39.55, 44.84 25.13, 56.46 13.25 M16.03 58.68 C29.83 42.84, 43.52 26.65, 55.63 12.33 M18.56 59.86 C28.96 49.08, 38.12 37.56, 61.34 13.27 M18.62 61.67 C31.99 45.17, 43.72 31.05, 59.33 13.72 M19.99 64.29 C34.49 45.6, 51.35 32.36, 63.03 19.04 M21.62 62.74 C30.72 51.77, 39.6 42.2, 61.54 17.73 M24.33 64.93 C36.21 51.51, 46.52 39.53, 65 20.71 M24.39 64.97 C39.97 47.65, 54.46 31.64, 63.25 20.73 M28.66 69.04 C37.98 53.52, 51.28 41.91, 64.98 25.21 M28.89 66.7 C37.75 57.12, 46.98 44.88, 65.32 25.08 M33.21 67.13 C45.77 49.66, 60.43 35.97, 68.21 28.1 M34.41 66.22 C46.6 52.67, 60.41 36.77, 67.72 30.04 M42.19 66.6 C49.98 53.55, 57.49 44.94, 65.6 38.19 M40.25 66.5 C50.21 53.63, 61.33 42.64, 65.57 35.48 M47.02 61.86 C52.86 57.95, 60.43 48.16, 64.95 43.17 M46.95 64.36 C50.93 58.68, 54.88 53.85, 64.33 44.52" stroke="#15aabf" stroke-width="0.5" fill="none"></path><path d="M19.26 2.78 C24.56 -0.27, 32.36 -0.34, 38.62 1 C44.89 2.34, 52.49 6.4, 56.86 10.81 C61.22 15.22, 63.94 21.36, 64.8 27.47 C65.65 33.58, 65.11 41.7, 61.97 47.46 C58.82 53.23, 51.95 59.11, 45.9 62.07 C39.86 65.02, 31.7 66.48, 25.69 65.18 C19.68 63.88, 14.2 58.85, 9.85 54.26 C5.5 49.68, 0.52 44.02, -0.43 37.67 C-1.39 31.31, 0.29 22.2, 4.12 16.14 C7.95 10.09, 18.55 3.8, 22.55 1.32 C26.55 -1.15, 27.76 0.9, 28.14 1.3 M43.79 2.5 C49.29 4.69, 55.38 10.84, 58.8 15.99 C62.23 21.14, 64.69 26.96, 64.35 33.39 C64.01 39.81, 60.9 49.3, 56.75 54.54 C52.61 59.79, 45.53 63.6, 39.47 64.86 C33.42 66.13, 26.19 64.74, 20.43 62.13 C14.68 59.52, 8.31 54.4, 4.95 49.19 C1.58 43.98, -0.36 37.03, 0.24 30.86 C0.84 24.69, 4.45 17.04, 8.54 12.17 C12.62 7.29, 18.69 3.22, 24.77 1.6 C30.85 -0.01, 42.04 2.37, 45.03 2.5 C48.01 2.63, 43.23 2.01, 42.68 2.4" stroke="#000000" stroke-width="1" fill="none"></path></g><g stroke-opacity="0.8" fill-opacity="0.8" transform="translate(118.90760135283821 457.70462669726254) rotate(0 27.5 10)"><text x="27.5" y="14" font-family="Virgil, Segoe UI Emoji" font-size="16px" fill="#000000" text-anchor="middle" style="white-space: pre;" direction="ltr">Ansilo</text></g><g stroke-opacity="0.8" fill-opacity="0.8" transform="translate(26.363479238873076 453.7230904321771) rotate(0 39.10913085937499 12.75297745414403)"><text x="0" y="18.50595490828805" font-family="Virgil, Segoe UI Emoji" font-size="19.968318699984287px" fill="#000000" text-anchor="start" style="white-space: pre;" direction="ltr">μService</text></g><g stroke-linecap="round"><g transform="translate(102.66672534162817 495.40700007091937) rotate(0 23.504355206516777 22.14698750920718)" fill-rule="evenodd"><path d="M-1.03 1.67 L-0.12 45.56 L15.16 47.2 L22.96 50.07 L40.22 45.47 L47.06 45.61 L47.33 1.47 L33.7 -2.89 L20.79 -4.71 L7.13 -5.53 L0.87 -0.52" stroke="none" stroke-width="0" fill="#fa5252" fill-rule="evenodd"></path><path d="M0.77 -1.05 C1 5.2, 0.84 29.55, 0.77 37.04 C0.7 44.53, -0.54 42.44, 0.36 43.89 C1.27 45.35, 3.69 45, 6.2 45.78 C8.7 46.55, 12.29 48.11, 15.4 48.52 C18.5 48.94, 22.32 48.09, 24.82 48.26 C27.32 48.43, 28.24 49.74, 30.39 49.53 C32.54 49.33, 35.16 48.07, 37.73 47.03 C40.3 45.99, 44.41 45.01, 45.83 43.31 C47.25 41.62, 46.06 43.35, 46.25 36.87 C46.43 30.38, 47.05 10.44, 46.93 4.42 C46.8 -1.6, 46.78 2.07, 45.5 0.75 C44.23 -0.57, 41.26 -2.64, 39.29 -3.51 C37.32 -4.37, 35.82 -4, 33.68 -4.44 C31.54 -4.88, 28.59 -5.97, 26.45 -6.16 C24.31 -6.36, 23.8 -5.79, 20.83 -5.61 C17.86 -5.43, 12.3 -5.98, 8.64 -5.09 C4.98 -4.19, 0.37 -1.2, -1.11 -0.23 M-0.29 1.01 C-0.09 7.49, 0.29 31.09, 0.23 38.44 C0.17 45.79, -1.66 43.79, -0.64 45.13 C0.38 46.47, 3.85 45.85, 6.33 46.48 C8.81 47.12, 11.43 48.27, 14.24 48.94 C17.04 49.6, 20.43 50.53, 23.14 50.5 C25.85 50.46, 27.72 49.39, 30.51 48.73 C33.31 48.08, 37.65 47.14, 39.94 46.58 C42.22 46.01, 43.04 47.08, 44.23 45.34 C45.41 43.61, 46.51 42.9, 47.05 36.19 C47.58 29.47, 47.36 10.95, 47.44 5.05 C47.51 -0.85, 48.9 2.41, 47.5 0.8 C46.1 -0.81, 41.46 -3.72, 39.04 -4.62 C36.62 -5.52, 35.52 -4.74, 32.97 -4.58 C30.42 -4.42, 26.13 -3.65, 23.75 -3.67 C21.37 -3.69, 21.41 -4.47, 18.7 -4.68 C15.98 -4.89, 10.47 -5.73, 7.47 -4.95 C4.47 -4.17, 2.23 -1.04, 0.68 0.01" stroke="#a61e4d" stroke-width="1" fill="none"></path></g></g><g stroke-linecap="round" transform="translate(102.49525603815536 489.7482380911463) rotate(0 23.244349896704122 6.320019701428691)"><path d="M20.69 -0.71 C25.14 -0.98, 31.39 1.06, 35.48 1.79 C39.57 2.51, 43.55 2.52, 45.25 3.63 C46.95 4.74, 47.65 7.19, 45.67 8.44 C43.7 9.69, 37.88 10.39, 33.4 11.13 C28.91 11.88, 23.59 13.09, 18.78 12.89 C13.96 12.69, 7.79 11.12, 4.5 9.92 C1.22 8.72, -1.32 6.94, -0.95 5.69 C-0.58 4.44, 2.83 3.33, 6.71 2.42 C10.59 1.5, 19.22 0.66, 22.35 0.2 C25.47 -0.26, 25.22 -0.53, 25.46 -0.34 M16.87 -1.25 C21.2 -1.56, 28.18 -0.61, 32.82 0.25 C37.46 1.11, 42.81 2.85, 44.74 3.91 C46.66 4.97, 45.52 5.19, 44.35 6.61 C43.19 8.03, 41.51 11.19, 37.74 12.43 C33.98 13.68, 27.03 14.49, 21.76 14.08 C16.49 13.67, 9.55 11.33, 6.12 10 C2.69 8.67, 1.73 7.47, 1.2 6.08 C0.66 4.69, 0.06 2.82, 2.91 1.65 C5.76 0.47, 15.82 -0.84, 18.32 -0.98 C20.81 -1.12, 18.03 0.64, 17.88 0.8" stroke="none" stroke-width="0" fill="#ffffff"></path><path d="M20.53 -0.59 C25.34 -0.78, 32.33 0.34, 36.65 1.1 C40.97 1.85, 45.28 2.5, 46.45 3.94 C47.63 5.38, 45.96 8.42, 43.69 9.73 C41.43 11.05, 37.16 11.42, 32.85 11.81 C28.54 12.2, 22.55 12.42, 17.83 12.07 C13.12 11.72, 7.47 10.81, 4.55 9.69 C1.64 8.58, 0.1 6.52, 0.35 5.35 C0.6 4.19, 2.27 3.68, 6.05 2.71 C9.83 1.74, 19.56 -0.05, 23.01 -0.45 C26.45 -0.86, 26.44 0.26, 26.72 0.29 M30.65 -0.91 C35.22 -0.59, 40.86 1.74, 43.55 3.04 C46.25 4.35, 47.64 5.65, 46.83 6.91 C46.01 8.17, 42.58 9.63, 38.68 10.63 C34.77 11.63, 28.74 12.94, 23.4 12.9 C18.05 12.86, 10.34 11.14, 6.61 10.39 C2.87 9.64, 1.73 9.48, 1.01 8.41 C0.29 7.33, -0.47 5.14, 2.29 3.96 C5.06 2.77, 12.42 1.89, 17.59 1.31 C22.76 0.73, 30.73 0.49, 33.33 0.48 C35.93 0.47, 33.49 1.34, 33.17 1.26" stroke="#a61e4d" stroke-width="1" fill="none"></path></g><g stroke-linecap="round"><g transform="translate(216.4623203770718 214.2705296887837) rotate(0 -4.564035756297216 65.95618593729222)" fill-rule="evenodd"><path d="M-60.66 24.12 C-60.66 24.12, -60.66 24.12, -60.66 24.12 M-60.66 24.12 C-60.66 24.12, -60.66 24.12, -60.66 24.12 M-59.75 31.16 C-58.13 28.33, -55.85 23.68, -52.83 20.57 M-61.55 30.91 C-58.98 27.92, -56.88 25.42, -52.16 21.18 M-59.46 35.37 C-58.16 32.45, -54.73 28.02, -44.81 16.33 M-61.49 36.52 C-56.15 31.85, -53.83 27.73, -44.08 17.29 M-62.45 41.31 C-52.09 33.52, -44.06 24.9, -35.18 15.53 M-60.64 42.18 C-53.15 34.04, -45.65 26.5, -35.88 15.07 M-62.67 50.55 C-53.3 39.78, -42.24 28.88, -26.3 11 M-60.15 48.2 C-49.31 35.3, -36.8 20.82, -27.3 10.63 M-60.99 53.11 C-43.86 36, -26.53 17.89, -19.56 7.29 M-60.79 53.91 C-45.05 37.49, -29.17 20.13, -19.67 7.49 M-59.23 60.61 C-41.87 40.57, -27.51 21.71, -13.58 4.68 M-61.89 61.77 C-42.31 40.12, -24.85 18.8, -11.78 6.03 M-60.77 68.44 C-38.05 42.84, -14.76 14.55, -2.18 2.85 M-62.13 66.6 C-44.54 50.53, -28.64 32.23, -3.96 2.12 M-61.86 73.38 C-39.25 48.87, -17.58 23.54, 2.38 2.99 M-60.86 74.24 C-39.58 46.95, -15.59 22.26, 0.7 0.39 M-62.91 78.67 C-44.98 58.31, -25.87 37.93, 5.35 4.66 M-61.44 79.74 C-38.36 54.58, -15.62 27.54, 6.15 4.09 M-59.72 87.73 C-40.12 64.81, -23.51 42.08, 10.23 3.39 M-60.57 86.08 C-43.12 63.88, -23.44 43.37, 8.11 5.83 M-60.22 94.21 C-34.07 63.66, -8.08 34.92, 10.84 5.12 M-61.07 91.31 C-40.11 66.87, -19.38 43.96, 12.08 6.97 M-62.99 98.88 C-42.1 77.16, -23.24 55.36, 16.72 10.54 M-60.48 98.52 C-37.97 72.83, -15.68 46.5, 16.62 9.11 M-57.98 100.28 C-28.4 67.59, 1.58 33.21, 20.42 9.73 M-59.79 101.49 C-29.86 68.17, -0.34 32.76, 20.67 9.77 M-55.02 105.3 C-34.38 79.45, -13.07 54.45, 24.97 12.76 M-56.09 104.43 C-30.79 77.05, -8.52 50.9, 22.87 12.04 M-51.18 106.89 C-29.27 77.09, -3.84 48.9, 27.19 16.33 M-51.95 106.65 C-19.95 70.03, 10.5 33.29, 26.83 14.28 M-46.74 109.34 C-30.01 82.87, -9.47 61.22, 29.06 14.39 M-49.42 106.98 C-19.89 73.49, 11.06 39.69, 30.5 15.84 M-43.77 109.2 C-25.68 82.67, -0.99 60.67, 33.17 16.79 M-44.76 109.71 C-20.97 83.89, 2.16 56.53, 35.46 18.72 M-43.48 110.65 C-19.07 86.71, -0.16 62.75, 37.99 19.86 M-41.77 113.04 C-19.54 86.97, 3.12 60.99, 38.22 19.25 M-36.14 113.12 C-18.79 92.3, -2.04 70.56, 41.34 21.07 M-37.82 113.77 C-7.21 78.57, 21.23 45.66, 41.54 21.8 M-33.71 114.43 C-4.28 80.52, 27.73 42.03, 43.7 25.64 M-34.51 115.45 C-19.35 96.56, -2.31 78.76, 45.75 24.45 M-31.8 118.38 C-7.24 89.21, 21.14 59.77, 47.61 25.18 M-31.71 117.13 C-9.08 93.29, 12.5 69.77, 50.06 24.69 M-26.94 118.19 C-4.38 96.53, 13.85 71.85, 53.06 28.28 M-26.93 119.75 C3.39 83.89, 34.68 49.28, 53.85 27.1 M-25.91 123.79 C-2.5 95.65, 21.55 67.63, 52.89 35.72 M-24.62 122.6 C3.13 90.35, 31.04 58.07, 52.09 33.56 M-19.72 125.51 C-0.62 102.05, 15.66 83.57, 52.01 41.45 M-20.28 123.97 C1.19 99.01, 22.11 74.34, 52.43 39.38 M-16.12 125.18 C9.36 99.61, 31.81 72.17, 50.96 44.83 M-17.06 125.4 C9.92 95.54, 37.55 64.22, 52.7 46.53 M-13.7 127.77 C10.24 103.86, 31.52 78.87, 53.85 51.99 M-13.82 128.33 C6.08 106.48, 24.76 84.16, 52.84 52.08 M-11.07 128.74 C2.77 116.61, 17.08 98.83, 53.14 57.44 M-8.5 130.52 C6.65 111.64, 22.23 93.55, 51.57 58.89 M-7.56 132.68 C11.22 113.95, 28.27 95.14, 52.95 66.16 M-4.76 131.79 C14.15 109.59, 32.5 87.41, 51.62 64.77 M2.09 125.15 C15.78 112.26, 28.28 99.52, 53.78 71.3 M3.19 126.85 C21.49 107.32, 38.23 86.82, 52.48 71.2 M14.05 122.91 C26.9 107.23, 41.87 92.69, 53.24 75.23 M14.87 120.68 C23.98 110.13, 33.02 99.47, 52.96 77.48 M21.88 115.2 C30.96 109.09, 38.43 99.01, 50.78 83.24 M23.92 116.79 C31.24 105.84, 39.83 98.14, 51.91 83.46 M33.88 112.62 C38.48 105.28, 40.69 101.43, 50.99 89.58 M33.46 111.24 C38.58 104.77, 45.63 97.12, 51.47 90.71 M42.96 104.6 C45.1 103.3, 48.4 99.29, 51.99 95.65 M43.47 104.89 C45.69 101.96, 49.08 99.6, 51.61 96.86" stroke="#fab005" stroke-width="0.5" fill="none"></path><path d="M1.78 0.15 C-20.05 7.78, -34.76 16.03, -60.76 22.99 M0.85 0.03 C-15.05 6.98, -30.98 11.4, -59.99 24.14 M-60.16 23.82 C-61.86 53.35, -62.9 81.49, -59.97 98.87 M-60.19 23.31 C-61.3 49.55, -61.69 72.56, -60.42 99.53 M-62.7 100.56 C-41.22 108.79, -22.51 119.95, -7.06 130.91 M-61.58 100.23 C-46.02 108.53, -29.21 119.1, -6.87 129.42 M-6.29 131.91 C15.12 119.83, 40.43 104.76, 50.76 98.8 M-7.31 129.71 C6.41 121.76, 21.15 114.92, 50.9 100.48 M49.75 100.14 C49.74 76.69, 51.73 55.17, 53.57 24.8 M50.65 99.38 C51.31 72.93, 51.03 44.61, 52.73 27.52 M50.42 25.12 C39.17 20.19, 26.24 15.9, -1.89 1.95 M51.45 27.51 C38.48 20.61, 27.51 13.89, -0.61 0.69 M0 0 C0 0, 0 0, 0 0 M0 0 C0 0, 0 0, 0 0" stroke="#e67700" stroke-width="1" fill="none"></path></g></g><g stroke-opacity="0.8" fill-opacity="0.8" stroke-linecap="round" transform="translate(258.7806891997759 247.09113693795916) rotate(0 31.5 31)"><path d="M3.03 18.53 C3.03 18.53, 3.03 18.53, 3.03 18.53 M3.03 18.53 C3.03 18.53, 3.03 18.53, 3.03 18.53 M4.02 24.61 C7.7 22.14, 11.38 15.95, 21.41 3.81 M3.05 25.9 C9.6 17.23, 15.22 12.35, 20.04 4.71 M2.92 29.97 C10.85 25.08, 14.14 16.05, 24.36 2.84 M1.75 32.32 C6.77 26.39, 12.24 19.04, 25.86 3.86 M3.28 37.98 C12.63 26.02, 25.61 12.5, 32.17 1.36 M1.65 38.12 C12.85 26.99, 21.55 14.56, 33.23 3.64 M4.15 42.51 C17.36 26.4, 28.58 17.06, 37.43 -0.83 M5.52 40.97 C16.48 27.9, 25.89 15.67, 39.55 1.44 M6.11 45.29 C12.77 36.73, 21.25 27.24, 43.19 4.77 M7.07 43.59 C19.12 29.71, 31.34 15.33, 43.68 2 M9.73 46.17 C23.27 34.26, 34.35 15.67, 48.04 6.66 M8.57 47.97 C19.18 35.9, 27.86 24.98, 46.13 4.63 M11.57 49.61 C25.23 35.48, 37.11 22.11, 48.25 6.55 M11.85 51.77 C21.13 41.43, 29.38 30.72, 48.25 8.37 M14.85 55.97 C25.34 43.93, 33.94 31.32, 54.34 8.47 M14.03 55.54 C30.1 37.24, 44.52 19.97, 51.81 10.99 M16.01 56.92 C27.41 46.64, 36.25 36.03, 55.75 12.38 M17.22 58.12 C25.41 47.57, 34.87 37.15, 54.79 12.58 M21.36 60.57 C30.18 48.28, 39.53 39.8, 59.36 17.03 M20.12 59.63 C30.41 46.65, 42.51 35.47, 59 14.37 M23.78 61.6 C39.4 46.41, 53.45 29.44, 60.25 19.88 M25.85 59.6 C38.38 46.22, 49.62 30.59, 59.78 18.52 M31.22 61.87 C36.53 53.77, 44.36 46.83, 60.21 23.94 M29.53 61.5 C38.66 51.83, 47.82 41.27, 61.66 24.94 M36.08 63.27 C42.77 48.56, 53.72 40.6, 65.03 26.63 M34.65 61.52 C42.18 53.78, 50.06 44.27, 62.74 28.1 M42.42 58.4 C51 52.42, 55.76 40.94, 63.29 35.72 M41.42 59.17 C51.05 48.27, 58.53 38.36, 64.44 34.87 M50.22 56.54 C51.17 54.54, 54.91 51.13, 56.48 48.82 M50.12 56.93 C51.95 52.54, 55.25 49.72, 56.65 48.35" stroke="#15aabf" stroke-width="0.5" fill="none"></path><path d="M18.56 2.88 C24.11 -0.39, 32.59 -1.28, 39.03 0.53 C45.47 2.33, 53.08 8.21, 57.2 13.73 C61.32 19.26, 64.29 27.05, 63.73 33.69 C63.17 40.32, 58.88 48.99, 53.84 53.54 C48.79 58.09, 40.06 60.48, 33.45 60.96 C26.83 61.44, 19.42 60.04, 14.16 56.41 C8.9 52.77, 3.71 45.53, 1.9 39.16 C0.1 32.8, -0.34 24.66, 3.32 18.2 C6.97 11.74, 19.34 3.47, 23.83 0.4 C28.33 -2.67, 30.2 -0.93, 30.31 -0.22 M23.39 1.81 C29.21 -0.13, 37.14 0.16, 43.48 2.78 C49.82 5.4, 58.47 11.23, 61.43 17.5 C64.38 23.78, 63.26 33.81, 61.19 40.41 C59.13 47.01, 54.24 53.44, 49.04 57.1 C43.84 60.77, 36.79 62.99, 30 62.38 C23.21 61.77, 13.15 58.42, 8.3 53.45 C3.45 48.48, 1.23 39.39, 0.89 32.55 C0.55 25.72, 2.49 17.6, 6.26 12.42 C10.04 7.24, 20.67 3.12, 23.53 1.47 C26.39 -0.18, 23.54 2.14, 23.44 2.53" stroke="#000000" stroke-width="1" fill="none"></path></g><g stroke-opacity="0.8" fill-opacity="0.8" transform="translate(263.7806891997759 268.09113693795916) rotate(0 26.5 10)"><text x="26.5" y="14" font-family="Virgil, Segoe UI Emoji" font-size="16px" fill="#000000" text-anchor="middle" style="white-space: pre;" direction="ltr">Ansilo</text></g><g stroke-opacity="0.8" fill-opacity="0.8" transform="translate(168.43924984693385 262.89683211818635) rotate(0 40.6593017578125 13.226519848926955)"><text x="0" y="18.453039697853903" font-family="Virgil, Segoe UI Emoji" font-size="20.772337496572703px" fill="#000000" text-anchor="start" style="white-space: pre;" direction="ltr">μService</text></g><g stroke-linecap="round"><g transform="translate(246.8794065627138 304.6859136887587) rotate(0 23.011911917200962 21.8632332539147)" fill-rule="evenodd"><path d="M1.01 1.56 L1.47 42.74 L15.44 49.51 L22.12 49.81 L37.41 47.59 L46.22 43.78 L47.94 -0.96 L39.82 -2.35 L23.26 -6.94 L7.71 -2.99 L1.07 -1.93" stroke="none" stroke-width="0" fill="#be4bdb" fill-rule="evenodd"></path><path d="M-0.08 1.13 C-0.01 7.52, 0.46 30.21, 0.49 37.26 C0.52 44.31, -0.85 41.77, 0.12 43.43 C1.09 45.08, 3.7 46.34, 6.32 47.19 C8.94 48.04, 12.91 48.09, 15.82 48.52 C18.73 48.95, 21.36 49.96, 23.79 49.77 C26.21 49.58, 27.78 47.81, 30.38 47.39 C32.97 46.96, 36.66 47.81, 39.38 47.23 C42.1 46.65, 45.47 45.5, 46.68 43.9 C47.89 42.3, 46.66 44.18, 46.65 37.61 C46.64 31.05, 46.7 10.96, 46.62 4.49 C46.53 -1.98, 47.26 -0.11, 46.14 -1.21 C45.01 -2.31, 42.05 -1.6, 39.87 -2.11 C37.69 -2.62, 35.59 -3.8, 33.06 -4.27 C30.54 -4.74, 26.83 -4.63, 24.73 -4.92 C22.63 -5.21, 23.2 -6.36, 20.47 -6 C17.75 -5.65, 11.86 -3.7, 8.4 -2.79 C4.95 -1.89, 0.95 -0.99, -0.26 -0.6 M-1.58 0.68 C-1.63 7.36, -0.9 31.48, -0.2 38.77 C0.5 46.06, 1.52 43.38, 2.64 44.42 C3.76 45.45, 4.48 44.23, 6.52 44.98 C8.56 45.73, 11.77 48.24, 14.88 48.93 C18 49.63, 22.62 49.11, 25.22 49.14 C27.82 49.18, 28.23 49.5, 30.49 49.12 C32.75 48.74, 36.28 47.97, 38.79 46.88 C41.3 45.79, 44.04 44.17, 45.52 42.58 C47 40.98, 47.44 43.56, 47.66 37.32 C47.88 31.09, 47.31 11.14, 46.83 5.17 C46.36 -0.81, 45.96 2.75, 44.81 1.48 C43.66 0.2, 42.05 -1.52, 39.92 -2.48 C37.79 -3.45, 34.55 -3.83, 32.03 -4.32 C29.5 -4.81, 27.09 -5.27, 24.78 -5.43 C22.47 -5.59, 21.1 -5.33, 18.16 -5.28 C15.21 -5.23, 10.42 -5.9, 7.11 -5.11 C3.8 -4.33, -0.56 -1.33, -1.68 -0.55" stroke="#a61e4d" stroke-width="1" fill="none"></path></g></g><g stroke-linecap="round" transform="translate(246.70793725924088 299.0271517089856) rotate(0 23.244349896704136 6.320019701428691)"><path d="M11.92 1.28 C15.93 0.48, 23.88 -0.39, 28.95 -0.04 C34.03 0.3, 39.54 2.25, 42.35 3.38 C45.15 4.5, 46.17 5.6, 45.79 6.71 C45.41 7.81, 43.19 8.92, 40.05 10 C36.91 11.08, 31.79 13.02, 26.93 13.18 C22.08 13.35, 15.24 11.94, 10.92 10.99 C6.61 10.03, 2.47 8.65, 1.04 7.45 C-0.39 6.24, -0.44 4.82, 2.36 3.76 C5.17 2.71, 14.44 1.68, 17.89 1.1 C21.33 0.52, 22.93 0.41, 23.03 0.3 M26.92 1.51 C32.01 1.33, 38.47 -0.36, 41.91 0.61 C45.35 1.58, 47.74 5.7, 47.57 7.34 C47.4 8.98, 44.19 9.35, 40.89 10.45 C37.59 11.55, 32.4 13.63, 27.77 13.92 C23.13 14.22, 17.57 12.84, 13.05 12.21 C8.53 11.58, 2.46 11.65, 0.66 10.17 C-1.13 8.69, 0.54 5.09, 2.27 3.34 C3.99 1.58, 7.13 0.39, 11.01 -0.37 C14.88 -1.12, 23.01 -1.28, 25.51 -1.18 C28.01 -1.08, 26.09 -0.32, 26.01 0.24" stroke="none" stroke-width="0" fill="#ffffff"></path><path d="M22.72 0.55 C27.68 0.54, 34.79 0.56, 38.69 1.43 C42.58 2.3, 45.41 4.58, 46.08 5.75 C46.76 6.93, 45.05 7.38, 42.75 8.46 C40.45 9.53, 36.67 11.55, 32.3 12.2 C27.93 12.86, 21.3 12.79, 16.53 12.4 C11.77 12, 6.46 11.1, 3.73 9.84 C0.99 8.59, -0.62 6.38, 0.11 4.85 C0.84 3.32, 3.39 1.35, 8.1 0.69 C12.8 0.02, 24.13 0.82, 28.33 0.88 C32.54 0.95, 33.45 1.07, 33.33 1.07 M30.25 -0.14 C34.99 0.35, 38.68 2.79, 41.28 4.06 C43.88 5.34, 45.86 6.32, 45.84 7.51 C45.82 8.7, 44.67 10.27, 41.15 11.2 C37.63 12.12, 29.74 13.22, 24.72 13.08 C19.71 12.94, 14.91 11.32, 11.04 10.34 C7.17 9.36, 2.98 8.24, 1.52 7.21 C0.06 6.18, 0.34 5.11, 2.26 4.15 C4.17 3.2, 8.79 2.2, 13.03 1.5 C17.26 0.79, 24.96 0.35, 27.65 -0.09 C30.34 -0.54, 29.32 -1.24, 29.18 -1.18" stroke="#a61e4d" stroke-width="1" fill="none"></path></g><g stroke-linecap="round"><g transform="translate(109.18438343808018 11.463880900293589) rotate(0 -5.250756261127137 65.00775548293377)" fill-rule="evenodd"><path d="M-60.66 24.12 C-60.66 24.12, -60.66 24.12, -60.66 24.12 M-60.66 24.12 C-60.66 24.12, -60.66 24.12, -60.66 24.12 M-59.8 29.97 C-58.78 28.98, -55.67 24.6, -51.37 19.58 M-60.87 31.11 C-57.26 26.55, -54.38 22.72, -52.14 20.31 M-61.8 35.46 C-57.33 30.91, -52.49 27, -43.36 19.96 M-60.75 36.73 C-57.43 33.31, -53.78 28.96, -44.89 18.59 M-60.86 40.7 C-51.98 33.51, -46.62 25.35, -37.28 16.28 M-61.41 41.62 C-51.05 33.02, -43.31 21.78, -37.06 14.78 M-60.06 48.6 C-48.72 34.79, -37.91 20.71, -28.3 12.43 M-60.42 48.78 C-49.64 36.29, -37.11 21.14, -27.74 12.15 M-60.17 54.06 C-47.03 34.71, -29.49 16.6, -20.93 6.21 M-60.25 53.95 C-44.84 35.75, -27.39 18.21, -19.15 8.26 M-62.47 61.28 C-47.19 44.85, -32.82 26.16, -11.25 5.6 M-60.48 61.51 C-43.29 40.12, -25.75 21.06, -12.14 5.65 M-62.09 66.65 C-43.96 45.17, -23.29 24.14, -5.59 1.13 M-60.19 67.27 C-43.85 47.16, -26.93 27.84, -3.89 2.06 M-60.11 73.1 C-39.38 47.68, -18.72 24.81, 3.49 0.79 M-60.92 72.82 C-40.13 47.47, -17.75 22.73, 1.26 1.37 M-59.54 80.01 C-40.83 54.29, -17.07 28.91, 4.38 3.6 M-61.63 79.27 C-38.44 53.75, -14.37 26.59, 5.97 3.03 M-61.38 85.59 C-48.64 70.41, -31.94 53.12, 10.4 6.02 M-61.65 85.63 C-41.98 65.26, -24.72 43.21, 9.02 4.43 M-62.02 93.68 C-35.08 63.62, -10.42 31.91, 11.17 5.07 M-61.1 91.62 C-32.41 60.23, -5.04 27.05, 11.66 5.97 M-60.58 99.47 C-43.52 76.06, -23.5 54.14, 17.18 7.45 M-61.08 97.17 C-43.01 77.39, -25 58.1, 15.3 8.11 M-60.34 100.81 C-32.5 73.38, -9.92 44.73, 18.43 8.93 M-60.08 101.79 C-36.58 74.51, -12.95 46.8, 19.22 10.72 M-54.04 105.61 C-35.01 77.18, -12.85 52.53, 23.03 13.71 M-56.23 103.87 C-24.94 69.19, 6.15 33.89, 24.19 12.32 M-51.94 106.25 C-32.17 78.52, -7.13 55.91, 27.88 13.78 M-52.26 105.01 C-25.61 76.61, -1.04 47.01, 28.23 13.44 M-46.56 105.64 C-19.42 76.34, 3.79 47.55, 29.22 16.35 M-49.2 108.05 C-25.86 81.17, -4.15 56.38, 30.24 15.95 M-44.06 110.87 C-25.07 88.09, -8.62 67.29, 33.32 19.16 M-44.7 108.62 C-17.35 78.29, 11.4 44.82, 33.72 18.31 M-42.22 113.36 C-12.93 82.75, 12.51 52.78, 39.07 21.88 M-41.96 111.26 C-21.89 88.07, -0.46 63.83, 38.46 20.95 M-37.27 113.18 C-12.63 86.14, 12.66 54.15, 40.61 21.52 M-37.43 113.67 C-19.35 90.68, 0.84 68.67, 42.19 21.53 M-33.11 114.98 C-18.36 98.36, -2.77 77.64, 45.96 23.75 M-35.06 116.58 C-13.78 91.28, 8.53 65.44, 46.33 24.3 M-32.12 116.34 C-11.63 96.31, 9.76 71.54, 47.66 26.3 M-30 118.02 C-7.22 90.72, 16.19 62.38, 49.62 25.35 M-25.2 119.91 C0.8 88.01, 27.67 54.51, 53.35 26.33 M-27.57 119.39 C-7.34 95.79, 14.83 72.2, 53.82 28 M-25.73 121.51 C-7.5 103.1, 12.49 79.42, 52.52 32.35 M-24.17 121.55 C4.53 90.29, 30.26 59.96, 53.49 34.57 M-20.42 122.51 C-3.51 108.05, 9 90.98, 50.88 41.99 M-21.07 125.08 C8.79 92, 35.86 58.25, 53.47 40.15 M-18.53 125.73 C1.91 103.36, 23.67 79.73, 53.23 46.96 M-16.57 126.16 C5.23 99.56, 29.6 72.48, 52.73 47.48 M-14.67 127.79 C3.11 109.78, 20.84 88.66, 50.65 51.17 M-13.73 126.83 C2.2 110.7, 16.59 94.76, 52.7 53 M-10.83 131.26 C10.77 105.24, 33.98 82.24, 52.5 57.08 M-9.33 129.07 C8.23 110.28, 26.82 88.86, 52.3 59.14 M-5.74 132 C7.37 115.17, 21.48 98.49, 52.99 64.58 M-6.19 132.1 C11.93 111.21, 29.63 90.85, 51.57 65.16 M5.64 127.76 C14.76 110.44, 29.45 97.05, 51.18 73.37 M4.43 126.94 C21.19 108.23, 36.36 88.51, 52.73 71.43 M13.74 121.19 C25.75 105.33, 39.83 93.58, 50.9 76.83 M13.47 121.29 C22.3 110.67, 30.54 102.23, 53.21 77.26 M24 117.84 C29.92 106.06, 39.73 97.18, 52.8 84.41 M22.82 115.53 C34.02 105.02, 42.54 93.28, 52.65 83.23 M33.64 111.81 C39.4 104.37, 46 95.59, 52.85 88.49 M33.07 110.26 C39.15 104.6, 45.38 96.47, 52.61 89.97 M43.94 106.6 C46.39 102.69, 47.64 102.26, 50.79 95.41 M43.35 105.73 C45.24 103.17, 47.13 101.05, 51.49 96.45" stroke="#40c057" stroke-width="0.5" fill="none"></path><path d="M-1.46 -1.05 C-17.53 7.57, -34.52 15.33, -59.54 22.58 M-0.04 0.95 C-16.92 6.33, -35.27 14.26, -59.78 24.6 M-61.57 23.84 C-61.85 51.06, -62.49 76.02, -59.68 98.49 M-61.62 23.2 C-60.68 42.01, -61.78 57.91, -62.04 99.01 M-62.29 99.01 C-44.89 110.56, -25.68 119.68, -7.7 128.39 M-62.12 99.24 C-48.18 106.85, -35.75 114.26, -7.19 131.01 M-5.72 131.48 C11.5 119.61, 30.66 107.69, 49.03 101.1 M-7.56 130.29 C4.54 124.98, 16.06 118.04, 51.43 99.59 M50.34 97.99 C49.46 74.71, 51.38 52.37, 50.88 27.72 M50.18 99.15 C51.68 79.53, 52.13 61.55, 51.52 27.34 M50.88 26.55 C42.71 20.36, 31.08 16.17, -1.43 -1.46 M50.77 27.71 C32.75 17.67, 15.35 7.49, -0.4 -0.71 M0 0 C0 0, 0 0, 0 0 M0 0 C0 0, 0 0, 0 0" stroke="#087f5b" stroke-width="1" fill="none"></path></g></g><g stroke-opacity="0.8" fill-opacity="0.8" stroke-linecap="round" transform="translate(149.50324721477816 47.324230072560965) rotate(0 33 29.5)"><path d="M12.39 5.47 C12.39 5.47, 12.39 5.47, 12.39 5.47 M12.39 5.47 C12.39 5.47, 12.39 5.47, 12.39 5.47 M0.26 23.89 C8.49 18.18, 12.34 12.46, 19.62 4.17 M1.66 24.91 C5.11 20.11, 8.94 15.07, 17.91 4.01 M4.29 29.33 C7.99 23.37, 12.58 14.5, 25.83 1.56 M3.24 29.17 C8.36 20.57, 16.21 13.35, 24.85 1.44 M3.28 33.49 C14.33 19.35, 24.96 7.9, 32.8 1.48 M3.5 33.18 C14.35 20.82, 24.79 10.27, 32.42 0.41 M3.75 36.62 C12.45 29.16, 20.62 20.59, 35.52 3.86 M4.1 38.66 C10.6 31.77, 18.47 22.59, 37.23 2.41 M5.27 44.49 C17.16 29.75, 27.6 17.59, 40.32 5.21 M6.1 43.31 C15.06 32.66, 24.17 22.27, 41.05 3.58 M8.36 45.69 C23.05 29.3, 36.12 13.79, 42.97 3.33 M7.88 47.19 C18.88 36.72, 26.91 24.85, 44.86 4.38 M12.11 49.65 C24.34 34.93, 38.23 18.12, 49.44 6.4 M10.59 49.78 C18.33 41.45, 27.06 31.62, 49.51 5.86 M14.02 51.36 C20.69 42.95, 31.04 34.92, 53.81 8.59 M14.03 51.78 C24.97 40.23, 36.47 27.36, 53.6 8.22 M19.44 52.35 C29.88 42.93, 41.52 29.99, 57.11 9.94 M17.94 53.12 C28.38 41.38, 40.41 29.85, 56.25 9.87 M22.3 58.27 C31.72 47.39, 38.92 37.69, 57.97 11.29 M20.76 55.66 C33.49 43.07, 45.51 29.61, 59.69 13.28 M24.44 61.02 C37.14 45.53, 49.88 29.19, 60.62 16.06 M24.79 58.32 C33.04 48.13, 43.36 37.28, 61.18 17.96 M30.32 58.12 C38.96 49.2, 49.16 37.69, 61.64 21.68 M28.94 59.55 C38.8 49.24, 47.42 39.88, 63.74 20.87 M33.8 60.61 C40.4 52.16, 47.54 43.7, 66.71 25.23 M35.36 58.28 C44.51 47.83, 55.58 36.54, 64.76 23.15 M40.81 59.92 C49.11 49.86, 53.66 42.11, 68.59 27.04 M40.12 59.85 C48.63 50.52, 55.63 40.12, 68 26.77 M43.97 58.69 C51.54 50.6, 57.77 46.18, 65.24 35.33 M45.72 57.92 C52.39 48.95, 61.22 41.01, 65.62 36.25" stroke="#15aabf" stroke-width="0.5" fill="none"></path><path d="M34.88 0.6 C41.46 0.4, 49.41 3.5, 54.49 7.66 C59.58 11.82, 64.35 19.11, 65.4 25.55 C66.45 31.99, 64.39 41.05, 60.8 46.28 C57.21 51.51, 50.54 55.17, 43.86 56.94 C37.18 58.72, 27.26 59.15, 20.72 56.93 C14.19 54.7, 7.91 49.25, 4.63 43.59 C1.36 37.92, -0.18 29.26, 1.09 22.94 C2.35 16.62, 6.33 9.52, 12.23 5.66 C18.12 1.8, 31.89 0.65, 36.45 -0.22 C41 -1.09, 39.46 -0.26, 39.57 0.44 M21.97 0.47 C28.05 -1.6, 35.86 0.54, 42.55 2.83 C49.25 5.13, 58.56 9.16, 62.14 14.24 C65.73 19.33, 65.6 27.06, 64.09 33.37 C62.57 39.69, 58.17 47.67, 53.07 52.13 C47.97 56.59, 40.44 60.22, 33.49 60.13 C26.54 60.04, 16.92 55.61, 11.37 51.59 C5.81 47.57, 1.14 41.97, 0.17 36 C-0.8 30.02, 2.03 21.68, 5.54 15.74 C9.04 9.81, 18.65 2.48, 21.19 0.38 C23.74 -1.72, 20.33 2.62, 20.8 3.15" stroke="#000000" stroke-width="1" fill="none"></path></g><g stroke-opacity="0.8" fill-opacity="0.8" transform="translate(154.50324721477816 66.82423007256097) rotate(0 28 10)"><text x="28" y="14" font-family="Virgil, Segoe UI Emoji" font-size="16px" fill="#000000" text-anchor="middle" style="white-space: pre;" direction="ltr">Ansilo</text></g><g stroke-opacity="0.8" fill-opacity="0.8" transform="translate(62.311618120943855 60.12195596313131) rotate(0 39.5 13)"><text x="0" y="18" font-family="Virgil, Segoe UI Emoji" font-size="20.05208564173749px" fill="#000000" text-anchor="start" style="white-space: pre;" direction="ltr">μService</text></g><g stroke-linecap="round"><g transform="translate(139.32697014922368 101.60482415479748) rotate(0 22.9179701802325 22.097662054926165)" fill-rule="evenodd"><path d="M0.29 0.22 L2.33 43.16 L13.88 47.96 L25.21 50.69 L39.54 46.95 L43.7 42.65 L47.76 2.5 L38.74 -4.34 L25.09 -4.98 L6.88 -3.92 L0.43 1.24" stroke="none" stroke-width="0" fill="#fd7e14" fill-rule="evenodd"></path><path d="M0.12 0.5 C0.32 6.82, 0.6 30.74, 0.56 37.99 C0.52 45.23, -1.04 42.55, -0.12 43.96 C0.79 45.37, 3.56 45.49, 6.04 46.43 C8.52 47.38, 11.62 49.33, 14.75 49.62 C17.89 49.91, 22.01 48.32, 24.85 48.17 C27.69 48.01, 29.32 48.75, 31.78 48.69 C34.25 48.62, 37.24 48.63, 39.62 47.77 C42.01 46.92, 45.11 45.38, 46.07 43.55 C47.03 41.71, 45.29 43.26, 45.38 36.77 C45.48 30.28, 46.35 10.88, 46.63 4.61 C46.92 -1.66, 47.98 0.21, 47.08 -0.88 C46.18 -1.97, 43.59 -1.18, 41.22 -1.93 C38.84 -2.68, 35.66 -4.95, 32.84 -5.39 C30.02 -5.83, 26.65 -4.44, 24.3 -4.57 C21.95 -4.69, 21.25 -6.35, 18.76 -6.14 C16.28 -5.94, 12.56 -4.17, 9.4 -3.34 C6.24 -2.51, 1.49 -1.55, -0.21 -1.17 M-1.28 -0.28 C-1.13 5.68, -0.69 28.64, -0.1 36.22 C0.49 43.81, 1.24 43.36, 2.28 45.23 C3.31 47.11, 4.26 47.2, 6.09 47.49 C7.92 47.77, 10.41 46.47, 13.26 46.95 C16.1 47.43, 19.95 50.27, 23.18 50.35 C26.41 50.44, 29.97 47.89, 32.63 47.45 C35.3 47.01, 37.17 48.62, 39.16 47.71 C41.16 46.81, 43.5 43.99, 44.59 42.04 C45.69 40.09, 45.36 42.15, 45.73 36.03 C46.11 29.92, 46.77 11.63, 46.86 5.35 C46.94 -0.94, 47.05 -0.42, 46.24 -1.68 C45.43 -2.94, 43.8 -1.49, 41.98 -2.21 C40.16 -2.94, 38.32 -5.59, 35.34 -6.03 C32.37 -6.48, 26.82 -4.98, 24.13 -4.89 C21.44 -4.8, 21.79 -5.93, 19.2 -5.49 C16.62 -5.06, 12.1 -2.96, 8.63 -2.29 C5.16 -1.61, -0.34 -1.57, -1.6 -1.42" stroke="#a61e4d" stroke-width="1" fill="none"></path></g></g><g stroke-linecap="round" transform="translate(139.15550084575077 95.9460621750244) rotate(0 23.244349896704122 6.320019701428684)"><path d="M30.09 1.14 C34.7 1.3, 40.79 1.69, 43.46 2.57 C46.13 3.46, 47 5.17, 46.09 6.46 C45.18 7.74, 41.52 9.39, 37.99 10.27 C34.46 11.15, 29.78 11.68, 24.9 11.71 C20.02 11.75, 12.81 11.17, 8.72 10.48 C4.63 9.79, 1.41 8.66, 0.37 7.56 C-0.66 6.46, 0.28 5.07, 2.51 3.88 C4.75 2.7, 8.4 0.97, 13.78 0.44 C19.15 -0.09, 30.87 0.56, 34.76 0.71 C38.66 0.86, 37.39 1.26, 37.14 1.34 M14.31 1.93 C18.63 1.52, 24.85 0.9, 29.5 1 C34.16 1.1, 39.64 1.6, 42.25 2.54 C44.85 3.48, 45.78 5.07, 45.13 6.65 C44.49 8.22, 42.07 10.79, 38.38 11.98 C34.69 13.18, 27.79 13.99, 22.98 13.83 C18.17 13.67, 13.13 12.27, 9.53 11.02 C5.94 9.78, 2.69 7.63, 1.42 6.38 C0.15 5.14, -0.14 4.57, 1.9 3.56 C3.93 2.55, 11.31 0.91, 13.62 0.32 C15.94 -0.27, 15.4 -0.2, 15.8 0.01" stroke="none" stroke-width="0" fill="#ffffff"></path><path d="M29.46 0.18 C34.21 0.63, 39.57 2.74, 42.54 3.76 C45.51 4.79, 47.75 5.11, 47.26 6.33 C46.78 7.54, 43.23 9.93, 39.63 11.06 C36.03 12.18, 30.61 13.05, 25.64 13.07 C20.66 13.1, 14.06 12.17, 9.79 11.22 C5.52 10.27, 1.25 8.72, -0.01 7.37 C-1.26 6.02, -0.22 4.36, 2.25 3.13 C4.72 1.89, 9.3 0.18, 14.82 -0.06 C20.33 -0.31, 31.54 1.47, 35.34 1.65 C39.15 1.82, 38.1 0.97, 37.64 0.98 M13.43 0.43 C17.51 -0.58, 22.52 -1.19, 27.02 -0.81 C31.52 -0.42, 37.16 1.31, 40.43 2.74 C43.7 4.17, 46.77 6.59, 46.62 7.79 C46.48 8.99, 43.06 8.96, 39.57 9.94 C36.07 10.92, 30.29 13.28, 25.67 13.69 C21.05 14.09, 16 13.53, 11.85 12.36 C7.7 11.19, 2.6 7.97, 0.79 6.67 C-1.02 5.37, -1.21 5.74, 1.01 4.57 C3.23 3.39, 12.3 0.24, 14.11 -0.4 C15.93 -1.05, 11.93 0.6, 11.88 0.68" stroke="#a61e4d" stroke-width="1" fill="none"></path></g><g stroke-opacity="0.8" fill-opacity="0.8" stroke-linecap="round" transform="translate(649.7928347054304 357.7459781948687) rotate(0 53.18051082212793 52.02835879642143)"><path d="M15.17 14.51 C15.17 14.51, 15.17 14.51, 15.17 14.51 M15.17 14.51 C15.17 14.51, 15.17 14.51, 15.17 14.51 M5.24 33.41 C11.46 27.3, 15.22 22.97, 22.85 11.2 M5.11 32.57 C9.84 27.53, 12.61 22.41, 24.14 10.11 M4.55 42.29 C11.99 30.23, 22.31 18.51, 33.41 3.93 M2.41 40.54 C11.07 31.02, 20.68 20.21, 34.09 5.22 M3.72 45.62 C13.39 34.99, 21.4 24.82, 41.72 2.06 M2.35 46.59 C17.23 29.94, 32.75 14.09, 40.7 3.5 M3.82 52.35 C16.86 37.2, 32.44 18.86, 44.82 3.01 M2.35 53.02 C15.59 38.88, 26.49 25.12, 45.67 3.39 M2.16 57.06 C15.88 48.07, 25.4 33.38, 52.97 3.27 M3.22 58.27 C18.13 42.23, 33.26 24.98, 50.62 4.26 M3 64.39 C13.19 54.03, 24.42 41, 54.39 4.5 M2.92 65.33 C19.12 46.98, 35.44 27.18, 56.89 4.63 M6.05 69.16 C20.05 52.94, 36.75 31.25, 60.42 5.44 M4.17 69.7 C23.72 46.23, 41.28 24.26, 61.77 3.84 M6.66 72.27 C22.22 54.42, 39.07 33.79, 67.56 2.51 M7.61 73.31 C28.87 47.61, 49.43 23.64, 67.65 2.69 M8.91 76.05 C23.72 61.39, 36.43 45.97, 72.74 4.44 M8.09 75.76 C27.08 56.48, 42.45 36.56, 70.28 4.01 M11.62 80.37 C35.18 52.43, 56.82 28.59, 73.23 5.63 M11.59 80.4 C33.07 54.45, 56.36 26.19, 75.79 5.89 M15.02 82.56 C30.21 63.36, 45.73 45.33, 79.32 8.3 M13.06 84.13 C31.02 63.25, 48.74 45.01, 78.41 7.83 M13.99 85.73 C40.92 57.57, 69.28 26.62, 82.93 11.59 M16.69 87.76 C34.55 65.47, 54.2 43.26, 82.14 9.76 M20.05 90.95 C37.71 64.17, 60.41 43.01, 84.24 10.98 M18.95 90 C42.71 63.64, 64.91 35.82, 86.48 13.38 M21.28 91.06 C39.65 71.08, 58.9 49.25, 90.3 13.59 M21.58 91.34 C40.93 69.7, 61.36 46.76, 90.06 13.42 M25.02 94.63 C46.31 71.54, 62.28 51.84, 93.66 17.63 M25.36 93.84 C42.56 75.5, 59.99 56.22, 92.36 17.01 M27.76 97.52 C55.78 69.11, 81.02 39.36, 93.7 21.25 M29.07 96.66 C51.88 70.64, 74.66 42.66, 96.07 20.49 M31.1 96.76 C57.64 70.3, 80.72 44.15, 98.53 22.14 M32.47 97.91 C47.23 81.53, 61 65.35, 98.07 22.91 M36.41 98.46 C57.03 72.62, 81.54 49.06, 98.27 26.41 M36.1 100.46 C49.72 85.82, 63.43 71.05, 99.81 26.9 M38.11 102.15 C63.74 77.08, 84.11 47.84, 101.09 31 M39.52 102.25 C53.36 87.02, 66.45 72.34, 102.34 30.97 M43.58 102.66 C59.95 81.67, 76.53 63.48, 101.78 32.79 M44.38 102.06 C59.68 84.3, 74.81 68.62, 104.01 34.57 M49.25 101.03 C60.62 88.69, 72.18 78.25, 105.71 38.45 M49.51 102.41 C65.43 86.74, 78.36 71.42, 105.44 37.91 M55.07 102.84 C67.54 86.45, 79.85 74.37, 103.5 44.36 M54.49 101.79 C68.7 87.68, 81.11 71.17, 105.29 45.75 M59.88 101.36 C76.28 84.51, 90.07 67.14, 104.21 52.42 M60.04 101.76 C75.42 87.58, 87.88 72.14, 104.48 51.24 M66.05 103.17 C76.17 91.21, 87.13 80.58, 104.05 56.23 M65.76 102.52 C74.58 91.97, 81.82 84.21, 104 57.95 M68.73 104.54 C82.39 89.69, 97.38 76.31, 102.33 66.97 M70.45 105.2 C76.99 96.92, 84.58 87.81, 103.91 65.72 M78.36 97.72 C87.2 88.6, 95.37 80.6, 106.01 65.95 M79.64 98.12 C86.71 89.06, 94.39 81.67, 106.92 67.16" stroke="#15aabf" stroke-width="0.5" fill="none"></path><path d="M39.13 2.64 C47.09 0.02, 58.26 0.61, 66.96 2.61 C75.65 4.61, 84.91 8.72, 91.31 14.65 C97.7 20.58, 103.28 29.79, 105.35 38.22 C107.41 46.64, 106.2 56.63, 103.68 65.19 C101.16 73.76, 96.32 83.54, 90.25 89.62 C84.19 95.7, 75.79 99.71, 67.29 101.69 C58.79 103.66, 47.79 103.76, 39.25 101.49 C30.72 99.21, 22.26 94.06, 16.06 88.03 C9.86 81.99, 4.52 73.41, 2.04 65.29 C-0.45 57.18, -1 47.78, 1.16 39.35 C3.32 30.92, 7.95 21, 14.99 14.72 C22.03 8.44, 37.91 4.06, 43.37 1.68 C48.84 -0.7, 47.66 -0.39, 47.78 0.43 M53.39 -0.39 C62.18 -1.71, 72.36 0.84, 80.14 5.34 C87.91 9.84, 95.54 18.94, 100.03 26.62 C104.51 34.3, 107.3 42.73, 107.06 51.42 C106.82 60.11, 102.78 71, 98.61 78.76 C94.44 86.51, 89.59 93.76, 82.05 97.97 C74.5 102.18, 62.22 104.14, 53.36 104.02 C44.5 103.91, 36.53 101.37, 28.88 97.28 C21.24 93.18, 12.5 87.07, 7.47 79.45 C2.44 71.83, -1.14 60.46, -1.3 51.54 C-1.47 42.61, 1.99 33.19, 6.5 25.89 C11.01 18.59, 18.21 11.93, 25.77 7.75 C33.33 3.56, 47.42 1.8, 51.87 0.78 C56.32 -0.25, 52.19 0.89, 52.47 1.61" stroke="#000000" stroke-width="1" fill="none"></path></g><g stroke-opacity="0.8" fill-opacity="0.8" transform="translate(657.1324143638075 391.4253878453476) rotate(0 45.50539388193761 18.348949145942584)"><text x="45.505393881937586" y="25.697898291885153" font-family="Virgil, Segoe UI Emoji" font-size="29.35831863350812px" fill="#000000" text-anchor="middle" style="white-space: pre;" direction="ltr">Ansilo</text></g><g stroke-linecap="round"><g transform="translate(207.0874584559351 596.0137291758467) rotate(0 -4.991808838857722 64.91173629219765)" fill-rule="evenodd"><path d="M-60.66 24.12 C-60.66 24.12, -60.66 24.12, -60.66 24.12 M-60.66 24.12 C-60.66 24.12, -60.66 24.12, -60.66 24.12 M-59.82 30 C-57.18 26.78, -55.35 25.08, -53.4 19.46 M-60.58 30.2 C-57.96 26.34, -54.66 23.3, -52.89 20.9 M-59.34 36.72 C-56.28 29.08, -49.15 24.91, -45.8 18.49 M-60.1 36.63 C-56.07 30.19, -52.03 25.73, -45.05 17.83 M-62.42 43.58 C-53.4 32.69, -47.61 26.06, -37.98 13.61 M-59.87 43.38 C-56.34 36.62, -49.79 30.31, -37.46 15.23 M-59.7 50.3 C-51.99 37.52, -39.93 23.65, -29.22 12.92 M-60.68 49.7 C-53.85 41.3, -46.8 34.45, -29.22 11.64 M-59 56.05 C-45.51 36.58, -28.76 15.62, -18.61 6.01 M-60.58 54.3 C-52.83 44.61, -43.33 35.23, -20.41 7.86 M-60.14 60.86 C-43.24 42.72, -26.55 20.6, -12.26 4.17 M-61.01 60.8 C-47.85 45.41, -34.14 31.01, -11.97 5.89 M-60.3 68.39 C-42.32 46.2, -22.36 23.66, -6.06 0.72 M-61.17 66.49 C-48.22 50.81, -33.31 35.39, -3.44 1.22 M-62.1 72.39 C-40.17 49.03, -20.15 27.25, 2.4 1.96 M-60.92 74.66 C-42.24 53.5, -25.01 31.24, 2.24 1.69 M-61.61 78.53 C-37.04 51.45, -16.63 27.63, 4.96 4.69 M-61.83 80.41 C-41.97 57.81, -23.38 34.95, 4.89 2.97 M-60.37 86.79 C-32.89 56.55, -7.91 25.5, 10.89 6.68 M-62.1 84.99 C-41.78 63.06, -21.29 39.37, 8.16 4.95 M-62.8 90.35 C-33.81 56.71, -0.64 25.97, 14.25 5.74 M-60.93 92.58 C-40.61 68.21, -20.44 45.08, 11.98 6.74 M-59.61 97.16 C-40.11 72.12, -18.08 47.22, 14.51 8.87 M-60.79 97.84 C-38.45 73.1, -17.8 50.08, 16.15 9.79 M-61.08 101.39 C-43.01 82.87, -23.79 63.34, 19.09 11.63 M-59.76 101.26 C-31.38 70.24, -3.39 36.93, 20.08 11.18 M-54.52 102.75 C-33.84 81.22, -14.75 57.27, 22.09 13.51 M-55.82 104.46 C-33.71 80.28, -12.43 53.69, 24.47 12.91 M-52.24 104.9 C-28.69 79.27, -5.83 52.89, 26.83 13.33 M-51.8 106.5 C-31.09 81.19, -11.48 59.14, 26.95 15.25 M-48.3 109.54 C-18.53 71.36, 12.64 36.56, 32.53 16.56 M-49.1 107.96 C-25.97 80.9, -0.19 51.92, 31.85 16.02 M-45.89 110.09 C-26.61 89.73, -12.06 69.76, 32.89 18.76 M-43.95 110.44 C-16.13 76.88, 13.07 43.61, 33.81 17.94 M-43.38 111.73 C-11.8 78.02, 14.45 45.36, 38.77 20.89 M-42.4 112.72 C-10.44 74.81, 22.14 39, 37.51 19.89 M-37 115.85 C-10.43 78.49, 21.69 45.41, 40.75 20.76 M-38.02 114.97 C-7.03 78.92, 22.42 44.02, 41.35 22.28 M-34.23 115.89 C-4.63 80.17, 27.83 46.09, 43.82 24.32 M-34.11 116.64 C-5.32 80.2, 26.82 46.03, 45.11 24.31 M-32.49 117.74 C-10.18 93.29, 8.78 71.61, 49.95 25.11 M-31.41 116.74 C-3.27 87.85, 22.04 59.19, 49.71 25.31 M-25.2 119.82 C-7.66 97.95, 8.86 75.92, 52.76 27.59 M-27.09 119.9 C-4.03 91.15, 18.73 65.57, 52.81 28.08 M-23.83 121.26 C2.38 90.31, 29.83 60.29, 52.17 35.07 M-23.67 122.45 C-0.5 95.93, 22.32 71.4, 52.6 34.66 M-20.61 122.24 C7.92 93.16, 35.9 59.48, 52.86 39.46 M-20.75 124.71 C7.39 93.33, 32.59 63.31, 53.32 40.12 M-17.85 127.86 C-0.4 107.07, 17.02 87.25, 51.07 46.29 M-17.24 126.82 C4.67 102.1, 26.09 77.31, 53.11 47.43 M-14.71 128.55 C9.72 104.24, 30.03 80.71, 53.84 52.75 M-13.06 127.05 C2.59 109.33, 19.15 91.74, 52.27 51.5 M-9.23 128.16 C10.16 108.71, 27.13 90.88, 50.98 58.09 M-10.08 129.85 C9.66 110.42, 26.22 89.46, 52.39 59.5 M-3.68 131.35 C8.02 116.85, 18.13 104.19, 53.65 66.51 M-6.48 131.19 C15.24 108.21, 34.4 84.28, 51.9 65.64 M3.93 128.18 C20.75 105.3, 41.77 81.62, 50.38 73.51 M4.9 127.05 C15.07 112.92, 28.4 100.03, 51.17 71.54 M13.48 121.09 C25.6 109.69, 32.69 99.17, 50.94 75.77 M15.11 120.37 C28.56 105.06, 41.5 89.49, 51.52 77.98 M24.38 114.93 C29.17 110.99, 37.17 102.8, 50.43 85.52 M23.98 116.98 C33.23 105.8, 40.17 96.45, 52.26 83.26 M32.27 110.58 C39.65 104.83, 46.54 98.81, 51.78 89.45 M33.72 111.24 C39.5 105.22, 44.06 97.79, 52.31 89.99 M42.43 106.16 C46.06 103.48, 49.75 99.9, 50.42 95.57 M43.05 105.5 C46.09 102.56, 48.4 100.84, 51.36 95.8" stroke="#e64980" stroke-width="0.5" fill="none"></path><path d="M-1.15 -1.28 C-13.74 6.32, -30.17 13.19, -59.09 22.32 M0.66 -0.85 C-14.98 6.68, -32.02 11.79, -59.9 25.09 M-62.37 22.38 C-62.03 44.08, -61.3 62.74, -60.76 99.12 M-60.75 24.26 C-59.26 48.36, -60.93 73, -60.89 100.11 M-60.34 100.32 C-44.09 107.33, -28.45 117.51, -6.88 129.6 M-60.6 98.93 C-46.56 108.18, -32.17 117.25, -8.2 130.76 M-8.7 128.39 C7.62 120.43, 24.34 112.34, 52.14 98.87 M-8.25 131.1 C11.83 120.58, 28.45 110.18, 51.22 99.03 M51.7 99.62 C50.52 80.04, 48.9 63.13, 50.13 25.84 M50.8 100.54 C50.3 75.25, 51.37 50.17, 51.25 26.71 M51.3 25.8 C36.91 19.15, 21.26 9.47, 1.77 0.09 M52.39 26.36 C39.81 19.51, 26.78 14.24, 0.27 0.32 M0 0 C0 0, 0 0, 0 0 M0 0 C0 0, 0 0, 0 0" stroke="#c92a2a" stroke-width="1" fill="none"></path></g></g><g stroke-opacity="0.8" fill-opacity="0.8" stroke-linecap="round" transform="translate(248.2395288560485 629.2363951724578) rotate(0 32.5 31)"><path d="M4.62 14.61 C4.62 14.61, 4.62 14.61, 4.62 14.61 M4.62 14.61 C4.62 14.61, 4.62 14.61, 4.62 14.61 M1.78 20.47 C11.81 12.82, 16.35 7.57, 22.42 1.84 M2.85 22.34 C8.42 14.99, 15.12 9.48, 22.31 0.94 M2.79 28.31 C11.12 18.17, 21.9 5.43, 27.02 0.56 M2.1 28.95 C9.23 22.48, 14.02 14.75, 26.99 1.64 M1.07 37.71 C9.39 28.73, 18.27 20.17, 29.7 2.48 M0.62 36.79 C6.6 30.01, 14.31 22.69, 30.54 1.46 M2.55 39.87 C11.95 30.16, 20 20.23, 36.37 2.97 M3.44 40.48 C12.79 28.08, 22.86 17.59, 37.17 2.51 M4.47 42.01 C15.87 32.42, 26.05 21.68, 42.51 4.52 M5.97 44.36 C14.04 32.17, 24.78 22.86, 41.24 3.35 M7.22 48.22 C15.78 37.62, 27.85 27.15, 46.57 5.13 M7.87 48.46 C19.86 33.72, 32.65 18.6, 46.58 4.37 M9.11 50.83 C22.88 35.53, 36.51 21.02, 49.29 4.93 M9.72 50.83 C22.73 35.32, 36.21 20.86, 47.72 7.48 M13.79 53.57 C25.77 38.43, 43.1 19.38, 51.06 10.54 M12.37 53.85 C26.67 38.61, 40.63 20.69, 51.28 9.56 M17.57 57.64 C28.39 40.58, 46.67 24.71, 56.01 13.46 M16.21 55.35 C31.24 38.74, 44.06 22.61, 53.91 11.89 M20.16 57.66 C29.49 46.72, 41.67 35.56, 56.72 15.22 M19.89 57.57 C30.75 44.68, 41.55 32.02, 56.95 14.34 M24.7 58.98 C35.23 49.28, 45.45 35.3, 61.58 17.94 M24.21 59.58 C36.02 43.85, 49.23 29.66, 61.75 17.07 M29.18 60.85 C36.4 52.08, 42.81 44.2, 60.17 21.29 M27.5 61.52 C35.94 52.73, 43.3 43.3, 61.02 22.47 M29.72 62.49 C44.76 49.58, 56.41 35.36, 64.59 26.27 M30.88 63.68 C39.03 54.78, 47.13 45.6, 62 26.05 M33.34 64.77 C45.83 51.19, 59.58 37.85, 62.9 32.67 M34.93 65.32 C45.87 54.04, 54.83 42.39, 63.94 30.93 M41.96 63.53 C46.12 56.3, 54.36 50.84, 64.45 35.38 M43.62 62.96 C48.34 56.6, 51.79 51.55, 65.31 37.26" stroke="#15aabf" stroke-width="0.5" fill="none"></path><path d="M45.27 3.1 C51.39 5.04, 57.06 10.5, 60.34 16.19 C63.62 21.88, 66.18 30.82, 64.96 37.23 C63.75 43.64, 58.55 50.44, 53.07 54.65 C47.6 58.86, 39.2 62.72, 32.11 62.48 C25.01 62.24, 15.67 57.6, 10.5 53.21 C5.33 48.82, 2.05 42.58, 1.08 36.14 C0.11 29.7, 1.2 20.49, 4.66 14.57 C8.11 8.65, 14.95 2.65, 21.79 0.63 C28.64 -1.38, 41.37 1.84, 45.74 2.46 C50.11 3.08, 48.22 3.73, 48 4.35 M25.43 0.53 C31.79 -1.1, 41.99 2.16, 48.12 5.22 C54.25 8.29, 59.74 12.88, 62.22 18.93 C64.69 24.98, 65.05 35.09, 62.98 41.54 C60.91 47.98, 55.68 54.17, 49.81 57.59 C43.94 61, 34.57 62.97, 27.77 62.02 C20.97 61.07, 13.57 57.16, 9 51.89 C4.42 46.61, 0.76 37.24, 0.32 30.38 C-0.11 23.53, 2.07 15.81, 6.41 10.75 C10.75 5.69, 23.12 1.61, 26.34 0.04 C29.57 -1.53, 25.55 0.52, 25.74 1.33" stroke="#000000" stroke-width="1" fill="none"></path></g><g stroke-opacity="0.8" fill-opacity="0.8" transform="translate(253.2395288560485 650.2363951724578) rotate(0 27.5 10)"><text x="27.5" y="14" font-family="Virgil, Segoe UI Emoji" font-size="16px" fill="#000000" text-anchor="middle" style="white-space: pre;" direction="ltr">Ansilo</text></g><g stroke-opacity="0.8" fill-opacity="0.8" transform="translate(160.85000879286483 642.7243218686924) rotate(0 39.64577026367189 12.927968564240814)"><text x="0" y="17.855937128481667" font-family="Virgil, Segoe UI Emoji" font-size="20.242315754291138px" fill="#000000" text-anchor="start" style="white-space: pre;" direction="ltr">μService</text></g><g stroke-linecap="round"><g transform="translate(236.9986528448387 686.007413636341) rotate(0 22.972777091298838 21.690844214768276)" fill-rule="evenodd"><path d="M0.25 0.01 L1.29 45.11 L15.2 48.9 L21.76 48.17 L37.22 47.76 L44.9 43.32 L46.09 1 L35.28 -6.54 L19.61 -4.74 L7.07 -2.4 L-1.59 0.75" stroke="none" stroke-width="0" fill="#15aabf" fill-rule="evenodd"></path><path d="M0.04 0.11 C0.27 6.33, 0.63 31.01, 0.57 38.26 C0.52 45.51, -1.4 42.3, -0.28 43.61 C0.83 44.93, 4.61 45.49, 7.26 46.13 C9.9 46.77, 12.68 46.89, 15.6 47.47 C18.52 48.04, 22.19 49.58, 24.79 49.6 C27.39 49.62, 28.74 47.79, 31.19 47.59 C33.64 47.38, 37.14 48.98, 39.49 48.37 C41.84 47.76, 44.32 45.91, 45.28 43.9 C46.24 41.89, 45.21 42.88, 45.24 36.29 C45.28 29.69, 45.4 10.44, 45.51 4.34 C45.61 -1.77, 46.93 0.8, 45.88 -0.35 C44.84 -1.51, 41.35 -1.93, 39.23 -2.58 C37.12 -3.23, 35.37 -3.78, 33.21 -4.26 C31.05 -4.73, 28.51 -5.33, 26.28 -5.43 C24.04 -5.53, 22.57 -5.04, 19.8 -4.86 C17.04 -4.68, 13.06 -5.08, 9.67 -4.32 C6.29 -3.56, 0.99 -1.05, -0.52 -0.29 M-1.39 -0.87 C-1.21 4.94, -0.65 29.04, -0.08 36.64 C0.5 44.23, 0.7 42.97, 2.04 44.7 C3.37 46.44, 5.86 46.59, 7.95 47.02 C10.03 47.46, 12.02 47.01, 14.54 47.32 C17.07 47.63, 20.22 48.52, 23.09 48.87 C25.95 49.23, 29.09 49.47, 31.73 49.43 C34.38 49.39, 36.4 49.76, 38.95 48.62 C41.51 47.48, 45.95 44.19, 47.05 42.58 C48.14 40.97, 45.81 45.23, 45.52 38.96 C45.22 32.69, 45.45 11.57, 45.27 4.93 C45.09 -1.71, 45.47 0.48, 44.42 -0.88 C43.37 -2.23, 40.99 -2.64, 38.96 -3.21 C36.93 -3.78, 34.83 -3.8, 32.25 -4.3 C29.67 -4.8, 25.4 -6.33, 23.49 -6.21 C21.58 -6.08, 23.2 -3.94, 20.79 -3.54 C18.39 -3.13, 12.25 -4.36, 9.05 -3.78 C5.85 -3.2, 3.16 -0.8, 1.58 -0.07" stroke="#364fc7" stroke-width="1" fill="none"></path></g></g><g stroke-linecap="round" transform="translate(236.82718354136588 680.3486516565679) rotate(0 23.244349896704136 6.320019701428691)"><path d="M27.13 -0.54 C31.7 -0.49, 37.17 0.61, 40.26 1.7 C43.36 2.79, 45.69 4.4, 45.7 6 C45.72 7.6, 43.53 10.15, 40.34 11.27 C37.16 12.4, 31.45 12.66, 26.6 12.74 C21.76 12.81, 15.62 12.33, 11.26 11.73 C6.9 11.12, 1.93 10.39, 0.44 9.11 C-1.04 7.83, 0.58 5.54, 2.33 4.04 C4.08 2.55, 6.37 0.89, 10.95 0.15 C15.53 -0.58, 26.63 -0.52, 29.8 -0.35 C32.97 -0.18, 30.14 0.9, 29.95 1.19 M22.21 0.85 C26.71 0.76, 33.08 -0.02, 37.16 0.82 C41.24 1.66, 45.62 4.36, 46.69 5.89 C47.77 7.42, 45.99 9.01, 43.61 10 C41.23 10.98, 37.17 11.34, 32.42 11.8 C27.67 12.26, 20.21 13.25, 15.13 12.73 C10.06 12.22, 4.45 9.96, 1.97 8.69 C-0.5 7.42, -0.6 6.31, 0.3 5.1 C1.2 3.89, 3.55 2.38, 7.36 1.41 C11.17 0.44, 20.43 -0.56, 23.15 -0.74 C25.87 -0.91, 23.64 0.31, 23.68 0.36" stroke="none" stroke-width="0" fill="#ffffff"></path><path d="M32.95 0.16 C37.69 0.5, 42.27 1.24, 44.58 2.58 C46.88 3.92, 48.02 6.88, 46.78 8.22 C45.54 9.56, 41.12 9.71, 37.14 10.6 C33.16 11.5, 27.9 13.5, 22.9 13.57 C17.89 13.65, 11.02 12.28, 7.11 11.06 C3.19 9.84, 0.12 7.73, -0.6 6.27 C-1.31 4.8, 0 3.3, 2.82 2.28 C5.63 1.25, 10.84 0.27, 16.28 0.12 C21.72 -0.02, 31.67 1.05, 35.46 1.4 C39.26 1.75, 38.98 2.23, 39.04 2.21 M21.9 -0.65 C26.53 -0.9, 33.11 1.12, 37.17 2.09 C41.23 3.07, 45.14 3.93, 46.24 5.19 C47.35 6.44, 46.03 8.42, 43.79 9.63 C41.54 10.85, 37.34 12.27, 32.77 12.47 C28.21 12.67, 21.38 11.47, 16.4 10.84 C11.43 10.21, 5.57 9.67, 2.93 8.67 C0.3 7.68, -0.12 6.02, 0.61 4.86 C1.34 3.69, 3.55 2.32, 7.32 1.71 C11.1 1.1, 21.01 1.49, 23.28 1.19 C25.54 0.89, 21.03 0.19, 20.93 -0.08" stroke="#1864ab" stroke-width="1" fill="none"></path></g><g stroke-linecap="round"><g stroke-opacity="0.6" fill-opacity="0.6" transform="translate(769.1340021742928 401.3954041250009) rotate(0 42.5649623894426 8.352609008410013)"><path d="M0.4 -0.32 C8.76 0.64, 34.93 3.17, 48.99 6.07 C63.04 8.96, 78.72 15.09, 84.73 17.03" stroke="#000000" stroke-width="1.5" fill="none" stroke-dasharray="8 9"></path></g><g stroke-opacity="0.6" fill-opacity="0.6" transform="translate(769.1340021742928 401.3954041250009) rotate(0 42.5649623894426 8.352609008410013)"><path d="M65.22 16.4 C70.21 15.78, 72.39 16.18, 84.74 17.8" stroke="#000000" stroke-width="1.5" fill="none"></path></g><g stroke-opacity="0.6" fill-opacity="0.6" transform="translate(769.1340021742928 401.3954041250009) rotate(0 42.5649623894426 8.352609008410013)"><path d="M69.48 4.12 C73.63 6.01, 74.94 8.9, 84.74 17.8" stroke="#000000" stroke-width="1.5" fill="none"></path></g></g><g stroke-linecap="round" transform="translate(619.3200753148978 460.5885461292993) rotate(0 27.56257135976523 27.5625713597652)"><path d="M29.83 1.04 C35.48 0.88, 40.63 3.97, 44.75 7.77 C48.88 11.57, 53.28 18, 54.58 23.85 C55.88 29.69, 55.59 37.73, 52.54 42.84 C49.5 47.95, 42.23 52.82, 36.3 54.52 C30.37 56.22, 22.72 55.52, 16.96 53.05 C11.2 50.57, 4.62 44.72, 1.76 39.68 C-1.1 34.64, -1.38 28.19, -0.21 22.79 C0.96 17.39, 1.2 10.24, 8.79 7.26 C16.38 4.27, 38.07 2.37, 45.33 4.86 C52.59 7.36, 52.92 21.57, 52.37 22.21 M25.06 -1.31 C30.97 -2.67, 37.74 -0.56, 42.29 2.76 C46.83 6.08, 50.67 12.96, 52.32 18.61 C53.96 24.26, 53.77 31, 52.18 36.65 C50.6 42.3, 47.67 49.29, 42.8 52.51 C37.93 55.72, 29.29 57.57, 22.95 55.94 C16.61 54.31, 8.96 48.05, 4.75 42.72 C0.54 37.39, -2.42 29.62, -2.32 23.97 C-2.22 18.31, 0.9 12.26, 5.35 8.8 C9.8 5.34, 21.64 4.74, 24.38 3.2 C27.12 1.65, 21.69 -0.36, 21.82 -0.47" stroke="none" stroke-width="0" fill="#fd7e14"></path><path d="M15.29 1.03 C20.38 -1.53, 28.14 0.18, 34.05 1.61 C39.96 3.03, 47.01 5.09, 50.75 9.59 C54.49 14.09, 56.74 22.14, 56.48 28.63 C56.22 35.12, 53.83 44.41, 49.19 48.51 C44.55 52.61, 34.75 53.17, 28.65 53.23 C22.56 53.3, 17.57 52.17, 12.64 48.91 C7.7 45.64, 0.52 39.02, -0.95 33.64 C-2.42 28.27, -1.52 22.18, 3.82 16.65 C9.16 11.12, 24.52 2.1, 31.1 0.45 C37.69 -1.19, 43.53 6.59, 43.34 6.78 M47.06 7 C51.82 10.41, 51.34 15.08, 52.47 20.3 C53.6 25.52, 55.99 32.95, 53.84 38.33 C51.69 43.72, 45.16 50.37, 39.55 52.59 C33.95 54.81, 26.5 52.95, 20.21 51.63 C13.91 50.32, 5.2 49.53, 1.78 44.72 C-1.65 39.9, -1.98 29.1, -0.35 22.74 C1.28 16.39, 6.69 10.73, 11.56 6.59 C16.43 2.45, 23.35 -2.38, 28.88 -2.12 C34.4 -1.86, 42.61 6.35, 44.7 8.13 C46.79 9.9, 41.57 8.39, 41.41 8.52" stroke="#000000" stroke-width="1" fill="none"></path></g><g stroke-linecap="round" transform="translate(635.8915599445698 481.7600751477337) rotate(0 11.025028543906274 11.025028543906245)"><path d="M6.41 -0.11 L20.84 0.49 L20.52 5.27 L20.24 19.03 L16.09 22.77 L2.11 18.68 L1.45 15.42 L2.34 4.71 L3.99 -1.77" stroke="none" stroke-width="0" fill="#ffffff"></path><path d="M5.51 0 M5.51 0 C8.52 0.84, 13.21 0.46, 16.54 0 M5.51 0 C8.93 -0.39, 12.82 -0.51, 16.54 0 M16.54 0 C18.27 1.81, 22.91 0.5, 22.05 5.51 M16.54 0 C19.21 1.41, 20.54 2.95, 22.05 5.51 M22.05 5.51 C21.15 9.52, 21.87 11.36, 22.05 16.54 M22.05 5.51 C21.63 9.84, 22.47 13.56, 22.05 16.54 M22.05 16.54 C23.63 20.93, 20.87 22.84, 16.54 22.05 M22.05 16.54 C22.32 20.27, 18.77 22.7, 16.54 22.05 M16.54 22.05 C12.84 21.86, 8.4 22.8, 5.51 22.05 M16.54 22.05 C12.58 22.05, 8.47 21.8, 5.51 22.05 M5.51 22.05 C1.08 22.73, -1.58 21.45, 0 16.54 M5.51 22.05 C2.02 20.33, -1.86 20.5, 0 16.54 M0 16.54 C-0.9 14.02, 0.43 10.9, 0 5.51 M0 16.54 C-0.05 13.06, -0.19 10.36, 0 5.51 M0 5.51 C0.37 2.67, 2.8 -0.68, 5.51 0 M0 5.51 C-1.31 0.04, -0.09 -1.39, 5.51 0" stroke="#ffffff" stroke-width="1" fill="none"></path></g><g stroke-linecap="round"><g transform="translate(640.4897662705158 481.4273861127818) rotate(0 6.557100296645672 -3.59565957201724)"><path d="M-0.53 -0.92 C-0.53 -1.77, -0.38 -3.89, -0.07 -5 C0.24 -6.11, 0.5 -7, 1.32 -7.56 C2.14 -8.12, 3.79 -8.31, 4.84 -8.38 C5.89 -8.45, 6.68 -8.38, 7.63 -7.95 C8.57 -7.52, 9.4 -6.23, 10.49 -5.79 C11.59 -5.35, 13.92 -6.36, 14.2 -5.32 C14.48 -4.29, 12.47 -0.27, 12.17 0.43 M1.39 1.21 C1.22 0.53, -1.48 -2.34, -1.1 -3.6 C-0.71 -4.87, 2.63 -5.81, 3.7 -6.38 C4.77 -6.96, 4.4 -6.92, 5.32 -7.04 C6.23 -7.17, 8.15 -7.25, 9.19 -7.11 C10.23 -6.97, 11.14 -6.81, 11.55 -6.21 C11.97 -5.6, 11.24 -4.57, 11.69 -3.49 C12.14 -2.4, 13.87 -0.36, 14.25 0.31" stroke="#fff" stroke-width="4" fill="none"></path></g></g><g stroke-linecap="round" transform="translate(644.94181663096 487.67469829006484) rotate(0 1.9392294135308816 1.93922941353091)"><path d="M3.88 1.94 C3.88 2.05, 3.87 2.17, 3.85 2.28 C3.83 2.39, 3.8 2.5, 3.76 2.6 C3.72 2.71, 3.67 2.81, 3.62 2.91 C3.56 3.01, 3.5 3.1, 3.42 3.19 C3.35 3.27, 3.27 3.35, 3.19 3.42 C3.1 3.5, 3.01 3.56, 2.91 3.62 C2.81 3.67, 2.71 3.72, 2.6 3.76 C2.5 3.8, 2.39 3.83, 2.28 3.85 C2.17 3.87, 2.05 3.88, 1.94 3.88 C1.83 3.88, 1.71 3.87, 1.6 3.85 C1.49 3.83, 1.38 3.8, 1.28 3.76 C1.17 3.72, 1.07 3.67, 0.97 3.62 C0.87 3.56, 0.78 3.5, 0.69 3.42 C0.61 3.35, 0.53 3.27, 0.45 3.19 C0.38 3.1, 0.32 3.01, 0.26 2.91 C0.2 2.81, 0.16 2.71, 0.12 2.6 C0.08 2.5, 0.05 2.39, 0.03 2.28 C0.01 2.17, 0 2.05, 0 1.94 C0 1.83, 0.01 1.71, 0.03 1.6 C0.05 1.49, 0.08 1.38, 0.12 1.28 C0.16 1.17, 0.2 1.07, 0.26 0.97 C0.32 0.87, 0.38 0.78, 0.45 0.69 C0.53 0.61, 0.61 0.53, 0.69 0.45 C0.78 0.38, 0.87 0.32, 0.97 0.26 C1.07 0.2, 1.17 0.16, 1.28 0.12 C1.38 0.08, 1.49 0.05, 1.6 0.03 C1.71 0.01, 1.83 0, 1.94 0 C2.05 0, 2.17 0.01, 2.28 0.03 C2.39 0.05, 2.5 0.08, 2.6 0.12 C2.71 0.16, 2.81 0.2, 2.91 0.26 C3.01 0.32, 3.1 0.38, 3.19 0.45 C3.27 0.53, 3.35 0.61, 3.42 0.69 C3.5 0.78, 3.56 0.87, 3.62 0.97 C3.67 1.07, 3.72 1.17, 3.76 1.28 C3.8 1.38, 3.83 1.49, 3.85 1.6 C3.87 1.71, 3.87 1.88, 3.88 1.94 C3.88 2, 3.88 1.88, 3.88 1.94" stroke="none" stroke-width="0" fill="#fd7e14"></path><path d="M3.88 1.94 C3.88 2.05, 3.87 2.17, 3.85 2.28 C3.83 2.39, 3.8 2.5, 3.76 2.6 C3.72 2.71, 3.67 2.81, 3.62 2.91 C3.56 3.01, 3.5 3.1, 3.42 3.19 C3.35 3.27, 3.27 3.35, 3.19 3.42 C3.1 3.5, 3.01 3.56, 2.91 3.62 C2.81 3.67, 2.71 3.72, 2.6 3.76 C2.5 3.8, 2.39 3.83, 2.28 3.85 C2.17 3.87, 2.05 3.88, 1.94 3.88 C1.83 3.88, 1.71 3.87, 1.6 3.85 C1.49 3.83, 1.38 3.8, 1.28 3.76 C1.17 3.72, 1.07 3.67, 0.97 3.62 C0.87 3.56, 0.78 3.5, 0.69 3.42 C0.61 3.35, 0.53 3.27, 0.45 3.19 C0.38 3.1, 0.32 3.01, 0.26 2.91 C0.2 2.81, 0.16 2.71, 0.12 2.6 C0.08 2.5, 0.05 2.39, 0.03 2.28 C0.01 2.17, 0 2.05, 0 1.94 C0 1.83, 0.01 1.71, 0.03 1.6 C0.05 1.49, 0.08 1.38, 0.12 1.28 C0.16 1.17, 0.2 1.07, 0.26 0.97 C0.32 0.87, 0.38 0.78, 0.45 0.69 C0.53 0.61, 0.61 0.53, 0.69 0.45 C0.78 0.38, 0.87 0.32, 0.97 0.26 C1.07 0.2, 1.17 0.16, 1.28 0.12 C1.38 0.08, 1.49 0.05, 1.6 0.03 C1.71 0.01, 1.83 0, 1.94 0 C2.05 0, 2.17 0.01, 2.28 0.03 C2.39 0.05, 2.5 0.08, 2.6 0.12 C2.71 0.16, 2.81 0.2, 2.91 0.26 C3.01 0.32, 3.1 0.38, 3.19 0.45 C3.27 0.53, 3.35 0.61, 3.42 0.69 C3.5 0.78, 3.56 0.87, 3.62 0.97 C3.67 1.07, 3.72 1.17, 3.76 1.28 C3.8 1.38, 3.83 1.49, 3.85 1.6 C3.87 1.71, 3.87 1.88, 3.88 1.94 C3.88 2, 3.88 1.88, 3.88 1.94" stroke="#e67700" stroke-width="1" fill="none"></path></g><g stroke-linecap="round"><g transform="translate(646.2636115509072 491.837546746812) rotate(0 0.9448236475297449 2.776623525907155)" fill-rule="evenodd"><path d="M0 0 L-0.93 5.28 L0.93 5.94 L2.8 5.28 L2.68 2.64 L1.87 0 L0 0" stroke="none" stroke-width="0" fill="#fd7e14" fill-rule="evenodd"></path><path d="M0 0 C-0.16 0.88, -1.4 4.4, -0.93 5.28 C-0.47 6.16, 2.33 6.16, 2.8 5.28 C3.27 4.4, 2.33 0.88, 1.87 0 C1.4 -0.88, 0.31 0, 0 0 M0 0 C-0.16 0.88, -1.4 4.4, -0.93 5.28 C-0.47 6.16, 2.33 6.16, 2.8 5.28 C3.27 4.4, 2.33 0.88, 1.87 0 C1.4 -0.88, 0.31 0, 0 0" stroke="#e67700" stroke-width="1" fill="none"></path></g></g><g transform="translate(631.7528928655275 520.1711706860074) rotate(0 19.33573220513648 10.742073447298054)"><text x="0" y="14.484146894596119" font-family="Virgil, Segoe UI Emoji" font-size="17.18731751567689px" fill="#343a40" text-anchor="start" style="white-space: pre;" direction="ltr">JWT</text></g><g stroke-linecap="round"><g stroke-opacity="0.5" fill-opacity="0.5" transform="translate(334.7450126279997 625.7145682354571) rotate(0 150.37627659694914 -103.73876753633192)"><path d="M-0.87 0.01 C21.95 -20.33, 85.86 -88.56, 136.28 -123.14 C186.69 -157.73, 274.14 -193.7, 301.62 -207.48" stroke="#000000" stroke-width="1.5" fill="none" stroke-dasharray="8 9"></path></g><g stroke-opacity="0.5" fill-opacity="0.5" transform="translate(334.7450126279997 625.7145682354571) rotate(0 150.37627659694914 -103.73876753633192)"><path d="M301.05 -208.38 L290.82 -194.86 L285.24 -208.84 L301 -205.93" stroke="none" stroke-width="0" fill="#000000" fill-rule="evenodd"></path><path d="M301.63 -207.45 C298.23 -205.13, 296.21 -202.93, 293.41 -195.09 M291.74 -196.83 C290.32 -201.04, 287.23 -205.08, 286.88 -208.58 M286.99 -206.1 C290.74 -208.48, 293.6 -206.34, 302.87 -206.43 M301.62 -207.48 C301.62 -207.48, 301.62 -207.48, 301.62 -207.48" stroke="#000000" stroke-width="1.5" fill="none"></path></g></g><g stroke-linecap="round"><g stroke-opacity="0.5" fill-opacity="0.5" transform="translate(190.13137594845358 464.9702849459056) rotate(0 219.32736539565224 -33.57417844783021)"><path d="M0.13 0.9 C35.92 -8.68, 140.91 -47.18, 213.98 -58.67 C287.05 -70.16, 401.14 -66.59, 438.53 -68.05" stroke="#000000" stroke-width="1.5" fill="none" stroke-dasharray="8 9"></path></g><g stroke-opacity="0.5" fill-opacity="0.5" transform="translate(190.13137594845358 464.9702849459056) rotate(0 219.32736539565224 -33.57417844783021)"><path d="M438.33 -68.33 L425.06 -60.65 L424.9 -72.43 L438.31 -66.81" stroke="none" stroke-width="0" fill="#000000" fill-rule="evenodd"></path><path d="M439.66 -68.16 C435.57 -65.87, 432.55 -64.62, 426.12 -62.92 M425.38 -61.31 C424.89 -63.28, 423.93 -67.02, 424.9 -75.41 M423.54 -75.21 C427.8 -73.06, 431.26 -70.92, 438.24 -68.61 M438.53 -68.05 C438.53 -68.05, 438.53 -68.05, 438.53 -68.05" stroke="#000000" stroke-width="1.5" fill="none"></path></g></g><g stroke-linecap="round"><g stroke-opacity="0.5" fill-opacity="0.5" transform="translate(335.00359304514325 281.1451829635431) rotate(0 150.48911108938685 45.187779662321276)"><path d="M0.84 -0.54 C28.98 5.44, 117.84 20.12, 167.72 35.36 C217.61 50.61, 278.12 81.55, 300.14 90.91" stroke="#000000" stroke-width="1.5" fill="none" stroke-dasharray="8 9"></path></g><g stroke-opacity="0.5" fill-opacity="0.5" transform="translate(335.00359304514325 281.1451829635431) rotate(0 150.48911108938685 45.187779662321276)"><path d="M298.23 91.13 L284.64 90.02 L288.43 77.95 L301.06 92.69" stroke="none" stroke-width="0" fill="#000000" fill-rule="evenodd"></path><path d="M299.46 92.3 C298.3 91.39, 293.93 91, 285.92 89.86 M284.43 92.06 C287.19 87.56, 288.19 82.02, 291.66 80.63 M290.39 80.35 C292.67 82.69, 294.6 83.59, 299.8 91.36 M300.14 90.91 C300.14 90.91, 300.14 90.91, 300.14 90.91" stroke="#000000" stroke-width="1.5" fill="none"></path></g></g><g stroke-linecap="round"><g stroke-opacity="0.5" fill-opacity="0.5" transform="translate(215.16411797292122 102.63912120320289) rotate(0 221.22227279294455 125.38683122239613)"><path d="M-1.13 -0.57 C34.92 15.26, 142.97 54.1, 217.09 96.09 C291.2 138.07, 405.61 225.19, 443.57 251.35" stroke="#000000" stroke-width="1.5" fill="none" stroke-dasharray="8 9"></path></g><g stroke-opacity="0.5" fill-opacity="0.5" transform="translate(215.16411797292122 102.63912120320289) rotate(0 221.22227279294455 125.38683122239613)"><path d="M445.03 252.83 L426.97 246.57 L437.47 238.7 L443.8 251.08" stroke="none" stroke-width="0" fill="#000000" fill-rule="evenodd"></path><path d="M442.85 251.88 C438.29 249.78, 431.96 250.35, 430.14 249.3 M428.77 248.87 C431.98 244.87, 433.46 243.32, 436.31 238.91 M435.17 237.34 C439.36 242.88, 441.16 248.96, 444.32 252.5 M443.57 251.35 C443.57 251.35, 443.57 251.35, 443.57 251.35" stroke="#000000" stroke-width="1.5" fill="none"></path></g></g></svg>