<svg version="1.1" xmlns="http://www.w3.org/2000/svg" viewBox="0 0 782.9667093703463 617.0041552715319" width="1565.9334187406926" height="1234.0083105430638">
  <!-- svg-source:excalidraw -->
  
  <defs>
    <style>
      @font-face {
        font-family: "Virgil";
        src: url("/fonts/Virgil.woff2");
      }
      @font-face {
        font-family: "Cascadia";
        src: url("/fonts/Cascadia.woff2");
      }
    </style>
  </defs>
  <g stroke-linecap="round"><g transform="translate(79.06566466723046 21.830806304915086) rotate(0 52.28480020673001 56.34660885510425)" fill-rule="evenodd"><path d="M-1.51 1 L-0.88 112 L2.64 115.59 L14.44 119.92 L22.11 122.02 L57.12 125.51 L84.33 120.19 L96.24 118.64 L104 115.17 L102.02 -3.17 L103.36 -0.02 L102.4 -1.33 L90.21 -6.29 L48.64 -12.31 L23.08 -10.56 L13.71 -5.89 L3.55 -5.61 L-1.19 0.4" stroke="none" stroke-width="0" fill="#228be6" fill-rule="evenodd"></path><path d="M-0.35 0.12 C-0.33 17.17, 1.03 83.2, 1.25 102.24 C1.47 121.28, 0.4 111.87, 0.95 114.36 C1.49 116.85, 0.53 115.92, 4.5 117.19 C8.47 118.46, 16.23 120.74, 24.77 121.96 C33.32 123.18, 45.55 124.71, 55.75 124.51 C65.94 124.3, 78.24 122.03, 85.94 120.75 C93.63 119.46, 98.79 118.07, 101.91 116.8 C105.02 115.53, 104.43 115.53, 104.63 113.14 C104.84 110.74, 103.12 119.89, 103.14 102.46 C103.16 85.03, 104.79 25.53, 104.73 8.58 C104.66 -8.37, 104.25 3.22, 102.75 0.75 C101.25 -1.72, 98.91 -4.61, 95.73 -6.25 C92.55 -7.88, 91.4 -8.25, 83.68 -9.05 C75.97 -9.85, 59.27 -11.03, 49.45 -11.05 C39.62 -11.07, 32.39 -10.34, 24.75 -9.18 C17.11 -8.03, 7.67 -5.82, 3.61 -4.1 C-0.46 -2.39, 0.89 0.59, 0.36 1.1 C-0.16 1.62, 0.45 -0.92, 0.47 -1.01 M1.66 -0.86 C1.51 15.83, 0.94 81.52, 0.78 100.44 C0.61 119.35, 0.08 109.74, 0.67 112.63 C1.25 115.52, 0.45 116.18, 4.29 117.76 C8.13 119.34, 14.88 121.09, 23.71 122.11 C32.55 123.13, 46.78 123.78, 57.29 123.86 C67.8 123.94, 79.48 123.8, 86.77 122.59 C94.06 121.37, 98.29 118.3, 101.06 116.56 C103.83 114.82, 103 114.63, 103.39 112.15 C103.78 109.67, 103.04 118.79, 103.39 101.69 C103.74 84.6, 105.27 26.39, 105.49 9.59 C105.71 -7.2, 106.36 3.17, 104.69 0.93 C103.03 -1.31, 99.01 -2.09, 95.49 -3.85 C91.97 -5.62, 91.28 -8.32, 83.57 -9.64 C75.87 -10.96, 58.88 -12.08, 49.25 -11.78 C39.63 -11.49, 33.09 -9.31, 25.81 -7.89 C18.53 -6.46, 9.98 -4.27, 5.57 -3.22 C1.15 -2.17, 0.34 -1.9, -0.7 -1.58 C-1.74 -1.26, -0.99 -1.4, -0.66 -1.29" stroke="#0a11d3" stroke-width="1" fill="none"></path></g></g><g stroke-linecap="round"><g transform="translate(79.87746210216682 98.94066998060782) rotate(0 51.60270603545939 6.074947862577517)"><path d="M0.12 0.91 C0.68 1.89, 0.75 4.42, 3.36 5.54 C5.96 6.66, 11.42 6.6, 15.76 7.61 C20.09 8.62, 22.88 10.99, 29.36 11.6 C35.83 12.22, 45.38 11.58, 54.6 11.3 C63.82 11.02, 77.11 11.05, 84.65 9.91 C92.19 8.77, 96.52 6.07, 99.83 4.47 C103.13 2.86, 103.61 1.29, 104.48 0.29 M-1.28 0.34 C-0.81 1.03, -0.09 2.55, 2.73 3.91 C5.54 5.26, 11.21 7.55, 15.6 8.47 C19.99 9.4, 22.25 8.9, 29.07 9.46 C35.9 10.01, 47.59 11.89, 56.54 11.83 C65.5 11.76, 75.56 10.48, 82.8 9.06 C90.04 7.64, 96.54 4.75, 100 3.3 C103.46 1.86, 102.92 0.89, 103.55 0.38" stroke="#0a11d3" stroke-width="1" fill="none"></path></g></g><g stroke-linecap="round"><g transform="translate(78.58571614553853 59.878967600922806) rotate(0 52.519187002135425 6.235067374166988)"><path d="M0.91 0.61 C1.58 1.55, 1.54 4.63, 3.68 5.77 C5.81 6.92, 9.15 6.71, 13.73 7.47 C18.31 8.24, 24.21 9.64, 31.14 10.36 C38.08 11.08, 46.48 12.08, 55.33 11.8 C64.18 11.51, 76.63 9.9, 84.26 8.65 C91.88 7.4, 97.6 5.71, 101.08 4.31 C104.55 2.9, 104.74 1.14, 105.11 0.23 M-0.08 -0.12 C0.55 0.51, 0.51 2.86, 3.22 4.26 C5.92 5.65, 11.4 7.1, 16.17 8.26 C20.93 9.42, 25.49 10.5, 31.8 11.22 C38.1 11.94, 45.59 12.65, 53.99 12.58 C62.39 12.51, 74.22 12.38, 82.2 10.79 C90.19 9.21, 98.18 4.81, 101.9 3.06 C105.62 1.31, 104.04 0.66, 104.52 0.29" stroke="#0a11d3" stroke-width="1" fill="none"></path></g></g><g stroke-linecap="round" transform="translate(77.26198640045669 12.353366900622689) rotate(0 51.759257389687974 10.46792040618223)"><path d="M60.16 -0.48 C69.96 -0.05, 82.31 2.29, 89.38 3.78 C96.45 5.26, 101.36 6.46, 102.59 8.43 C103.82 10.4, 101.64 13.69, 96.75 15.63 C91.87 17.56, 82.2 19.18, 73.3 20.02 C64.41 20.86, 53.18 20.91, 43.39 20.67 C33.6 20.43, 21.76 20.05, 14.56 18.57 C7.36 17.09, 1.72 13.9, 0.21 11.79 C-1.3 9.68, 0.64 7.84, 5.52 5.89 C10.4 3.94, 19.24 0.82, 29.5 0.07 C39.77 -0.68, 60.31 1.14, 67.11 1.39 C73.91 1.63, 70.81 1.46, 70.29 1.55 M37.15 -0.66 C46.3 -1.67, 60.81 -1.43, 70.14 -0.32 C79.48 0.78, 87.84 4.17, 93.18 5.95 C98.51 7.73, 102.2 8.66, 102.17 10.36 C102.14 12.06, 98.81 14.45, 93 16.15 C87.18 17.84, 76.9 20.1, 67.27 20.56 C57.63 21.01, 44.7 19.46, 35.18 18.86 C25.66 18.27, 16.09 18.37, 10.13 16.98 C4.17 15.6, -0.72 12.47, -0.58 10.55 C-0.43 8.63, 4.99 7.38, 10.99 5.46 C16.98 3.53, 30.87 -0.12, 35.39 -0.99 C39.92 -1.86, 37.82 -0.26, 38.12 0.25" stroke="none" stroke-width="0" fill="#fff"></path><path d="M76.45 0.81 C85.46 1.83, 93.93 4.68, 98.37 6.46 C102.81 8.23, 104.78 9.53, 103.08 11.48 C101.39 13.42, 95.4 16.45, 88.21 18.11 C81.02 19.78, 70.16 21.27, 59.94 21.46 C49.72 21.65, 35.87 20.29, 26.89 19.24 C17.92 18.19, 10.51 16.75, 6.07 15.15 C1.63 13.56, -1.2 11.82, 0.26 9.67 C1.72 7.52, 7.35 3.97, 14.84 2.27 C22.34 0.57, 33.48 -0.54, 45.21 -0.52 C56.94 -0.51, 77.17 1.48, 85.22 2.35 C93.27 3.22, 94.05 4.49, 93.5 4.7 M59.52 0.77 C69.01 0.68, 82.37 0.77, 89.74 2.07 C97.12 3.37, 102.6 6.21, 103.77 8.57 C104.95 10.93, 101.75 14.18, 96.78 16.24 C91.82 18.3, 83.07 20.4, 73.99 20.92 C64.9 21.44, 52.23 19.69, 42.27 19.36 C32.3 19.03, 20.93 20.35, 14.19 18.96 C7.45 17.56, 3.36 13.1, 1.82 10.99 C0.29 8.87, 0.51 7.86, 4.98 6.24 C9.45 4.63, 19.28 2.57, 28.64 1.31 C37.99 0.04, 55.97 -1.17, 61.09 -1.32 C66.22 -1.48, 59.53 -0.22, 59.38 0.4" stroke="#0a11d3" stroke-width="1" fill="none"></path></g><g stroke-linecap="round" transform="translate(161.71741443366392 41.37822665710627) rotate(0 7.585815325677487 8.232931816725085)"><path d="M10.85 -0.27 C12.02 0.22, 12.94 1.87, 13.52 3.62 C14.11 5.38, 14.48 8.47, 14.35 10.25 C14.22 12.03, 14.03 13.38, 12.75 14.31 C11.46 15.25, 8.3 16.02, 6.62 15.86 C4.94 15.7, 3.73 14.32, 2.66 13.36 C1.59 12.41, 0.45 11.71, 0.19 10.15 C-0.07 8.59, 0.09 5.67, 1.09 4 C2.09 2.33, 4.45 0.69, 6.18 0.12 C7.91 -0.45, 10.38 0.21, 11.49 0.58 C12.6 0.96, 13.06 1.99, 12.84 2.37 M9.97 1.68 C11.38 2.33, 12.76 4.19, 13.72 5.77 C14.69 7.36, 16.29 9.38, 15.75 11.19 C15.22 13.01, 12.2 15.96, 10.51 16.65 C8.83 17.34, 6.84 16.06, 5.66 15.36 C4.48 14.65, 4.43 13.57, 3.44 12.42 C2.45 11.28, 0.11 9.97, -0.3 8.5 C-0.71 7.04, -0.1 4.97, 0.96 3.64 C2.02 2.32, 4.61 0.85, 6.06 0.54 C7.5 0.23, 8.71 1.77, 9.63 1.77 C10.55 1.76, 11.34 0.44, 11.58 0.51" stroke="none" stroke-width="0" fill="#fff"></path><path d="M4.51 0.75 C6.16 0, 9.24 0.17, 10.72 0.76 C12.19 1.36, 12.6 2.73, 13.35 4.31 C14.11 5.89, 15.26 8.68, 15.23 10.24 C15.2 11.79, 14.51 12.49, 13.17 13.64 C11.83 14.8, 8.91 17.09, 7.19 17.17 C5.46 17.25, 3.85 15.49, 2.83 14.13 C1.82 12.77, 1.52 10.51, 1.09 9.02 C0.67 7.52, -0.66 6.8, 0.26 5.16 C1.18 3.52, 5.12 -0.05, 6.64 -0.82 C8.15 -1.6, 9.23 0.36, 9.36 0.51 M8.97 -1.22 C10.53 -1.27, 12.81 1.63, 13.65 3.24 C14.49 4.84, 14.08 6.88, 14.02 8.41 C13.96 9.94, 13.9 11.18, 13.28 12.41 C12.65 13.64, 11.6 15.33, 10.27 15.79 C8.94 16.25, 7.14 15.92, 5.3 15.17 C3.46 14.41, -0.13 12.59, -0.76 11.27 C-1.39 9.96, 0.99 9.11, 1.52 7.29 C2.05 5.46, 1.15 1.6, 2.41 0.31 C3.67 -0.97, 8.04 -0.46, 9.08 -0.42 C10.11 -0.39, 8.99 0.51, 8.61 0.52" stroke="#0a11d3" stroke-width="1" fill="none"></path></g><g stroke-linecap="round" transform="translate(161.71741443366392 77.52076637001807) rotate(0 7.585815325677487 8.232931816725085)"><path d="M10.24 0.17 C11.6 0.69, 13 2.64, 13.8 4.5 C14.6 6.35, 15.47 9.64, 15.03 11.32 C14.59 13, 12.67 13.7, 11.16 14.58 C9.64 15.46, 7.63 16.71, 5.94 16.59 C4.25 16.47, 1.87 15.24, 1.02 13.88 C0.17 12.52, 0.72 10.07, 0.85 8.43 C0.98 6.79, 0.98 5.43, 1.8 4.04 C2.61 2.65, 4.04 0.36, 5.74 0.09 C7.44 -0.17, 10.62 2.03, 11.98 2.47 C13.35 2.9, 13.75 2.49, 13.93 2.69 M6.13 -0.54 C7.54 -0.77, 9.79 0.96, 11.23 1.62 C12.68 2.28, 13.94 2.15, 14.81 3.42 C15.67 4.68, 17.04 7.08, 16.42 9.22 C15.8 11.37, 12.86 15.15, 11.09 16.3 C9.32 17.46, 7.27 16.6, 5.81 16.15 C4.35 15.7, 3.22 14.74, 2.34 13.59 C1.46 12.44, 0.63 11.16, 0.51 9.27 C0.38 7.37, 0.64 3.62, 1.6 2.22 C2.55 0.82, 5.67 1.11, 6.22 0.87 C6.76 0.64, 4.87 0.53, 4.86 0.79" stroke="none" stroke-width="0" fill="#fff"></path><path d="M4.7 1.35 C6.02 0.51, 8.39 -0.84, 9.96 -0.44 C11.54 -0.03, 13.18 2.08, 14.16 3.77 C15.13 5.46, 16.17 8.07, 15.81 9.71 C15.46 11.36, 13.2 12.52, 12.04 13.64 C10.88 14.77, 10.4 16.12, 8.83 16.49 C7.27 16.86, 4.22 17.02, 2.66 15.86 C1.1 14.71, -0.36 11.51, -0.52 9.53 C-0.68 7.56, 0.92 5.56, 1.71 4 C2.5 2.45, 3.54 0.78, 4.2 0.2 C4.87 -0.38, 5.61 0.31, 5.67 0.52 M7.64 0.74 C9.06 0.64, 12.74 0.64, 14.12 1.81 C15.5 2.99, 16.16 5.7, 15.93 7.79 C15.69 9.89, 13.98 12.78, 12.73 14.38 C11.49 15.98, 10.04 17.46, 8.47 17.38 C6.9 17.31, 4.71 14.8, 3.32 13.94 C1.93 13.09, 0.4 13.84, 0.15 12.27 C-0.11 10.69, 1.36 6.22, 1.78 4.48 C2.21 2.73, 1.59 2.48, 2.7 1.8 C3.81 1.11, 7.36 0.87, 8.44 0.38 C9.52 -0.12, 9.34 -1.3, 9.19 -1.2" stroke="#0a11d3" stroke-width="1" fill="none"></path></g><g stroke-linecap="round" transform="translate(161.71741443366392 116.80290475241424) rotate(0 7.585815325677487 8.232931816725085)"><path d="M4.97 -0.57 C6.28 -0.89, 8.6 0.23, 10.28 1.07 C11.96 1.9, 14.41 2.97, 15.07 4.44 C15.73 5.92, 14.75 8.31, 14.25 9.92 C13.74 11.54, 13.24 12.91, 12.02 14.13 C10.79 15.36, 8.57 17.27, 6.91 17.27 C5.24 17.27, 3.02 15.59, 2.02 14.14 C1.02 12.68, 1 10.43, 0.89 8.53 C0.78 6.63, 0.09 4.11, 1.37 2.73 C2.65 1.35, 7.22 0.42, 8.58 0.25 C9.94 0.08, 9.45 1.72, 9.54 1.72 M8.89 1 C10.75 1.34, 14.03 2.56, 14.88 4.17 C15.73 5.78, 14.5 9.15, 14 10.65 C13.5 12.16, 12.63 12.46, 11.88 13.2 C11.13 13.94, 11.01 14.85, 9.49 15.11 C7.96 15.38, 4.39 15.54, 2.74 14.78 C1.09 14.02, -0.13 12.22, -0.43 10.57 C-0.74 8.92, 0.3 6.39, 0.89 4.88 C1.47 3.36, 1.53 2.34, 3.1 1.48 C4.67 0.63, 9.15 -0.16, 10.3 -0.24 C11.45 -0.31, 9.92 1.01, 10.02 1.02" stroke="none" stroke-width="0" fill="#fff"></path><path d="M10.63 0.73 C12.07 1.18, 12.54 2.66, 13.31 4.23 C14.08 5.8, 15.25 8.58, 15.24 10.14 C15.23 11.7, 14.57 12.41, 13.24 13.58 C11.91 14.75, 9 17.07, 7.28 17.17 C5.55 17.27, 3.93 15.53, 2.9 14.19 C1.87 12.85, 1.56 10.61, 1.11 9.11 C0.66 7.62, -0.29 6.81, 0.22 5.24 C0.73 3.68, 2.54 0.52, 4.18 -0.26 C5.82 -1.03, 8.97 0.53, 10.05 0.59 C11.13 0.66, 10.62 -0.04, 10.65 0.14 M11.73 1.67 C12.86 2.7, 13.04 4.47, 13.48 5.87 C13.91 7.28, 14.53 8.6, 14.36 10.09 C14.2 11.57, 13.61 13.8, 12.48 14.77 C11.35 15.74, 9.59 16.14, 7.6 15.92 C5.61 15.7, 1.62 14.46, 0.55 13.46 C-0.51 12.45, 1.21 11.77, 1.23 9.87 C1.25 7.98, -0.25 3.79, 0.66 2.1 C1.57 0.4, 4.89 -0.14, 6.68 -0.28 C8.46 -0.42, 10.89 1.23, 11.37 1.26 C11.85 1.28, 9.66 -0.25, 9.57 -0.13" stroke="#0a11d3" stroke-width="1" fill="none"></path></g><g stroke-opacity="0.8" fill-opacity="0.8" transform="translate(68.84428879956988 155.38977548676291) rotate(0 60.00814049560452 8.983254565210245)"><text x="0" y="12.966509130420516" font-family="Virgil, Segoe UI Emoji" font-size="14.373207304336411px" fill="#000000" text-anchor="start" style="white-space: pre;" direction="ltr">Data Warehouse</text></g><g stroke-linecap="round"><g transform="translate(135.67314114344555 484.1112779913417) rotate(0 46.4084781526451 43.688648878384186)" fill-rule="evenodd"><path d="M0.14 0.93 L-0.18 83.96 L1.87 86.5 L5.45 90.83 L28.52 95.79 L46.52 98.94 L77.39 95.87 L92.29 87.01 L93.23 85.1 L93.7 2.73 L91.52 1.02 L79.32 -7.51 L68.79 -8.6 L45.49 -11.47 L18.88 -6.57 L0.87 -0.06" stroke="none" stroke-width="0" fill="#40c057" fill-rule="evenodd"></path><path d="M-0.56 0.22 C-0.59 12.79, 0.44 60.99, 0.88 75.57 C1.31 90.16, 0.15 84.64, 2.03 87.74 C3.92 90.85, 7.48 92.64, 12.19 94.19 C16.9 95.74, 24.51 96.22, 30.29 97.02 C36.06 97.82, 41.55 98.89, 46.83 98.98 C52.11 99.07, 57.14 98.22, 61.99 97.53 C66.84 96.84, 70.87 96.33, 75.93 94.84 C80.98 93.34, 89.47 91.81, 92.32 88.58 C95.17 85.35, 92.89 88.62, 93.01 75.48 C93.13 62.33, 93.16 22.51, 93.04 9.69 C92.91 -3.14, 94.24 1.21, 92.29 -1.47 C90.33 -4.16, 85.37 -5.06, 81.32 -6.41 C77.27 -7.75, 73.04 -9, 67.97 -9.54 C62.91 -10.08, 55.76 -9.69, 50.94 -9.67 C46.12 -9.65, 44.6 -9.65, 39.06 -9.43 C33.52 -9.22, 24.38 -9.74, 17.71 -8.36 C11.04 -6.97, 1.91 -2.57, -0.94 -1.12 M1.34 -0.72 C1.14 11.52, 0.36 59.05, 0.39 73.98 C0.41 88.92, -0.47 85.86, 1.48 88.9 C3.43 91.95, 7.49 90.83, 12.11 92.26 C16.72 93.69, 23.21 96.42, 29.18 97.46 C35.15 98.5, 42.4 98.65, 47.91 98.49 C53.42 98.34, 57.23 97.14, 62.24 96.51 C67.25 95.88, 73.15 96.17, 77.97 94.71 C82.79 93.25, 89.08 90.96, 91.16 87.76 C93.25 84.56, 90.12 88.39, 90.48 75.5 C90.84 62.62, 93.23 22.82, 93.33 10.42 C93.43 -1.97, 92.95 4.15, 91.07 1.16 C89.19 -1.83, 85.98 -5.64, 82.07 -7.49 C78.15 -9.35, 72.69 -9.55, 67.6 -9.97 C62.5 -10.4, 56.16 -9.79, 51.52 -10.05 C46.87 -10.31, 45.51 -11.93, 39.73 -11.55 C33.95 -11.18, 23.32 -9.52, 16.86 -7.81 C10.39 -6.11, 3.83 -2.77, 0.94 -1.34" stroke="#2b8a3e" stroke-width="1" fill="none"></path></g></g><g stroke-linecap="round" transform="translate(135.3304113760475 472.800646071742) rotate(0 46.460389539576596 12.63234198981877)"><path d="M53.07 0.79 C61.8 1.01, 71.99 1.9, 78.57 3.36 C85.14 4.82, 90.79 7.05, 92.53 9.54 C94.27 12.03, 93.09 15.79, 89.02 18.3 C84.94 20.81, 76.03 23.41, 68.1 24.6 C60.18 25.8, 50.22 25.94, 41.45 25.46 C32.69 24.98, 22.17 23.43, 15.51 21.72 C8.84 20.02, 3.46 17.64, 1.46 15.23 C-0.54 12.82, -0.4 9.39, 3.49 7.27 C7.38 5.15, 15.71 3.53, 24.82 2.5 C33.93 1.47, 51.89 1.33, 58.15 1.09 C64.41 0.84, 62.68 0.78, 62.38 1.03 M35.01 0.1 C43.77 -0.27, 57.78 0.26, 66.22 1.37 C74.65 2.49, 81.06 4.48, 85.62 6.78 C90.18 9.07, 94.43 12.63, 93.56 15.14 C92.68 17.66, 86.67 20.04, 80.38 21.84 C74.1 23.64, 64.6 25.35, 55.83 25.94 C47.06 26.54, 36.07 26.78, 27.74 25.41 C19.42 24.04, 10.64 19.98, 5.89 17.73 C1.13 15.49, -1.66 14.24, -0.81 11.95 C0.05 9.65, 4.78 6.02, 11 3.96 C17.23 1.89, 32.12 0.05, 36.56 -0.46 C41 -0.97, 37.51 0.67, 37.66 0.9" stroke="none" stroke-width="0" fill="#ffffff"></path><path d="M65 2.11 C73.18 2.97, 82.85 4.32, 87.37 6.45 C91.89 8.58, 93.3 12.35, 92.11 14.88 C90.92 17.41, 86.43 19.89, 80.24 21.64 C74.05 23.38, 63.67 24.78, 55 25.34 C46.33 25.91, 36.26 25.99, 28.21 25.04 C20.16 24.1, 11.38 22.03, 6.71 19.67 C2.05 17.31, -0.71 13.62, 0.23 10.87 C1.18 8.12, 6.11 5.02, 12.37 3.18 C18.63 1.35, 27.46 0.04, 37.8 -0.15 C48.14 -0.33, 67.26 1.26, 74.42 2.06 C81.59 2.86, 81.43 4.35, 80.79 4.66 M59.68 1.38 C68.24 2.18, 78.98 3.53, 84.64 5.38 C90.3 7.23, 93.96 10, 93.62 12.49 C93.28 14.98, 88.32 18.37, 82.61 20.3 C76.91 22.22, 67.89 23.46, 59.39 24.05 C50.89 24.63, 40.21 24.61, 31.62 23.81 C23.04 23.02, 13.01 21.12, 7.86 19.28 C2.72 17.45, 0.39 15.05, 0.77 12.81 C1.14 10.57, 4.92 7.83, 10.12 5.86 C15.33 3.9, 23.44 1.83, 31.99 1.01 C40.55 0.2, 56.45 1.04, 61.44 0.97 C66.43 0.9, 62.04 0.57, 61.91 0.59" stroke="#2b8a3e" stroke-width="1" fill="none"></path></g><g transform="translate(161.15998831557874 589.0041552715319) rotate(0 22.5 9)"><text x="22.5" y="13" font-family="Virgil, Segoe UI Emoji" font-size="14.040964132392128px" fill="#000000" text-anchor="middle" style="white-space: pre;" direction="ltr">NoSQL</text></g><g stroke-opacity="0.8" fill-opacity="0.8" stroke-linecap="round" transform="translate(301.61750489533 244.72866124567383) rotate(0 57.77451233609332 56.5228315907753)"><path d="M17.9 16.89 C17.9 16.89, 17.9 16.89, 17.9 16.89 M17.9 16.89 C17.9 16.89, 17.9 16.89, 17.9 16.89 M3.29 39.14 C11.52 31.59, 16.18 23.54, 28.59 11.24 M3.89 40.16 C9.22 33.92, 13.89 26.45, 29.07 8.7 M0.98 44.35 C10.97 33.22, 21.75 24.9, 41.81 3.69 M2.37 46.67 C15.8 30.11, 28.75 16.08, 40.25 4.08 M3.82 53.9 C9.3 45.29, 19.82 31.72, 44.19 3.82 M2.39 53.59 C16.77 37.24, 30.65 20.78, 44.77 5.26 M1.08 58.95 C16.05 41.56, 32.53 20.65, 49.4 5.19 M1.52 60.61 C11.88 46.83, 21.66 36.21, 48.96 4.5 M1.84 65.73 C17.98 49.27, 36.8 26.47, 56.77 5.78 M0.38 66.03 C12.29 52.46, 26.2 39.05, 55.49 3.69 M1.57 69.78 C22.35 52.9, 39.34 30.48, 59.75 3.58 M3.2 72.12 C20.75 51.2, 35.81 32.83, 61.83 4.9 M3.03 74.71 C25.65 49.98, 48.65 24.68, 69.35 3.2 M4.61 74.93 C18.7 58.19, 33.64 42.32, 69.53 2.09 M4.8 80.23 C29.78 52.99, 53.2 25.83, 72.29 1.04 M6.16 79.4 C24.78 55.71, 44.71 33.98, 72.38 3.37 M7.44 82.79 C27.92 58.87, 50.01 34.19, 77.45 2.59 M8.34 83.05 C21.36 65.95, 35.61 50.5, 76.77 3.32 M8.79 85.76 C29.73 66.68, 46.4 43.73, 81.46 4.34 M9.91 87.19 C25.51 68.45, 41.44 49.43, 81.2 6.01 M12.71 92.96 C35.64 65.81, 55.18 41.99, 85.32 6.93 M12.49 91.58 C39.41 58.09, 69.17 26.12, 84.9 7.16 M14.43 93.12 C31.24 74.74, 52.93 51.91, 87.15 8.23 M13.91 93.9 C36.14 68.82, 57.77 42.22, 88.43 8.32 M15.99 94.98 C44.28 65.85, 70.16 35.49, 90.87 9.03 M17.58 95.91 C44.86 63.79, 73.09 30.96, 92.39 11.61 M21.56 97.4 C41.32 74.48, 61.99 52.56, 93.59 11.08 M21.7 98.67 C50.18 64.5, 79.21 32.13, 94.67 12.82 M23.48 101.49 C51.47 66.21, 81.3 36, 97 16.3 M23.29 101.69 C43.92 78.06, 63.75 55.39, 97.79 15.67 M26.31 104.48 C52.53 75.12, 81.11 41.98, 99.34 20.07 M28.16 103.88 C43.37 84.25, 59.79 67.62, 100.88 20.23 M31.59 105.39 C46.6 86.66, 62.33 71.96, 102.85 22.44 M29.58 106.25 C54.54 76.47, 80.41 47.42, 102.97 23.06 M33.1 107.07 C54.49 84.23, 72.85 59.82, 107.11 24.42 M33.56 109.1 C59.98 79.61, 85.74 48.49, 106.33 24.72 M39.65 107.66 C64.8 78.1, 93.55 49.24, 109.78 29.69 M39.47 108.4 C52.86 91.74, 68.11 73.77, 107.14 28.42 M44.5 109.92 C61.02 86.96, 83.94 62.3, 109.96 30.66 M43.46 110.35 C57.59 92.11, 72.6 75.69, 110.72 33.21 M48.64 110.85 C68.35 90, 85.73 65.98, 112.85 34.14 M47.67 111.94 C64.81 91.59, 81.77 74.02, 112.25 36.66 M52.85 112.11 C71.02 87.91, 92.31 61.9, 112.55 40.68 M52.23 112.44 C67.25 91.95, 83.61 74.95, 113.41 41.32 M55.14 112.83 C76.49 90.48, 94.79 68.26, 114.7 47.45 M56.61 113.36 C77.8 88.49, 96.74 64.73, 114.98 46.65 M62.02 115.79 C78.46 96.33, 91.17 80.45, 113.83 53.13 M60.89 113.59 C81.06 88.91, 101.99 64.97, 114.18 52.92 M68.6 109.23 C82.45 97.6, 94.27 82.23, 116.83 56.54 M67.7 110.36 C87.25 89.85, 104.87 70.95, 115.96 56.96 M76.05 108.86 C88.27 96.06, 100.27 80.1, 116.27 61.49 M75.7 110.22 C90.45 91.29, 105.05 75.16, 116.39 62.05 M83.47 106.06 C90.64 94.57, 100.3 84.54, 114.48 70.7 M83.4 106.4 C92.8 95.75, 103.13 84.02, 112.6 70.91 M90.11 105.14 C93.84 102.15, 99.11 97.2, 109.46 80.85 M89.2 107.05 C96.24 96.37, 105.85 87.75, 108.66 81.79" stroke="#15aabf" stroke-width="0.5" fill="none"></path><path d="M40.72 2.89 C48.58 -0.36, 59.83 -0.68, 68.67 0.83 C77.52 2.34, 86.61 6.37, 93.79 11.94 C100.96 17.51, 108.24 25.99, 111.72 34.26 C115.21 42.52, 115.58 52.68, 114.72 61.52 C113.85 70.35, 111.19 79.99, 106.54 87.26 C101.88 94.54, 94.46 100.82, 86.79 105.16 C79.11 109.49, 69.44 112.8, 60.51 113.27 C51.58 113.75, 41.38 111.66, 33.23 108.03 C25.08 104.41, 17.13 98.5, 11.61 91.53 C6.09 84.56, 1.73 74.97, 0.1 66.21 C-1.53 57.44, -1.17 47.19, 1.85 38.91 C4.87 30.63, 11.22 22.89, 18.22 16.52 C25.22 10.15, 38.99 3.03, 43.85 0.69 C48.71 -1.66, 47.15 1.51, 47.36 2.44 M43.31 3.29 C51.59 0.28, 62.82 0.13, 71.65 1.99 C80.47 3.85, 89.44 9.13, 96.25 14.45 C103.05 19.76, 109.42 25.79, 112.49 33.86 C115.57 41.93, 115.55 53.88, 114.69 62.87 C113.82 71.87, 112.15 80.43, 107.3 87.83 C102.45 95.23, 93.38 103.18, 85.58 107.26 C77.78 111.35, 69.41 112.56, 60.49 112.33 C51.58 112.09, 40.42 109.44, 32.07 105.86 C23.71 102.28, 15.63 97.79, 10.37 90.86 C5.11 83.92, 1.76 73.21, 0.53 64.25 C-0.7 55.28, 0.19 45.23, 3.01 37.07 C5.84 28.9, 11.1 21.21, 17.5 15.25 C23.9 9.3, 37.37 3.2, 41.42 1.32 C45.47 -0.57, 41.41 2.85, 41.81 3.96" stroke="#000000" stroke-width="1" fill="none"></path></g><g stroke-opacity="0.8" fill-opacity="0.8" transform="translate(309.5911145684851 281.31746865356183) rotate(0 49.43637997356103 19.934024182887526)"><text x="49.43637997356103" y="27.868048365775024" font-family="Virgil, Segoe UI Emoji" font-size="31.894438692620017px" fill="#000000" text-anchor="middle" style="white-space: pre;" direction="ltr">Ansilo</text></g><g stroke-linecap="round"><g transform="translate(11.57354745272545 210.97556678506555) rotate(0 40.77603609233665 38.5316775783034)" fill-rule="evenodd"><path d="M0.35 1.94 L0.27 76.09 L2.44 75.87 L3.71 80.1 L25.98 84.49 L39.87 85.66 L68.61 82.69 L79.53 75.33 L81.47 75.13 L82.32 -0.75 L81.17 -1 L72.64 -3.58 L60.79 -9.72 L40.48 -10.83 L16.84 -6.81 L1.65 1.95" stroke="none" stroke-width="0" fill="#ced4da" fill-rule="evenodd"></path><path d="M-0.08 0.21 C0.07 11.02, 0.86 52.89, 1.04 65.74 C1.21 78.6, -0.84 74.6, 0.96 77.34 C2.75 80.07, 7.51 80.91, 11.79 82.13 C16.08 83.34, 21.6 83.86, 26.67 84.64 C31.74 85.42, 37.66 86.84, 42.22 86.78 C46.79 86.72, 49.68 85.05, 54.07 84.28 C58.45 83.51, 64.26 83.24, 68.51 82.16 C72.77 81.07, 77.4 80.39, 79.58 77.76 C81.76 75.13, 81.1 77.85, 81.57 66.37 C82.04 54.88, 82.3 19.99, 82.39 8.85 C82.47 -2.28, 84.2 1.8, 82.06 -0.43 C79.92 -2.65, 73.43 -3.26, 69.54 -4.5 C65.66 -5.75, 62.75 -7.28, 58.75 -7.9 C54.75 -8.51, 49.65 -7.91, 45.53 -8.21 C41.42 -8.51, 39.24 -9.72, 34.05 -9.72 C28.86 -9.72, 19.96 -9.65, 14.38 -8.19 C8.79 -6.72, 3.11 -2.26, 0.56 -0.91 M-1.57 -0.73 C-1.51 10.23, 0.38 54.13, 0.63 67.34 C0.88 80.56, -2.01 75.9, -0.06 78.57 C1.89 81.24, 8.04 82.35, 12.31 83.37 C16.57 84.39, 20.88 84.24, 25.53 84.68 C30.18 85.13, 35.44 85.82, 40.21 86.05 C44.97 86.28, 49.5 86.85, 54.1 86.06 C58.71 85.27, 63.35 82.87, 67.85 81.32 C72.36 79.77, 78.7 79.27, 81.14 76.77 C83.59 74.26, 82.21 77.47, 82.51 66.3 C82.81 55.14, 83.15 21, 82.94 9.79 C82.74 -1.41, 83.56 1.53, 81.26 -0.93 C78.96 -3.39, 73.08 -3.78, 69.16 -4.96 C65.24 -6.15, 62.16 -7.45, 57.76 -8.04 C53.37 -8.62, 46.65 -8.3, 42.78 -8.45 C38.92 -8.6, 38.97 -9.02, 34.59 -8.96 C30.21 -8.89, 22.34 -9.37, 16.5 -8.05 C10.66 -6.73, 2.18 -2.38, -0.43 -1.03" stroke="#495057" stroke-width="1" fill="none"></path></g></g><g stroke-linecap="round" transform="translate(11.271885915311827 201.02025231126788) rotate(0 40.89318720027933 11.118648183687071)"><path d="M34.41 -0.69 C42.38 -1.52, 53.8 -0.81, 61.44 0.53 C69.07 1.88, 77.11 4.83, 80.23 7.38 C83.36 9.94, 83.28 13.51, 80.19 15.86 C77.11 18.21, 69.48 20.61, 61.7 21.49 C53.91 22.38, 42.25 21.83, 33.47 21.17 C24.7 20.52, 14.62 19.17, 9.03 17.57 C3.44 15.97, -0.03 13.73, -0.04 11.58 C-0.05 9.43, 2.78 6.72, 8.98 4.69 C15.18 2.66, 31.87 0.13, 37.18 -0.62 C42.48 -1.36, 40.6 -0.18, 40.8 0.23 M60.43 -0.1 C68.29 0.47, 75.04 3.56, 78.33 6 C81.63 8.44, 82.94 12.31, 80.2 14.54 C77.46 16.77, 69.02 18.2, 61.89 19.4 C54.76 20.6, 46.06 21.91, 37.42 21.74 C28.78 21.57, 16.36 20.06, 10.06 18.39 C3.75 16.72, -0.17 13.96, -0.43 11.71 C-0.69 9.45, 3.1 6.68, 8.51 4.86 C13.92 3.05, 23.72 1.67, 32.03 0.81 C40.34 -0.04, 54.09 -0.51, 58.37 -0.27 C62.66 -0.03, 58.12 1.83, 57.75 2.26" stroke="none" stroke-width="0" fill="#ffffff"></path><path d="M43.35 0.24 C51.85 0.14, 62.81 0.75, 69.23 2.42 C75.64 4.08, 80.99 7.91, 81.84 10.23 C82.68 12.54, 79 14.51, 74.28 16.3 C69.57 18.09, 61.85 20, 53.53 20.95 C45.2 21.9, 32.46 22.67, 24.33 21.98 C16.21 21.29, 8.59 19.04, 4.77 16.81 C0.95 14.57, -0.66 11.02, 1.4 8.57 C3.47 6.13, 8.76 3.39, 17.17 2.14 C25.58 0.89, 44.54 1.11, 51.88 1.07 C59.21 1.03, 61.06 1.71, 61.18 1.88 M23.76 1.55 C31.25 0.47, 43.44 -1.29, 52.02 -0.65 C60.6 -0.01, 70.09 3.18, 75.24 5.4 C80.38 7.62, 83.92 10.24, 82.9 12.69 C81.87 15.13, 75.97 18.7, 69.07 20.07 C62.17 21.43, 50.34 20.89, 41.49 20.86 C32.64 20.83, 22.8 21.35, 15.95 19.89 C9.09 18.43, 2.32 14.32, 0.36 12.1 C-1.59 9.88, 0.12 8.57, 4.21 6.58 C8.3 4.6, 21.56 1.14, 24.9 0.2 C28.25 -0.73, 23.87 0.68, 24.26 0.99" stroke="#495057" stroke-width="1" fill="none"></path></g><g transform="translate(29.522063397119894 301.0996851831097) rotate(0 23.550261098758938 8.410807535271033)"><text x="23.55026109875894" y="11.821615070542101" font-family="Virgil, Segoe UI Emoji" font-size="12.923887879198785px" fill="#000000" text-anchor="middle" style="white-space: pre;" direction="ltr">RDBMS</text></g><g stroke-linecap="round"><g stroke-opacity="0.4" fill-opacity="0.4" transform="translate(202.44422767626855 451.5378714551483) rotate(0 50.50813063859516 -52.80160042077745)"><path d="M0.57 1.05 C8.13 -5.99, 29.06 -25.48, 45.71 -43.43 C62.36 -61.38, 91.09 -96.05, 100.45 -106.65" stroke="#495057" stroke-width="1.5" fill="none" stroke-dasharray="8 9"></path></g><g stroke-opacity="0.4" fill-opacity="0.4" transform="translate(202.44422767626855 451.5378714551483) rotate(0 50.50813063859516 -52.80160042077745)"><path d="M100.19 -104.71 L97.46 -93.31 L87.5 -102.09 L98.82 -105.19" stroke="none" stroke-width="0" fill="#495057" fill-rule="evenodd"></path><path d="M101.76 -106.4 C98.57 -103.09, 97.78 -96.58, 96.05 -92.67 M96.76 -91.52 C94.21 -94.03, 91.17 -97.9, 86.11 -101.09 M86.25 -101.72 C89.02 -100.73, 91.29 -101.9, 99.21 -106.04 M100.45 -106.65 C100.45 -106.65, 100.45 -106.65, 100.45 -106.65" stroke="#495057" stroke-width="1.5" fill="none"></path></g></g><g stroke-linecap="round"><g stroke-opacity="0.4" fill-opacity="0.4" transform="translate(104.61787581956418 249.009540593132) rotate(0 92.6886669089765 10.970635105312795)"><path d="M0.72 -0.04 C15.61 -0.09, 59.5 -2.96, 90.15 0.89 C120.81 4.74, 168.74 19.56, 184.66 23.05" stroke="#495057" stroke-width="1.5" fill="none" stroke-dasharray="8 9"></path></g><g stroke-opacity="0.4" fill-opacity="0.4" transform="translate(104.61787581956418 249.009540593132) rotate(0 92.6886669089765 10.970635105312795)"><path d="M184.33 23.12 L169.7 24.23 L173.97 13.42 L184.07 22.99" stroke="none" stroke-width="0" fill="#495057" fill-rule="evenodd"></path><path d="M184.61 24.08 C178.67 22.9, 174.09 25.18, 168.66 26.14 M168.78 26.58 C169.57 22.32, 172.64 19.44, 173.01 13.85 M171.61 12.21 C176.36 16.93, 180.08 18.49, 184.3 23.68 M184.66 23.05 C184.66 23.05, 184.66 23.05, 184.66 23.05" stroke="#495057" stroke-width="1.5" fill="none"></path></g></g><g stroke-linecap="round"><g stroke-opacity="0.4" fill-opacity="0.4" transform="translate(190.76182686741544 114.71392646841105) rotate(0 57.61566099049716 66.05557390922726)"><path d="M0.67 0.33 C10.68 8.97, 41.54 30.01, 60.52 51.92 C79.5 73.83, 105.48 118.24, 114.57 131.78" stroke="#495057" stroke-width="1.5" fill="none" stroke-dasharray="8 9"></path></g><g stroke-opacity="0.4" fill-opacity="0.4" transform="translate(190.76182686741544 114.71392646841105) rotate(0 57.61566099049716 66.05557390922726)"><path d="M115.85 130.04 L103.54 123.77 L114.55 117.89 L115.71 133.21" stroke="none" stroke-width="0" fill="#495057" fill-rule="evenodd"></path><path d="M114.98 132.93 C110.25 127.79, 104.92 125.64, 102.58 125.04 M101.26 122.61 C105.66 122.59, 107.59 118.2, 112.49 116.18 M112.52 116.49 C113.79 121.14, 115.29 127.25, 114.97 132.06 M114.57 131.78 C114.57 131.78, 114.57 131.78, 114.57 131.78" stroke="#495057" stroke-width="1.5" fill="none"></path></g></g><g stroke-linecap="round" transform="translate(32.40096820441221 366.7714729622613) rotate(0 24.625826883410554 37.368323909416574)"><path d="M-0.36 0.46 L49.02 -0.13 L48.73 74.11 L-1.27 75.37" stroke="none" stroke-width="0" fill="#fff"></path><path d="M0.91 0.93 C16.6 -1.88, 30.23 -0.71, 49.32 -0.61 M-0.04 0.42 C18.45 -0.08, 36.93 0.13, 49.11 -0.24 M48.81 -0.96 C49.88 21.72, 48.91 45.78, 49.25 73.44 M48.63 -0.29 C49.51 16.17, 48.77 34.18, 50.08 74.59 M50.77 76.37 C39.64 74.69, 29.67 75.65, 0.79 73.8 M48.69 74.6 C33.81 75.3, 19.79 74.08, 0.62 75.72 M-0.51 74.06 C2.05 50.51, -1.18 27.03, -1.16 0.06 M-0.92 74.49 C1.31 48.86, 0.53 22.3, -0.82 0.42" stroke="#000000" stroke-width="2" fill="none"></path></g><g stroke-linecap="round" transform="translate(27.141615865020754 361.87959477893116) rotate(0 24.625826883410554 37.368323909416574)"><path d="M0.46 -0.23 L49.12 -0.53 L48.62 73.47 L0.63 75.81" stroke="none" stroke-width="0" fill="#fff"></path><path d="M0.93 1.27 C8.14 -0.66, 19.18 -0.15, 48.65 1.53 M0.42 -0.11 C18.89 -0.16, 37.6 -0.13, 49.01 0.09 M48.3 -0.07 C48.44 28.36, 49.38 58.81, 47.95 73.18 M48.96 -0.05 C48.95 24.67, 50.35 51.73, 49.11 73.87 M50.88 75.64 C37.66 76.57, 27.27 75.9, -0.94 74.85 M49.12 74.34 C38.21 75.09, 25.62 75.07, 0.99 74.82 M-0.67 76.48 C-1.3 53.95, -1.75 35, 0.06 0.97 M-0.25 75.57 C0.56 57.2, 0.06 38.76, 0.42 -0.18" stroke="#000000" stroke-width="2" fill="none"></path></g><g stroke-linecap="round" transform="translate(20.594742964022885 356.12794372888084) rotate(0 24.736136412322367 37.368323909416574)"><path d="M-0.23 -0.13 L48.95 -0.63 L48.2 75.37 L1.08 74.07" stroke="none" stroke-width="0" fill="#fff"></path><path d="M1.27 -1.73 C15.89 -0.79, 32.71 -0.84, 51.01 1.52 M-0.11 0.38 C19.28 0.38, 38.78 -0.45, 49.57 0.93 M49.4 -1.41 C48.27 27.9, 49.31 55.45, 47.92 75.55 M49.42 -0.45 C48.22 24.89, 49.83 47.73, 48.61 74.04 M50.37 74.5 C34.21 75.87, 16.82 74.2, 0.11 73.36 M49.08 75.07 C32.96 73.79, 15.79 75.66, 0.08 74.32 M1.74 73.54 C-1.3 49.6, -0.97 27.8, 0.97 -1.3 M0.83 74.92 C0.73 55.78, -0.14 37.87, -0.18 0.23" stroke="#000000" stroke-width="2" fill="none"></path></g><g stroke-linecap="round"><g transform="translate(28.94736304193583 390.09696259803366) rotate(0 16.102427762354154 -0.6148594124425699)"><path d="M0.76 -1.04 C5.32 -1.17, 22.62 0.02, 27.91 -0.23 C33.2 -0.47, 31.59 -2.35, 32.5 -2.52 M-0.3 1.03 C4.03 1.03, 21.48 1.54, 26.83 1.13 C32.17 0.73, 30.55 -0.65, 31.76 -1.39" stroke="#000000" stroke-width="1" fill="none"></path></g></g><g stroke-linecap="round"><g transform="translate(30.240176790926853 368.1706955372092) rotate(0 15.175635657038725 -0.6150062161919436)"><path d="M-1.04 -0.26 C0.77 -0.7, 5.99 -2.07, 11.39 -1.91 C16.8 -1.75, 27.84 0.23, 31.39 0.69 M0.62 -1.44 C2.19 -1.75, 5.3 -0.4, 10.27 -0.35 C15.24 -0.3, 26.58 -1.05, 30.43 -1.17" stroke="#000000" stroke-width="1" fill="none"></path></g></g><g stroke-linecap="round"><g transform="translate(30.186799193045886 415.13378329212503) rotate(0 17.27210376827992 0.4844988754011865)"><path d="M-0.26 -0.34 C2.69 -0.25, 13.88 -1.02, 18.45 -0.54 C23.01 -0.06, 24.41 2.67, 27.14 2.52 C29.86 2.38, 33.63 -0.75, 34.8 -1.42 M1.8 -1.56 C4.53 -1.21, 13.35 0.44, 17.52 0.81 C21.7 1.17, 24.44 0.85, 26.85 0.66 C29.26 0.47, 30.96 -0.03, 31.98 -0.34" stroke="#000000" stroke-width="1" fill="none"></path></g></g><g stroke-linecap="round"><g transform="translate(27.9680281335784 422.96845749239844) rotate(0 18.723163638251577 -0.26191365764520924)"><path d="M-0.34 0.04 C0.96 0.1, 4.64 0.03, 6.72 0.11 C8.8 0.19, 7.9 0.4, 12.15 0.53 C16.39 0.67, 27.92 1.21, 32.19 0.93 C36.46 0.65, 36.87 -0.84, 37.78 -1.14 M1.69 -0.98 C2.88 -1.22, 3.89 -1.49, 5.58 -1.53 C7.28 -1.57, 7.39 -1.25, 11.86 -1.22 C16.33 -1.19, 28.35 -1.48, 32.41 -1.36 C36.47 -1.24, 35.15 -0.48, 36.24 -0.51" stroke="#000000" stroke-width="1" fill="none"></path></g></g><g stroke-linecap="round"><g transform="translate(28.166518023063247 378.665523333225) rotate(0 16.21503635949827 0.42469323378571744)"><path d="M0.04 -0.36 C2.35 -0.22, 7.97 0.23, 13.6 0.5 C19.23 0.77, 30.55 1.15, 33.82 1.27 M-1.39 -1.6 C0.86 -1.76, 7.29 -1.84, 13.13 -1.15 C18.97 -0.46, 30.21 2, 33.65 2.56" stroke="#000000" stroke-width="1" fill="none"></path></g></g><g stroke-linecap="round"><g transform="translate(28.241420084890876 402.69488223928533) rotate(0 16.193635213118057 0.5423362231474016)"><path d="M-0.36 0.92 C0.78 1.27, 4.38 2.25, 6.55 2.12 C8.72 1.98, 8.29 0.15, 12.63 0.09 C16.97 0.04, 29.26 1.45, 32.57 1.77 M1.65 0.36 C2.75 0.39, 4.38 0.97, 6.08 0.58 C7.78 0.19, 7.39 -2.41, 11.84 -1.98 C16.29 -1.56, 29.57 2.32, 32.75 3.12" stroke="#000000" stroke-width="1" fill="none"></path></g></g><g transform="translate(27.529526259642864 450.1775671845776) rotate(0 23.978907746639038 6.310238880694499)"><text x="0" y="8.620477761388962" font-family="Virgil, Segoe UI Emoji" font-size="10.09638220911117px" fill="#000000" text-anchor="start" style="white-space: pre;" direction="ltr">Flat Files</text></g><g stroke-linecap="round"><g stroke-opacity="0.4" fill-opacity="0.4" transform="translate(104.8711854564761 394.51879257416897) rotate(0 91.11065969026464 -46.4217116743427)"><path d="M-0.11 0.47 C14.68 -6.42, 58.31 -25.21, 88.72 -40.84 C119.13 -56.47, 166.85 -84.34, 182.33 -93.31" stroke="#495057" stroke-width="1.5" fill="none" stroke-dasharray="8 9"></path></g><g stroke-opacity="0.4" fill-opacity="0.4" transform="translate(104.8711854564761 394.51879257416897) rotate(0 91.11065969026464 -46.4217116743427)"><path d="M181.74 -94.93 L175.26 -79.5 L166.85 -90.18 L182.02 -92.53" stroke="none" stroke-width="0" fill="#495057" fill-rule="evenodd"></path><path d="M182.92 -91.92 C179.44 -88.97, 178.1 -86.21, 172.89 -79.88 M173.65 -81.21 C171.23 -86.07, 169.57 -90.29, 168.22 -91.39 M168.23 -92.13 C169.02 -93.78, 173.67 -93.48, 183.04 -92.81 M182.33 -93.31 C182.33 -93.31, 182.33 -93.31, 182.33 -93.31" stroke="#495057" stroke-width="1.5" fill="none"></path></g></g><g transform="translate(641.598781183397 560.1802218664227) rotate(0 48.5 10.5)"><text x="0" y="15" font-family="Virgil, Segoe UI Emoji" font-size="16.552823156378228px" fill="#000000" text-anchor="start" style="white-space: pre;" direction="ltr">Data Team</text></g><g stroke-linecap="round" transform="translate(709.0991006757313 460.68452577671974) rotate(0 14.609313834689885 12.783149605353685)"><path d="M3.55 4.41 C3.55 4.41, 3.55 4.41, 3.55 4.41 M3.55 4.41 C3.55 4.41, 3.55 4.41, 3.55 4.41 M2.37 17.96 C8.4 11.02, 14.44 4.08, 17.46 0.6 M2.37 17.96 C5.96 13.83, 9.55 9.7, 17.46 0.6 M7.75 23.97 C12.4 18.62, 17.05 13.28, 24.81 4.34 M7.75 23.97 C13.53 17.32, 19.31 10.68, 24.81 4.34 M15.76 26.95 C19.05 23.16, 22.35 19.38, 29.54 11.1 M15.76 26.95 C21.11 20.8, 26.45 14.65, 29.54 11.1 M5.41 22.74 C5.41 22.74, 5.41 22.74, 5.41 22.74 M5.41 22.74 C5.41 22.74, 5.41 22.74, 5.41 22.74 M19.71 24.57 C12.53 18.33, 5.35 12.09, 0.84 8.17 M19.71 24.57 C14.59 20.12, 9.47 15.67, 0.84 8.17 M26.47 19.85 C20.61 14.75, 14.75 9.66, 6.09 2.14 M26.47 19.85 C21.05 15.14, 15.63 10.42, 6.09 2.14 M29.45 11.84 C24.49 7.53, 19.52 3.21, 15.12 -0.62 M29.45 11.84 C26.06 8.89, 22.66 5.93, 15.12 -0.62" stroke="#ced4da" stroke-width="1" fill="none"></path><path d="M29.22 12.78 C29.22 13.52, 29.14 14.27, 29 15 C28.85 15.73, 28.63 16.46, 28.34 17.16 C28.05 17.85, 27.68 18.53, 27.26 19.17 C26.84 19.82, 26.34 20.43, 25.8 21 C25.26 21.57, 24.65 22.1, 24 22.58 C23.35 23.05, 22.65 23.48, 21.91 23.85 C21.18 24.22, 20.4 24.54, 19.61 24.8 C18.81 25.05, 17.98 25.24, 17.15 25.37 C16.31 25.5, 15.45 25.57, 14.61 25.57 C13.76 25.57, 12.91 25.5, 12.07 25.37 C11.24 25.24, 10.41 25.05, 9.61 24.8 C8.82 24.54, 8.04 24.22, 7.3 23.85 C6.57 23.48, 5.87 23.05, 5.22 22.58 C4.57 22.1, 3.96 21.57, 3.42 21 C2.87 20.43, 2.38 19.82, 1.96 19.17 C1.53 18.53, 1.17 17.85, 0.88 17.16 C0.59 16.46, 0.37 15.73, 0.22 15 C0.08 14.27, 0 13.52, 0 12.78 C0 12.04, 0.08 11.29, 0.22 10.56 C0.37 9.83, 0.59 9.11, 0.88 8.41 C1.17 7.72, 1.53 7.03, 1.96 6.39 C2.38 5.75, 2.87 5.13, 3.42 4.57 C3.96 4, 4.57 3.47, 5.22 2.99 C5.87 2.52, 6.57 2.08, 7.3 1.71 C8.04 1.34, 8.82 1.02, 9.61 0.77 C10.41 0.52, 11.24 0.32, 12.07 0.19 C12.91 0.07, 13.76 0, 14.61 0 C15.45 0, 16.31 0.07, 17.15 0.19 C17.98 0.32, 18.81 0.52, 19.61 0.77 C20.4 1.02, 21.18 1.34, 21.91 1.71 C22.65 2.08, 23.35 2.52, 24 2.99 C24.65 3.47, 25.26 4, 25.8 4.57 C26.34 5.13, 26.84 5.75, 27.26 6.39 C27.68 7.03, 28.05 7.72, 28.34 8.41 C28.63 9.11, 28.85 9.83, 29 10.56 C29.14 11.29, 29.18 12.41, 29.22 12.78 C29.26 13.15, 29.26 12.41, 29.22 12.78" stroke="#000000" stroke-width="2" fill="none"></path></g><g stroke-linecap="round" transform="translate(645.2132403031105 461.54711534947796) rotate(0 14.609313834689885 12.783149605353685)"><path d="M3.55 4.41 C3.55 4.41, 3.55 4.41, 3.55 4.41 M3.55 4.41 C3.55 4.41, 3.55 4.41, 3.55 4.41 M2.37 17.96 C8.4 11.02, 14.44 4.08, 17.46 0.6 M2.37 17.96 C7.2 12.41, 12.02 6.87, 17.46 0.6 M7.75 23.97 C14.17 16.58, 20.59 9.2, 24.81 4.34 M7.75 23.97 C11.29 19.89, 14.83 15.82, 24.81 4.34 M15.76 26.95 C18.73 23.53, 21.71 20.11, 29.54 11.1 M15.76 26.95 C20.3 21.72, 24.85 16.49, 29.54 11.1 M5.41 22.74 C5.41 22.74, 5.41 22.74, 5.41 22.74 M5.41 22.74 C5.41 22.74, 5.41 22.74, 5.41 22.74 M19.71 24.57 C12.27 18.1, 4.83 11.63, 0.84 8.17 M19.71 24.57 C14.63 20.16, 9.55 15.74, 0.84 8.17 M26.47 19.85 C19.09 13.43, 11.71 7.02, 6.09 2.14 M26.47 19.85 C22.18 16.12, 17.89 12.39, 6.09 2.14 M29.45 11.84 C24.33 7.39, 19.21 2.94, 15.12 -0.62 M29.45 11.84 C26.2 9.01, 22.94 6.18, 15.12 -0.62" stroke="#ced4da" stroke-width="1" fill="none"></path><path d="M29.22 12.78 C29.22 13.52, 29.14 14.27, 29 15 C28.85 15.73, 28.63 16.46, 28.34 17.16 C28.05 17.85, 27.68 18.53, 27.26 19.17 C26.84 19.82, 26.34 20.43, 25.8 21 C25.26 21.57, 24.65 22.1, 24 22.58 C23.35 23.05, 22.65 23.48, 21.91 23.85 C21.18 24.22, 20.4 24.54, 19.61 24.8 C18.81 25.05, 17.98 25.24, 17.15 25.37 C16.31 25.5, 15.45 25.57, 14.61 25.57 C13.76 25.57, 12.91 25.5, 12.07 25.37 C11.24 25.24, 10.41 25.05, 9.61 24.8 C8.82 24.54, 8.04 24.22, 7.3 23.85 C6.57 23.48, 5.87 23.05, 5.22 22.58 C4.57 22.1, 3.96 21.57, 3.42 21 C2.87 20.43, 2.38 19.82, 1.96 19.17 C1.53 18.53, 1.17 17.85, 0.88 17.16 C0.59 16.46, 0.37 15.73, 0.22 15 C0.08 14.27, 0 13.52, 0 12.78 C0 12.04, 0.08 11.29, 0.22 10.56 C0.37 9.83, 0.59 9.11, 0.88 8.41 C1.17 7.72, 1.53 7.03, 1.96 6.39 C2.38 5.75, 2.87 5.13, 3.42 4.57 C3.96 4, 4.57 3.47, 5.22 2.99 C5.87 2.52, 6.57 2.08, 7.3 1.71 C8.04 1.34, 8.82 1.02, 9.61 0.77 C10.41 0.52, 11.24 0.32, 12.07 0.19 C12.91 0.07, 13.76 0, 14.61 0 C15.45 0, 16.31 0.07, 17.15 0.19 C17.98 0.32, 18.81 0.52, 19.61 0.77 C20.4 1.02, 21.18 1.34, 21.91 1.71 C22.65 2.08, 23.35 2.52, 24 2.99 C24.65 3.47, 25.26 4, 25.8 4.57 C26.34 5.13, 26.84 5.75, 27.26 6.39 C27.68 7.03, 28.05 7.72, 28.34 8.41 C28.63 9.11, 28.85 9.83, 29 10.56 C29.14 11.29, 29.18 12.41, 29.22 12.78 C29.26 13.15, 29.26 12.41, 29.22 12.78" stroke="#000000" stroke-width="2" fill="none"></path></g><g stroke-linecap="round"><g transform="translate(660.6756465750163 548.7295980143547) rotate(0 32.411311923195456 -27.36006649213749)" fill-rule="evenodd"><path d="M11.42 -43.08 C11.42 -43.08, 11.42 -43.08, 11.42 -43.08 M11.42 -43.08 C11.42 -43.08, 11.42 -43.08, 11.42 -43.08 M6.96 -25.75 C12.85 -32.53, 18.74 -39.31, 31.23 -53.68 M6.96 -25.75 C16.29 -36.48, 25.62 -47.22, 31.23 -53.68 M4.47 -10.69 C14.79 -22.57, 25.12 -34.46, 39.24 -50.69 M4.47 -10.69 C15.26 -23.11, 26.05 -35.52, 39.24 -50.69 M3.29 2.86 C14.36 -9.88, 25.43 -22.61, 46.59 -46.95 M3.29 2.86 C14.93 -10.53, 26.57 -23.92, 46.59 -46.95 M13.92 2.82 C25.85 -10.91, 37.79 -24.63, 52.62 -41.7 M13.92 2.82 C23.23 -7.89, 32.55 -18.61, 52.62 -41.7 M24.55 2.79 C33.84 -7.9, 43.14 -18.6, 58.01 -35.7 M24.55 2.79 C37.52 -12.13, 50.49 -27.06, 58.01 -35.7 M34.52 3.51 C41.88 -4.95, 49.23 -13.41, 62.08 -28.19 M34.52 3.51 C41.57 -4.6, 48.62 -12.71, 62.08 -28.19 M45.81 2.72 C49.71 -1.77, 53.61 -6.26, 64.83 -19.17 M45.81 2.72 C51.1 -3.37, 56.4 -9.46, 64.83 -19.17 M0 0 C0 0, 0 0, 0 0 M0 0 C0 0, 0 0, 0 0 M12.04 -0.13 C8.2 -3.47, 4.37 -6.81, 1.47 -9.32 M12.04 -0.13 C9.15 -2.64, 6.27 -5.15, 1.47 -9.32 M24.84 0.39 C18.3 -5.29, 11.77 -10.97, 2.95 -18.64 M24.84 0.39 C18.8 -4.86, 12.75 -10.11, 2.95 -18.64 M33.86 -2.37 C27.76 -7.67, 21.65 -12.98, 4.42 -27.95 M33.86 -2.37 C27.96 -7.49, 22.07 -12.62, 4.42 -27.95 M45.14 -3.16 C35.45 -11.58, 25.76 -20.01, 7.41 -35.96 M45.14 -3.16 C31.49 -15.03, 17.83 -26.9, 7.41 -35.96 M57.94 -2.63 C47.71 -11.53, 37.47 -20.43, 11.9 -42.65 M57.94 -2.63 C44.91 -13.96, 31.89 -25.28, 11.9 -42.65 M64.7 -7.36 C48.58 -21.37, 32.47 -35.38, 16.4 -49.35 M64.7 -7.36 C50.47 -19.72, 36.25 -32.09, 16.4 -49.35 M68.44 -14.71 C58.51 -23.34, 48.59 -31.96, 23.91 -53.42 M68.44 -14.71 C57.76 -23.99, 47.08 -33.27, 23.91 -53.42 M58.59 -33.87 C48.52 -42.62, 38.45 -51.38, 31.42 -57.49 M58.59 -33.87 C51.05 -40.42, 43.51 -46.98, 31.42 -57.49" stroke="#ced4da" stroke-width="1" fill="none"></path><path d="M0 0 C1.15 -6.08, 1.98 -27.32, 6.93 -36.49 C11.87 -45.67, 22.1 -54.41, 29.69 -55.07 C37.27 -55.74, 47.09 -49.02, 52.45 -40.48 C57.81 -31.93, 70.59 -10.54, 61.85 -3.79 C53.11 2.96, 10.31 -0.63, 0 0 M0 0 C1.15 -6.08, 1.98 -27.32, 6.93 -36.49 C11.87 -45.67, 22.1 -54.41, 29.69 -55.07 C37.27 -55.74, 47.09 -49.02, 52.45 -40.48 C57.81 -31.93, 70.59 -10.54, 61.85 -3.79 C53.11 2.96, 10.31 -0.63, 0 0" stroke="#000000" stroke-width="2" fill="none"></path></g></g><g stroke-linecap="round" transform="translate(676.1887993847627 465.0333539100882) rotate(0 15.833020049790434 13.853892543566701)"><path d="M3.9 4.72 C3.9 4.72, 3.9 4.72, 3.9 4.72 M3.9 4.72 C3.9 4.72, 3.9 4.72, 3.9 4.72 M2.07 19.02 C7.92 12.29, 13.77 5.56, 17.16 1.67 M2.07 19.02 C5.73 14.81, 9.4 10.59, 17.16 1.67 M6.79 25.78 C14.36 17.08, 21.92 8.38, 26.48 3.14 M6.79 25.78 C12.64 19.06, 18.49 12.33, 26.48 3.14 M14.8 28.77 C19.89 22.91, 24.98 17.05, 31.2 9.9 M14.8 28.77 C18.99 23.94, 23.19 19.12, 31.2 9.9 M5.41 24.26 C5.41 24.26, 5.41 24.26, 5.41 24.26 M5.41 24.26 C5.41 24.26, 5.41 24.26, 5.41 24.26 M19.72 26.09 C15.36 22.3, 11 18.51, 1.61 10.35 M19.72 26.09 C14.69 21.72, 9.66 17.34, 1.61 10.35 M27.99 22.68 C19.21 15.05, 10.43 7.42, 5.35 3 M27.99 22.68 C21.94 17.43, 15.9 12.17, 5.35 3 M31.73 15.33 C27.09 11.3, 22.46 7.27, 13.61 -0.42 M31.73 15.33 C28.01 12.1, 24.29 8.87, 13.61 -0.42" stroke="#ced4da" stroke-width="1" fill="none"></path><path d="M31.67 13.85 C31.67 14.66, 31.58 15.47, 31.43 16.26 C31.27 17.05, 31.02 17.84, 30.71 18.59 C30.4 19.35, 30 20.09, 29.54 20.78 C29.09 21.48, 28.55 22.14, 27.96 22.76 C27.37 23.37, 26.71 23.95, 26.01 24.47 C25.31 24.98, 24.54 25.45, 23.75 25.85 C22.96 26.25, 22.11 26.6, 21.25 26.87 C20.39 27.15, 19.48 27.36, 18.58 27.5 C17.68 27.64, 16.75 27.71, 15.83 27.71 C14.92 27.71, 13.99 27.64, 13.08 27.5 C12.18 27.36, 11.28 27.15, 10.42 26.87 C9.56 26.6, 8.71 26.25, 7.92 25.85 C7.12 25.45, 6.36 24.98, 5.66 24.47 C4.95 23.95, 4.29 23.37, 3.7 22.76 C3.12 22.14, 2.58 21.48, 2.12 20.78 C1.66 20.09, 1.27 19.35, 0.95 18.59 C0.64 17.84, 0.4 17.05, 0.24 16.26 C0.08 15.47, 0 14.66, 0 13.85 C0 13.05, 0.08 12.24, 0.24 11.45 C0.4 10.66, 0.64 9.87, 0.95 9.12 C1.27 8.36, 1.66 7.62, 2.12 6.93 C2.58 6.23, 3.12 5.56, 3.7 4.95 C4.29 4.33, 4.95 3.76, 5.66 3.24 C6.36 2.73, 7.12 2.26, 7.92 1.86 C8.71 1.46, 9.56 1.11, 10.42 0.84 C11.28 0.56, 12.18 0.35, 13.08 0.21 C13.99 0.07, 14.92 0, 15.83 0 C16.75 0, 17.68 0.07, 18.58 0.21 C19.48 0.35, 20.39 0.56, 21.25 0.84 C22.11 1.11, 22.96 1.46, 23.75 1.86 C24.54 2.26, 25.31 2.73, 26.01 3.24 C26.71 3.76, 27.37 4.33, 27.96 4.95 C28.55 5.56, 29.09 6.23, 29.54 6.93 C30 7.62, 30.4 8.36, 30.71 9.12 C31.02 9.87, 31.27 10.66, 31.43 11.45 C31.58 12.24, 31.63 13.45, 31.67 13.85 C31.71 14.25, 31.71 13.45, 31.67 13.85" stroke="#000000" stroke-width="2" fill="none"></path></g><g stroke-linecap="round"><g transform="translate(703.8020869320112 498.9196360561955) rotate(0 24.73355754675788 14.67733980719197)" fill-rule="evenodd"><path d="M0 0 C0 0, 0 0, 0 0 M0 0 C0 0, 0 0, 0 0 M6.04 5.25 C9.02 1.82, 12 -1.61, 18.5 -9.09 M6.04 5.25 C10.87 -0.32, 15.71 -5.88, 18.5 -9.09 M12.08 10.5 C15.81 6.2, 19.55 1.9, 29.13 -9.13 M12.08 10.5 C17.91 3.79, 23.74 -2.92, 29.13 -9.13 M15.49 18.76 C23.98 9, 32.47 -0.77, 37.79 -6.9 M15.49 18.76 C21.54 11.8, 27.6 4.83, 37.79 -6.9 M19.56 26.28 C26.35 18.46, 33.15 10.65, 43.18 -0.89 M19.56 26.28 C25.84 19.05, 32.13 11.82, 43.18 -0.89 M22.97 34.54 C31.15 25.13, 39.33 15.72, 46.59 7.37 M22.97 34.54 C28.57 28.1, 34.17 21.66, 46.59 7.37 M25.73 43.57 C34.28 33.73, 42.84 23.89, 50 15.64 M25.73 43.57 C31.08 37.41, 36.42 31.26, 50 15.64 M37.67 42.02 C42.76 36.16, 47.86 30.3, 52.76 24.66 M37.67 42.02 C43.4 35.44, 49.12 28.85, 52.76 24.66 M21.42 40.9 C21.42 40.9, 21.42 40.9, 21.42 40.9 M21.42 40.9 C21.42 40.9, 21.42 40.9, 21.42 40.9 M28.93 36.83 C26.91 35.07, 24.89 33.31, 22.9 31.58 M28.93 36.83 C27.5 35.58, 26.06 34.33, 22.9 31.58 M43.99 39.32 C37.36 33.56, 30.72 27.79, 13.05 12.43 M43.99 39.32 C33.72 30.39, 23.44 21.46, 13.05 12.43 M50 33.94 C40.94 26.07, 31.88 18.19, 4.71 -5.42 M50 33.94 C36.51 22.22, 23.02 10.5, 4.71 -5.42 M52.23 25.28 C39.2 13.96, 26.18 2.64, 9.96 -11.46 M52.23 25.28 C40.19 14.82, 28.16 4.36, 9.96 -11.46 M46.91 10.06 C35.95 0.53, 24.98 -9, 17.47 -15.53 M46.91 10.06 C38.39 2.66, 29.88 -4.75, 17.47 -15.53" stroke="#ced4da" stroke-width="1" fill="none"></path><path d="M0 0 C1.28 -1.37, 5.3 -6.18, 7.66 -8.24 C10.01 -10.31, 11.19 -11.58, 14.13 -12.37 C17.08 -13.15, 22.18 -13.15, 25.32 -12.96 C28.46 -12.76, 30.82 -12.46, 32.98 -11.19 C35.14 -9.91, 36.81 -7.56, 38.28 -5.3 C39.75 -3.04, 40.63 -0.49, 41.81 2.36 C42.99 5.2, 44.27 8.64, 45.34 11.78 C46.42 14.92, 47.6 18.35, 48.29 21.2 C48.98 24.05, 49.47 26.3, 49.47 28.86 C49.47 31.41, 49.27 34.65, 48.29 36.51 C47.31 38.38, 45.44 39.16, 43.58 40.04 C41.71 40.93, 39.75 41.42, 37.1 41.81 C34.45 42.2, 30.23 42.5, 27.68 42.4 C25.13 42.3, 22.87 42.79, 21.79 41.22 C20.71 39.65, 21.69 35.24, 21.2 32.98 C20.71 30.72, 19.92 29.94, 18.84 27.68 C17.76 25.42, 16.39 22.67, 14.72 19.43 C13.05 16.19, 11.29 11.48, 8.83 8.24 C6.38 5.01, 1.47 1.37, 0 0 M0 0 C1.28 -1.37, 5.3 -6.18, 7.66 -8.24 C10.01 -10.31, 11.19 -11.58, 14.13 -12.37 C17.08 -13.15, 22.18 -13.15, 25.32 -12.96 C28.46 -12.76, 30.82 -12.46, 32.98 -11.19 C35.14 -9.91, 36.81 -7.56, 38.28 -5.3 C39.75 -3.04, 40.63 -0.49, 41.81 2.36 C42.99 5.2, 44.27 8.64, 45.34 11.78 C46.42 14.92, 47.6 18.35, 48.29 21.2 C48.98 24.05, 49.47 26.3, 49.47 28.86 C49.47 31.41, 49.27 34.65, 48.29 36.51 C47.31 38.38, 45.44 39.16, 43.58 40.04 C41.71 40.93, 39.75 41.42, 37.1 41.81 C34.45 42.2, 30.23 42.5, 27.68 42.4 C25.13 42.3, 22.87 42.79, 21.79 41.22 C20.71 39.65, 21.69 35.24, 21.2 32.98 C20.71 30.72, 19.92 29.94, 18.84 27.68 C17.76 25.42, 16.39 22.67, 14.72 19.43 C13.05 16.19, 11.29 11.48, 8.83 8.24 C6.38 5.01, 1.47 1.37, 0 0" stroke="#000000" stroke-width="2" fill="none"></path></g></g><g stroke-linecap="round"><g transform="translate(677.2930621068231 498.90206686315946) rotate(0 -23.85021620580227 18.039706829321233)" fill-rule="evenodd"><path d="M-36.32 -3.75 C-36.32 -3.75, -36.32 -3.75, -36.32 -3.75 M-36.32 -3.75 C-36.32 -3.75, -36.32 -3.75, -36.32 -3.75 M-42.09 15.08 C-37.56 9.87, -33.03 4.65, -21.1 -9.07 M-42.09 15.08 C-35.17 7.12, -28.24 -0.85, -21.1 -9.07 M-45.9 31.65 C-34.24 18.24, -22.58 4.82, -10.47 -9.1 M-45.9 31.65 C-32.21 15.9, -18.52 0.15, -10.47 -9.1 M-43.14 40.67 C-27.61 22.81, -12.08 4.94, -3.78 -4.61 M-43.14 40.67 C-32.53 28.47, -21.93 16.27, -3.78 -4.61 M-37.1 45.92 C-25.93 33.07, -14.76 20.22, -6.27 10.45 M-37.1 45.92 C-30.61 38.46, -24.13 30.99, -6.27 10.45 M-29.75 49.66 C-22.25 41.03, -14.75 32.41, -8.76 25.51 M-29.75 49.66 C-24.98 44.17, -20.21 38.69, -8.76 25.51 M-46.52 38.28 C-46.52 38.28, -46.52 38.28, -46.52 38.28 M-46.52 38.28 C-46.52 38.28, -46.52 38.28, -46.52 38.28 M-32.22 40.11 C-36.58 36.32, -40.94 32.53, -45.8 28.3 M-32.22 40.11 C-35.91 36.9, -39.6 33.69, -45.8 28.3 M-14.9 44.57 C-24.69 36.06, -34.48 27.54, -43.57 19.64 M-14.9 44.57 C-23.16 37.39, -31.42 30.21, -43.57 19.64 M-14.17 34.6 C-25 25.19, -35.83 15.77, -41.34 10.98 M-14.17 34.6 C-23.72 26.3, -33.26 18.01, -41.34 10.98 M-11.95 25.94 C-20.86 18.19, -29.77 10.44, -38.36 2.97 M-11.95 25.94 C-17.58 21.04, -23.21 16.15, -38.36 2.97 M-8.96 17.93 C-16.81 11.11, -24.65 4.29, -35.38 -5.03 M-8.96 17.93 C-19.36 8.89, -29.75 -0.14, -35.38 -5.03 M-6.73 9.27 C-14.05 2.91, -21.36 -3.45, -30.13 -11.07 M-6.73 9.27 C-14.36 2.63, -21.99 -4, -30.13 -11.07 M-2.24 2.57 C-6.38 -1.03, -10.52 -4.63, -21.11 -13.83 M-2.24 2.57 C-6.13 -0.81, -10.02 -4.19, -21.11 -13.83" stroke="#ced4da" stroke-width="1" fill="none"></path><path d="M0 0 C-0.98 -1.08, -3.83 -4.71, -5.89 -6.48 C-7.95 -8.24, -9.42 -9.81, -12.37 -10.6 C-15.31 -11.39, -20.41 -11.39, -23.56 -11.19 C-26.7 -10.99, -29.05 -10.7, -31.21 -9.42 C-33.37 -8.15, -35.04 -5.79, -36.51 -3.53 C-37.98 -1.28, -38.87 1.28, -40.04 4.12 C-41.22 6.97, -42.5 10.4, -43.58 13.54 C-44.66 16.69, -45.84 20.12, -46.52 22.97 C-47.21 25.81, -47.7 28.07, -47.7 30.62 C-47.7 33.17, -47.5 36.41, -46.52 38.28 C-45.54 40.14, -43.58 40.73, -41.81 41.81 C-40.04 42.89, -38.47 43.97, -35.92 44.76 C-33.37 45.54, -29.74 46.23, -26.5 46.52 C-23.26 46.82, -18.35 48.29, -16.49 46.52 C-14.62 44.76, -15.7 38.57, -15.31 35.92 C-14.92 33.27, -14.62 32.98, -14.13 30.62 C-13.64 28.27, -13.54 25.22, -12.37 21.79 C-11.19 18.35, -9.13 13.64, -7.07 10.01 C-5.01 6.38, -1.18 1.67, 0 0 M0 0 C-0.98 -1.08, -3.83 -4.71, -5.89 -6.48 C-7.95 -8.24, -9.42 -9.81, -12.37 -10.6 C-15.31 -11.39, -20.41 -11.39, -23.56 -11.19 C-26.7 -10.99, -29.05 -10.7, -31.21 -9.42 C-33.37 -8.15, -35.04 -5.79, -36.51 -3.53 C-37.98 -1.28, -38.87 1.28, -40.04 4.12 C-41.22 6.97, -42.5 10.4, -43.58 13.54 C-44.66 16.69, -45.84 20.12, -46.52 22.97 C-47.21 25.81, -47.7 28.07, -47.7 30.62 C-47.7 33.17, -47.5 36.41, -46.52 38.28 C-45.54 40.14, -43.58 40.73, -41.81 41.81 C-40.04 42.89, -38.47 43.97, -35.92 44.76 C-33.37 45.54, -29.74 46.23, -26.5 46.52 C-23.26 46.82, -18.35 48.29, -16.49 46.52 C-14.62 44.76, -15.7 38.57, -15.31 35.92 C-14.92 33.27, -14.62 32.98, -14.13 30.62 C-13.64 28.27, -13.54 25.22, -12.37 21.79 C-11.19 18.35, -9.13 13.64, -7.07 10.01 C-5.01 6.38, -1.18 1.67, 0 0" stroke="#000000" stroke-width="2" fill="none"></path></g></g><g stroke-linecap="round" transform="translate(628.1520218096255 106.06644551443827) rotate(0 4.693336263741003 11.733340659352507)"><path d="M0 0 C0 0, 0 0, 0 0 M0 0 C0 0, 0 0, 0 0 M-0.76 5.61 C0.7 4.65, 2.33 2.65, 4.76 0.12 M-0.07 6.61 C1.62 4.19, 3.93 1.67, 4.94 0.61 M-0.59 13.17 C3.27 9.53, 5.2 5.89, 9.47 -0.62 M-0.49 11.67 C3.57 8.2, 6.7 5.57, 10.32 1.15 M0.43 17.12 C2.46 12.66, 8.03 10.17, 9.36 5.2 M-0.9 18.84 C2.89 15.3, 4.39 13.49, 10.79 6.22 M-0.06 23.38 C2.84 22.63, 4.74 19.75, 8.91 12.32 M0.16 24.74 C2.58 20.9, 5.19 19.1, 10.39 12.92 M5.75 23.47 C7.44 21.6, 8.72 20.56, 10.32 18.99 M5.61 23.54 C7.06 22.3, 7.91 21.06, 9.9 19.28 M-0.3 23.21 C-0.3 23.21, -0.3 23.21, -0.3 23.21 M-0.3 23.21 C-0.3 23.21, -0.3 23.21, -0.3 23.21 M6.1 22.82 C4.46 22.27, 4.04 21.03, -0.43 18.63 M6.01 23.52 C3.96 21.85, 2.35 19.93, -0.28 18.37 M9.41 22.33 C5.92 20.34, 4.39 17.72, 0.12 11.36 M10.55 22.45 C7.01 19.06, 3.64 16.24, -1.03 12.56 M11.42 18.01 C6.05 12.13, 2.59 9.4, 0 8.9 M10.25 17.4 C7.54 13.72, 5.43 11.66, 0.08 7.68 M10.8 12.36 C8.3 7.5, 4.82 4.79, -0.6 2.34 M11.29 11.04 C7.43 7.51, 2.4 4.13, 0.18 1.34 M11.63 5.04 C7.43 4.43, 6.68 1.93, 1.37 -2.85 M10.65 5.69 C7.92 4.45, 5.63 1.64, 2.05 -1.99" stroke="#fa5252" stroke-width="0.5" fill="none"></path><path d="M-0.26 0.44 C2.58 -0.25, 6.25 -0.34, 8.84 0.11 M0.11 0.46 C3.64 -0.45, 6.07 0.09, 9.85 0.47 M8.33 -0.01 C8.86 7.67, 9.9 11.88, 8.14 23.86 M9.47 -0.69 C9.94 5.95, 8.4 13.95, 9.11 24.23 M8.63 23.72 C6.47 23.22, 3.05 24.36, 0.36 22.6 M8.92 23.15 C6 23.92, 3.19 23.98, -0.29 23.07 M0.55 22.82 C-0.87 17.47, -0.15 8.85, 1.76 0.6 M-0.25 23.5 C-0.16 16.6, 0.83 7.79, -0.81 0.29" stroke="#000000" stroke-width="1" fill="none"></path></g><g stroke-linecap="round"><g transform="translate(619.0216984082601 68.33109750605246) rotate(0 0.6011820425552514 33.33392736688282)"><path d="M-0.33 0.56 C-0.44 11.53, -0.77 54.69, -0.72 65.5 M1.69 -0.19 C1.99 10.98, 2.04 55.75, 1.62 66.85" stroke="#000000" stroke-width="1" fill="none"></path></g></g><g stroke-linecap="round"><g transform="translate(618.9129094089978 134.46874425152765) rotate(0 67.581480477333 0.4845320989903428)"><path d="M0.56 -0.72 C23.24 -0.67, 113.25 -0.05, 135.76 -0.04 M-0.6 1.52 C21.91 1.8, 112.1 1.68, 134.64 1.47" stroke="#000000" stroke-width="1" fill="none"></path></g></g><g stroke-linecap="round" transform="translate(651.6187031283305 82.53015952153879) rotate(0 4.693336263741003 23.466681318705042)"><path d="M0 0 C0 0, 0 0, 0 0 M0 0 C0 0, 0 0, 0 0 M-0.25 5.82 C0.86 4.78, 2.05 4.26, 4.81 1.09 M-0.09 6.52 C1.5 4.27, 3.6 2.11, 5.34 0.45 M0.72 11.86 C2.55 8.64, 3.66 6.53, 9.48 -0.53 M-0.22 12.36 C2.91 9.9, 4.88 7.68, 9.64 1.2 M-1.27 18.6 C4.42 13.48, 5.84 9.27, 8.85 6.44 M-0.52 18.09 C2.47 16.33, 3.94 12.94, 10.19 6.23 M1.47 23.88 C4.06 19.72, 5.35 16.67, 10.05 13.69 M-0.28 24.54 C3.19 21.12, 5.95 17.9, 10.69 12.44 M-1.42 30.93 C2.54 28.54, 4.99 23.66, 10.79 19.77 M-0.49 30.44 C1.39 28.27, 4.34 25.9, 9.64 18.62 M-0.91 36.43 C4.03 33.26, 6.08 29.49, 10.22 25.5 M0.52 37.5 C3.37 32.33, 8.79 26.59, 10.05 25.19 M-0.01 43.59 C2.87 38.24, 6.9 35.86, 8.59 30.09 M0.19 42.31 C2.32 38.81, 5.88 36.23, 9.23 31.43 M2.4 47.6 C4.61 45.4, 4.36 42.69, 9.77 36.81 M1.43 47.56 C4.63 43.05, 7.4 40.71, 10.81 36.76 M5.71 47.86 C7.43 46.14, 9.52 44.41, 9.65 43.42 M5.95 48.06 C7.12 46.67, 8.15 45.47, 10.06 43.22 M0.16 47.07 C0.16 47.07, 0.16 47.07, 0.16 47.07 M0.16 47.07 C0.16 47.07, 0.16 47.07, 0.16 47.07 M5.96 46.95 C3.23 44.5, 0.4 42.48, -0.85 41.99 M6.17 46.89 C3.96 45.38, 1.85 43.66, -0.48 41.21 M10.45 46.58 C8.41 42.01, 4.16 40.55, 1.11 35.62 M10.53 45.28 C6.93 42.98, 3.81 39.3, -0.03 35.82 M11.43 41.38 C8.47 37.84, 6.58 36.66, -0.93 30.9 M10.67 39.32 C6.06 36.71, 3.55 33.64, 0.32 30.46 M9.58 35.65 C7.15 31.96, 2.11 27.15, 1.34 26.93 M9.97 35.3 C7.1 31.95, 3.16 29.16, 0.51 25.76 M11.44 30.43 C6.25 25.36, 4.94 23.21, -0.48 19.45 M10.28 29.36 C7.73 27.79, 6.08 24.95, -0.12 19.48 M11.4 24.53 C7.2 21.4, 2.78 18.76, -0.06 16.39 M10.86 24.88 C6.18 20.94, 2.22 16.46, 0.31 14.61 M11.45 19.1 C5.77 16.33, 2.4 12.87, 0.07 10.19 M10.77 19.16 C7.25 16.99, 5.09 14.64, -0.55 9.65 M9.74 14.56 C7.61 10.91, 1.7 7.1, 0.83 4.18 M10.04 13.87 C7.68 10.64, 4.69 8.19, -0.36 4.11 M9.92 7.42 C7.17 7.49, 6.03 5.64, 0.55 -0.46 M11.38 9.42 C6.96 5.02, 4.55 3.34, 0.49 -0.81 M10.88 3.25 C9.66 2.02, 8.59 0.8, 7.03 -0.43 M10.57 3.32 C9.5 2, 8.57 1.32, 6.71 0.02" stroke="#15aabf" stroke-width="0.5" fill="none"></path><path d="M-0.27 -0.03 C2.2 -0.49, 5.22 0.43, 10.23 0.66 M-0.38 -0.31 C3.19 0.38, 6.53 -0.18, 9.8 -0.11 M10.49 0.31 C8.14 10.37, 9.78 22.78, 8.24 46.1 M8.81 -0.85 C9.94 14.2, 9.82 29.82, 10.23 47.11 M9.13 47.86 C8.21 47.37, 4.41 47.13, -0.03 47.58 M9.77 46.62 C7.95 46.56, 5.22 46.81, 0.05 47.28 M0.86 46.81 C-0.74 33.33, 0.75 16.46, -0.89 -1.58 M0.48 47.66 C-0.99 33.22, 0.28 21.87, -0.31 -0.94" stroke="#000000" stroke-width="1" fill="none"></path></g><g stroke-linecap="round" transform="translate(675.0853844470355 96.6101683127618) rotate(0 4.693336263741003 16.42667692309351)"><path d="M0 0 C0 0, 0 0, 0 0 M0 0 C0 0, 0 0, 0 0 M-0.84 6.21 C0.61 4.94, 2.58 3.79, 5.72 0.74 M-0.14 6.37 C1.57 4.49, 3.37 2.45, 5.08 0.17 M-0.05 12.07 C3.27 6.41, 7.7 3.01, 8.72 -0.53 M0.46 12.63 C2.9 9.69, 5.6 6.1, 10.46 0.98 M0.03 19.37 C1.26 14.72, 3.37 11.74, 10.45 4.82 M-0.48 18.96 C3.89 14.12, 6.63 9.86, 10.24 6.19 M0.07 25.09 C1.54 20.7, 4.13 18.22, 11.04 12.55 M0.73 24.29 C4.35 19.93, 8.17 15.97, 9.79 12.56 M0.45 30.29 C3.75 27.16, 4.56 25.54, 10.46 17.68 M-0.04 29.82 C2.54 28.01, 4.92 24.66, 9.31 19.26 M1.35 35.46 C4.74 31.16, 7.66 27.96, 10.81 26.08 M2.22 34.25 C5.25 31.35, 7.82 26.73, 10.56 24.8 M7.64 34.14 C7.69 33.77, 8.54 32.53, 9.68 31.11 M7.3 34.07 C8.03 33.34, 9.01 32.12, 10.04 31.08 M0.34 33.15 C0.34 33.15, 0.34 33.15, 0.34 33.15 M0.34 33.15 C0.34 33.15, 0.34 33.15, 0.34 33.15 M6.1 32.6 C3.64 31.42, 1.15 28.01, 0.18 27.11 M6.37 32.74 C3.68 30.72, 1.25 28.56, -0.09 27.46 M11.23 30.48 C7.04 28.86, 4.51 25.85, -0.33 23.14 M10.51 31.2 C9.19 29.2, 6.12 27.88, -0.35 23.14 M10.95 25.59 C8.2 22.86, 6.06 21.18, 0.89 17.09 M10.84 26.1 C8.75 23.79, 6.28 21.62, -0.48 17.11 M11.79 22.32 C7.05 18.83, 5.5 16.56, -0.55 12.52 M10.49 20.99 C7.86 18.49, 3.9 14.88, -0.35 11.36 M11.83 16.02 C6.54 13.42, 3.78 8.53, -0.02 6.94 M9.78 14.94 C6.49 12.87, 2.82 9.46, -0.47 6.89 M11.45 11.14 C7.4 6.82, 2.36 4.94, 1.35 1.64 M11.1 10.4 C7.07 6.54, 3.52 4.21, 0.19 1.22 M11.25 4.17 C6.24 2.81, 3.41 -0.97, 1.54 -3.43 M10.41 4.49 C8.65 3.22, 5.97 1.55, 1.56 -2.26" stroke="#be4bdb" stroke-width="0.5" fill="none"></path><path d="M-0.03 -0.36 C2.71 0.14, 6.88 0.87, 10.05 0.22 M-0.31 0.16 C4.19 0.54, 7.36 0.49, 9.28 -0.25 M9.7 -1.25 C8.02 10.24, 8.84 18.54, 8.55 33.02 M8.54 0.88 C9.33 8.35, 10.48 16.02, 9.56 32.04 M10.31 33.73 C6.68 31.96, 3.37 32.8, 0.64 31.92 M9.08 33.3 C6.91 32.54, 4.98 32.98, 0.35 32.98 M-0.12 31.96 C1.9 24.66, 0.4 14.38, -1.58 -0.5 M0.73 31.87 C-0.72 23.19, 0.82 12.63, -0.94 0.96" stroke="#000000" stroke-width="1" fill="none"></path></g><g stroke-linecap="round" transform="translate(698.5520657657405 91.9168320490208) rotate(0 4.693336263741003 18.77334505496401)"><path d="M0 0 C0 0, 0 0, 0 0 M0 0 C0 0, 0 0, 0 0 M-0.45 6.17 C0.64 5.8, 1.86 4.52, 5.37 0.79 M-0.29 6.35 C1.33 4.69, 2.8 3.32, 4.79 0.66 M0.16 11.53 C2.07 8.46, 6.23 3.16, 8.73 -0.03 M0.72 12.39 C3.96 8.74, 6.55 4.78, 10.24 0.1 M0.81 17.43 C1 14.72, 2.85 13.44, 8.83 7.16 M0.39 18.86 C3.63 13.56, 7.43 9.52, 10.19 5.99 M1.27 22.89 C2.83 19.43, 6.3 17.91, 9.89 14.07 M0.48 24.36 C3.57 20.8, 7.05 16.67, 9.9 12.49 M-0.18 31.67 C3.02 26.01, 7.73 23.4, 8.37 18.42 M-0.65 30.61 C3.85 26.53, 6.8 21.99, 9.95 19.46 M0.79 37.02 C2.56 33.66, 5.69 30.8, 11.82 26.24 M-0.7 37.16 C3.7 32.37, 6 29.64, 10.24 24.15 M2.54 38.82 C5.21 37.36, 5.5 34.33, 9.74 31.35 M2.36 39.03 C4.5 37.69, 5.29 36.14, 9.65 31.42 M0.28 37.79 C0.28 37.79, 0.28 37.79, 0.28 37.79 M0.28 37.79 C0.28 37.79, 0.28 37.79, 0.28 37.79 M5.77 37.38 C5.07 35.82, 2.07 34.8, -0.51 32.86 M5.91 37.43 C4.35 35.96, 2.56 34.53, -0.16 32.3 M9.59 36.13 C7.67 34.08, 4.19 29.5, 0.86 25.76 M10.31 36.85 C6.35 32.39, 2.9 28.72, 0.87 26.51 M9.94 30.55 C6.78 28.63, 4.71 27.72, 0.07 20.45 M10.46 31.33 C6.94 28.61, 3.75 25.02, 0.08 21.5 M12.02 25.12 C7.68 23.63, 4.52 18.66, 0.85 16.91 M10.69 26.22 C7.85 22.71, 3.85 19.15, -0.32 16.84 M10.97 19.9 C7.27 17.31, 1.42 13.13, 0.51 11.73 M9.89 19.96 C7.39 16.84, 3.66 13.31, 0.46 11.33 M11.44 15.58 C6.75 11.07, 4.35 9.54, 0.56 6.68 M10.7 15.08 C7.54 12.94, 5.72 10.27, 0.14 6.56 M9.54 8.24 C8.94 6.86, 5.42 4.75, -1.51 -0.65 M9.95 9.74 C6.84 5.63, 3.2 2.38, -0.01 0.65 M10.79 4.46 C7.11 2.25, 4.76 0.36, 3.48 -3.76 M10.46 4.64 C8.23 1.97, 6.08 -0.1, 2.55 -2.31" stroke="#228be6" stroke-width="0.5" fill="none"></path><path d="M-0.36 -0.54 C2.37 0.38, 5.35 0.67, 9.6 0.91 M0.16 0.47 C4.18 -0.03, 7.84 -0.05, 9.14 0 M8.14 -1.24 C9.99 9.46, 8.45 18.94, 9.56 36.17 M10.26 -0.28 C9.93 14.7, 10.01 27.84, 8.58 37.82 M10.26 37.91 C4.99 37.77, 2.3 38.28, -0.93 36.92 M9.83 37.26 C7.07 37.45, 5.58 37.84, 0.13 37.39 M-0.89 39.31 C0.44 28.12, -1.05 16.6, -0.5 0.06 M-0.98 36.74 C0.11 28.01, -0.49 16.06, 0.96 -0.18" stroke="#000000" stroke-width="1" fill="none"></path></g><g stroke-linecap="round" transform="translate(722.0187470844455 87.2234957852798) rotate(0 4.693336263741003 21.12001318683454)"><path d="M0 0 C0 0, 0 0, 0 0 M0 0 C0 0, 0 0, 0 0 M-0.49 6.15 C2.05 4.41, 3.68 3.15, 5.42 0.05 M-0.31 6.65 C1.41 4.68, 3.42 2.06, 5.29 0.51 M-0.38 10.7 C3.72 7.7, 5.58 3.11, 9.22 1.32 M0.48 12.47 C3.16 8.77, 5.54 6.51, 9.35 0.04 M-1.13 17.27 C1.08 14.1, 4.74 11.31, 11.17 7.41 M0.29 18.3 C2.05 15.17, 5.05 12.14, 9.99 6.48 M-0.93 23.64 C2.93 19.65, 8.7 15.19, 11.42 12.92 M0.55 24.24 C2.72 22.08, 4.34 18.72, 9.84 13.05 M1.2 30.06 C1.39 29.12, 4.63 24.37, 9.11 19.93 M0.13 30.79 C2.35 27.71, 4.09 25.35, 10.14 19.02 M-0.11 36.69 C2.66 33.66, 5.92 32.13, 11.68 25 M0.02 37.67 C3.17 31.95, 8.37 27.35, 9.59 24.48 M-0.79 43.29 C3 37.87, 4.65 35.65, 10.18 29.9 M-0.5 42.8 C3.12 38.36, 6.44 35.19, 10.28 30.48 M6.01 41.52 C7.69 39.74, 9.31 38.32, 11.06 36.96 M5.43 42.12 C7.61 40.55, 8.81 38.77, 10.68 36.74 M0.22 42.43 C0.22 42.43, 0.22 42.43, 0.22 42.43 M0.22 42.43 C0.22 42.43, 0.22 42.43, 0.22 42.43 M5.74 42.24 C5.09 41.18, 3.02 40.19, -0.97 37.4 M6.15 41.71 C4.38 40.88, 3.01 40.17, -0.55 36.46 M10.6 39.67 C7.24 36.93, 4.94 35.3, -0.88 31.68 M11.38 40.67 C7.09 36.97, 2.04 34.03, 0.17 32.1 M9.76 35.86 C8.31 33.82, 3.5 30.87, 0.17 26.45 M10.86 35.79 C7.47 32.62, 3.93 29.71, 0.1 26.78 M10.54 31.43 C7.3 26.24, 2.67 24.09, 0.99 21.78 M10.61 31.05 C7.11 27.63, 3 24.44, 0.59 21.63 M10.82 24.51 C7.21 23.97, 6.68 21.05, 0.54 14.99 M10.32 24.19 C8.37 23.27, 5.97 20.97, 0.42 14.97 M9.49 20.73 C5.92 15.96, 1.77 11.31, -0.79 11.19 M10.98 19.88 C6.86 17.08, 3.6 14.32, 0.51 10.89 M10.3 13.25 C6.91 10.71, 3.97 8.93, -1.55 4.74 M10.53 14.02 C6.11 11.22, 2.6 8.08, 0.3 5.54 M11.15 8.23 C6.57 5.88, 3.09 0.89, -0.17 0.5 M10.96 8.74 C6.65 5.33, 2.72 2.46, -0.06 0.18 M10.4 2.96 C9.28 2.98, 8.29 1.88, 6.25 0.53 M10.09 3.56 C9.34 2.6, 8.41 1.85, 6.39 0.25" stroke="#fd7e14" stroke-width="0.5" fill="none"></path><path d="M-0.54 0.11 C2.92 0.88, 5.76 0.25, 10.3 0.9 M0.47 0.47 C1.96 0.38, 4 -0.28, 9.38 -0.17 M8.14 0.39 C9.02 13.86, 8.62 30.18, 8.01 43.61 M9.11 0.76 C9.9 11.06, 9.21 19.63, 9.66 43 M9.75 41.37 C6.96 42.3, 4.92 41.4, -0.63 41.35 M9.1 41.85 C5.77 42.38, 2.57 42.46, -0.15 42.04 M1.76 42.84 C0.29 26.85, -1.55 12.74, 0.06 -0.53 M-0.81 42.53 C0.43 27.24, -1.25 13.82, -0.18 0.82" stroke="#000000" stroke-width="1" fill="none"></path></g><g stroke-linecap="round" transform="translate(595.3803362603676 41.878332668823475) rotate(0 88.79318655498935 55.430587949883574)"><path d="M0.24 0.79 C54.44 2.44, 105.76 2.97, 179.5 -1.62 M1 -0.2 C42.43 -2.01, 82.58 -1.78, 177.22 0.55 M177.98 -0.43 C175.75 34.14, 177.06 68.57, 178.95 109.7 M178.35 0.87 C179.4 24, 177.75 47.92, 178.35 110.58 M175.74 111.14 C106.72 112.92, 33.98 110.2, -1.9 112.5 M176.75 110.78 C136.19 110.53, 94.86 109.45, -0.42 111.29 M0.6 111.12 C-0.39 76.7, -0.01 45.76, -0.53 0.96 M0.29 111.6 C0.77 68.57, 2.05 27.98, 0.82 -0.46" stroke="#000000" stroke-width="1" fill="none"></path></g><g transform="translate(603.3938833612729 162.96595475440654) rotate(0 79.68460732744 9.531651594191374)"><text x="0" y="14.063303188382772" font-family="Virgil, Segoe UI Emoji" font-size="15.25064255070622px" fill="#000000" text-anchor="start" style="white-space: pre;" direction="ltr">BI &amp; Reporting tools</text></g><g stroke-linecap="round"><g stroke-opacity="0.4" fill-opacity="0.4" transform="translate(422.5719123694934 252.09912331714736) rotate(0 83.49454187369804 -53.533844926870415)"><path d="M1.16 1.15 C14.33 -5.5, 52.42 -21.38, 79.86 -39.61 C107.31 -57.84, 151.37 -96.54, 165.82 -108.21" stroke="#495057" stroke-width="1.5" fill="none" stroke-dasharray="8 9"></path></g><g stroke-opacity="0.4" fill-opacity="0.4" transform="translate(422.5719123694934 252.09912331714736) rotate(0 83.49454187369804 -53.533844926870415)"><path d="M167.19 -110.2 L158.12 -96.53 L152.97 -105.68 L167.73 -109.44" stroke="none" stroke-width="0" fill="#495057" fill-rule="evenodd"></path><path d="M167.26 -109.43 C162.51 -102.6, 162.64 -96.59, 159.16 -93.31 M159 -93.93 C157.46 -98.11, 154.23 -99.76, 151.06 -105.08 M152.35 -105.23 C153.79 -103.94, 158.4 -105.11, 167.13 -106.95 M165.82 -108.21 C165.82 -108.21, 165.82 -108.21, 165.82 -108.21" stroke="#495057" stroke-width="1.5" fill="none"></path></g></g><g stroke-linecap="round"><g stroke-opacity="0.4" fill-opacity="0.4" transform="translate(430.42645560191835 327.11959178435745) rotate(0 101.50753833531064 72.24513211863132)"><path d="M1.18 0.21 C17.64 7.29, 65.26 19.02, 98.7 43.03 C132.15 67.05, 184.76 127.04, 201.83 144.28" stroke="#343a40" stroke-width="1.5" fill="none" stroke-dasharray="8 9"></path></g><g stroke-opacity="0.4" fill-opacity="0.4" transform="translate(430.42645560191835 327.11959178435745) rotate(0 101.50753833531064 72.24513211863132)"><path d="M200.93 145.17 L185.91 140.26 L195.27 129.03 L200.41 145.73" stroke="none" stroke-width="0" fill="#343a40" fill-rule="evenodd"></path><path d="M202.09 144.8 C197.97 143.57, 192.01 141.07, 189.18 139.66 M187.53 137.74 C190.7 135.9, 193.15 134.82, 196.87 129.05 M196.76 128.92 C200.06 134.67, 200.28 139.59, 201.66 144.03 M201.83 144.28 C201.83 144.28, 201.83 144.28, 201.83 144.28" stroke="#343a40" stroke-width="1.5" fill="none"></path></g></g><g stroke-linecap="round" transform="translate(662.2667128580283 248.47305939467708) rotate(0 35.765239589249745 35.38465442447614)"><path d="M50.81 3.26 C57.2 5.25, 63.64 11.32, 67.05 17.11 C70.45 22.91, 71.91 31.11, 71.21 38.01 C70.52 44.91, 67.38 53.24, 62.86 58.52 C58.35 63.81, 50.88 68.03, 44.11 69.74 C37.35 71.46, 28.97 71.42, 22.28 68.82 C15.6 66.22, 7.74 60.34, 4.03 54.16 C0.32 47.99, -0.88 38.68, 0.02 31.76 C0.93 24.84, 4.92 17.87, 9.45 12.63 C13.99 7.39, 20.01 1.63, 27.23 0.33 C34.45 -0.96, 48.35 3.89, 52.77 4.87 C57.2 5.86, 54.03 5.86, 53.77 6.26 M50.55 4.45 C56.6 6.96, 62.52 11.94, 66.04 17.96 C69.56 23.98, 72.38 33.58, 71.68 40.57 C70.98 47.55, 66.44 55.22, 61.83 59.9 C57.23 64.57, 50.91 67.16, 44.05 68.63 C37.19 70.1, 27.46 71.52, 20.69 68.74 C13.93 65.96, 7.06 58.28, 3.47 51.94 C-0.12 45.59, -1.87 37.35, -0.85 30.65 C0.17 23.96, 4.62 16.75, 9.56 11.79 C14.51 6.83, 22.08 2.5, 28.84 0.91 C35.61 -0.69, 46.66 1.66, 50.14 2.22 C53.62 2.77, 49.68 3.68, 49.71 4.24" stroke="none" stroke-width="0" fill="#f27826"></path><path d="M28.37 1.33 C34.8 -0.29, 43.48 0.66, 50.01 3.39 C56.53 6.12, 63.99 11.59, 67.51 17.7 C71.04 23.82, 72.25 33.18, 71.18 40.06 C70.1 46.95, 65.67 54.1, 61.05 59 C56.42 63.91, 50.2 68.08, 43.45 69.49 C36.69 70.91, 26.88 70.4, 20.52 67.47 C14.16 64.55, 8.81 58.16, 5.3 51.95 C1.79 45.74, -1.14 37.17, -0.56 30.22 C0.01 23.27, 2.77 15.2, 8.72 10.27 C14.68 5.34, 29.8 2.19, 35.18 0.63 C40.56 -0.94, 41.18 0.26, 41 0.87 M47.28 2.82 C53.72 4.55, 60.96 10.06, 65.02 15.54 C69.08 21.02, 71.99 28.72, 71.65 35.71 C71.31 42.71, 67.11 51.73, 62.97 57.53 C58.83 63.33, 53.16 68.45, 46.8 70.51 C40.44 72.58, 31.4 72.44, 24.79 69.89 C18.19 67.35, 11.07 61.1, 7.16 55.25 C3.25 49.39, 1.06 41.62, 1.33 34.77 C1.6 27.92, 4.83 19.8, 8.79 14.16 C12.75 8.52, 18.34 3.08, 25.09 0.94 C31.84 -1.21, 45.34 0.8, 49.31 1.3 C53.28 1.79, 49.28 3.04, 48.91 3.91" stroke="#f27826" stroke-width="1" fill="none"></path></g><g stroke-linecap="round" transform="translate(657.1479024057307 256.83441519909377) rotate(0 40.44196577676689 26.51094352558175)"><path d="M57.54 2.09 C64.46 3.61, 71.49 8.15, 75.39 12.66 C79.28 17.17, 81.65 23.89, 80.91 29.14 C80.16 34.39, 76.17 40.11, 70.92 44.16 C65.67 48.21, 57.41 52.21, 49.4 53.42 C41.4 54.63, 30.25 53.79, 22.89 51.44 C15.52 49.1, 8.89 43.89, 5.2 39.37 C1.51 34.84, 0 29.47, 0.76 24.27 C1.52 19.07, 4.5 12.01, 9.77 8.17 C15.04 4.34, 23.72 1.9, 32.38 1.28 C41.05 0.65, 55.9 3.42, 61.77 4.43 C67.63 5.44, 67.63 6.93, 67.56 7.35 M22.54 2.55 C29.19 0.14, 40.68 0.65, 48.54 1.74 C56.39 2.83, 64.15 5.74, 69.67 9.09 C75.19 12.45, 80.69 16.64, 81.66 21.87 C82.64 27.1, 79.72 35.87, 75.5 40.5 C71.27 45.12, 63.63 47.73, 56.32 49.6 C49.01 51.47, 39.19 52.53, 31.65 51.73 C24.11 50.94, 16.26 48.48, 11.08 44.84 C5.9 41.2, 1.65 35.27, 0.58 29.92 C-0.48 24.56, 0.98 17.21, 4.69 12.72 C8.4 8.22, 19.45 4.68, 22.83 2.92 C26.22 1.17, 24.87 1.69, 24.99 2.17" stroke="none" stroke-width="0" fill="white"></path><path d="M29.18 0.94 C36.49 -0.88, 47.96 -0.69, 55.49 1.23 C63.02 3.15, 70.26 8.1, 74.34 12.46 C78.42 16.83, 80.25 22.4, 79.97 27.43 C79.7 32.45, 77.57 38.5, 72.7 42.62 C67.82 46.74, 58.37 50.83, 50.7 52.18 C43.03 53.52, 34.19 52.7, 26.68 50.68 C19.16 48.67, 10.21 44.51, 5.63 40.07 C1.04 35.64, -1.5 29.05, -0.85 24.1 C-0.2 19.15, 3.99 14.32, 9.52 10.38 C15.05 6.44, 28.45 1.92, 32.34 0.46 C36.24 -1, 32.73 1.22, 32.9 1.63 M45.08 0.25 C52.74 0.25, 62.52 2.74, 68.19 6.36 C73.86 9.97, 77.43 16.51, 79.09 21.93 C80.75 27.35, 81.12 34.05, 78.14 38.88 C75.15 43.72, 68.11 48.61, 61.16 50.92 C54.22 53.24, 44.29 53.55, 36.46 52.79 C28.62 52.04, 19.89 49.84, 14.15 46.38 C8.41 42.91, 3.86 37.27, 2.02 32.01 C0.18 26.75, -0.27 19.74, 3.11 14.82 C6.48 9.91, 15.03 4.76, 22.29 2.52 C29.55 0.27, 42.77 1.47, 46.67 1.36 C50.57 1.25, 45.96 1.73, 45.69 1.85" stroke="white" stroke-width="1" fill="none"></path></g><g stroke-linecap="round" transform="translate(663.9412584853803 249.02821228570963) rotate(0 3.0977784711666345 3.0900645623682976)"><path d="M5.18 0.61 C5.86 0.64, 6.24 1.04, 6.37 1.46 C6.5 1.88, 6.15 2.47, 5.95 3.12 C5.76 3.76, 5.62 4.84, 5.21 5.32 C4.79 5.8, 4.04 5.84, 3.45 6.01 C2.86 6.17, 2.41 6.59, 1.68 6.29 C0.95 5.99, -0.72 5.07, -0.94 4.2 C-1.16 3.33, -0.24 1.65, 0.37 1.08 C0.99 0.51, 2.16 0.97, 2.74 0.76 C3.32 0.56, 3.48 -0.23, 3.86 -0.14 C4.23 -0.06, 5.04 1.15, 4.98 1.29 M4.04 -1.28 C4.69 -1.22, 5.22 1.6, 5.44 2.33 C5.66 3.05, 5.3 2.42, 5.38 3.07 C5.46 3.72, 6.24 5.64, 5.9 6.26 C5.57 6.87, 3.9 7.09, 3.37 6.78 C2.84 6.47, 3.28 4.63, 2.71 4.4 C2.13 4.16, 0.53 5.89, -0.09 5.36 C-0.72 4.82, -1.13 2.13, -1.05 1.18 C-0.97 0.23, -0.4 -0.19, 0.4 -0.34 C1.2 -0.49, 3.2 0.18, 3.77 0.29 C4.34 0.39, 3.93 0.42, 3.82 0.27" stroke="none" stroke-width="0" fill="#616262"></path><path d="M4.59 -0.38 C5.34 -0.16, 5.57 1.29, 5.69 1.86 C5.81 2.44, 5.25 2.58, 5.3 3.07 C5.35 3.56, 6.38 4.29, 5.99 4.82 C5.61 5.34, 3.69 6.2, 3.01 6.22 C2.34 6.23, 2.58 5.48, 1.95 4.91 C1.32 4.35, -0.38 3.54, -0.79 2.83 C-1.2 2.11, -1.04 0.94, -0.5 0.6 C0.04 0.27, 1.56 0.88, 2.46 0.8 C3.36 0.72, 4.68 0.05, 4.89 0.1 C5.1 0.16, 3.75 1.08, 3.75 1.11 M3.15 0.07 C3.91 -0.14, 5.17 -0.35, 5.5 0.2 C5.84 0.76, 4.95 2.41, 5.14 3.39 C5.32 4.37, 6.66 5.45, 6.62 6.1 C6.59 6.76, 5.59 7.37, 4.93 7.32 C4.27 7.27, 3.23 6.24, 2.66 5.81 C2.1 5.39, 1.76 5.32, 1.56 4.79 C1.35 4.26, 1.56 3.44, 1.42 2.64 C1.28 1.85, 0.14 0.6, 0.72 0.03 C1.3 -0.54, 4.23 -0.97, 4.91 -0.77 C5.58 -0.57, 4.92 0.87, 4.74 1.24" stroke="#616262" stroke-width="1" fill="none"></path></g><g stroke-linecap="round" transform="translate(726.831001965721 234.68313953888946) rotate(0 4.9787486715960085 4.966350879584752)"><path d="M7.52 0.19 C8.31 0.37, 8.88 1.16, 9.3 2.12 C9.73 3.08, 10.21 4.82, 10.07 5.94 C9.92 7.05, 9.21 8, 8.42 8.83 C7.63 9.65, 6.64 10.8, 5.32 10.87 C4.01 10.95, 1.45 10.23, 0.55 9.28 C-0.36 8.33, -0.25 6.24, -0.11 5.16 C0.03 4.08, 0.88 3.72, 1.39 2.81 C1.89 1.89, 1.8 -0.13, 2.9 -0.33 C4 -0.54, 7.22 1.27, 7.98 1.59 C8.74 1.9, 7.49 1.61, 7.46 1.55 M7.06 1.74 C7.79 2.32, 8.13 1.94, 8.65 2.89 C9.17 3.84, 10.36 6.32, 10.18 7.45 C9.99 8.58, 8.27 9.49, 7.52 9.66 C6.77 9.84, 6.74 8.51, 5.68 8.5 C4.62 8.5, 2.33 10.31, 1.19 9.64 C0.04 8.98, -0.95 5.89, -1.18 4.51 C-1.41 3.13, -1.04 2.04, -0.2 1.36 C0.64 0.68, 2.6 0.56, 3.86 0.44 C5.11 0.31, 6.86 0.76, 7.32 0.62 C7.78 0.48, 6.78 -0.52, 6.61 -0.41" stroke="none" stroke-width="0" fill="#767677"></path><path d="M5.04 0.33 C5.84 0.3, 6.48 0.16, 7.44 0.71 C8.4 1.25, 10.52 2.46, 10.8 3.61 C11.08 4.76, 9.69 6.69, 9.12 7.61 C8.55 8.53, 8.52 8.93, 7.38 9.13 C6.25 9.32, 3.59 9.23, 2.31 8.77 C1.03 8.31, -0.02 7.07, -0.31 6.37 C-0.61 5.68, 0.08 5.49, 0.54 4.58 C0.99 3.67, 1.76 1.56, 2.45 0.92 C3.13 0.28, 3.98 0.9, 4.62 0.73 C5.26 0.55, 6.11 -0.03, 6.27 -0.13 M6.31 -0.63 C7.19 -0.38, 7.16 1.32, 7.94 2.5 C8.73 3.68, 10.71 5.27, 11 6.45 C11.29 7.64, 10.46 9.05, 9.71 9.62 C8.96 10.2, 7.52 9.88, 6.48 9.88 C5.45 9.87, 4.35 10.09, 3.52 9.58 C2.68 9.07, 2.11 7.99, 1.48 6.8 C0.85 5.62, -0.72 3.67, -0.27 2.49 C0.19 1.31, 2.93 -0.09, 4.21 -0.29 C5.5 -0.49, 7.06 1.03, 7.44 1.3 C7.83 1.58, 6.74 1.6, 6.54 1.37" stroke="#767677" stroke-width="1" fill="none"></path></g><g stroke-linecap="round" transform="translate(669.1534532348846 318.3612974016095) rotate(0 6.9952705166594455 6.977851298569078)"><path d="M8.07 -0.58 C9.44 -0.42, 11.55 1.02, 12.62 2.25 C13.7 3.49, 14.45 5.13, 14.52 6.82 C14.59 8.52, 14.27 11.13, 13.05 12.43 C11.84 13.73, 8.85 14.56, 7.24 14.61 C5.62 14.65, 4.4 13.47, 3.35 12.7 C2.3 11.93, 1.55 11.43, 0.94 9.98 C0.33 8.54, -0.76 5.45, -0.3 4.06 C0.16 2.67, 2.1 2.18, 3.7 1.65 C5.31 1.11, 7.91 0.78, 9.33 0.86 C10.75 0.95, 11.95 2.02, 12.2 2.17 M3.22 0.72 C4.53 0.03, 7.66 1, 9.18 1.49 C10.71 1.97, 11.39 2.86, 12.37 3.64 C13.35 4.42, 15.17 4.61, 15.04 6.17 C14.92 7.74, 13.07 11.9, 11.63 13.04 C10.19 14.18, 8.02 13.18, 6.4 12.99 C4.78 12.8, 2.9 12.55, 1.91 11.89 C0.92 11.23, 0.62 10.32, 0.46 9.04 C0.3 7.75, 0.41 5.76, 0.94 4.21 C1.47 2.66, 3.22 0.21, 3.66 -0.29 C4.09 -0.78, 3.25 1.09, 3.58 1.22" stroke="none" stroke-width="0" fill="#9e9e9e"></path><path d="M4.21 -0.27 C5.71 -0.91, 9.23 -0.74, 10.72 -0.04 C12.22 0.67, 12.53 2.59, 13.18 3.94 C13.83 5.3, 15.1 6.79, 14.62 8.1 C14.14 9.41, 11.78 10.99, 10.28 11.8 C8.78 12.62, 6.89 12.85, 5.61 12.99 C4.33 13.12, 3.41 13.52, 2.58 12.62 C1.74 11.71, 0.95 9.04, 0.6 7.57 C0.24 6.1, -0.63 5.1, 0.45 3.8 C1.53 2.5, 5.81 0.43, 7.06 -0.24 C8.3 -0.91, 7.95 -0.35, 7.93 -0.22 M6.05 0.46 C7.62 0.72, 11.13 1.75, 12.63 2.85 C14.13 3.96, 14.82 5.81, 15.04 7.09 C15.27 8.37, 14.72 9.37, 13.97 10.53 C13.23 11.69, 11.96 13.49, 10.6 14.06 C9.23 14.63, 7.52 14.65, 5.79 13.96 C4.05 13.26, 0.89 11.42, 0.19 9.91 C-0.52 8.39, 0.94 6.06, 1.55 4.87 C2.16 3.67, 2.86 3.35, 3.85 2.72 C4.84 2.1, 6.92 1.68, 7.49 1.13 C8.06 0.57, 7.14 -0.53, 7.27 -0.61" stroke="#9e9e9e" stroke-width="1" fill="none"></path></g><g transform="translate(664.1061694283655 272.36391686014076) rotate(0 34.84833013912345 11.489058842742224)"><text x="0" y="15.978117685484506" font-family="Virgil, Segoe UI Emoji" font-size="18.180774738758622px" fill="#767677" text-anchor="start" style="white-space: pre;" direction="ltr">Jupyter</text></g><g stroke-linecap="round"><g stroke-opacity="0.4" fill-opacity="0.4" transform="translate(432.38499036064235 282.0888052086191) rotate(0 108.7472183657681 -4.053315316616647)"><path d="M0.55 -1 C16.26 -2.22, 59.03 -6.83, 95.1 -7.1 C131.16 -7.36, 196.65 -3.42, 216.95 -2.59" stroke="#343a40" stroke-width="1.5" fill="none" stroke-dasharray="8 9"></path></g><g stroke-opacity="0.4" fill-opacity="0.4" transform="translate(432.38499036064235 282.0888052086191) rotate(0 108.7472183657681 -4.053315316616647)"><path d="M218.69 -2.42 L201.56 3.29 L205.59 -10.63 L218.67 -4.52" stroke="none" stroke-width="0" fill="#343a40" fill-rule="evenodd"></path><path d="M215.7 -1.8 C211.77 -0.99, 206.42 1, 203.3 2.75 M202.36 3.55 C202.25 0.38, 203.82 -3.83, 204.04 -9.29 M204.53 -10.55 C208.82 -7.67, 212.88 -4.5, 216.1 -3.76 M216.95 -2.59 C216.95 -2.59, 216.95 -2.59, 216.95 -2.59" stroke="#343a40" stroke-width="1.5" fill="none"></path></g></g></svg>