<svg version="1.1" xmlns="http://www.w3.org/2000/svg" viewBox="0 0 773.7842976305781 362.38321127967237" width="1547.5685952611561" height="724.7664225593447">
  <!-- svg-source:excalidraw -->
  
  <defs>
    <style>
      @font-face {
        font-family: "Virgil";
        src: url("https://excalidraw.com/Virgil.woff2");
      }
      @font-face {
        font-family: "Cascadia";
        src: url("https://excalidraw.com/Cascadia.woff2");
      }
    </style>
  </defs>
  <g stroke-linecap="round" transform="translate(298.9369529285884 174.2117062765351) rotate(0 43.887572433417404 66.59695246191828)"><path d="M-1.03 -1.08 L86.44 -0.34 L87.11 134.67 L0.89 133.02" stroke="none" stroke-width="0" fill="#fff"></path><path d="M-1.03 -0.64 C22.63 -0.59, 45.04 -0.61, 87.14 0.28 M-0.3 -0.19 C29 -0.99, 56.93 -0.67, 86.98 0.25 M88.66 -0.74 C87.26 32.02, 85.94 67.64, 86.36 131.29 M87.61 -0.96 C87.07 50.8, 86.99 102.8, 87.16 132.91 M89.17 134.9 C58.35 132.66, 28.53 133.44, -1.53 134.92 M87.9 132.68 C55.74 131.71, 25.14 132.12, 0.99 133.15 M-0.22 132.71 C-0.77 84.79, 0.05 38.1, 0.02 0.67 M0.67 133.24 C0.33 91.22, 0.31 48.4, -0.26 0.74" stroke="#0b7285" stroke-width="2" fill="none"></path></g><g stroke-linecap="round" transform="translate(289.5638582568564 165.4935154469315) rotate(0 43.88757243341735 66.59695246191828)"><path d="M-1.08 -1.33 L87.44 -0.66 L89.25 134.08 L-0.18 131.35" stroke="none" stroke-width="0" fill="#fff"></path><path d="M-0.64 -0.37 C32.44 -0.49, 65.63 -0.19, 88.05 0.52 M-0.19 0.37 C26.88 -0.06, 54.4 -0.53, 88.02 -0.51 M87.03 0.32 C86.47 30.66, 88.87 61.91, 85.87 134.84 M86.81 -0.66 C86.87 38.72, 87.96 78.31, 87.49 133.6 M89.48 133.65 C54.81 134.33, 23.89 132.28, 1.72 134.34 M87.26 132.51 C53.25 133.37, 19.98 134.3, -0.05 133.8 M-0.48 131.21 C0.74 104.23, 2.14 77.6, 0.67 0.37 M0.04 133.57 C1.16 93.11, 0.77 52.04, 0.74 -0.51" stroke="#0b7285" stroke-width="2" fill="none"></path></g><g stroke-linecap="round" transform="translate(277.89617456788824 155.24305753272944) rotate(0 43.887572433417404 66.5969524619183)"><path d="M-1.33 -0.34 L87.11 1.47 L88.66 133.02 L-1.84 134.29" stroke="none" stroke-width="0" fill="#fff"></path><path d="M-0.37 -0.76 C23.7 -0.5, 48.65 0.56, 88.3 0.2 M0.37 -0.31 C32.77 0.17, 65.39 0.41, 87.27 -0.62 M88.09 -1.2 C87.36 40.14, 86.95 76, 89.42 133.12 M87.12 -0.12 C86.82 33.14, 86.94 64.09, 88.18 133.81 M88.23 131.94 C54.8 133.47, 19.25 135.66, 1.14 134.87 M87.09 132.35 C67.94 132.31, 48.98 132.7, 0.61 132.28 M-1.98 132.88 C-1.02 104.89, 0.16 75.11, 0.37 0.07 M0.38 133.64 C-0.53 100.49, -1.15 68.42, -0.51 -0.54" stroke="#0b7285" stroke-width="2" fill="none"></path></g><g stroke-linecap="round"><g transform="translate(292.7820186215213 215.78184809477813) rotate(0 27.83463978063719 -1.3253920813970126)"><path d="M-0.22 -0.46 C8.16 -0.44, 40.02 0.26, 49.64 -0.27 C59.25 -0.81, 56.04 -3.1, 57.46 -3.67 M-1.79 -1.74 C6.43 -1.53, 38.67 1.11, 48.39 1.02 C58.1 0.93, 54.8 -1.67, 56.5 -2.27" stroke="#0b7285" stroke-width="1" fill="none"></path></g></g><g stroke-linecap="round"><g transform="translate(295.0860410334543 176.70536800814887) rotate(0 28.149914264561914 -1.0590140156217274)"><path d="M-0.46 -0.57 C3.01 -1.18, 10.9 -3.94, 20.44 -3.87 C29.97 -3.79, 50.71 -0.82, 56.76 -0.09 M1.5 1.75 C4.81 1.33, 10.15 -2.47, 19.24 -2.53 C28.34 -2.59, 49.78 1.23, 56.08 1.39" stroke="#0b7285" stroke-width="1" fill="none"></path></g></g><g stroke-linecap="round"><g transform="translate(294.99091272753344 260.4018840804386) rotate(0 30.558930750434342 0.8262848832496275)"><path d="M-0.57 -0.47 C4.87 -0.42, 24.48 -0.73, 32.42 -0.15 C40.35 0.43, 42.28 3.44, 47.03 2.99 C51.79 2.55, 58.82 -1.97, 60.95 -2.8 M1.34 -1.76 C6.6 -1.45, 23.75 0.45, 31.27 1.47 C38.78 2.5, 41.36 4.93, 46.43 4.37 C51.5 3.81, 59.72 -0.93, 61.69 -1.89" stroke="#0b7285" stroke-width="1" fill="none"></path></g></g><g stroke-linecap="round"><g transform="translate(291.0366708640387 274.36465711074703) rotate(0 33.77272501770358 -0.8487632326554433)"><path d="M-0.47 -0.38 C1.74 -0.48, 9.36 -1.18, 12.79 -1.14 C16.23 -1.09, 12.77 -0.4, 20.15 -0.12 C27.53 0.16, 49.11 1.05, 57.09 0.53 C65.07 0.02, 66.33 -2.66, 68.01 -3.22 M1.49 -1.63 C3.59 -2.05, 8.94 -3.04, 11.93 -3.09 C14.92 -3.15, 11.91 -2.75, 19.45 -1.98 C26.98 -1.21, 49.26 1.69, 57.15 1.52 C65.03 1.34, 64.9 -2.13, 66.77 -3.03" stroke="#0b7285" stroke-width="1" fill="none"></path></g></g><g stroke-linecap="round"><g transform="translate(291.39041490046463 195.4090045298592) rotate(0 29.410226147993228 1.157215841362273)"><path d="M-0.38 0.17 C3.53 0.14, 12.98 -0.92, 22.91 -0.62 C32.84 -0.31, 53.35 1.41, 59.2 1.98 M1.62 -0.79 C5.45 -0.56, 12.57 0.33, 22.13 0.98 C31.68 1.63, 52.91 2.58, 58.92 3.11" stroke="#0b7285" stroke-width="1" fill="none"></path></g></g><g stroke-linecap="round"><g transform="translate(291.52390360236416 238.23356569124468) rotate(0 29.00045076457667 0.9561325991997478)"><path d="M0.17 0.31 C1.94 0.83, 6.49 2.91, 10.17 2.7 C13.85 2.49, 14.14 -0.84, 22.23 -0.96 C30.33 -1.08, 52.78 1.42, 58.73 1.97 M-1.2 -0.57 C0.46 -0.34, 5.54 0.93, 9.28 1.06 C13.03 1.19, 12.96 -0.06, 21.28 0.24 C29.6 0.54, 52.77 2.46, 59.21 2.88" stroke="#0b7285" stroke-width="1" fill="none"></path></g></g><g stroke-linecap="round" transform="translate(26.36199264162252 158.62484946326612) rotate(0 46.82176569952432 61.22846283783912)"><path d="M1.37 -1.52 C38.35 0.47, 73.61 -0.97, 93.81 -0.36 M-0.51 -0.5 C25.89 0.42, 54.48 0.79, 92.76 0.74 M94.93 0.27 C94.5 36.47, 93.09 75.69, 94.6 121.78 M92.78 0.22 C92.95 26.89, 92.78 51.82, 93.98 122.07 M91.8 120.77 C72.39 122.08, 52.59 123.67, 0.84 122.04 M93.11 123.39 C66.73 123.32, 40.09 123, 0.13 121.48 M1.11 121.77 C-0.45 84.39, 1.8 48.73, -1.05 -1.8 M-0.86 122.64 C-1.8 81.96, -1.28 39.51, 0.91 -0.54" stroke="#279185" stroke-width="2" fill="none"></path></g><g stroke-linecap="round"><g transform="translate(13.395965217141566 174.472216315413) rotate(0 9.65491639187286 -0.1579751535318792)"><path d="M1.6 0.13 C5.41 -1.16, 10.79 -0.21, 19.89 -1.3 M-0.9 0.01 C6.07 0.48, 9.45 0.84, 20.21 0.98" stroke="#279185" stroke-width="2" fill="none"></path></g></g><g stroke-linecap="round"><g transform="translate(13.395965217141566 189.35913669167138) rotate(0 9.954872203690059 -0.2562797519949811)"><path d="M0.1 -1.32 C4.69 -0.38, 8.76 -1.31, 19.29 -1.01 M0.9 0.38 C4.15 0.74, 10.11 0.98, 19.81 0.64" stroke="#279185" stroke-width="2" fill="none"></path></g></g><g stroke-linecap="round"><g transform="translate(13.395965217141566 204.24605706793074) rotate(0 9.709914014839626 -0.5100954084503826)"><path d="M0.17 -0.36 C5.9 -1.17, 11.49 -0.88, 19.16 -1.8 M-0.88 0.74 C6.11 0.91, 11.77 0.57, 20.3 -0.17" stroke="#279185" stroke-width="2" fill="none"></path></g></g><g stroke-linecap="round"><g transform="translate(13.395965217141566 219.13297744418998) rotate(0 9.952191258014238 0.24992107786238194)"><path d="M-0.28 -1.3 C3.84 -0.97, 8.43 -1.77, 20.18 1.8 M0.04 0.98 C6.45 0.49, 13.76 -0.32, 19.78 -0.88" stroke="#279185" stroke-width="2" fill="none"></path></g></g><g stroke-linecap="round"><g transform="translate(13.395965217141566 234.01989782044927) rotate(0 10.025037491858996 -0.562867762055248)"><path d="M-0.88 -1.01 C4.67 -1.67, 11.38 1.93, 20.93 -1.77 M-0.36 0.64 C7.68 -0.37, 14.71 -1.08, 20.76 0.48" stroke="#279185" stroke-width="2" fill="none"></path></g></g><g stroke-linecap="round"><g transform="translate(13.395965217141566 248.9068181967085) rotate(0 10.323322797359026 -0.8595432098954916)"><path d="M-1.01 -1.8 C4.75 1.9, 10.24 -1.67, 21.66 0.08 M0.13 -0.17 C7.64 -1.01, 16.66 0.35, 19.83 -0.86" stroke="#279185" stroke-width="2" fill="none"></path></g></g><g stroke-linecap="round"><g transform="translate(13.395965217141566 263.793738572966) rotate(0 10.871313495260722 0.4591094837523997)"><path d="M0.01 1.8 C5.79 -1.59, 11.55 0.27, 22.14 -0.72 M-0.39 -0.88 C7.94 0.51, 14.35 -0.83, 20.2 0.54" stroke="#279185" stroke-width="2" fill="none"></path></g></g><g stroke-linecap="round"><g transform="translate(50.133042919842865 174.472216315413) rotate(0 26.86873261174003 -0.6455724402330816)"><path d="M0.76 -1.77 C12.37 -0.38, 23.73 -1.19, 53.15 0.27 M0.59 0.48 C14.32 -0.4, 29.35 1, 51 0.22" stroke="#279185" stroke-width="2" fill="none"></path></g></g><g stroke-linecap="round"><g transform="translate(50.133042919842865 192.72069935727848) rotate(0 25.588663931095994 -0.08610628265887499)"><path d="M1.49 0.08 C22.19 -0.26, 41.73 0.73, 51.52 -0.79 M-0.34 -0.86 C11.02 0.3, 21.12 -0.03, 51.13 0.69" stroke="#279185" stroke-width="2" fill="none"></path></g></g><g stroke-linecap="round"><g transform="translate(50.133042919842865 210.96918239914396) rotate(0 25.49568462241257 0.22980915941298008)"><path d="M1.97 -0.72 C12.26 0.25, 21.61 -0.81, 50.1 1.18 M0.03 0.54 C17.17 0.66, 35.33 1.13, 50.96 -0.6" stroke="#279185" stroke-width="2" fill="none"></path></g></g><g stroke-linecap="round"><g transform="translate(50.133042919842865 229.2176654410112) rotate(0 12.292341004259583 -0.20448819417720188)"><path d="M1.28 0.27 C7.1 -0.7, 13.14 1.27, 25.44 -0.68 M-0.86 0.22 C4.51 0.55, 9.58 -0.73, 24.83 -0.38" stroke="#279185" stroke-width="2" fill="none"></path></g></g><g stroke-opacity="0.9" fill-opacity="0.9" transform="translate(300.659912109375 316.38321127967237) rotate(0 30.5 18)"><text x="30.5" y="25" font-family="Virgil, Segoe UI Emoji" font-size="28px" fill="#0b7285" text-anchor="middle" style="white-space: pre;" direction="ltr">*.sql</text></g><g stroke-opacity="0.9" fill-opacity="0.9" transform="translate(10 295.1656209476411) rotate(0 61.5 18)"><text x="61.5" y="25" font-family="Virgil, Segoe UI Emoji" font-size="28px" fill="#087f5b" text-anchor="middle" style="white-space: pre;" direction="ltr">ansilo.yml</text></g><g stroke-linecap="round"><g stroke-opacity="0.9" fill-opacity="0.9" transform="translate(132.108642578125 219.80984702185987) rotate(0 66.69521981813011 13.66062125569539)"><path d="M-0.9 -1.02 C9.98 3.72, 43.84 27.26, 66.37 28.3 C88.9 29.34, 123.09 9.37, 134.29 5.21" stroke="#495057" stroke-width="1.5" fill="none" stroke-dasharray="8 9"></path></g><g stroke-opacity="0.9" fill-opacity="0.9" transform="translate(132.108642578125 219.80984702185987) rotate(0 66.69521981813011 13.66062125569539)"><path d="M134.11 4.48 L125.77 17.11 L120.96 5.11 L135.32 3.38" stroke="none" stroke-width="0" fill="#495057" fill-rule="evenodd"></path><path d="M133.01 4.24 C129.15 10.47, 127.81 14.07, 123.44 15.66 M123.53 17.79 C124.46 12.8, 121.73 11.8, 118.63 4.23 M118.4 6.49 C123.15 5.87, 126.45 5.53, 135.55 4.28 M134.29 5.21 C134.29 5.21, 134.29 5.21, 134.29 5.21" stroke="#495057" stroke-width="1.5" fill="none"></path></g></g><g stroke-linecap="round"><g transform="translate(672.8557429198477 19.815455289809506) rotate(0 -31.846814633684858 110.83625445883976)"><path d="M-0.59 -0.43 C-4.84 -1.34, -18.33 -6.11, -25.31 -6.61 C-32.29 -7.11, -36.86 -4.81, -42.47 -3.45 C-48.08 -2.08, -47.18 2.44, -58.98 1.58 C-70.77 0.72, -98.12 -11.09, -113.26 -8.59 C-128.41 -6.1, -143.72 2.6, -149.84 16.53 C-155.96 30.46, -153.75 55.52, -150.01 75 C-146.26 94.48, -136.02 118.14, -127.37 133.41 C-118.71 148.69, -107.77 166.79, -98.06 166.65 C-88.36 166.52, -76.37 138.11, -69.13 132.61 C-61.89 127.1, -58.15 132.99, -54.61 133.63 C-51.08 134.26, -47.92 134.69, -47.94 136.41 C-47.96 138.13, -52.06 141.71, -54.75 143.95 C-57.44 146.19, -60.14 147.28, -64.1 149.87 C-68.07 152.46, -79.72 157.69, -78.54 159.47 C-77.36 161.25, -63.24 160.49, -57.03 160.56 C-50.82 160.63, -45.48 159.33, -41.28 159.89 C-37.08 160.45, -34.28 156.55, -31.82 163.93 C-29.37 171.3, -29.94 193.03, -26.54 204.16 C-23.13 215.28, -19.66 227.63, -11.4 230.67 C-3.14 233.71, 15.55 227.64, 23.03 222.39 C30.51 217.15, 31.7 209.06, 33.48 199.23 C35.27 189.4, 33.04 171.52, 33.74 163.43 C34.44 155.33, 32.87 152.97, 37.69 150.66 C42.5 148.36, 55.4 151.96, 62.62 149.6 C69.84 147.23, 81.22 139.13, 81.02 136.48 C80.82 133.83, 66.77 135.32, 61.42 133.69 C56.08 132.06, 48.12 133.5, 48.96 126.7 C49.8 119.91, 60.57 105.28, 66.48 92.93 C72.39 80.59, 80.59 66.53, 84.4 52.65 C88.21 38.77, 93.68 19.77, 89.32 9.66 C84.96 -0.45, 68.96 -5.03, 58.25 -8.01 C47.54 -10.99, 34.91 -9.71, 25.05 -8.22 C15.18 -6.72, 3.08 -0.49, -0.95 0.98 M1.31 -1.71 C-2.61 -2.87, -15.73 -8.34, -23.14 -8.44 C-30.54 -8.54, -37.29 -4.19, -43.13 -2.3 C-48.98 -0.42, -46.3 3.9, -58.21 2.86 C-70.13 1.83, -99.05 -10.64, -114.63 -8.5 C-130.21 -6.37, -145.87 1.9, -151.7 15.67 C-157.52 29.44, -153.5 54.62, -149.59 74.12 C-145.68 93.61, -136.62 117.38, -128.26 132.63 C-119.9 147.89, -109.46 165.7, -99.43 165.65 C-89.41 165.59, -75.55 138, -68.11 132.32 C-60.67 126.63, -57.92 130.4, -54.77 131.52 C-51.62 132.65, -49.26 136.61, -49.2 139.05 C-49.14 141.49, -51.8 144.42, -54.4 146.16 C-57.01 147.9, -60.88 147.29, -64.82 149.5 C-68.76 151.71, -79.51 157.43, -78.03 159.41 C-76.55 161.38, -61.89 161.18, -55.95 161.35 C-50.02 161.52, -46.22 159.86, -42.4 160.43 C-38.58 161, -35.98 157.49, -33.03 164.78 C-30.07 172.07, -28.37 193.46, -24.68 204.18 C-21 214.91, -18.74 226.27, -10.89 229.13 C-3.04 231.99, 15.49 226.52, 22.41 221.34 C29.33 216.16, 28.73 207.27, 30.64 198.03 C32.55 188.79, 32.43 173.97, 33.85 165.89 C35.28 157.8, 34.21 152.3, 39.2 149.53 C44.19 146.76, 56.69 151.51, 63.79 149.28 C70.89 147.06, 81.94 138.32, 81.79 136.16 C81.63 134, 68.7 138.08, 62.88 136.33 C57.06 134.58, 46.19 132.71, 46.85 125.66 C47.5 118.62, 60.87 105.9, 66.82 94.07 C72.77 82.24, 78.78 68.45, 82.57 54.68 C86.36 40.91, 93.69 21.71, 89.57 11.47 C85.44 1.24, 68.29 -3.45, 57.81 -6.71 C47.33 -9.98, 36.29 -9.08, 26.7 -8.13 C17.12 -7.17, 4.84 -2.39, 0.27 -0.99" stroke="#1864ab" stroke-width="2" fill="none"></path></g></g><g stroke-linecap="round"><g transform="translate(618.6855417806479 21.449583691923976) rotate(0 0.48977111411716123 78.32942569510791)"><path d="M-0.43 -1.02 C-2.85 1.9, -11.64 8.75, -15.67 16.94 C-19.7 25.12, -23.81 37.21, -24.6 48.09 C-25.39 58.97, -20.19 73.03, -20.43 82.2 C-20.66 91.38, -26.07 97.17, -26.01 103.14 C-25.94 109.12, -23.16 114.07, -20.04 118.05 C-16.92 122.04, -11.78 124.36, -7.3 127.04 C-2.82 129.71, 1.94 132.22, 6.82 134.12 C11.71 136.01, 18.8 136.08, 22 138.43 C25.19 140.78, 26.35 145.18, 26 148.2 C25.65 151.22, 21.29 155.16, 19.91 156.54 M1.54 1.06 C-0.89 3.64, -11.81 7.39, -16.33 14.92 C-20.84 22.45, -24.93 34.85, -25.54 46.26 C-26.15 57.67, -20.24 73.8, -20 83.41 C-19.77 93.02, -23.77 98.36, -24.12 103.92 C-24.47 109.49, -24.49 113.14, -22.11 116.79 C-19.73 120.44, -15.04 122.94, -9.86 125.82 C-4.67 128.7, 3.93 132.17, 9.02 134.08 C14.11 135.99, 17.72 134.49, 20.7 137.3 C23.69 140.11, 27.52 147.53, 26.93 150.93 C26.33 154.33, 18.4 156.81, 17.14 157.68" stroke="#1864ab" stroke-width="2" fill="none"></path></g></g><g stroke-linecap="round"><g transform="translate(671.9438714680555 19.835624146248392) rotate(0 23.63465081985032 62.907764913273)"><path d="M-1.02 0.55 C1.32 1.03, 7.52 -0.68, 13.44 2.39 C19.35 5.47, 29.53 10.89, 34.46 19.02 C39.39 27.16, 41.88 40.43, 43.01 51.21 C44.14 61.98, 40.56 74.13, 41.24 83.65 C41.91 93.17, 46.89 101.58, 47.07 108.33 C47.24 115.08, 43.03 121.25, 42.29 124.14 M0.65 -0.2 C2.89 0.48, 7 0.91, 12.59 3.76 C18.19 6.6, 29.08 8.82, 34.21 16.86 C39.34 24.9, 42.37 40.78, 43.36 52.01 C44.35 63.24, 39.34 74.93, 40.16 84.22 C40.98 93.51, 47.77 100.78, 48.25 107.75 C48.74 114.72, 44.13 123.02, 43.07 126.02" stroke="#1864ab" stroke-width="2" fill="none"></path></g></g><g stroke-linecap="round"><g transform="translate(708.217043389966 173.68654258400665) rotate(0 -4.304177187808932 -54.16972610909143)"><path d="M0.55 0.2 C0.71 -1.84, -0.59 -9.88, 0.47 -13.27 C1.54 -16.66, 4.79 -18.57, 6.94 -20.14 C9.09 -21.71, 13.63 -21.04, 13.39 -22.69 C13.15 -24.34, 7.93 -26.77, 5.5 -30.02 C3.07 -33.27, 1.49 -37.27, -1.2 -42.19 C-3.89 -47.11, -7.35 -51.85, -10.62 -59.53 C-13.89 -67.21, -19.9 -80.34, -20.83 -88.29 C-21.75 -96.23, -20.74 -104.07, -16.18 -107.19 C-11.61 -110.31, 3.15 -107.02, 6.57 -107 M-0.61 -0.74 C-0.61 -3.02, -1.81 -11.88, -0.65 -14.88 C0.51 -17.87, 4.02 -17.06, 6.35 -18.72 C8.68 -20.38, 13.69 -23, 13.34 -24.85 C12.98 -26.71, 6.93 -26.81, 4.21 -29.85 C1.48 -32.89, -0.55 -37.98, -2.99 -43.1 C-5.42 -48.22, -7.33 -53.03, -10.41 -60.57 C-13.49 -68.12, -20.27 -80.9, -21.48 -88.38 C-22.69 -95.85, -21.98 -102.24, -17.69 -105.4 C-13.4 -108.55, 0.62 -107.21, 4.25 -107.3" stroke="#1864ab" stroke-width="2" fill="none"></path></g></g><g stroke-linecap="round"><g transform="translate(595.2013381779719 81.33721839869582) rotate(0 19.542954243340148 31.689667357629048)"><path d="M0.2 -0.33 C2.65 -1.45, 8.9 -4.75, 13.7 -6.15 C18.5 -7.56, 24.86 -10.67, 29 -8.75 C33.13 -6.82, 37.12 -1.4, 38.51 5.4 C39.9 12.19, 38.33 24.63, 37.33 32.02 C36.34 39.42, 33.82 42.99, 32.56 49.78 C31.3 56.57, 30.26 68.98, 29.78 72.74 M-1.16 -1.55 C1.31 -3.09, 8.35 -7.07, 13.26 -8.1 C18.18 -9.13, 24.01 -10.2, 28.33 -7.73 C32.64 -5.27, 37.32 -0.09, 39.15 6.68 C40.98 13.44, 40.14 25.33, 39.3 32.87 C38.46 40.42, 35.53 45.48, 34.1 51.96 C32.67 58.44, 31.59 68.4, 30.73 71.77" stroke="#1864ab" stroke-width="2" fill="none"></path></g></g><g stroke-linecap="round"><g transform="translate(699.3144372266693 71.4452869345352) rotate(358.18735542929625 0.05389880411530612 4.275599158971971)"><path d="M-0.33 0.98 C-1.41 1.52, -5.92 2.21, -5.91 3.45 C-5.89 4.69, -2.28 8.85, -0.23 8.43 C1.83 8.01, 6.22 2.28, 6.41 0.91 C6.59 -0.45, 2.08 0.3, 0.88 0.25 M1.7 0.45 C0.44 1.19, -6.18 4.08, -6.68 5.09 C-7.18 6.09, -3.55 7.03, -1.29 6.48 C0.96 5.93, 6.64 2.75, 6.83 1.79 C7.02 0.84, 0.98 1.09, -0.13 0.77" stroke="#1864ab" stroke-width="2" fill="none"></path></g></g><g stroke-linecap="round"><g transform="translate(618.6345358088416 78.16337305897576) rotate(14.802012269513854 -0.01117643568687754 4.094069732933974)"><path d="M0.98 0.34 C-0.09 0.81, -6.05 1.32, -6.21 2.53 C-6.38 3.73, -1.76 6.83, -0.02 7.56 C1.73 8.29, 3.1 8.27, 4.26 6.91 C5.42 5.55, 7.54 0.44, 6.93 -0.6 C6.32 -1.63, 1.65 0.56, 0.58 0.71 M0.03 -0.53 C-1.19 0.13, -6.99 2.17, -7.06 3.76 C-7.13 5.36, -2.28 8.88, -0.39 9.05 C1.5 9.23, 3.28 6.43, 4.28 4.81 C5.28 3.2, 6.53 0.15, 5.59 -0.64 C4.65 -1.44, -0.66 0.09, -1.36 0.05" stroke="#1864ab" stroke-width="2" fill="none"></path></g></g><g stroke-linecap="round"><g stroke-opacity="0.9" fill-opacity="0.9" transform="translate(400.61865234375 214.54165854529737) rotate(0 64.06895168088374 -31.65330952070653)"><path d="M0.78 0.4 C8.38 -8.05, 24.24 -41, 45.34 -51.68 C66.44 -62.36, 113.66 -61.66, 127.36 -63.7" stroke="#495057" stroke-width="1.5" fill="none" stroke-dasharray="8 9"></path></g><g stroke-opacity="0.9" fill-opacity="0.9" transform="translate(400.61865234375 214.54165854529737) rotate(0 64.06895168088374 -31.65330952070653)"><path d="M127.15 -64.06 L113.6 -57.82 L111.9 -70.76 L125.7 -63.13" stroke="none" stroke-width="0" fill="#495057" fill-rule="evenodd"></path><path d="M127.86 -63.33 C124.76 -61.08, 120.29 -58.8, 114.19 -55.24 M113.94 -55.76 C113.52 -58.96, 114.08 -63.52, 112.78 -70.04 M113.71 -70.41 C118.42 -68.3, 121.32 -65.26, 126.85 -64.63 M127.36 -63.7 C127.36 -63.7, 127.36 -63.7, 127.36 -63.7" stroke="#495057" stroke-width="1.5" fill="none"></path></g></g></svg>